<svg xmlns="http://www.w3.org/2000/svg" width="16" height="20" viewBox="0 0 16 20">
    <path d="M14.7 7.7C14.7 9.5 14 11.2 12.8 12.4 12 13.2 11.5 14.2 11.5 15.3L11.5 16.4 4.6 16.4 4.6 15.3C4.6 14.2 4.1 13.2 3.4 12.4 1.9 10.9 1.1 8.8 1.5 6.6 2 3.7 4.4 1.4 7.3 1.1 11.3 0.6 14.7 3.8 14.7 7.7Z" fill="#ffcc36"/>
    <path d="M11.5 16.4L11.5 17.6C11.5 18.5 10.8 19.2 9.9 19.2L6.2 19.2C5.3 19.2 4.6 18.5 4.6 17.6L4.6 16.4 11.5 16.4Z" fill="#006EE8"/>
    <path d="M5.2 12.4C3.7 10.9 2.9 8.8 3.3 6.6 3.8 3.7 6.1 1.5 9 1.1 8.4 1 7.9 1 7.3 1.1 4.4 1.4 2 3.7 1.5 6.6 1.1 8.8 1.9 10.9 3.4 12.4 4.1 13.2 4.6 14.2 4.6 15.3L4.6 16.4 6.4 16.4 6.4 15.3C6.4 14.2 6 13.2 5.2 12.4Z" fill="#D5DBE1"/>
    <path d="M6.4 17.6L6.4 16.4 4.6 16.4 4.6 17.6C4.6 18.5 5.3 19.2 6.2 19.2L8 19.2C7.2 19.2 6.4 18.5 6.4 17.6Z" fill="#689FFF"/>
    <path d="M11.5 17L4.6 17C4.3 17 4 16.7 4 16.4 4 16 4.3 15.7 4.6 15.7L11.5 15.7C11.8 15.7 12.1 16 12.1 16.4 12.1 16.7 11.8 17 11.5 17Z"/>
    <path d="M6.2 19.8L9.9 19.8C11.1 19.8 12.1 18.8 12.1 17.6L12.1 15.3C12.1 14.4 12.5 13.5 13.2 12.8 14.6 11.4 15.3 9.6 15.3 7.7 15.3 5.6 14.4 3.7 12.9 2.3 11.4 0.9 9.3 0.2 7.2 0.5 4.1 0.8 1.4 3.3 0.9 6.5 0.5 8.8 1.3 11.1 2.9 12.8 3.6 13.5 4 14.4 4 15.3L4 17.6C4 18.8 5 19.8 6.2 19.8ZM7.4 1.7C7.6 1.6 7.8 1.6 8.1 1.6 9.6 1.6 11 2.2 12.1 3.2 13.4 4.3 14.1 6 14.1 7.7 14.1 9.3 13.5 10.8 12.3 12 11.4 12.9 10.9 14.1 10.9 15.3L10.9 17.6C10.9 18.1 10.5 18.6 9.9 18.6L6.2 18.6C5.7 18.6 5.2 18.1 5.2 17.6L5.2 15.3C5.2 14.1 4.7 12.9 3.8 12 2.4 10.6 1.8 8.6 2.1 6.7 2.5 4.1 4.7 2 7.4 1.7Z" fill="#021431"/>
    <path d="M7.5 10.9C7.4 10.9 7.4 10.9 7.3 10.9 7 10.8 6.8 10.5 6.9 10.2L8.1 4.9C8.2 4.6 8.5 4.4 8.8 4.5 9.1 4.5 9.3 4.9 9.3 5.2L8 10.4C8 10.7 7.7 10.9 7.5 10.9Z"/>
    <path d="M10.7 10.1C10.5 10.1 10.4 10 10.2 9.9 10 9.7 10 9.3 10.3 9L11.8 7.7 10.3 6.3C10 6.1 10 5.7 10.2 5.5 10.5 5.2 10.8 5.2 11.1 5.4L13.1 7.2C13.2 7.3 13.3 7.5 13.3 7.7 13.3 7.9 13.2 8 13.1 8.1L11.1 9.9C11 10.1 10.8 10.1 10.7 10.1Z"/>
    <path d="M5.4 10.1C5.3 10.1 5.2 10.1 5 9.9L3 8.1C2.9 8 2.8 7.9 2.8 7.7 2.8 7.5 2.9 7.3 3 7.2L5 5.4C5.3 5.2 5.7 5.2 5.9 5.5 6.1 5.7 6.1 6.1 5.8 6.3L4.3 7.7 5.8 9C6.1 9.3 6.1 9.7 5.9 9.9 5.8 10 5.6 10.1 5.4 10.1Z"/>
</svg>