<svg xmlns="http://www.w3.org/2000/svg" width="22" height="22">
    <path d="M21 2.8v12c0 1-.8 1.8-1.8 1.8H9L4.6 21v-4.4H2.8c-1 0-1.8-.8-1.8-1.8v-12C1 1.8 1.8 1 2.8 1h16.4c1 0 1.8.8 1.8 1.8Z" fill="#EFEFEF" />
    <path d="M7.3 12c-.1 0-.3-.1-.4-.2L4.2 9.5C4.1 9.4 4 9.2 4 9s.1-.4.2-.5l2.7-2.3c.3-.3.7-.2.9 0 .3.3.2.8 0 1L5.7 9l2.1 1.8c.2.2.3.7 0 1-.1.1-.3.2-.5.2ZM13.7 12c-.2 0-.4-.1-.5-.2-.3-.3-.2-.8 0-1L15.3 9l-2.1-1.8c-.2-.2-.3-.7 0-1 .2-.2.6-.3.9 0l2.7 2.3c.1.1.2.3.2.5s-.1.4-.2.5l-2.7 2.3c-.1.1-.3.2-.4.2ZM9.6 13h-.1c-.4-.1-.6-.5-.5-.9l1.7-6.6c.1-.4.5-.6.8-.5.4.1.6.5.5.9l-1.7 6.6c-.1.3-.4.5-.7.5Z" class="a" />
    <path d="M7 19v-2.4H5.1c-1.1 0-1.9-.8-1.9-1.8v-12C3.2 1.8 4 1 5.1 1H2.9C1.9 1 1 1.8 1 2.8v12c0 1 .9 1.8 1.9 1.8h1.9V21L7 19Z" fill="#D5DBE1" />
    <path d="M4.1 21.9c.1.1.2.1.3.1.1 0 .3-.1.4-.2l4.4-4.4h10.3c1.4 0 2.5-1.1 2.5-2.5V2.5C22 1.1 20.9 0 19.5 0h-17C1.1 0 0 1.1 0 2.5v12.4c0 1.4 1.1 2.5 2.5 2.5h1.2v3.9c0 .3.1.5.4.6ZM1.4 2.5c0-.6.5-1.1 1.1-1.1h17c.6 0 1.1.5 1.1 1.1v12.4c0 .6-.5 1.1-1.1 1.1H8.9c-.1 0-.3.1-.4.2L5 19.7v-3c0-.4-.3-.7-.6-.7H2.5c-.6 0-1.1-.5-1.1-1.1V2.5Z" class="a" />
</svg>