<svg xmlns="http://www.w3.org/2000/svg" width="72" height="71"><path d="m7.3868596.9038696 63.51701.05953-.0431 42.81427-6.3473 3.8864-39.2963-.0369-16.18537 10.942.01087-10.7719-8.1388-.0074.0410271-40.77572 6.4419629-6.11028Z" fill="#05142F"/><g fill="none" stroke="#05142F" stroke-width=".5445"><path d="m7.3602996.9038696 63.25687.0600763-.043 43.2071237-6.3213 3.9221-39.1353-.0372-16.11906 11.0424.01082-10.8708-8.10546-.0075.0408591-41.14984 6.4155709-6.16636Z"/><path d="m7.4811707.9038696 60.9574189.0593772-.0413 42.8838228-38.7466-.0376-15.92631 10.9782.01068-10.9938-6.29557-.0062.0416811-42.8838Z"/></g><path d="M7.775136.9038696 69.1965376.963676l-.0416 43.1937936-39.0415-.0379-16.04757 11.0575.01076-11.0732-6.34349-.0062.0419984-43.1938Z" fill="#FFF"/><g stroke-width=".5445"><path d="m39.7667096 11.2933335-.0045 4.6681661-7.1932-.00709-.0153 15.84802-.0028 2.8916-5.23157-.0053.01807-18.73964-7.8474-.0078.00451659-4.66816 20.27218341.0202039Z" fill="#05142F" stroke="#05142F"/><path d="m39.949418 11.2731296 18.5072516.0182377-.0042 4.0501923-13.40168-.01323-.00489 5.39978 11.48707.0118-.0038 4.04982-11.48712-.0114-.00977 10.1251-5.10521-.005.0223484-23.6253Z" fill="#006EE8" stroke="#006EE8"/></g><path d="M.9038696 67.4892296h29.2174v1.70731h-29.2174v-1.70731Z" fill="#021431"/></svg>