<svg xmlns="http://www.w3.org/2000/svg" width="16" height="20"><path d="M14.7 7.7c0 1.8-.7 3.5-1.9 4.7-.8.8-1.3 1.8-1.3 2.9v1.1H4.6v-1.1c0-1.1-.5-2.1-1.2-2.9-1.5-1.5-2.3-3.6-1.9-5.8.5-2.9 2.9-5.2 5.8-5.5 4-.5 7.4 2.7 7.4 6.6Z" fill="#EFEFEF"/><path d="M11.5 16.4v1.2c0 .9-.7 1.6-1.6 1.6H6.2c-.9 0-1.6-.7-1.6-1.6v-1.2h6.9Z" fill="#006EE8"/><path d="M5.2 12.4c-1.5-1.5-2.3-3.6-1.9-5.8.5-2.9 2.8-5.1 5.7-5.5-.6-.1-1.1-.1-1.7 0-2.9.3-5.3 2.6-5.8 5.5-.4 2.2.4 4.3 1.9 5.8.7.8 1.2 1.8 1.2 2.9v1.1h1.8v-1.1c0-1.1-.4-2.1-1.2-2.9Z" fill="#D5DBE1"/><path d="M6.4 17.6v-1.2H4.6v1.2c0 .9.7 1.6 1.6 1.6H8c-.8 0-1.6-.7-1.6-1.6Z" fill="#689FFF"/><path d="M11.5 17H4.6c-.3 0-.6-.3-.6-.6 0-.4.3-.7.6-.7h6.9c.3 0 .6.3.6.7 0 .3-.3.6-.6.6Z"/><path d="M6.2 19.8h3.7c1.2 0 2.2-1 2.2-2.2v-2.3c0-.9.4-1.8 1.1-2.5 1.4-1.4 2.1-3.2 2.1-5.1 0-2.1-.9-4-2.4-5.4C11.4.9 9.3.2 7.2.5 4.1.8 1.4 3.3.9 6.5c-.4 2.3.4 4.6 2 6.3.7.7 1.1 1.6 1.1 2.5v2.3c0 1.2 1 2.2 2.2 2.2ZM7.4 1.7c.2-.1.4-.1.7-.1 1.5 0 2.9.6 4 1.6 1.3 1.1 2 2.8 2 4.5 0 1.6-.6 3.1-1.8 4.3-.9.9-1.4 2.1-1.4 3.3v2.3c0 .5-.4 1-1 1H6.2c-.5 0-1-.5-1-1v-2.3c0-1.2-.5-2.4-1.4-3.3-1.4-1.4-2-3.4-1.7-5.3.4-2.6 2.6-4.7 5.3-5Z" fill="#021431"/><path d="M7.5 10.9h-.2c-.3-.1-.5-.4-.4-.7l1.2-5.3c.1-.3.4-.5.7-.4.3 0 .5.4.5.7L8 10.4c0 .3-.3.5-.5.5ZM10.7 10.1c-.2 0-.3-.1-.5-.2-.2-.2-.2-.6.1-.9l1.5-1.3-1.5-1.4c-.3-.2-.3-.6-.1-.8.3-.3.6-.3.9-.1l2 1.8c.1.1.2.3.2.5s-.1.3-.2.4l-2 1.8c-.1.2-.3.2-.4.2ZM5.4 10.1c-.1 0-.2 0-.4-.2L3 8.1c-.1-.1-.2-.2-.2-.4s.1-.4.2-.5l2-1.8c.3-.2.7-.2.9.1.2.2.2.6-.1.8L4.3 7.7 5.8 9c.3.3.3.7.1.9-.1.1-.3.2-.5.2Z"/></svg>