<svg xmlns="http://www.w3.org/2000/svg" width="21" height="20"><path d="M5.178834 15.23064c2.01845 0 3.65473-1.63628 3.65473-3.65473 0-2.01846-1.63628-3.65474-3.65473-3.65474-2.01846 0-3.65474 1.63628-3.65474 3.65474 0 2.01845 1.63628 3.65473 3.65474 3.65473Z" fill="#B8BBBF"/><path d="M17.97041 19.08842c1.00923 0 1.82737-.81814 1.82737-1.82737 0-1.009229-.81814-1.82737-1.82737-1.82737-1.009229 0-1.82737.818141-1.82737 1.82737 0 1.00923.818141 1.82737 1.82737 1.82737ZM17.15824 6.0937968c1.45778 0 2.63953-1.18175 2.63953-2.63953 0-1.45777-1.18175-2.63953-2.63953-2.63953-1.45777 0-2.63953 1.18176-2.63953 2.63953 0 1.45778 1.18176 2.63953 2.63953 2.63953Z" fill="#F3F3F1"/><path d="M3.351464 11.57591c0-1.70067 1.16708-3.1179 2.74105-3.525606-.294-.0763434-.59613-.129134-.91368-.129134-2.01823 0-3.65474 1.63651-3.65474 3.65474 0 2.01822 1.63651 3.65473 3.65474 3.65473.31755 0 .61968-.05279.91368-.12913-1.57397-.40771-2.74105-1.82493-2.74105-3.5256Z" fill="#616978"/><path d="M17.97041 17.26105c0-.67491.36953-1.257231.91368-1.573975-.26964-.1567475-.57907-.253395-.91368-.253395-1.009521 0-1.82737.817849-1.82737 1.82737 0 1.00952.817849 1.82737 1.82737 1.82737.33461 0 .64404-.09665.91368-.2534-.54415-.31674-.91368-.89906-.91368-1.57397ZM16.34608 3.4542668c0-1.1354.72039-2.094568 1.72585-2.467351-.28588-.1063937-.59126-.172179-.91369-.172179-1.45783 0-2.63953 1.1817-2.63953 2.63953 0 1.45784 1.1817 2.63953 2.63953 2.63953.32243 0 .62781-.06659.91369-.17217-1.00546-.37279-1.72585-1.33195-1.72585-2.46736Z" fill="#D5DBE1"/><path d="M.9149708 11.575907c0 2.35121 1.91265 4.26386 4.26386 4.26386s4.26386-1.91265 4.26386-4.26386-1.91265-4.26386-4.26386-4.26386-4.26386 1.91265-4.26386 4.26386Zm1.21825 0c0-1.67955 1.36687-3.04561 3.04561-3.04561s3.04561 1.36606 3.04561 3.04561c0 1.67955-1.36687 3.04561-3.04561 3.04561s-3.04561-1.36606-3.04561-3.04561ZM15.53392 17.26105c0 1.34332 1.09317 2.43649 2.43649 2.43649s2.43649-1.09317 2.43649-2.43649-1.09317-2.43649-2.43649-2.43649-2.43649 1.09317-2.43649 2.43649Zm1.21825 0c0-.67166.54658-1.21824 1.21824-1.21824s1.21825.54658 1.21825 1.21824-.54659 1.21825-1.21825 1.21825-1.21824-.54659-1.21824-1.21825ZM13.90959 3.454274c0 1.79163 1.45702 3.24865 3.24866 3.24865 1.79163 0 3.24865-1.45702 3.24865-3.24865 0-1.79164-1.45702-3.24866-3.24865-3.24866-1.79164 0-3.24866 1.45702-3.24866 3.24866Zm1.21825-.00001c0-1.11916.91043-2.0304 2.0304-2.0304 1.11998 0 2.03041.91124 2.03041 2.0304 0 1.11917-.91043 2.03041-2.03041 2.03041-1.11997 0-2.0304-.91124-2.0304-2.03041Z" fill-rule="evenodd"/><path d="m7.817044 8.946807 6.8122874-4.54494858.67619932 1.01353493-6.8122874 4.54494858L7.817044 8.946807ZM8.244267 13.66472l.4884684-1.11593567 7.80558597 3.41666833-.4884684 1.11593567L8.244267 13.66472Z"/></svg>