<svg xmlns:xlink="http://www.w3.org/1999/xlink" xmlns="http://www.w3.org/2000/svg" width="28px" height="18px" viewBox="0 0 28 18" version="1.1">
  <desc>Created with Lunacy</desc>
  <g id="Group">
    <path d="M26.8 15.5L19.6 11.9L19.6 14.9C19.6 16.4 18.4 17.6 16.9 17.6L2.7 17.6C1.2 17.6 0 16.4 0 14.9L0 2.7C0 1.2 1.2 0 2.7 0L17 0C18.5 0 19.7 1.2 19.7 2.7L19.7 5.7L26.9 2.1C27 2 27.1 2 27.2 2C27.3 2 27.4 2 27.5 2.1C27.7 2.3 27.8 2.5 27.8 2.7L27.8 14.9C27.8 15 27.7 15.1 27.7 15.2C27.6 15.5 27.3 15.6 27.1 15.6C27 15.6 26.9 15.5 26.8 15.5ZM16.9 16.3C17.7 16.3 18.3 15.7 18.3 14.9L18.3 2.7C18.3 1.9 17.7 1.3 16.9 1.3L2.7 1.3C1.9 1.3 1.3 1.9 1.3 2.7L1.3 14.9C1.3 15.7 1.9 16.3 2.7 16.3L16.9 16.3ZM19.6 7.2L26.4 3.8L26.4 13.9L19.8 10.6L19.6 10.5L19.6 7.2Z" id="Shape" fill="#021431" fill-rule="evenodd" stroke="none"/>
    <path d="M1.1 1.1C1.7 0.4 2.7 0 3.7 0C5.8 0 7.4 1.7 7.4 3.7C7.4 4.7 7 5.6 6.3 6.3C5.7 7 4.7 7.4 3.7 7.4C2.7 7.4 1.8 7 1.1 6.3C0.4 5.7 0 4.7 0 3.7C0 2.7 0.4 1.8 1.1 1.1ZM1.3 3.7C1.3 5 2.4 6.1 3.7 6.1C5 6.1 6.1 5.1 6.1 3.7C6.1 2.4 5 1.3 3.7 1.3C2.4 1.3 1.3 2.4 1.3 3.7Z" transform="translate(6.099976 5.100098)" id="Shape" fill="#021431" fill-rule="evenodd" stroke="none"/>
  </g>
</svg>