<svg xmlns="http://www.w3.org/2000/svg" width="18" height="18"><path d="M16.306 11.031388c-.2431 0-.44.19697-.44.44v3.90677c-.0009.7287-.5913 1.3193-1.32 1.32H2.2c-.72875-.0007-1.319141-.5913-1.32-1.32v-11.466c.000859-.72858.59125-1.319141 1.32-1.32h3.90672c.24303 0 .44-.196969.44-.44 0-.242859-.19697-.44-.44-.44H2.2c-1.214469.001375-2.198625.985531-2.2 2.2v11.4661c.001375 1.2145.985531 2.1986 2.2 2.2h12.346c1.2144-.0014 2.1986-.9855 2.2-2.2v-3.90687c0-.24303-.197-.44-.44-.44Z"/><path d="M16.571554.579949c-.7732-.773265-2.0269-.773265-2.80017 0L5.921514 8.42982c-.0538.0538-.09264.12049-.11292.19371L4.77631 12.3503c-.0424531.1528.0006875.3164.11275.4286.112234.1121.275859.1553.428656.113l3.726768-1.0325c.07322-.0203.1399-.0591.1937-.1129l7.84967-7.85005c.7721-.77378.7721-2.02641 0-2.80019l-.5163-.516311Zm-.5725 3.160951.4666-.46664c.4289-.42986.4289-1.12578 0-1.55581l-.5164-.51631c-.4296-.429519-1.126-.429519-1.55551 0l-.46681.46664 2.07212 2.07212Zm-2.69431-1.44976-6.42451 6.42468 2.07178 2.07198 6.42464-6.42471-2.07191-2.07195Zm-6.83839 7.25518 1.65533 1.65548-2.28972.6344.63439-2.28988Z" fill-rule="evenodd"/></svg>