<?xml version="1.0" encoding="utf-8"?>
<svg width="46px" height="62px" viewBox="0 0 46 62" version="1.1" xmlns:xlink="http://www.w3.org/1999/xlink" xmlns="http://www.w3.org/2000/svg">
  <desc>Created with Lunacy</desc>
  <g id="023-man-3">
    <path d="M7.17128 1.10571C3.06584 1.65438 0 5.15738 0 9.3L0 20.6667L15.5 20.6667L15.5 0L7.17128 1.10571Z" transform="translate(1.033203 41.33328)" id="Path" fill="#2E6AA3" stroke="none" />
    <path d="M0 7.1507L0 18.5174L4.13328 18.5174L4.13328 0C1.57785 1.47565 0.00314843 4.2005 0 7.1507Z" transform="translate(1.033203 43.39999)" id="Path" fill="#245E8F" stroke="none" />
    <path d="M15.5 9.3C15.5 5.15738 12.4341 1.65438 8.3287 1.10571L0 0L0 20.6667L15.5 20.6667L15.5 9.3Z" transform="translate(28.93286 41.33328)" id="Path" fill="#2E6AA3" stroke="none" />
    <path d="M0 0L0 15.7687L12.4 15.7687L12.4 0C8.85364 3.1155 3.54635 3.1155 0 0Z" transform="translate(16.5332 46.23126)" id="Path" fill="#EBEBEB" stroke="none" />
    <path d="M12.4 0L0 0L0 10.0647C3.54635 13.1802 8.85364 13.1802 12.4 10.0647L12.4 0L12.4 0Z" transform="translate(16.5332 36.16672)" id="Path" fill="#FEDAC6" stroke="none" />
    <path d="M4.13329 2.06671C2.60497 1.73394 1.18417 1.023 0 0L0 15.7377L4.13329 15.7377L4.13329 2.06671Z" transform="translate(16.5332 46.26227)" id="Path" fill="#DBDBDB" stroke="none" />
    <path d="M12.4 5.72471L12.4 0L0 0L0 5.72471C3.74276 8.26671 8.65723 8.26671 12.4 5.72471Z" transform="translate(16.5332 36.1666)" id="Path" fill="#F5C4B0" stroke="none" />
    <path d="M0 0L4.13329 0L4.13329 5.16671L0 5.16671L0 0Z" transform="translate(5.16626 56.83328)" id="Rectangle" fill="#FEDAC6" stroke="none" />
    <path d="M0 0L4.13328 0L4.13328 5.16671L0 5.16671L0 0Z" transform="translate(1.033203 56.83328)" id="Rectangle" fill="#F5C4B0" stroke="none" />
    <g id="Group" transform="translate(33.06641 17.56668)">
      <path d="M0 0L8.2667 0L8.2667 5.1667L0 5.1667L0 0Z" transform="translate(3.100023 39.26648)" id="Rectangle" fill="#FEDAC6" stroke="none" />
      <path d="M2.06671 0L0 0L0 6.19998L2.06671 6.19998C3.77897 6.19998 5.1667 4.81225 5.1667 3.09999C5.1667 1.38773 3.77897 0 2.06671 0Z" id="Path" fill="#FEDAC6" stroke="none" />
    </g>
    <path d="M3.1 0C1.38773 0 0 1.38773 0 3.1C0 4.81226 1.38773 6.2 3.1 6.2L5.1667 6.2L5.1667 0L3.1 0Z" transform="translate(7.233398 17.56668)" id="Path" fill="#F5C4B0" stroke="none" />
    <path d="M20.6667 0C18.9565 1.71226 16.183 1.71432 14.4708 0.00411718C14.4687 0.00205859 14.4676 0.000968748 14.4667 0L14.4667 0C12.7565 1.71226 9.98306 1.71432 8.2708 0.00411718C8.26874 0.00205859 8.26765 0.000968748 8.26669 0L8.26669 0C6.55648 1.71226 3.78308 1.71432 2.07082 0.00411718C2.06876 0.00205859 2.06767 0.000968748 2.0667 0L0 6.19999L0.888705 18.6C0.983763 19.9485 1.51694 21.2297 2.4077 22.2477L6.19998 26.5979C7.50307 28.088 9.38789 28.9405 11.3667 28.9332L11.3667 28.9332C13.3455 28.9405 15.2303 28.088 16.5334 26.5979L20.3464 22.2372C21.2278 21.2195 21.7537 19.9433 21.8447 18.6L22.7334 6.19999L20.6667 0Z" transform="translate(11.36646 11.3667)" id="Path" fill="#FEDAC6" stroke="none" />
    <path d="M6.2 16.275L6.2 1.147C4.71611 1.51791 3.14759 1.08185 2.06671 0L0 6.19999L0.888707 18.6C0.983765 19.9485 1.51694 21.2297 2.40771 22.2477L6.2 26.5979C7.44617 28.0239 9.22661 28.8692 11.1187 28.9332L7.7707 22.6195C6.73741 20.6645 6.19794 18.4863 6.2 16.275Z" transform="translate(11.36646 11.3667)" id="Path" fill="#F5C4B0" stroke="none" />
    <path d="M33.015 14.4666C33.0067 13.1594 32.18 11.9989 30.9483 11.5629C32.1986 10.3931 32.2637 8.43077 31.0939 7.18157C30.5194 6.56775 29.7217 6.2144 28.8816 6.19987L28.6853 6.19987C28.8113 5.87025 28.8774 5.51993 28.8816 5.16658C28.8795 3.45431 27.4907 2.06767 25.7784 2.06973C25.3827 2.06973 24.9911 2.14614 24.6242 2.294C24.2615 0.946588 23.0432 0.00823436 21.6482 0C20.6076 0.00205859 19.6373 0.525909 19.0649 1.395C18.1183 -0.0320898 16.1942 -0.421648 14.7682 0.52494C14.4231 0.754292 14.1275 1.04988 13.8982 1.395C13.3258 0.525909 12.3555 0.00205859 11.3149 0C9.9199 0.00823436 8.70158 0.946588 8.3389 2.294C6.75064 1.65438 4.94441 2.42417 4.30576 4.01243C4.15803 4.37923 4.0815 4.77084 4.0815 5.1667C4.08561 5.52005 4.15173 5.87037 4.27779 6.19999L4.08174 6.19999C2.36948 6.22893 1.00548 7.63943 1.03345 9.3506C1.04786 10.1907 1.40134 10.9884 2.01516 11.563C0.411396 12.1623 -0.402836 13.9489 0.197545 15.5526C0.511662 16.3928 1.17513 17.0561 2.01516 17.3703C2.57631 16.8444 3.31304 16.5467 4.08186 16.5333L5.11515 16.5333L7.18185 10.3333C8.89206 12.0455 11.6655 12.0476 13.3777 10.3374C13.3798 10.3353 13.3809 10.3342 13.3818 10.3333C15.092 12.0455 17.8654 12.0476 19.5777 10.3374C19.5798 10.3353 19.5809 10.3342 19.5818 10.3333C21.292 12.0455 24.0654 12.0476 25.7777 10.3374C25.7798 10.3353 25.7808 10.3342 25.7818 10.3333L27.8485 16.5333L28.8818 16.5333C29.6506 16.5467 30.3874 16.8444 30.9485 17.3703C32.18 16.9342 33.0067 15.7738 33.015 14.4666Z" transform="translate(6.251465 1.033386)" id="Path" fill="#A15D30" stroke="none" />
    <path d="M11.315 0C9.92001 0.00823436 8.70169 0.946588 8.33902 2.294C6.75076 1.65438 4.94453 2.42417 4.30588 4.01243C4.15815 4.37923 4.08162 4.77084 4.08162 5.1667C4.08573 5.52005 4.15185 5.87037 4.27791 6.19999L4.08174 6.19999C2.36948 6.22893 1.00548 7.63943 1.03345 9.3506C1.04786 10.1907 1.40133 10.9884 2.01516 11.563C0.411396 12.1623 -0.402836 13.9489 0.197545 15.5526C0.511661 16.3928 1.17513 17.0561 2.01516 17.3703C2.5763 16.8444 3.31304 16.5467 4.08186 16.5333L5.11515 16.5333L7.18185 10.3333C8.24202 11.3925 9.77143 11.8336 11.2325 11.501C11.1716 7.90087 12.0292 4.3452 13.7228 1.1677C13.1378 0.433999 12.2534 0.00520702 11.315 0Z" transform="translate(6.251465 1.033295)" id="Path" fill="#8F4F24" stroke="none" />
    <path d="M4.13246 8.41334L1.03247 8.41334C0.732759 8.41334 0.448674 8.28317 0.25226 8.05684C0.0559671 7.83052 -0.0319468 7.52984 0.0104359 7.23329L1.04373 0L3.08863 0.292441L2.22378 6.34676L4.13234 6.34676L4.13234 8.41334L4.13246 8.41334Z" transform="translate(19.63403 18.45334)" id="Path" fill="#000000" stroke="none" />
    <path d="M0.175707 3.83165L0 3.83165L0 1.76494L0.175707 1.76494C1.78456 1.76385 3.29738 1.13768 4.43615 0L5.89726 1.46221C4.36894 2.98944 2.33747 3.83056 0.175707 3.83165Z" transform="translate(20.6665 27.16833)" id="Path" fill="#000000" stroke="none" />
    <path d="M1.03329 8.26682L0 8.26682L0 6.20012L1.03329 6.20012C2.17303 6.20012 3.1 5.27327 3.1 4.13341C3.1 2.99368 2.17315 2.06671 1.03329 2.06671L0 2.06671L0 0L1.03329 0C3.31288 0 5.16658 1.85382 5.16658 4.13329C5.16658 6.41276 3.31288 8.26682 1.03329 8.26682Z" transform="translate(34.09985 16.53317)" id="Path" fill="#000000" stroke="none" />
    <path d="M5.16658 8.26658L4.13329 8.26658C1.8537 8.26658 0 6.41276 0 4.13329C0 1.85382 1.85382 0 4.13329 0L5.16658 0L5.16658 2.06658L4.13329 2.06658C2.99356 2.06658 2.06658 2.99344 2.06658 4.13329C2.06658 5.27302 2.99344 6.2 4.13329 6.2L5.16658 6.2L5.16658 8.26658L5.16658 8.26658Z" transform="translate(6.199951 16.53342)" id="Path" fill="#000000" stroke="none" />
    <path d="M2.72337 19.3957C1.57019 18.9772 0.668046 18.075 0.248578 16.9209C-0.37142 15.2138 0.207285 13.359 1.55166 12.2823C1.24481 11.7067 1.07226 11.0609 1.06087 10.4016C1.04222 9.29792 1.45564 8.25228 2.22337 7.45972C2.75037 6.91517 3.40028 6.53384 4.11328 6.34167C4.11013 6.29832 4.10916 6.25484 4.10916 6.21149C4.10916 5.67008 4.21039 5.15229 4.40778 4.6615C4.8201 3.63644 5.60648 2.83359 6.62221 2.40056C7.31656 2.104 8.06371 2.00688 8.79221 2.10497C9.50932 0.838088 10.8661 0.00823436 12.3695 0C13.3316 0.00205859 14.2398 0.330706 14.9622 0.91244C15.0572 0.836998 15.1554 0.764706 15.2578 0.697499C16.1784 0.0868241 17.281 -0.129207 18.363 0.0909412C19.0171 0.223175 19.6174 0.505323 20.1247 0.91135C20.846 0.329617 21.7522 0.00205859 22.708 0C24.2188 0.00823436 25.5776 0.838088 26.2947 2.10594C26.4745 2.0822 26.6564 2.06973 26.8393 2.06973C26.8403 2.06973 26.8413 2.06973 26.8424 2.06973C29.1198 2.06973 30.9736 3.92149 30.9768 6.1989C30.9757 6.24855 30.9747 6.29711 30.9727 6.34663C31.7105 6.54704 32.3842 6.94907 32.9091 7.50913C33.6634 8.31513 34.0592 9.36707 34.023 10.4707C34.0013 11.1155 33.8339 11.7335 33.5373 12.2853C34.1222 12.7534 34.5747 13.3776 34.8372 14.0999C35.6143 16.243 34.5045 18.6186 32.3614 19.3957L31.6566 17.453C32.7272 17.0644 33.282 15.8761 32.8934 14.8045C32.6847 14.2279 32.2322 13.7763 31.6555 13.5677C31.3186 13.4448 31.0686 13.1554 30.9963 12.8041C30.924 12.4517 31.0396 12.0879 31.3022 11.842C31.7062 11.4648 31.9377 10.9533 31.9563 10.4016C31.9749 9.84975 31.7765 9.32384 31.3994 8.92084C31.0192 8.51469 30.4808 8.27602 29.9248 8.26669L29.7461 8.26669C29.4062 8.26669 29.0878 8.09934 28.8957 7.81925C28.7014 7.53916 28.659 7.18169 28.782 6.86443C28.8647 6.64852 28.907 6.42014 28.9101 6.18861C28.909 5.06231 27.9821 4.13643 26.8434 4.13643C26.8423 4.13643 26.8423 4.13643 26.8413 4.13643C26.5767 4.13643 26.3175 4.18705 26.0715 4.28623C25.7966 4.39679 25.4898 4.38443 25.2252 4.25208C24.9606 4.11972 24.7654 3.88117 24.6879 3.59587C24.4481 2.70099 23.6318 2.07167 22.7039 2.06658C22.0157 2.06767 21.372 2.41582 20.9896 2.99658C20.7984 3.28587 20.476 3.46158 20.1289 3.46158C20.1278 3.46158 20.1278 3.46158 20.1268 3.46158C19.7806 3.46158 19.4572 3.28793 19.2661 2.99973C18.9602 2.53994 18.4942 2.22582 17.9527 2.11623C17.4133 2.00882 16.8604 2.11514 16.4006 2.41896C16.1692 2.57287 15.9739 2.7682 15.8199 2.99973C15.6287 3.28805 15.3052 3.46158 14.9591 3.46158C14.9591 3.46158 14.958 3.46158 14.9571 3.46158C14.6099 3.46158 14.2865 3.28587 14.0963 2.99658C13.7141 2.41582 13.0702 2.06864 12.3738 2.06658C11.4541 2.07179 10.6389 2.70099 10.398 3.59587C10.3205 3.88105 10.1252 4.11972 9.86074 4.25208C9.59615 4.38334 9.28833 4.3957 9.01344 4.28623C8.50086 4.08061 7.93983 4.08582 7.43136 4.30173C6.92398 4.51764 6.5303 4.91967 6.32469 5.43214C6.22648 5.67699 6.17586 5.93637 6.17586 6.20096C6.17792 6.42111 6.22127 6.6484 6.30398 6.86431C6.42592 7.18157 6.38257 7.53904 6.19027 7.81913C5.9981 8.09922 5.67877 8.26657 5.33886 8.26657L5.14245 8.26657C4.60722 8.2759 4.09257 8.49907 3.70822 8.89589C3.32484 9.29272 3.11813 9.8156 3.12745 10.3673C3.13678 10.9242 3.37545 11.4616 3.7816 11.8419C4.04401 12.0867 4.15978 12.4516 4.08748 12.8039C4.01519 13.1563 3.76513 13.4456 3.42825 13.5676C2.90949 13.7556 2.4951 14.1349 2.26055 14.635C2.02696 15.1351 2.00225 15.6963 2.19031 16.2149C2.40005 16.7925 2.85063 17.2431 3.42825 17.4528L2.72337 19.3957Z" transform="translate(5.190674 0)" id="Path" fill="#000000" stroke="none" />
    <path d="M2.0667 4.13341C3.20811 4.13341 4.13341 3.20812 4.13341 2.06671C4.13341 0.925296 3.20811 0 2.0667 0C0.925295 0 0 0.925296 0 2.06671C0 3.20812 0.925295 4.13341 2.0667 4.13341Z" transform="translate(14.4668 18.59998)" id="Oval" fill="#000000" stroke="none" />
    <path d="M2.06671 4.13341C3.20812 4.13341 4.13341 3.20812 4.13341 2.06671C4.13341 0.925296 3.20812 0 2.06671 0C0.925296 0 0 0.925296 0 2.06671C0 3.20812 0.925296 4.13341 2.06671 4.13341Z" transform="translate(26.86646 18.59998)" id="Oval" fill="#000000" stroke="none" />
    <path d="M12.3685 31.0013L12.4243 31.0013C14.6945 31.0013 16.8511 30.0227 18.3473 28.3154L22.1635 23.9497C23.1844 22.7707 23.8044 21.2631 23.9097 19.7099L24.7984 7.30996C24.8087 7.17458 24.7912 7.03822 24.7478 6.90902L22.6811 0.709031C22.5675 0.369122 22.2875 0.112888 21.9382 0.0301811C21.5889 -0.0545844 21.2221 0.0518568 20.97 0.305063C19.6638 1.61021 17.5413 1.61433 16.2352 0.308212L16.2341 0.308212C16.0666 0.137712 15.8435 0.0301811 15.6027 0.00644674C15.2886 -0.0245532 14.9889 0.0860052 14.7699 0.304095C13.4637 1.6113 11.3402 1.61227 10.031 0.304095C9.83772 0.109861 9.57422 0.00136081 9.30043 0.00136081C9.02555 0.00136081 8.76301 0.109861 8.56878 0.303126C7.26582 1.60924 5.14232 1.61239 3.831 0.303126C3.57779 0.0499193 3.20991 -0.055432 2.86274 0.0282436C2.51459 0.110829 2.23354 0.367184 2.11983 0.707094L0.0531284 6.90708C0.00977692 7.03629 -0.00681288 7.17264 0.00251131 7.30802L0.891216 19.7069C1.00177 21.2703 1.6311 22.7821 2.66233 23.9612L6.4557 28.3125C7.94987 30.0227 10.1065 31.0013 12.3685 31.0013ZM12.4181 28.9347L12.3768 28.9347C10.7028 28.9347 9.11345 28.2135 8.01405 26.9518L4.22068 22.6004C3.48285 21.7571 3.03239 20.6773 2.9538 19.5593L2.07962 7.36493L3.63168 2.70671C4.41176 3.12836 5.28811 3.35153 6.19946 3.35153C7.3662 3.3433 8.3984 3.01162 9.30054 2.37818C11.1564 3.67291 13.6457 3.674 15.5005 2.37818C17.1828 3.55412 19.3879 3.66153 21.1683 2.70574L22.7214 7.36602L21.8462 19.5645C21.7718 20.6764 21.3285 21.752 20.6021 22.5911L16.7891 26.9528C15.6875 28.2135 14.0983 28.9347 12.4181 28.9347Z" transform="translate(10.33252 10.33197)" id="Shape" fill="#000000" fill-rule="evenodd" stroke="none" />
    <path d="M2.06658 24.8L0 24.8L0 13.4333C0 8.79358 3.46788 4.83079 8.06822 4.21491L15.5 3.22811L15.5 0L17.5667 0L17.5667 4.13329C17.5667 4.65096 17.1833 5.08908 16.6697 5.15738L8.34104 6.26308C4.7637 6.74153 2.0667 9.82397 2.0667 13.4334L2.0667 24.8L2.06658 24.8Z" transform="translate(0 37.19998)" id="Path" fill="#000000" stroke="none" />
    <path d="M17.5667 24.8L15.5 24.8L15.5 13.4333C15.5 9.82384 12.803 6.74141 9.22455 6.26405L0.89694 5.15835C0.383382 5.08908 0 4.65096 0 4.13329L0 0L2.0667 0L2.0667 3.22811L9.49737 4.21491C14.0988 4.8297 17.5667 8.79358 17.5667 13.4333L17.5667 24.8L17.5667 24.8Z" transform="translate(27.89966 37.19998)" id="Path" fill="#000000" stroke="none" />
    <path d="M6.882 4.14467C4.34726 4.14467 1.90335 3.224 0 1.55206L1.36291 0C2.89014 1.34026 4.84932 2.07809 6.882 2.07809C8.91467 2.07809 10.8737 1.34026 12.4 0L13.764 1.55206C11.8606 3.224 9.41673 4.14467 6.882 4.14467Z" transform="translate(15.85107 45.45532)" id="Path" fill="#000000" stroke="none" />
    <path d="M0 0L2.06671 0L2.06671 8.2667L0 8.2667L0 0Z" transform="translate(8.266357 53.73331)" id="Rectangle" fill="#000000" stroke="none" />
    <path d="M0 0L8.26669 0L8.26669 2.0667L0 2.0667L0 0Z" transform="translate(1.033203 55.79999)" id="Rectangle" fill="#000000" stroke="none" />
    <path d="M0 0L2.0667 0L2.0667 8.2667L0 8.2667L0 0Z" transform="translate(35.13306 53.73331)" id="Rectangle" fill="#000000" stroke="none" />
    <path d="M0 0L8.26669 0L8.26669 2.0667L0 2.0667L0 0Z" transform="translate(36.16626 55.79999)" id="Rectangle" fill="#000000" stroke="none" />
    <path d="M0 0L2.0667 0L2.0667 20.6667L0 20.6667L0 0Z" transform="translate(15.49976 41.33328)" id="Rectangle" fill="#000000" stroke="none" />
    <path d="M0 0L2.06671 0L2.06671 20.6667L0 20.6667L0 0Z" transform="translate(27.8999 41.33328)" id="Rectangle" fill="#000000" stroke="none" />
    <path d="M7.23326 10.6599L1.03327 10.6599C0.70159 10.6599 0.389531 10.5008 0.195176 10.2311C0.000941815 9.96141 -0.0517339 9.61423 0.0525277 9.3L3.15253 0L5.11279 0.654148L2.46653 8.59317L7.23326 8.59317L7.23326 10.6599Z" transform="translate(9.299561 41.00684)" id="Path" fill="#000000" stroke="none" />
    <path d="M6.2 10.661L0 10.661L0 8.59427L4.76576 8.59427L2.11938 0.654148L4.07856 0L7.17856 9.3C7.285 9.61521 7.23123 9.96238 7.037 10.2311C6.84373 10.5019 6.53167 10.661 6.2 10.661Z" transform="translate(28.93286 41.00574)" id="Path" fill="#000000" stroke="none" />
    <path d="M0 1.55C0 2.40455 0.695441 3.1 1.55 3.1C2.40456 3.1 3.1 2.40455 3.1 1.55C3.1 0.69544 2.40456 0 1.55 0C0.695441 0 0 0.69544 0 1.55ZM1.03318 1.55013C1.03318 1.26592 1.26471 1.03342 1.54988 1.03342C1.83518 1.03342 2.06659 1.26592 2.06659 1.55013C2.06659 1.83433 1.83506 2.06683 1.54988 2.06683C1.26459 2.06683 1.03318 1.83433 1.03318 1.55013Z" transform="translate(11.36646 53.73331)" id="Shape" fill="#000000" fill-rule="evenodd" stroke="none" />
  </g>
</svg>