<?xml version="1.0" encoding="utf-8"?>
<svg width="111px" height="32px" viewBox="0 0 111 32" version="1.1" xmlns:xlink="http://www.w3.org/1999/xlink" xmlns="http://www.w3.org/2000/svg">
  <desc>Created with Lunacy</desc>
  <defs>
    <path d="M0 0L9.41418 0L9.41418 13.5947L0 13.5947L0 0Z" transform="translate(0 0.02031433)" id="path_1" />
    <path d="M0 0L9.75743 0L9.75743 13.7952L0 13.7952L0 0Z" transform="translate(0.09625541 0.109269)" id="path_2" />
    <clipPath id="mask_1">
      <use xlink:href="#path_1" />
    </clipPath>
    <clipPath id="mask_2">
      <use xlink:href="#path_2" />
    </clipPath>
  </defs>
  <g id="Group-41" transform="translate(0.25 0.25)">
    <g id="Group-3" transform="translate(0 16.13573)">
      <path d="M0 0L9.41418 0L9.41418 13.5947L0 13.5947L0 0Z" transform="translate(0 0.02031433)" id="Clip-2" fill="none" stroke="none" />
      <g clip-path="url(#mask_1)">
        <path d="M0.135774 13.4567C0.045144 13.3659 0 13.2563 0 13.127L0.012312 0.485127C0.012483 0.343539 0.054036 0.226404 0.138852 0.135774C0.222984 0.0461705 0.336357 -0.000170528 0.478971 4.71528e-07L8.92928 0.00820847C9.07189 0.00837947 9.188 0.0548915 9.27863 0.144666C9.36926 0.235467 9.4144 0.352773 9.41423 0.494361L9.41287 1.89246C9.41287 2.0219 9.36738 2.13237 9.27658 2.223C9.18578 2.31363 9.0695 2.35895 8.92688 2.35877L2.71052 2.35262L2.70693 6.00278L7.93765 6.00791C8.07992 6.00809 8.19654 6.05357 8.28717 6.14437C8.37729 6.23517 8.42295 6.34461 8.42278 6.47406L8.42141 7.87216C8.42141 8.0016 8.37541 8.11224 8.28512 8.20287C8.19432 8.29333 8.07753 8.33864 7.93543 8.33847L2.70471 8.33351L2.70009 13.1296C2.69992 13.259 2.65443 13.3684 2.56363 13.4591C2.47283 13.5497 2.35621 13.5948 2.21411 13.5947L0.465804 13.593C0.335844 13.593 0.225891 13.5475 0.135774 13.4567" transform="translate(-5.13E-05 0.02031433)" id="Fill-1" fill="#006EE8" stroke="none" />
      </g>
    </g>
    <path d="M0.135603 9.96126C0.0449735 9.87046 -0.000170516 9.76085 4.83961e-07 9.63158L0.00872148 0.485128C0.00889248 0.34354 0.0543785 0.226234 0.145179 0.135604C0.235981 0.0449735 0.346105 -0.000170516 0.475552 4.83961e-07L2.06825 0.00153948C2.21103 0.00171048 2.32765 0.0470255 2.41828 0.137827C2.5084 0.228628 2.55406 0.345934 2.55406 0.487522L2.5532 1.28387C3.20112 0.430579 4.13393 0.00342048 5.35179 0.00461748L6.16746 0.00547248C6.30956 0.00564348 6.4231 0.0477095 6.50758 0.131841C6.59154 0.217171 6.63343 0.330031 6.63326 0.472645L6.63189 1.88955C6.63172 2.019 6.58966 2.12963 6.50553 2.22026C6.42071 2.31089 6.30734 2.35604 6.16524 2.35587L4.63051 2.3545C4.02158 2.35382 3.54244 2.52824 3.19257 2.87742C2.84219 3.2254 2.66692 3.7054 2.6664 4.31365L2.66127 9.63414C2.6611 9.76359 2.61562 9.87303 2.52482 9.96366C2.43401 10.0541 2.32389 10.0994 2.19461 10.0993L0.465634 10.0977C0.336187 10.0976 0.226233 10.0521 0.135603 9.96126" transform="translate(10.66471 19.66182)" id="Fill-4" fill="#006EE8" stroke="none" />
    <path d="M0.01881 5.70388C0.069426 7.2316 0.518472 8.40996 1.36595 9.23931C2.21291 10.0687 3.36237 10.4845 4.81262 10.4859C5.71892 10.4868 6.51561 10.3317 7.20269 10.0215C7.88943 9.71127 8.4173 9.34687 8.78666 8.92569C9.15654 8.50572 9.34105 8.13978 9.34122 7.8301C9.34139 7.71279 9.29949 7.62216 9.21553 7.55787C9.1314 7.49254 9.03085 7.4604 8.91474 7.46022L7.20526 7.45851C7.04982 7.45851 6.93969 7.47493 6.87505 7.50691C6.80973 7.53888 6.71945 7.62627 6.60265 7.76888C6.13582 8.36345 5.53322 8.66047 4.79501 8.65979C4.14726 8.65911 3.63922 8.42295 3.27089 7.95031C2.90238 7.47767 2.70505 6.87797 2.68025 6.15344L2.68042 5.99749L9.12969 6.00365C9.2723 6.00382 9.38841 5.95867 9.47939 5.86804C9.57001 5.77844 9.6155 5.66797 9.61567 5.53853L9.61601 5.13035C9.61755 3.57733 9.20117 2.33364 8.36703 1.40152C7.53221 0.468206 6.34478 0.0015466 4.80339 7.60278e-06C3.30133 -0.0015314 2.12502 0.463076 1.27617 1.39468C0.426987 2.32509 0.001539 3.60007 0 5.21841L0.01881 5.70388ZM6.9361 4.31246L6.9361 4.35127L2.68214 4.34717L2.68214 4.30835C2.68282 3.54518 2.87092 2.93368 3.24678 2.47386C3.62281 2.01524 4.14128 1.78576 4.80168 1.78627C5.46191 1.78696 5.98329 2.01764 6.36496 2.47694C6.74612 2.93745 6.93696 3.54928 6.9361 4.31246Z" transform="translate(17.64315 19.47922)" id="Fill-6" fill="#006EE8" fill-rule="evenodd" stroke="none" />
    <path d="M0.135603 10.1497C0.0449735 10.0589 -0.000170516 9.9493 4.83961e-07 9.82002L0.00872148 0.654762C0.00889248 0.511977 0.0543785 0.399288 0.145179 0.31413C0.23598 0.230169 0.346104 0.188274 0.475551 0.188445L2.08808 0.189984C2.23035 0.190155 2.34373 0.232221 2.42769 0.316353C2.51165 0.401682 2.55406 0.514542 2.55406 0.657156L2.5532 1.45248C3.34391 0.483078 4.42565 -0.00136511 5.79827 2.88913e-06C6.99014 0.00119989 7.93491 0.390225 8.63379 1.16742C9.33215 1.94462 9.68048 3.01354 9.67928 4.37299L9.67398 9.82926C9.67381 9.9587 9.63175 10.0681 9.54761 10.1588C9.46331 10.2494 9.34994 10.2947 9.20732 10.2945L7.45902 10.2928C7.32957 10.2927 7.21962 10.2473 7.12899 10.1565C7.03836 10.0657 6.99322 9.95614 6.99339 9.82669L6.99852 4.48636C6.9992 3.73533 6.81555 3.14999 6.44653 2.72831C6.07802 2.30765 5.55015 2.09698 4.86375 2.09629C4.20352 2.09561 3.6724 2.30867 3.27038 2.73515C2.86835 3.16179 2.66709 3.74439 2.6664 4.48226L2.66127 9.82259C2.6611 9.95203 2.61887 10.0615 2.53473 10.1521C2.45009 10.2426 2.33723 10.2879 2.19461 10.2877L0.465633 10.286C0.336186 10.286 0.226233 10.2405 0.135603 10.1497" transform="translate(28.73084 19.49095)" id="Fill-8" fill="#006EE8" stroke="none" />
    <path d="M0.018981 5.70388C0.069426 7.2316 0.518472 8.40996 1.36612 9.23931C2.21308 10.0687 3.36254 10.4845 4.81262 10.4859C5.71909 10.4868 6.51561 10.3317 7.20286 10.0215C7.88943 9.71127 8.41747 9.34687 8.78666 8.92569C9.15654 8.50572 9.34105 8.13978 9.34139 7.8301C9.34156 7.71279 9.29949 7.62216 9.21553 7.55787C9.13157 7.49254 9.03102 7.4604 8.91474 7.46022L7.20526 7.45868C7.04999 7.45851 6.93986 7.47493 6.87505 7.50691C6.80973 7.53888 6.71962 7.62627 6.60265 7.76888C6.13599 8.36345 5.53339 8.66047 4.79501 8.65979C4.14743 8.65911 3.63939 8.42295 3.27089 7.95031C2.90255 7.47767 2.70505 6.87797 2.68042 6.15344L2.6806 5.99749L9.12969 6.00365C9.27247 6.00382 9.38858 5.95867 9.47939 5.86804C9.57019 5.77844 9.6155 5.66797 9.61567 5.53853L9.61619 5.13035C9.61772 3.57733 9.20134 2.33364 8.36703 1.40152C7.53238 0.468206 6.34478 0.0015466 4.80339 7.60278e-06C3.30133 -0.0015314 2.12502 0.463076 1.27634 1.39468C0.427158 2.32509 0.00171 3.60007 0 5.21841L0.018981 5.70388ZM6.93627 4.31263L6.93627 4.35127L2.68214 4.34717L2.68214 4.30835Q2.68316 3.16359 3.24695 2.47386C3.62298 2.01524 4.14145 1.78576 4.80168 1.78627C5.46208 1.78696 5.98346 2.01764 6.36513 2.47694C6.74629 2.93745 6.93696 3.54928 6.93627 4.31263Z" transform="translate(39.84659 19.5008)" id="Fill-10" fill="#006EE8" fill-rule="evenodd" stroke="none" />
    <path d="M2.88733 12.8645C2.29174 12.2489 1.99506 11.346 1.99625 10.1548L2.00036 5.7668L0.465804 5.76526C0.336357 5.76509 0.22572 5.71978 0.135774 5.62898C0.0451445 5.53818 -0.000170518 5.42857 4.82144e-07 5.29809L0.00119748 4.15325C0.00119748 4.0238 0.0466835 3.91334 0.137484 3.82271C0.227772 3.73208 0.338409 3.68676 0.467856 3.68693L2.00258 3.68847L2.00566 0.465291C2.00583 0.323703 2.05115 0.209817 2.14212 0.125685C2.23223 0.0417245 2.34287 -0.000170479 2.47232 5.21341e-07L4.08451 0.00153952C4.22712 0.00171052 4.33998 0.0437765 4.42445 0.127909C4.50841 0.212212 4.55048 0.326097 4.55031 0.467685L4.54706 3.69086L6.01732 3.6924C6.14677 3.6924 6.25672 3.73789 6.34735 3.82869C6.43798 3.91949 6.48312 4.03013 6.48312 4.15957L6.48193 5.30442C6.48193 5.43489 6.43644 5.54433 6.34564 5.63496C6.25484 5.72559 6.14471 5.77091 6.01527 5.77074L4.54501 5.7692L4.54108 9.94365C4.54039 10.5001 4.63735 10.9216 4.83126 11.2061C5.02501 11.4917 5.34238 11.6336 5.78271 11.634L6.34837 11.6345C6.49047 11.6347 6.60385 11.6779 6.68849 11.761C6.77245 11.8462 6.81435 11.9591 6.81418 12.1018L6.81298 13.3252C6.81298 13.4545 6.77074 13.5641 6.68661 13.6547C6.60197 13.7453 6.48842 13.7905 6.34632 13.7903L5.54775 13.7896C4.36922 13.7884 3.4819 13.4801 2.88733 12.8645" transform="translate(49.93221 16.013)" id="Fill-12" fill="#006EE8" stroke="none" />
    <path d="M0 1.90306C-0.000170518 2.03251 0.0451445 2.14314 0.135774 2.23292C0.225891 2.32372 0.335844 2.36903 0.465804 2.36921L2.25275 2.37092C2.3822 2.37109 2.49557 2.32594 2.59304 2.23531C2.69051 2.14571 2.73857 2.03524 2.73874 1.9058L2.7401 0.487692C2.74028 0.346104 2.69513 0.228798 2.6045 0.138168C2.51387 0.0483935 2.39776 0.00188147 2.25498 0.00171047L0.468198 0C0.338067 -0.000170528 0.228114 0.0461705 0.137826 0.135603C0.0470255 0.226233 0.00153948 0.343539 0.00136848 0.485127L0 1.90306ZM0.066007 13.6513C0.066007 13.7807 0.111151 13.8902 0.201781 13.981C0.292411 14.0718 0.402364 14.1172 0.531811 14.1174L2.18316 14.119C2.3126 14.1191 2.42273 14.0738 2.51353 13.9832C2.60433 13.8926 2.64982 13.7831 2.64999 13.6537L2.65888 4.48858C2.65905 4.35913 2.61374 4.24832 2.52311 4.15769C2.43248 4.06689 2.32252 4.02141 2.19308 4.02124L0.541558 4.0197C0.412111 4.01953 0.302158 4.06142 0.211357 4.14538C0.120556 4.23054 0.07507 4.34323 0.074899 4.48601L0.066007 13.6513Z" transform="translate(58.61929 15.68879)" id="Fill-14" fill="#006EE8" fill-rule="evenodd" stroke="none" />
    <path d="M1.36543 9.29796C0.517788 8.50725 0.068742 7.41302 0.018639 6.01476L0 5.23825L0.020007 4.46071C0.072846 3.06364 0.524115 1.97027 1.3733 1.18127C2.2218 0.392278 3.35878 -0.00136445 4.78355 3.55325e-06C5.80665 0.00102955 6.67088 0.183145 7.37677 0.545494C8.08214 0.90904 8.60592 1.35313 8.94894 1.87775C9.29128 2.40238 9.47562 2.90478 9.5011 3.38255C9.51358 3.5132 9.47152 3.62264 9.37405 3.71327C9.27726 3.8039 9.16372 3.84904 9.03444 3.84887L7.30546 3.84733C7.16285 3.84716 7.05939 3.81707 6.99475 3.75961C6.9296 3.70096 6.86497 3.59357 6.8005 3.43864C6.60676 2.94616 6.35111 2.59082 6.03442 2.37041C5.71721 2.14999 5.31246 2.03901 4.82083 2.03849C4.15992 2.03798 3.64538 2.24421 3.2755 2.65871C2.90614 3.07304 2.70813 3.70677 2.68128 4.56057L2.66127 5.27963L2.67991 5.92002C2.75566 7.60369 3.46737 8.44501 4.8145 8.44621C5.31947 8.44672 5.72713 8.34104 6.03818 8.1278C6.34923 7.91354 6.60231 7.5553 6.79691 7.04999C6.84906 6.90857 6.91062 6.80461 6.98193 6.73946C7.05289 6.67533 7.16011 6.64335 7.3029 6.64353L9.03171 6.64524C9.16115 6.64541 9.27435 6.69072 9.37114 6.78152C9.46844 6.87232 9.51033 6.98193 9.49751 7.11138C9.47101 7.56487 9.28906 8.05239 8.95185 8.57634C8.61447 9.10028 8.09634 9.55001 7.39643 9.92433C6.69704 10.2997 5.82238 10.4869 4.77329 10.4859C3.34869 10.4845 2.21257 10.0885 1.36543 9.29796" transform="translate(62.93665 19.45539)" id="Fill-16" fill="#006EE8" stroke="none" />
    <path d="M4.18488 13.4606C4.09425 13.3698 4.04911 13.2604 4.04911 13.1309L4.05954 2.43145L0.465805 2.42786C0.336358 2.42786 0.225892 2.38237 0.135775 2.29157C0.0451445 2.20077 -0.000170518 2.08466 4.82144e-07 1.94188L0.00153948 0.485127C0.00153948 0.343539 0.0437765 0.226404 0.127908 0.135774C0.212041 0.0461705 0.325414 -0.000170528 0.468199 4.71527e-07L10.3949 0.00974747C10.537 0.00974747 10.6538 0.0564305 10.7443 0.146034C10.8349 0.236835 10.8802 0.354141 10.88 0.495729L10.8787 1.95248C10.8785 2.09509 10.833 2.2112 10.7422 2.30183C10.6514 2.39246 10.5348 2.43778 10.3925 2.43761L6.81811 2.43419L6.80768 13.1335C6.80768 13.2629 6.76493 13.3724 6.6808 13.463C6.59667 13.5536 6.48312 13.5989 6.34102 13.5988L4.51491 13.5971C4.38547 13.5969 4.27483 13.5514 4.18488 13.4606" transform="translate(30.92037 0.3339967)" id="Fill-18" fill="#05142F" stroke="none" />
    <path d="M0.018981 5.70388C0.069426 7.2316 0.518472 8.40996 1.36612 9.23931C2.21308 10.0687 3.36254 10.4845 4.8128 10.4859C5.71909 10.4868 6.51578 10.3317 7.20286 10.0215C7.8896 9.71127 8.41747 9.34687 8.78683 8.92569C9.15671 8.50572 9.34122 8.13978 9.34139 7.8301C9.34156 7.71279 9.29966 7.62216 9.2157 7.55787C9.13157 7.49254 9.03102 7.4604 8.91491 7.46022L7.20543 7.45868C7.04999 7.45851 6.93986 7.47493 6.87523 7.50691C6.8099 7.53906 6.71962 7.62627 6.60282 7.76888C6.13599 8.36345 5.53339 8.66047 4.79518 8.65979C4.14743 8.65911 3.63939 8.42295 3.27106 7.95031C2.90255 7.47767 2.70522 6.87797 2.68042 6.15344L2.6806 5.99749L9.12986 6.00382C9.27247 6.00382 9.38858 5.95867 9.47939 5.86804C9.57019 5.77844 9.61567 5.66797 9.61584 5.53853L9.61619 5.13035C9.61772 3.57733 9.20134 2.33364 8.3672 1.40152C7.53238 0.468206 6.34495 0.0015466 4.80356 7.60278e-06C3.3015 -0.0015314 2.12519 0.463076 1.27634 1.39468C0.427158 2.32527 0.00171 3.60007 0 5.21841L0.018981 5.70388ZM6.93627 4.31263L6.93627 4.35127L2.68231 4.34717L2.68231 4.30852C2.68299 3.54518 2.87109 2.93368 3.24695 2.47386C3.62298 2.01524 4.14145 1.78576 4.80185 1.78627C5.46208 1.78696 5.98346 2.01764 6.36513 2.47694C6.74629 2.93745 6.93713 3.54928 6.93627 4.31263Z" transform="translate(40.43832 3.649286)" id="Fill-20" fill="#05142F" fill-rule="evenodd" stroke="none" />
    <path d="M1.36543 9.29796C0.517788 8.50742 0.068742 7.41302 0.018639 6.01476L0 5.23825L0.020178 4.46071C0.072846 3.06381 0.524286 1.97027 1.3733 1.18127C2.22197 0.392449 3.35878 -0.00136445 4.78355 3.55171e-06C5.80665 0.00102955 6.67088 0.183316 7.37677 0.545665C8.08214 0.90904 8.60609 1.35313 8.94894 1.87775C9.29146 2.40238 9.47562 2.90478 9.5011 3.38255C9.51375 3.5132 9.47152 3.62264 9.37405 3.71327C9.27726 3.8039 9.16389 3.84904 9.03444 3.84904L7.30563 3.84733C7.16285 3.84716 7.05956 3.81724 6.99493 3.75961C6.92977 3.70096 6.86514 3.59357 6.8005 3.43864C6.60693 2.94616 6.35111 2.591 6.03442 2.37058C5.71721 2.14999 5.31246 2.03901 4.82083 2.03867C4.15992 2.03798 3.64538 2.24421 3.2755 2.65871C2.90632 3.07322 2.7083 3.70677 2.68128 4.56074L2.66127 5.27963L2.67991 5.92002C2.75584 7.60369 3.46737 8.44501 4.8145 8.44638C5.31964 8.44672 5.7273 8.34104 6.03835 8.1278C6.3494 7.91354 6.60231 7.55547 6.79708 7.05016C6.84906 6.90857 6.91062 6.80461 6.9821 6.73946C7.05289 6.67533 7.16028 6.64335 7.3029 6.64353L9.03171 6.64524C9.16115 6.64541 9.27453 6.69072 9.37114 6.78152C9.46844 6.87232 9.51033 6.98193 9.49751 7.11138C9.47101 7.56487 9.28923 8.05239 8.95185 8.57651C8.61464 9.10045 8.09651 9.55001 7.39643 9.92433C6.69704 10.2997 5.82238 10.4869 4.77329 10.4859C3.34869 10.4845 2.21257 10.0885 1.36543 9.29796" transform="translate(51.38865 3.659892)" id="Fill-22" fill="#05142F" stroke="none" />
    <g id="Group-26" transform="translate(62.244 0.061731)">
      <path d="M0 0L9.75743 0L9.75743 13.7952L0 13.7952L0 0Z" transform="translate(0.09625541 0.109269)" id="Clip-25" fill="none" stroke="none" />
      <g clip-path="url(#mask_2)">
        <path d="M0.135774 13.6502C0.0451445 13.5594 -0.000170518 13.4498 4.82144e-07 13.3206L0.0124835 0.465292C0.0126545 0.323704 0.0581405 0.209818 0.148941 0.125857C0.239571 0.0418955 0.349696 -0.000170481 0.479143 5.19234e-07L2.24728 0.00171052C2.38938 0.00188152 2.50276 0.0439475 2.58672 0.128251C2.67068 0.212383 2.71326 0.326269 2.71309 0.467857L2.70881 4.89556C3.48669 3.96395 4.52911 3.49934 5.8376 3.50054C7.02896 3.50174 7.9804 3.89418 8.69193 4.67805C9.40346 5.46191 9.75863 6.52741 9.75743 7.87352L9.75196 13.33C9.75196 13.4594 9.70972 13.5689 9.62559 13.6595C9.54095 13.7501 9.4274 13.7953 9.2853 13.7953L7.51784 13.7935C7.37506 13.7934 7.25844 13.7479 7.16781 13.6571C7.07718 13.5663 7.03255 13.4567 7.03272 13.3274L7.03785 7.98707C7.03853 7.23604 6.85454 6.6507 6.48603 6.22885C6.11701 5.80819 5.58948 5.59751 4.90308 5.59683C4.24285 5.59615 3.71121 5.80921 3.30971 6.23569C2.90786 6.66233 2.70642 7.24493 2.70573 7.98279L2.7006 13.3231C2.70043 13.4526 2.65785 13.562 2.57355 13.6526C2.48942 13.7433 2.37605 13.7884 2.23394 13.7884L0.465805 13.7865C0.336358 13.7865 0.226404 13.741 0.135774 13.6502" transform="translate(0.09625541 0.1092514)" id="Fill-24" fill="#05142F" stroke="none" />
      </g>
    </g>
    <path d="M3.16128 0L34.1355 0.030096L34.1145 21.6753L31.0192 23.6401L11.8563 23.6214L3.96344 29.1533L3.96874 23.7074L0 23.7035L0.020007 3.08911L3.16128 0Z" transform="translate(75.80766 0.6034761)" id="Fill-27" fill="#05142F" stroke="none" />
    <path d="M3.16128 0L34.1355 0.030096L34.1145 21.6753L31.0192 23.6401L11.8563 23.6214L3.96344 29.1533L3.96874 23.7074L0 23.7035L0.020007 3.08911L3.16128 0Z" transform="translate(75.80766 0.6034761)" id="Stroke-29" fill="none" stroke="#05142F" stroke-width="0.5" />
    <path d="M0.020691 0L30.2809 0.029412L30.2602 21.2715L11.0259 21.2527L3.1199 26.6909L3.1252 21.245L0 21.2421L0.020691 0Z" transform="translate(79.02365 1.100351)" id="Fill-31" fill="#FFFFFF" stroke="none" />
    <path d="M0.020691 0L30.2809 0.029412L30.2602 21.2715L11.0259 21.2527L3.1199 26.6909L3.1252 21.245L0 21.2421L0.020691 0Z" transform="translate(79.02365 1.100351)" id="Stroke-33" fill="none" stroke="#05142F" stroke-width="0.5" />
    <path d="M9.9799 0.009747L9.97768 2.26182L6.4373 2.2584L6.42977 9.90398L6.4284 11.299L3.85349 11.2964L3.86238 2.25583L0 2.25207L0.002052 0L9.9799 0.009747Z" transform="translate(84.98204 6.365475)" id="Fill-35" fill="#05142F" stroke="none" />
    <path d="M0.010944 0L9.07394 0.008892L9.07206 1.94547L2.50925 1.93914L2.50669 4.52141L8.1319 4.52688L8.13002 6.46346L2.50481 6.45799L2.50019 11.2997L0 11.2973L0.010944 0Z" transform="translate(94.9571 6.359319)" id="Fill-39" fill="#006EE8" stroke="none" />
  </g>
</svg>