<?xml version="1.0" encoding="utf-8"?>
<svg width="38px" height="11px" viewBox="0 0 38 11" version="1.1" xmlns:xlink="http://www.w3.org/1999/xlink" xmlns="http://www.w3.org/2000/svg">
  <desc>Created with Lunacy</desc>
  <g id="Recurso-1">
    <path d="M37.1916 8.62423L37.3557 8.70462L37.8125 10.428L37.7305 10.6076C37.5334 10.7349 37.3163 10.8283 37.0881 10.8839C36.4673 11.0606 35.8057 11.0319 35.2027 10.8023C34.8334 10.6557 34.5095 10.4148 34.2637 10.1039C33.9297 9.68455 33.64 9.23206 33.3992 8.7536L33.2894 8.54384C32.8822 7.77931 32.576 7.30702 32.3707 7.12698C32.1448 6.93229 31.9504 6.83432 31.7851 6.83432L30.9459 6.83432L30.9459 10.7784L28.3777 10.7784L28.3777 2.3049L22.8097 2.3049L22.8097 4.49425L26.7964 4.49425L26.7964 6.47257L22.8097 6.47257L22.8097 8.69457L28.0167 8.69457L28.0167 10.7696L11.1411 10.7696L11.1411 8.95332L16.6775 2.27224L10.8155 2.27224L10.8155 6.20251C10.8253 6.88681 10.7125 7.56737 10.4823 8.21223C10.2791 8.78058 9.95449 9.29827 9.53074 9.72958C9.10552 10.1517 8.59183 10.4751 8.02642 10.6767C7.39757 10.8993 6.73389 11.0086 6.06651 10.9995C4.60341 10.9986 3.44067 10.5716 2.5783 9.71827Q1.28473 8.43833 1.28473 6.20125L1.28473 3.16908C1.29633 2.93929 1.26334 2.70943 1.18756 2.49206C1.13356 2.35268 0.995401 2.26388 0.84555 2.27224C0.725869 2.26436 0.608176 2.30567 0.51995 2.38655L0.358412 2.30113L0 0.522528L0.0971752 0.34919C0.297643 0.234307 0.514119 0.149648 0.739541 0.097974C1.00296 0.0330317 1.27333 0.000133421 1.54471 0C2.28425 0.000837385 2.84921 0.224 3.23959 0.669489Q3.82517 1.33772 3.82517 2.61139L3.82517 6.31933C3.82601 7.06711 4.02625 7.65328 4.42589 8.07783Q5.02534 8.71467 6.06651 8.71467C6.7623 8.70629 7.31338 8.49276 7.71975 8.07407Q8.3293 7.44603 8.3293 6.31556L8.3293 0.213533L14.3516 0.213533L19.854 0.228606L19.854 2.06122L14.3655 8.72597L20.2503 8.72597L20.2503 0.228606L33.037 0.228606Q35.0462 0.228606 36.1164 1.12419C36.8298 1.72124 37.1865 2.54523 37.1865 3.59615C37.2027 4.26204 36.9909 4.91362 36.5858 5.44384C36.1698 5.96878 35.6048 6.35699 34.9641 6.55798C35.1168 6.68736 35.3263 6.99133 35.5888 7.46864C35.8345 7.98949 36.0448 8.33114 36.2198 8.4936C36.3624 8.64211 36.5575 8.72952 36.7638 8.73727C36.9124 8.72759 37.0577 8.6892 37.1916 8.62423ZM33.0649 5.09088C33.4621 5.10191 33.8492 4.96483 34.1502 4.70652C34.4339 4.45263 34.587 4.08462 34.5667 3.70542C34.5772 3.31814 34.4172 2.94559 34.1287 2.68549C33.8274 2.42506 33.437 2.29011 33.0384 2.30867L30.9308 2.32876L30.9573 5.11097L33.0649 5.09088Z" id="Shape" fill="#111111" fill-rule="evenodd" stroke="none" />
  </g>
</svg>