<?xml version="1.0" encoding="UTF-8"?>
<svg width="89px" height="76px" viewBox="0 0 89 76" version="1.1" xmlns:xlink="http://www.w3.org/1999/xlink" xmlns="http://www.w3.org/2000/svg">
  <desc>Created with Lunacy</desc>
  <g id="Group-24" transform="translate(1.886047 1.886078)">
    <path d="M7.87106 0L84.9877 0.0727567L84.9354 52.3997L77.2291 57.1495L29.519 57.1045L9.86821 70.4776L9.8814 57.3124L0 57.3033L0.0498115 7.46789L7.87106 0Z" id="Fill-28" fill="#05142F" stroke="none"/>
    <g id="Group-5">
      <path d="M7.83882 0L84.6396 0.0734243L84.5875 52.8805L76.9127 57.674L29.3981 57.6285L9.82779 71.1244L9.84093 57.8383L0 57.8292L0.0496074 7.53642L7.83882 0Z" id="Stroke-30" fill="none" stroke="#05142F" stroke-width="1.13618422"/>
      <path d="M0.0506055 0L74.0597 0.0725699L74.0095 52.4845L26.9669 52.4385L7.63056 65.8559L7.64352 52.4195L0 52.4119L0.0506055 0Z" transform="translate(7.934965 -2.684908E-14)" id="Stroke-34" fill="none" stroke="#05142F" stroke-width="1.13618422"/>
    </g>
    <path d="M0.0509907 0L74.6234 0.0730944L74.5728 52.8638L27.1721 52.8175L7.68863 66.3319L7.7017 52.7984L0 52.7907L0.0509907 0Z" transform="translate(8.291504 0)" id="Fill-32" fill="#FFFFFF" stroke="none"/>
    <g id="Group" transform="translate(22.56561 12.67319)">
      <path d="M24.6182 0.0246929L24.6127 5.73005L15.8794 5.72138L15.8608 25.0906L15.8574 28.6247L9.50568 28.6182L9.52761 5.71489L0 5.70536L0.00548364 0L24.6182 0.0246929Z" id="Fill-36" fill="#05142F" stroke="#05142F" stroke-width="1.13618422"/>
      <path d="M0.0271334 0L22.497 0.0222898L22.4919 4.97237L6.22076 4.9562L6.21482 11.5557L20.1614 11.5701L20.1567 16.5198L6.21016 16.5058L6.19829 28.8806L0 28.8744L0.0271334 0Z" transform="translate(24.81285 5.029626E-15)" id="Fill-40" fill="#006EE8" stroke="#006EE8" stroke-width="1.13618422"/>
    </g>
  </g>
</svg>