<?xml version="1.0" encoding="UTF-8"?>
<svg width="46px" height="62px" viewBox="0 0 46 62" version="1.1" xmlns:xlink="http://www.w3.org/1999/xlink" xmlns="http://www.w3.org/2000/svg">
  <desc>Created with Lunacy</desc>
  <g id="003-woman-13">
    <path d="M5.13387 19.5085L5.13387 26.6138C5.13495 30.2166 7.74081 33.2908 11.2945 33.8833L11.2945 33.8833L11.2945 6.16059C11.2945 2.75795 8.53651 0 5.13387 0L0 0L5.13387 10.2676L5.13387 19.5085L5.13387 19.5085Z" transform="translate(29.80308 3.080297)" id="Path" fill="#5C3724" stroke="none"/>
    <path d="M26.6958 15.4015L26.6958 13.3479C26.6958 5.97578 20.7201 0 13.3479 0L13.3479 0C5.97578 0 0 5.97578 0 13.3479L0 18.4818L26.6959 18.4818L26.6959 15.4015L26.6958 15.4015Z" transform="translate(9.267963 1.026726)" id="Path" fill="#70432C" stroke="none"/>
    <path d="M8.48104 0C3.36775 2.00219 0.00204551 6.93271 0 12.4238L0 17.5577L5.72935 17.5577C5.67184 11.5932 6.6011 5.66065 8.48104 0Z" transform="translate(9.267843 1.950815)" id="Path" fill="#5C3724" stroke="none"/>
    <path d="M0 0L4.10702 0L4.10702 8.21416L0 8.21416L0 0Z" transform="translate(5.160821 53.39177)" id="Rectangle" fill="#FEDAC6" stroke="none"/>
    <path d="M0 0L4.10702 0L4.10702 8.21416L0 8.21416L0 0Z" transform="translate(1.053678 53.39177)" id="Rectangle" fill="#F5C4B0" stroke="none"/>
    <path d="M0 0L8.21416 0L8.21416 8.21416L0 8.21416L0 0Z" transform="translate(35.96379 53.39177)" id="Rectangle" fill="#FEDAC6" stroke="none"/>
    <path d="M43.1242 7.05388C43.1478 3.92738 40.8263 1.27832 37.7235 0.893286L30.5978 0L30.1459 1.02673C28.1078 5.76725 22.6126 7.95848 17.872 5.92031C15.6748 4.97564 13.9241 3.22396 12.9785 1.02673L12.5266 0L5.40093 0.893286C2.29801 1.27832 -0.023524 3.92738 0.000179888 7.05388L0.000179888 11.8797L8.21434 11.8797L7.99872 12.311C6.78923 14.7269 6.15981 17.3924 6.16077 20.0939L36.9637 20.0939C36.9648 17.3925 36.3354 14.7269 35.1258 12.311L34.9102 11.8797L43.1243 11.8797L43.1243 7.05388L43.1242 7.05388Z" transform="translate(1.053619 41.51217)" id="Path" fill="#2E6AA3" stroke="none"/>
    <path d="M4.10702 0C1.64796 0.869702 0.0030081 3.19328 0 5.80118L0 10.627L4.10702 10.627L4.10702 0L4.10702 0Z" transform="translate(1.053798 42.76475)" id="Path" fill="#245E8F" stroke="none"/>
    <path d="M9.03538 14.3748C12.7707 14.3768 16.1477 12.1508 17.6192 8.71724L18.071 7.69051L16.0174 7.43386C14.9844 7.30343 14.2123 6.42146 14.2206 5.38029L14.2206 0L3.90163 0L3.90163 5.36994C3.90981 6.41111 3.13769 7.29308 2.10483 7.42352L0 7.68017L0.451817 8.70689C1.91989 12.1446 5.29799 14.3748 9.03538 14.3748Z" transform="translate(13.58038 33.88327)" id="Path" fill="#FEDAC6" stroke="none"/>
    <path d="M10.2676 5.68832L10.2676 0L0 0L0 5.68832C3.85037 7.69052 6.41724 7.69052 10.2676 5.68832Z" transform="translate(17.48201 33.88327)" id="Path" fill="#F5C4B0" stroke="none"/>
    <path d="M1.0275 0C0.329261 1.90365 -0.0187167 3.91715 0.000775809 5.94497L6.85961 5.94497C4.13138 4.92438 1.99575 2.7476 1.0275 0Z" transform="translate(7.213616 55.66096)" id="Path" fill="#245E8F" stroke="none"/>
    <path d="M2.05357 4.10714C3.18773 4.10714 4.10714 3.18773 4.10714 2.05357C4.10714 0.919415 3.18773 0 2.05357 0C0.919415 0 0 0.919415 0 2.05357C0 3.18773 0.919415 4.10714 2.05357 4.10714Z" transform="translate(26.72278 17.45494)" id="Oval" fill="#000000" stroke="none"/>
    <path d="M3.78172 8.62074L0.701423 7.59402C0.419022 7.49956 0.191129 7.28803 0.0781442 7.01285C-0.0358027 6.73767 -0.0244922 6.42651 0.107864 6.16059L3.18816 0L5.02503 0.918915L2.47452 6.0209L4.43159 6.67293L3.78172 8.62074Z" transform="translate(18.50964 18.02275)" id="SVGCleanerId_0" fill="#000000" stroke="none"/>
    <path d="M2.05357 4.10714C3.18773 4.10714 4.10714 3.18773 4.10714 2.05357C4.10714 0.919415 3.18773 0 2.05357 0C0.919415 0 0 0.919415 0 2.05357C0 3.18773 0.919415 4.10714 2.05357 4.10714Z" transform="translate(13.37487 17.45494)" id="Oval" fill="#000000" stroke="none"/>
    <path d="M22.589 6.16059L22.394 14.1488C22.4237 18.4623 19.9708 22.4092 16.0896 24.2932L14.036 25.3199L15.9766 24.3445L14.036 25.3199C12.3039 26.1845 10.2647 26.1845 8.53254 25.3199L6.47897 24.2932C2.5978 22.409 0.14487 18.4622 0.17459 14.1488L0 7.18732L2.54642 1.24235C2.87093 0.487675 3.61429 -0.00108112 4.43563 1.79585e-06L18.2354 1.79585e-06C19.0147 1.79585e-06 19.7262 0.441471 20.0733 1.13971L22.589 6.16059Z" transform="translate(11.32117 10.26761)" id="Path" fill="#FEDAC6" stroke="none"/>
    <path d="M0 3.0803C0 4.78168 1.37891 6.16059 3.0803 6.16059L5.13387 6.16059L5.13387 0L3.0803 0C1.37903 -3.41982e-15 0 1.37903 0 3.0803Z" transform="translate(7.214272 16.42821)" id="Path" fill="#F5C4B0" stroke="none"/>
    <path d="M2.05357 0L0 0L0 6.16059L2.05357 6.16059C3.75495 6.16059 5.13387 4.78168 5.13387 3.0803C5.13387 1.37903 3.75495 0 2.05357 0Z" transform="translate(32.88337 16.42821)" id="Path" fill="#FEDAC6" stroke="none"/>
    <path d="M4.10702 15.3403C3.56183 10.227 3.74557 5.06231 4.65125 0.000398677L4.43563 0.000398677C3.59673 -0.0160857 2.83279 0.47989 2.50527 1.25309L0 7.18784L0.195045 14.1493C0.165325 18.4628 2.61825 22.4097 6.49943 24.2937L6.86906 24.4888L6.16059 23.154C4.80526 20.7616 4.53826 18.3385 4.10702 15.3403Z" transform="translate(11.32141 10.26722)" id="Path" fill="#F5C4B0" stroke="none"/>
    <path d="M2.05357 4.10714C3.18773 4.10714 4.10714 3.18773 4.10714 2.05357C4.10714 0.919415 3.18773 0 2.05357 0C0.919415 0 0 0.919415 0 2.05357C0 3.18773 0.919415 4.10714 2.05357 4.10714Z" transform="translate(26.72278 17.45494)" id="Oval" fill="#000000" stroke="none"/>
    <path d="M3.78172 8.62074L0.701423 7.59402C0.419022 7.49956 0.191129 7.28803 0.0781442 7.01285C-0.0358027 6.73767 -0.0244922 6.42651 0.107864 6.16059L3.18816 0L5.02503 0.918915L2.47452 6.0209L4.43159 6.67293L3.78172 8.62074Z" transform="translate(18.50964 18.02275)" id="SVGCleanerId_0_1_" fill="#000000" stroke="none"/>
    <path d="M2.05357 4.10714C3.18773 4.10714 4.10714 3.18773 4.10714 2.05357C4.10714 0.919415 3.18773 0 2.05357 0C0.919415 0 0 0.919415 0 2.05357C0 3.18773 0.919415 4.10714 2.05357 4.10714Z" transform="translate(13.37487 17.45494)" id="Oval" fill="#000000" stroke="none"/>
    <path d="M0.0915058 2.05357L0.0288174 2.05357L0.0288174 0L0.0915058 2.05357Z" transform="translate(30.8011 30.80297)" id="Path" fill="#000000" stroke="none"/>
    <path d="M2.05357 17.4551L0 17.4551L0 14.3748C0.000120324 6.44805 6.44817 0 14.3748 0C22.3014 0 28.7495 6.44805 28.7495 14.3748L28.7495 16.4283L26.6959 16.4283L26.6959 14.3748C26.6959 7.58066 21.1689 2.05357 14.3748 2.05357C7.58066 2.05357 2.05357 7.58066 2.05357 14.3748L2.05357 17.4551L2.05357 17.4551Z" transform="translate(8.240997 0)" id="Path" fill="#000000" stroke="none"/>
    <path d="M13.2083 21.1052C14.2126 21.6062 15.3142 21.8568 16.417 21.8568C17.5177 21.8568 18.6185 21.6072 19.6214 21.1073C19.6234 21.1062 19.6255 21.1052 19.6275 21.1041L21.6698 20.0825C25.8826 18.0381 28.584 13.6908 28.5531 9.03959L28.5737 8.21404L28.7483 8.21404C31.0133 8.21404 32.8553 6.372 32.8553 4.10702C32.8553 1.84204 31.0134 0 28.7483 0L27.7216 0C27.1641 0 26.7092 0.44568 26.6949 1.00218L26.5008 9.02226C26.5265 12.9179 24.2789 16.5352 20.7632 18.2416L20.7397 18.2539C20.7098 18.2663 20.679 18.2786 20.6493 18.294L18.7098 19.2683C17.2754 19.9829 15.5597 19.984 14.1253 19.2683L12.0604 18.2364C8.55613 16.5351 6.30847 12.9178 6.33518 8.99242L6.16059 1.00422C6.14832 0.446643 5.69241 0 5.13387 0L4.10714 0C1.84216 0 0 1.84228 0 4.10726C0 6.37224 1.84192 8.21429 4.10702 8.21429L4.26417 8.21429L4.2827 9.00794C4.24985 13.691 6.95124 18.0383 11.1538 20.0785L13.2083 21.1052ZM28.6253 6.16059L28.7496 6.16059C29.8821 6.16059 30.8032 5.23963 30.8032 4.10702C30.8032 2.97453 29.8822 2.05345 28.7496 2.05345L28.725 2.05345L28.6253 6.16059ZM2.05357 4.10714C2.05357 2.97453 2.97465 2.05357 4.10714 2.05357L4.21904 6.16071L4.10714 6.16071C2.97453 6.16071 2.05357 5.23963 2.05357 4.10714Z" transform="translate(6.187426 15.40148)" id="Shape" fill="#000000" fill-rule="evenodd" stroke="none"/>
    <path d="M3.80729 4.83306L1.75372 4.83306C1.75372 3.50853 0.487674 1.94275 0 1.45087L1.45388 0C1.69416 0.240408 3.80729 2.42333 3.80729 4.83306Z" transform="translate(17.78174 5.434558)" id="Path" fill="#000000" stroke="none"/>
    <path d="M2.05357 4.83294L0 4.83294C0 2.42309 2.11409 0.240167 2.35438 0L3.80729 1.45087C3.32058 1.94263 2.05357 3.50841 2.05357 4.83294Z" transform="translate(23.64248 5.434679)" id="Path" fill="#000000" stroke="none"/>
    <path d="M1.51861 2.74038L0 1.35738C0.706423 0.581165 1.67154 0.0985454 2.71584 0L2.90992 2.04431C2.37592 2.09556 1.88211 2.34307 1.51861 2.74038Z" transform="translate(29.04335 8.218256)" id="Path" fill="#000000" stroke="none"/>
    <path d="M1.39022 2.73942C1.02781 2.34211 0.534961 2.0946 0 2.04431L0.193 0C1.23825 0.0985454 2.20241 0.581165 2.9098 1.35846L1.39022 2.73942Z" transform="translate(14.30521 8.219218)" id="Path" fill="#000000" stroke="none"/>
    <path d="M0 0L5.52884 0L5.52884 2.05339L0 2.05339L0 0Z" transform="matrix(-0.3715114 0.9284284 -0.9284284 -0.3715114 14.32916 12.70356)" id="Rectangle" fill="#000000" stroke="none"/>
    <path d="M0 0L2.05339 0L2.05339 4.59143L0 4.59143L0 0Z" transform="matrix(-0.8944272 0.4472135 -0.4472135 -0.8944272 34.82809 15.96859)" id="Rectangle" fill="#000000" stroke="none"/>
    <path d="M11.2945 35.9367C11.238 35.9367 11.1826 35.9315 11.1261 35.9224C7.06014 35.2447 4.10823 31.7609 4.10714 27.6405L4.10714 20.5352L6.16071 20.5352L6.16071 27.6405C6.1618 30.3326 7.83021 32.6655 10.2677 33.5773L10.2677 7.18732C10.2677 4.35658 7.96473 2.05345 5.13387 2.05345L0 2.05345L0 0L5.13387 0C9.09614 0 12.3212 3.22408 12.3212 7.18732L12.3212 34.91C12.3212 35.2119 12.1887 35.4984 11.9577 35.6934C11.7719 35.8515 11.5358 35.9367 11.2945 35.9367Z" transform="translate(29.80308 2.053571)" id="Path" fill="#000000" stroke="none"/>
    <path d="M2.66037 2.77949L0 2.77949L0 0.725915L2.65928 0.725915C3.30927 0.725915 3.94687 0.460961 4.40687 0L5.86075 1.45087C5.01884 2.29482 3.85242 2.77949 2.66037 2.77949Z" transform="translate(20.56231 26.99676)" id="Path" fill="#000000" stroke="none"/>
    <path d="M2.05378 26.6958L0.00021016 26.6958L0.00021016 13.6559C-0.0274644 10.016 2.68115 6.92658 6.30146 6.4768L15.5424 5.32687C16.0567 5.26213 16.4429 4.82066 16.4397 4.30014L16.4397 0L18.4933 0L18.4933 4.29184C18.5056 5.84631 17.3464 7.17083 15.798 7.36395L6.55607 8.51389C3.9697 8.83528 2.03525 11.0429 2.05474 13.6478L2.05474 26.6958L2.05378 26.6958Z" transform="translate(0.02674244 34.91011)" id="Path" fill="#000000" stroke="none"/>
    <path d="M18.4922 26.6959L16.4387 26.6959L16.4387 13.7073C16.4592 11.0942 14.5237 8.88774 11.9383 8.56527L2.6974 7.4163C1.14703 7.22125 -0.0121765 5.89672 9.65472e-05 4.336L9.65472e-05 0L2.05367 0L2.05367 4.34322C2.04958 4.87204 2.43558 5.31243 2.95213 5.37825L12.191 6.52722C15.8114 6.97699 18.5199 10.0675 18.4922 13.7145L18.4922 26.6959L18.4922 26.6959Z" transform="translate(26.72268 34.90999)" id="Path" fill="#000000" stroke="none"/>
    <path d="M10.1896 8.61869C10.1856 8.61869 10.1815 8.61869 10.1783 8.61869C6.0292 8.61869 2.29169 6.15446 0.65709 2.33898L0 0.810142L1.88716 6.83963e-15L2.54425 1.52992C3.85543 4.58868 6.85258 6.56512 10.1793 6.56512C10.1824 6.56512 10.1854 6.56512 10.1886 6.56512C13.5173 6.56512 16.5145 4.58964 17.8257 1.53088L18.4827 0L20.3699 0.810142L19.7128 2.34006C18.0783 6.15446 14.3399 8.61869 10.1896 8.61869Z" transform="translate(12.43128 40.66605)" id="Path" fill="#000000" stroke="none"/>
    <path d="M0 11.2943C0 8.4482 0.672491 5.59784 1.94672 3.0525L2.05345 2.83796L2.05345 0L4.10702 0L4.10702 3.0803C4.10702 3.23949 4.07008 3.39759 3.99921 3.53921L3.78359 3.97045C2.6511 6.23243 2.05345 8.76549 2.05345 11.2943L0 11.2943L0 11.2943Z" transform="translate(6.187546 50.3116)" id="Path" fill="#000000" stroke="none"/>
    <path d="M0 0L8.21416 0L8.21416 2.05357L0 2.05357L0 0Z" transform="translate(1.053678 52.36505)" id="Rectangle" fill="#000000" stroke="none"/>
    <path d="M0 0L8.21416 0L8.21416 2.05357L0 2.05357L0 0Z" transform="translate(35.96379 52.36505)" id="Rectangle" fill="#000000" stroke="none"/>
    <path d="M4.10714 11.2943L2.05357 11.2943C2.05465 8.76537 1.457 6.23339 0.323431 3.97045L0.10781 3.53921C0.0369395 3.39651 0 3.23937 0 3.0803L0 0L2.05357 0L2.05357 2.83796L2.1603 3.0525C3.43561 5.59892 4.10811 8.44916 4.10714 11.2943Z" transform="translate(34.93694 50.3116)" id="Path" fill="#000000" stroke="none"/>
  </g>
</svg>