<?xml version="1.0" encoding="UTF-8"?>
<svg width="46px" height="62px" viewBox="0 0 46 62" version="1.1" xmlns:xlink="http://www.w3.org/1999/xlink" xmlns="http://www.w3.org/2000/svg">
  <desc>Created with Lunacy</desc>
  <g id="015-man-11">
    <path d="M23.5798 38.6273C30.7563 36.341 34.8572 29.4003 34.8572 29.4003C32.938 28.1198 31.7836 25.9659 31.7816 23.6592L31.7816 14.3503C31.7816 7.58087 27.0522 1.73204 20.4325 0.315219L20.4325 0.315219C18.4518 -0.105073 16.4055 -0.105073 14.4247 0.315219L14.4247 0.315219C7.80494 1.73204 3.0756 7.58087 3.0756 14.3503L3.0756 23.6592C3.07356 25.9659 1.91917 28.1198 0 29.4003C0 29.4003 3.0756 37.602 11.2774 38.6273L23.5798 38.6273Z" transform="translate(5.192105 1.026395)" id="Path" fill="#DBDBDB" stroke="none"/>
    <path d="M15.1525 0C14.9065 0 14.6604 0.0614856 14.4247 0.112744C7.80494 1.52956 3.0756 7.37839 3.0756 14.1478L3.0756 23.4567C3.07356 25.7634 1.91917 27.9174 0 29.1978C0 29.1978 3.0756 37.3995 11.2774 38.4248L15.7781 38.4248C12.6295 25.8343 12.4162 12.6879 15.1525 0Z" transform="translate(5.192225 1.22875)" id="Path" fill="#BFBFBF" stroke="none"/>
    <path d="M35.9439 1.02516L28.5112 0L21.5295 4.02905L14.5478 0.0410305L7.115 1.06619C3.05719 1.60849 0.0205754 5.06035 0 9.1551L0 20.4325L43.0588 20.4325L43.0588 9.1551C43.0599 5.04615 40.0181 1.57059 35.9439 1.02516Z" transform="translate(1.091219 41.07865)" id="Path" fill="#DBDBDB" stroke="none"/>
    <path d="M13.9634 7.28923L13.1329 7.17649L13.1329 0L0.830357 0L0.830357 7.17649L0 7.28923L6.98169 11.2773L13.9634 7.28923Z" transform="translate(15.639 33.83044)" id="Path" fill="#FEDAC6" stroke="none"/>
    <g id="Group" transform="translate(14.31857 40.91019)">
      <path d="M2.05032 8.20165L8.20165 4.10077L2.05032 0L0 0L2.05032 8.20165Z" transform="translate(0.1004706 0.09674057)" id="Path" fill="#EAEAEA" stroke="none"/>
      <path d="M0 4.10077L6.15121 8.20165L8.20165 0L6.15121 0L0 4.10077Z" transform="translate(8.302122 0.09674057)" id="Path" fill="#EAEAEA" stroke="none"/>
    </g>
    <path d="M0 16.4034L1.02516 5.12605L0 2.05044L3.0756 0L6.15121 2.05044L5.12605 5.12605L6.15121 16.4034" transform="translate(19.54509 45.1077)" id="Path" fill="#2E6AA3" stroke="none"/>
    <path d="M0 7.09443L0 18.3718L4.10089 18.3718L4.10089 0C1.5665 1.46398 0.00312843 4.16755 0 7.09443Z" transform="translate(1.091219 43.13932)" id="Path" fill="#BFBFBF" stroke="none"/>
    <path d="M0 0L0 4.10089L0.90219 5.00308C2.29446 6.39535 4.18283 7.17649 6.15121 7.17649L6.15121 7.17649C8.11959 7.17649 10.0081 6.39523 11.4002 5.00308L12.3024 4.10089L12.3024 0L0 0Z" transform="translate(16.46936 33.83044)" id="Path" fill="#F5C4B0" stroke="none"/>
    <g id="Group" transform="translate(8.182038 9.505604)">
      <path d="M22.5342 3.07464L22.5342 17.5814C22.5475 19.0885 22.0082 20.5474 21.0169 21.6823L16.588 26.6956C15.8109 27.5803 14.6904 28.0888 13.5124 28.0899L9.02202 28.0899C7.84405 28.0888 6.72347 27.5803 5.94642 26.6956L1.51753 21.631C0.526179 20.4961 -0.0131137 19.0372 0.00024226 17.5301L0.00024226 3.07464C0.00132518 1.37591 1.37807 -0.000962088 3.07693 5.04416e-07C3.26247 5.04416e-07 3.44705 0.0163646 3.62946 0.050296L5.41338 0.368072C9.29071 1.07546 13.2644 1.07546 17.1417 0.368072L18.9257 0.050296C20.5988 -0.243896 22.1931 0.873553 22.4882 2.54666C22.5189 2.72089 22.5342 2.89825 22.5342 3.07464Z" transform="translate(3.181728 0.007820562)" id="Path" fill="#FEDAC6" stroke="none"/>
      <path d="M1.02516 0L0 0L0 6.15121L1.02516 6.15121C2.7239 6.15121 4.10077 4.77434 4.10077 3.0756C4.10077 1.37687 2.72402 0 1.02516 0Z" transform="translate(24.69074 7.593413)" id="Path" fill="#FEDAC6" stroke="none"/>
      <path d="M0 3.0756C0 4.77434 1.37687 6.15121 3.0756 6.15121L4.10077 6.15121L4.10077 0L3.0756 0C1.37687 0 0 1.37783 0 3.0756Z" transform="translate(0.08567075 7.593413)" id="Path" fill="#FEDAC6" stroke="none"/>
    </g>
    <path d="M14.353 5.12605L0 5.12605L0 4.10089C0 1.83615 1.83615 0 4.10089 0L10.2521 0C12.5168 0 14.353 1.83615 14.353 4.10089L14.353 5.12605L14.353 5.12605Z" transform="translate(15.4442 24.27551)" id="Path" fill="#DBDBDB" stroke="none"/>
    <path d="M4.10101 0.132776L3.62946 0.0507155C1.9584 -0.254787 0.35592 0.851352 0.0504174 2.52253C0.0166063 2.70506 0.00024226 2.88952 0.00024226 3.07506L0.00024226 17.5818C-0.0131137 19.0889 0.526179 20.5478 1.51753 21.6827L4.10101 24.5738L4.10101 0.132776L4.10101 0.132776Z" transform="translate(11.34319 9.512884)" id="Path" fill="#F5C4B0" stroke="none"/>
    <path d="M1.02516 8.20177L0 8.20177L0 6.15133L1.02516 6.15133C2.15597 6.15133 3.07561 5.23169 3.07561 4.10089C3.07561 2.97008 2.15597 2.05044 1.02516 2.05044L0 2.05044L0 0L1.02516 0C3.28677 0 5.12605 1.83927 5.12605 4.10089C5.12605 6.3625 3.28677 8.20177 1.02516 8.20177Z" transform="translate(32.87278 16.0747)" id="Path" fill="#000000" stroke="none"/>
    <path d="M5.12605 8.20177L4.10089 8.20177C1.83927 8.20177 0 6.3625 0 4.10089C0 1.83927 1.83927 0 4.10089 0L5.12605 0L5.12605 2.05044L4.10089 2.05044C2.97008 2.05044 2.05044 2.97008 2.05044 4.10089C2.05044 5.23169 2.97008 6.15133 4.10089 6.15133L5.12605 6.15133L5.12605 8.20177Z" transform="translate(7.242548 16.0747)" id="Path" fill="#000000" stroke="none"/>
    <path d="M4.1013 9.354L1.0257 9.354C0.731504 9.354 0.45163 9.2279 0.256826 9.00746C0.062021 8.78703 -0.0282221 8.4938 0.00775484 8.20165L1.03292 0L3.06687 0.254245L2.18622 7.30355L4.10034 7.30355L4.10034 9.354L4.1013 9.354Z" transform="translate(19.54455 15.94764)" id="Path" fill="#000000" stroke="none"/>
    <path d="M10.0464 30.1402L14.5388 30.1402C16.01 30.1382 17.4114 29.5015 18.3813 28.3974L22.8134 23.3791C23.9718 22.0535 24.6013 20.3537 24.5849 18.6046L24.5849 4.09788C24.5849 3.863 24.5634 3.62729 24.5223 3.39145C24.1297 1.16462 22.0054 -0.331132 19.7705 0.064614L17.9825 0.383473C14.2138 1.07245 10.3918 1.0704 6.61798 0.383473L4.84031 0.0666595C4.5963 0.021538 4.34915 0 4.10213 0L4.10008 0C3.00513 0 1.97588 0.425466 1.20183 1.19951C0.427788 1.97356 0.000276508 3.00293 0.000276508 4.09884L0.000276508 18.5471C-0.015125 20.3064 0.613328 22.0062 1.77085 23.3318L6.20082 28.3973C7.17171 29.5025 8.57217 30.1382 10.0464 30.1402ZM2.65041 2.65014C3.03798 2.26366 3.55164 2.05044 4.10008 2.05044C4.22413 2.05044 4.34711 2.06067 4.47429 2.08425L6.25304 2.40203C10.2678 3.13204 14.3369 3.133 18.3465 2.40203L20.1282 2.08425C21.2406 1.88945 22.3058 2.63582 22.5016 3.74509C22.5211 3.86204 22.5324 3.97996 22.5324 4.09884L22.5324 18.6158C22.5447 19.8716 22.0956 21.0855 21.2724 22.0287L16.8424 27.044C16.2591 27.7084 15.4174 28.0897 14.5368 28.0907L10.0473 28.0907C9.16368 28.0898 8.32298 27.7084 7.74169 27.0461L3.31376 21.9826C2.48738 21.0353 2.03833 19.8215 2.04964 18.5553L2.04964 4.0998C2.04964 3.55233 2.26285 3.03662 2.65041 2.65014Z" transform="translate(10.33941 8.489226)" id="Shape" fill="#000000" fill-rule="evenodd" stroke="none"/>
    <path d="M2.05044 4.10089C3.18287 4.10089 4.10089 3.18287 4.10089 2.05044C4.10089 0.918014 3.18287 0 2.05044 0C0.918014 0 0 0.918014 0 2.05044C0 3.18287 0.918014 4.10089 2.05044 4.10089Z" transform="translate(14.42409 16.07482)" id="Oval" fill="#000000" stroke="none"/>
    <path d="M2.05044 4.10089C3.18287 4.10089 4.10089 3.18287 4.10089 2.05044C4.10089 0.918014 3.18287 0 2.05044 0C0.918014 0 0 0.918014 0 2.05044C0 3.18287 0.918014 4.10089 2.05044 4.10089Z" transform="translate(25.70147 16.07482)" id="Oval" fill="#000000" stroke="none"/>
    <path d="M1.02516 7.17637L15.3781 7.17637C15.9451 7.17637 16.4033 6.71697 16.4033 6.15121L16.4033 5.12605C16.4033 2.29951 14.1038 0 11.2773 0L5.12605 0C2.29951 0 0 2.29951 0 5.12605L0 6.15121C0 6.71709 0.459277 7.17637 1.02516 7.17637ZM14.3529 5.12593L2.05032 5.12593C2.05032 3.42912 3.43032 2.0502 5.12605 2.05032L11.2773 2.05032C12.973 2.05032 14.3529 3.4302 14.3529 5.12593Z" transform="translate(14.41904 23.25143)" id="Shape" fill="#000000" fill-rule="evenodd" stroke="none"/>
    <path d="M0 0L4.10089 0L4.10089 2.05044L0 2.05044L0 0Z" transform="translate(20.57542 32.47812)" id="Rectangle" fill="#000000" stroke="none"/>
    <path d="M2.05044 22.226L0 22.226L0 15.3776C0 8.17247 5.11377 1.84788 12.159 0.339855C14.2956 -0.113285 16.4597 -0.113285 18.5943 0.339855C25.6415 1.848 30.7553 8.17247 30.7553 15.3776L30.7553 21.2008L28.7049 21.2008L28.7049 15.3776C28.7049 9.13302 24.2729 3.65129 18.1668 2.34518C16.3163 1.95148 14.4391 1.95256 12.5865 2.34518C6.48138 3.65129 2.05044 9.13314 2.05044 15.3776L2.05044 22.226L2.05044 22.226Z" transform="translate(7.242548 6.016205E-05)" id="Path" fill="#000000" stroke="none"/>
    <path d="M0 0L2.05044 0L2.05044 6.15121L0 6.15121L0 0Z" transform="translate(21.60058 4.797442)" id="Rectangle" fill="#000000" stroke="none"/>
    <path d="M0 0L2.05044 0L2.05044 4.10089L0 4.10089L0 0Z" transform="translate(17.4997 5.822724)" id="Rectangle" fill="#000000" stroke="none"/>
    <path d="M0 0L2.05044 0L2.05044 4.10089L0 4.10089L0 0Z" transform="translate(25.70147 5.822724)" id="Rectangle" fill="#000000" stroke="none"/>
    <path d="M0.622316 19.4308L0 17.4767C5.34131 15.7748 8.94393 11.2578 10.207 9.45856C8.48971 7.96377 7.49017 5.79649 7.48813 3.48675L7.48813 0L9.53857 0L9.53857 3.48567C9.54062 5.45309 10.5197 7.28105 12.158 8.37383C12.6112 8.67633 12.7486 9.27915 12.4728 9.74866C12.2953 10.045 8.08482 17.0512 0.622316 19.4308Z" transform="translate(28.46134 21.20086)" id="Path" fill="#000000" stroke="none"/>
    <path d="M3.94085 5.99948C2.12925 4.65342 0.765742 2.81823 0 0.696075L1.92843 0C2.55797 1.7429 3.67638 3.24791 5.16395 4.35405L3.94085 5.99948Z" transform="translate(32.42169 29.05406)" id="Path" fill="#000000" stroke="none"/>
    <path d="M3.40264 5.28704C1.87922 4.11015 0.701249 2.54052 0 0.748416L1.90786 0C2.47579 1.44762 3.42515 2.71379 4.65642 3.66303L3.40264 5.28704Z" transform="translate(29.86889 33.1292)" id="Path" fill="#000000" stroke="none"/>
    <path d="M12.1762 19.4707C3.45978 18.3809 0.200677 9.94551 0.0653125 9.5867C-0.101818 9.1397 0.0601386 8.63734 0.455885 8.37287C2.09422 7.27997 3.07329 5.452 3.07534 3.48362L3.07534 0L5.12578 0L5.12578 3.48567C5.12374 5.84775 4.07908 8.0581 2.2942 9.55494C3.22406 11.4546 6.30893 16.672 12.4295 17.4368L12.1762 19.4707Z" transform="translate(4.166125 21.20086)" id="Path" fill="#000000" stroke="none"/>
    <path d="M1.22309 5.99948L0 4.35405C1.48757 3.24887 2.6061 1.7429 3.23551 0L5.16395 0.696075C4.39712 2.81919 3.03457 4.6533 1.22309 5.99948Z" transform="translate(7.656703 29.05406)" id="Path" fill="#000000" stroke="none"/>
    <path d="M1.25281 5.28596L0 3.66206C1.23128 2.71271 2.18063 1.44654 2.7476 0L4.65654 0.747333C3.95529 2.53932 2.77732 4.10895 1.25281 5.28596Z" transform="translate(10.71691 33.13028)" id="Path" fill="#000000" stroke="none"/>
    <path d="M2.05044 26.6554L0 26.6554L0 15.378C0 10.7738 3.44055 6.84211 8.0048 6.2311L15.3781 5.25311L15.3781 0L17.4286 0L17.4286 6.15121C17.4286 6.66487 17.0472 7.10057 16.5377 7.16723L8.27445 8.26314C4.72621 8.73782 2.04936 11.796 2.05044 15.3771C2.05044 15.3771 2.05044 26.6554 2.05044 26.6554Z" transform="translate(0.06605793 34.85669)" id="Path" fill="#000000" stroke="none"/>
    <path d="M17.4286 26.6544L15.3781 26.6544L15.3781 15.3771C15.3781 11.796 12.7024 8.73673 9.15209 8.26314L0.889917 7.16722C0.380345 7.10056 0 6.66487 0 6.15121L0 0L2.05044 0L2.05044 5.25323L9.4227 6.23122C13.987 6.84127 17.4286 10.7739 17.4286 15.3781L17.4286 26.6544Z" transform="translate(27.74674 34.85765)" id="Path" fill="#000000" stroke="none"/>
    <path d="M0 0L2.05044 0L2.05044 8.20165L0 8.20165L0 0Z" transform="translate(8.272883 53.31043)" id="Rectangle" fill="#000000" stroke="none"/>
    <path d="M0 0L2.05044 0L2.05044 8.20165L0 8.20165L0 0Z" transform="translate(34.92828 53.31043)" id="Rectangle" fill="#000000" stroke="none"/>
    <path d="M3.04492 9.47396C2.9199 9.47396 2.79477 9.45146 2.6748 9.40525C2.36413 9.28529 2.13142 9.02082 2.05044 8.69787L0 0.496217L1.98896 0L3.68673 6.79001L8.62724 3.49602L9.76418 5.20197L3.61297 9.30286C3.4438 9.41548 3.2449 9.47396 3.04492 9.47396Z" transform="translate(13.42444 40.76087)" id="Path" fill="#000000" stroke="none"/>
    <path d="M7.68498 6.01596C7.50967 6.01596 7.33436 5.97084 7.17649 5.8806L0 1.77971L1.01698 0L7.68498 3.81066L14.353 0L15.37 1.77971L8.19347 5.8806C8.03657 5.97084 7.86125 6.01596 7.68498 6.01596Z" transform="translate(14.93571 40.11798)" id="Path" fill="#000000" stroke="none"/>
    <path d="M6.72022 9.47504C6.52133 9.47504 6.32243 9.41656 6.15121 9.30286L0 5.20197L1.13694 3.49602L6.07745 6.79001L7.77522 0L9.7631 0.496217L7.71265 8.69787C7.63264 9.02082 7.39897 9.28529 7.08829 9.40525C6.97038 9.45146 6.84536 9.47504 6.72022 9.47504Z" transform="translate(22.05168 40.75979)" id="Path" fill="#000000" stroke="none"/>
    <path d="M2.04226 14.7712L0 14.5846L1.00579 3.52152L0.04825 0.648908L1.99305 0L3.01821 3.0756C3.06225 3.20989 3.0797 3.35247 3.06634 3.49289L2.04226 14.7712Z" transform="translate(18.5239 46.83423)" id="Path" fill="#000000" stroke="none"/>
    <path d="M1.02911 14.7703L0.00394373 3.49289C-0.00832933 3.35139 0.00803475 3.20989 0.0531563 3.0756L1.07832 0L3.02215 0.648908L2.06461 3.52153L3.0704 14.5846L1.02911 14.7703Z" transform="translate(23.64612 46.83519)" id="Path" fill="#000000" stroke="none"/>
    <path d="M0 0L4.10089 0L4.10089 2.05044L0 2.05044L0 0Z" transform="translate(20.57542 49.20955)" id="Rectangle" fill="#000000" stroke="none"/>
  </g>
</svg>