<svg id="svg" version="1.1" xmlns="http://www.w3.org/2000/svg" xmlns:xlink="http://www.w3.org/1999/xlink" width="400" height="400" viewBox="0, 0, 400,400"><g id="svgg"><path id="path0" d="M193.704 27.963 L 193.704 31.111 190.556 31.111 L 187.407 31.111 187.407 34.259 L 187.407 37.407 184.259 37.407 L 181.111 37.407 181.111 40.556 L 181.111 43.704 177.963 43.704 L 174.815 43.704 174.815 40.556 L 174.815 37.407 171.852 37.407 L 168.889 37.407 168.889 34.259 L 168.889 31.111 162.593 31.111 L 156.296 31.111 156.296 34.259 L 156.296 37.407 159.444 37.407 L 162.593 37.407 162.593 40.556 L 162.593 43.704 165.741 43.704 L 168.889 43.704 168.889 46.852 L 168.889 50.000 171.852 50.000 L 174.815 50.000 174.815 56.296 L 174.815 62.593 177.963 62.593 L 181.111 62.593 181.111 56.296 L 181.111 50.000 184.259 50.000 L 187.407 50.000 187.407 46.852 L 187.407 43.704 190.556 43.704 L 193.704 43.704 193.704 40.556 L 193.704 37.407 196.852 37.407 L 200.000 37.407 200.000 34.259 L 200.000 31.111 203.148 31.111 L 206.296 31.111 206.296 27.963 L 206.296 24.815 200.000 24.815 L 193.704 24.815 193.704 27.963 M137.407 46.852 L 137.407 50.000 140.556 50.000 L 143.704 50.000 143.704 46.852 L 143.704 43.704 140.556 43.704 L 137.407 43.704 137.407 46.852 M174.815 103.148 L 174.815 106.296 171.852 106.296 L 168.889 106.296 168.889 112.593 L 168.889 118.889 171.852 118.889 L 174.815 118.889 174.815 121.852 L 174.815 124.815 171.852 124.815 L 168.889 124.815 168.889 127.963 L 168.889 131.111 171.852 131.111 L 174.815 131.111 174.815 134.259 L 174.815 137.407 171.852 137.407 L 168.889 137.407 168.889 143.704 L 168.889 150.000 175.000 150.000 L 181.111 150.000 181.111 153.148 L 181.111 156.296 184.259 156.296 L 187.407 156.296 187.407 162.593 L 187.407 168.889 200.000 168.889 L 212.593 168.889 212.593 162.593 L 212.593 156.296 215.741 156.296 L 218.889 156.296 218.889 153.148 L 218.889 150.000 225.000 150.000 L 231.111 150.000 231.111 143.704 L 231.111 137.407 227.963 137.407 L 224.815 137.407 224.815 134.259 L 224.815 131.111 227.963 131.111 L 231.111 131.111 231.111 127.963 L 231.111 124.815 227.963 124.815 L 224.815 124.815 224.815 121.852 L 224.815 118.889 227.963 118.889 L 231.111 118.889 231.111 112.593 L 231.111 106.296 227.963 106.296 L 224.815 106.296 224.815 103.148 L 224.815 100.000 199.815 100.000 L 174.815 100.000 174.815 103.148 M150.000 115.741 L 150.000 118.889 146.852 118.889 L 143.704 118.889 143.704 121.852 L 143.704 124.815 140.556 124.815 L 137.407 124.815 137.407 140.556 L 137.407 156.296 134.259 156.296 L 131.111 156.296 131.111 162.593 L 131.111 168.889 127.963 168.889 L 124.815 168.889 124.815 175.000 L 124.815 181.111 127.963 181.111 L 131.111 181.111 131.111 175.000 L 131.111 168.889 137.407 168.889 L 143.704 168.889 143.704 162.593 L 143.704 156.296 146.852 156.296 L 150.000 156.296 150.000 153.148 L 150.000 150.000 156.296 150.000 L 162.593 150.000 162.593 143.704 L 162.593 137.407 159.259 137.407 L 155.926 137.407 155.926 134.259 L 155.926 131.111 159.259 131.111 L 162.593 131.111 162.593 127.963 L 162.593 124.815 159.259 124.815 L 155.926 124.815 155.926 121.852 L 155.926 118.889 159.259 118.889 L 162.593 118.889 162.593 115.741 L 162.593 112.593 156.296 112.593 L 150.000 112.593 150.000 115.741 M193.704 115.741 L 193.704 118.889 200.000 118.889 L 206.296 118.889 206.296 115.741 L 206.296 112.593 209.444 112.593 L 212.593 112.593 212.593 115.741 L 212.593 118.889 209.444 118.889 L 206.296 118.889 206.296 125.000 L 206.296 131.111 209.444 131.111 L 212.593 131.111 212.593 134.259 L 212.593 137.407 209.444 137.407 L 206.296 137.407 206.296 134.259 L 206.296 131.111 200.000 131.111 L 193.704 131.111 193.704 134.259 L 193.704 137.407 190.556 137.407 L 187.407 137.407 187.407 134.259 L 187.407 131.111 190.556 131.111 L 193.704 131.111 193.704 125.000 L 193.704 118.889 190.556 118.889 L 187.407 118.889 187.407 115.741 L 187.407 112.593 190.556 112.593 L 193.704 112.593 193.704 115.741 M237.407 115.741 L 237.407 118.889 240.741 118.889 L 244.074 118.889 244.074 121.852 L 244.074 124.815 240.741 124.815 L 237.407 124.815 237.407 127.963 L 237.407 131.111 240.741 131.111 L 244.074 131.111 244.074 134.259 L 244.074 137.407 240.741 137.407 L 237.407 137.407 237.407 143.704 L 237.407 150.000 243.704 150.000 L 250.000 150.000 250.000 153.148 L 250.000 156.296 253.148 156.296 L 256.296 156.296 256.296 162.593 L 256.296 168.889 262.593 168.889 L 268.889 168.889 268.889 175.000 L 268.889 181.111 271.852 181.111 L 274.815 181.111 274.815 175.000 L 274.815 168.889 271.852 168.889 L 268.889 168.889 268.889 162.593 L 268.889 156.296 265.741 156.296 L 262.593 156.296 262.593 140.556 L 262.593 124.815 259.444 124.815 L 256.296 124.815 256.296 121.852 L 256.296 118.889 253.148 118.889 L 250.000 118.889 250.000 115.741 L 250.000 112.593 243.704 112.593 L 237.407 112.593 237.407 115.741 M156.296 159.444 L 156.296 162.593 153.148 162.593 L 150.000 162.593 150.000 175.000 L 150.000 187.407 153.148 187.407 L 156.296 187.407 156.296 190.556 L 156.296 193.704 165.556 193.704 L 174.815 193.704 174.815 190.556 L 174.815 187.407 177.963 187.407 L 181.111 187.407 181.111 175.000 L 181.111 162.593 177.963 162.593 L 174.815 162.593 174.815 159.444 L 174.815 156.296 165.556 156.296 L 156.296 156.296 156.296 159.444 M224.815 159.444 L 224.815 162.593 221.852 162.593 L 218.889 162.593 218.889 175.000 L 218.889 187.407 221.852 187.407 L 224.815 187.407 224.815 190.556 L 224.815 193.704 234.259 193.704 L 243.704 193.704 243.704 190.556 L 243.704 187.407 246.852 187.407 L 250.000 187.407 250.000 175.000 L 250.000 162.593 246.852 162.593 L 243.704 162.593 243.704 159.444 L 243.704 156.296 234.259 156.296 L 224.815 156.296 224.815 159.444 M137.407 190.556 L 137.407 206.296 140.556 206.296 L 143.704 206.296 143.704 215.556 L 143.704 224.815 146.852 224.815 L 150.000 224.815 150.000 227.963 L 150.000 231.111 152.963 231.111 L 155.926 231.111 155.926 227.963 L 155.926 224.815 159.259 224.815 L 162.593 224.815 162.593 221.852 L 162.593 218.889 159.259 218.889 L 155.926 218.889 155.926 215.741 L 155.926 212.593 159.259 212.593 L 162.593 212.593 162.593 206.296 L 162.593 200.000 156.296 200.000 L 150.000 200.000 150.000 196.852 L 150.000 193.704 146.852 193.704 L 143.704 193.704 143.704 184.259 L 143.704 174.815 140.556 174.815 L 137.407 174.815 137.407 190.556 M187.407 184.259 L 187.407 193.704 184.259 193.704 L 181.111 193.704 181.111 196.852 L 181.111 200.000 175.000 200.000 L 168.889 200.000 168.889 206.296 L 168.889 212.593 171.852 212.593 L 174.815 212.593 174.815 215.741 L 174.815 218.889 171.852 218.889 L 168.889 218.889 168.889 221.852 L 168.889 224.815 171.852 224.815 L 174.815 224.815 174.815 227.963 L 174.815 231.111 171.852 231.111 L 168.889 231.111 168.889 240.556 L 168.889 250.000 171.852 250.000 L 174.815 250.000 174.815 253.148 L 174.815 256.296 184.259 256.296 L 193.704 256.296 193.704 259.444 L 193.704 262.593 200.000 262.593 L 206.296 262.593 206.296 259.444 L 206.296 256.296 215.556 256.296 L 224.815 256.296 224.815 253.148 L 224.815 250.000 227.963 250.000 L 231.111 250.000 231.111 240.556 L 231.111 231.111 227.963 231.111 L 224.815 231.111 224.815 227.963 L 224.815 224.815 227.963 224.815 L 231.111 224.815 231.111 221.852 L 231.111 218.889 227.963 218.889 L 224.815 218.889 224.815 215.741 L 224.815 212.593 227.963 212.593 L 231.111 212.593 231.111 206.296 L 231.111 200.000 225.000 200.000 L 218.889 200.000 218.889 196.852 L 218.889 193.704 215.741 193.704 L 212.593 193.704 212.593 184.259 L 212.593 174.815 200.000 174.815 L 187.407 174.815 187.407 184.259 M256.296 184.259 L 256.296 193.704 253.148 193.704 L 250.000 193.704 250.000 196.852 L 250.000 200.000 243.704 200.000 L 237.407 200.000 237.407 206.296 L 237.407 212.593 240.741 212.593 L 244.074 212.593 244.074 215.741 L 244.074 218.889 240.741 218.889 L 237.407 218.889 237.407 221.852 L 237.407 224.815 240.741 224.815 L 244.074 224.815 244.074 227.963 L 244.074 231.111 247.037 231.111 L 250.000 231.111 250.000 227.963 L 250.000 224.815 253.148 224.815 L 256.296 224.815 256.296 215.556 L 256.296 206.296 259.444 206.296 L 262.593 206.296 262.593 190.556 L 262.593 174.815 259.444 174.815 L 256.296 174.815 256.296 184.259 M206.296 215.556 L 206.296 218.889 200.000 218.889 L 193.704 218.889 193.704 215.556 L 193.704 212.222 200.000 212.222 L 206.296 212.222 206.296 215.556 M156.296 234.259 L 156.296 237.407 159.444 237.407 L 162.593 237.407 162.593 234.259 L 162.593 231.111 159.444 231.111 L 156.296 231.111 156.296 234.259 M237.407 234.259 L 237.407 237.407 240.556 237.407 L 243.704 237.407 243.704 234.259 L 243.704 231.111 240.556 231.111 L 237.407 231.111 237.407 234.259 M187.407 287.407 L 187.407 293.704 190.556 293.704 L 193.704 293.704 193.704 296.852 L 193.704 300.000 200.000 300.000 L 206.296 300.000 206.296 296.852 L 206.296 293.704 209.444 293.704 L 212.593 293.704 212.593 287.407 L 212.593 281.111 200.000 281.111 L 187.407 281.111 187.407 287.407 M193.704 325.000 L 193.704 337.407 200.000 337.407 L 206.296 337.407 206.296 325.000 L 206.296 312.593 200.000 312.593 L 193.704 312.593 193.704 325.000 M174.815 377.963 L 174.815 381.111 177.963 381.111 L 181.111 381.111 181.111 377.963 L 181.111 374.815 177.963 374.815 L 174.815 374.815 174.815 377.963 M218.889 377.963 L 218.889 381.111 222.037 381.111 L 225.185 381.111 225.185 377.963 L 225.185 374.815 222.037 374.815 L 218.889 374.815 218.889 377.963 M174.815 396.852 L 174.815 400.000 177.963 400.000 L 181.111 400.000 181.111 396.852 L 181.111 393.704 177.963 393.704 L 174.815 393.704 174.815 396.852 M218.889 396.852 L 218.889 400.000 222.037 400.000 L 225.185 400.000 225.185 396.852 L 225.185 393.704 222.037 393.704 L 218.889 393.704 218.889 396.852 " stroke="none" fill="#ebe8bf" fill-rule="evenodd"></path><path id="path1" d="M224.815 40.556 L 224.815 43.704 221.852 43.704 L 218.889 43.704 218.889 46.852 L 218.889 50.000 221.852 50.000 L 224.815 50.000 224.815 46.852 L 224.815 43.704 227.963 43.704 L 231.111 43.704 231.111 40.556 L 231.111 37.407 227.963 37.407 L 224.815 37.407 224.815 40.556 M131.111 65.741 L 131.111 68.889 134.259 68.889 L 137.407 68.889 137.407 65.741 L 137.407 62.593 134.259 62.593 L 131.111 62.593 131.111 65.741 M162.593 96.944 L 162.593 100.000 159.444 100.000 L 156.296 100.000 156.296 103.148 L 156.296 106.296 146.852 106.296 L 137.407 106.296 137.407 109.444 L 137.407 112.593 134.259 112.593 L 131.111 112.593 131.111 121.852 L 131.111 131.111 127.963 131.111 L 124.815 131.111 124.815 134.259 L 124.815 137.407 127.963 137.407 L 131.111 137.407 131.111 140.556 L 131.111 143.704 125.000 143.704 L 118.889 143.704 118.889 146.852 L 118.889 150.000 121.852 150.000 L 124.815 150.000 124.815 156.296 L 124.815 162.593 121.852 162.593 L 118.889 162.593 118.889 175.000 L 118.889 187.407 121.852 187.407 L 124.815 187.407 124.815 190.556 L 124.815 193.704 127.963 193.704 L 131.111 193.704 131.111 200.000 L 131.111 206.296 134.259 206.296 L 137.407 206.296 137.407 215.556 L 137.407 224.815 140.556 224.815 L 143.704 224.815 143.704 231.111 L 143.704 237.407 140.556 237.407 L 137.407 237.407 137.407 240.556 L 137.407 243.704 134.259 243.704 L 131.111 243.704 131.111 246.852 L 131.111 250.000 125.000 250.000 L 118.889 250.000 118.889 253.148 L 118.889 256.296 115.741 256.296 L 112.593 256.296 112.593 259.444 L 112.593 262.593 103.148 262.593 L 93.704 262.593 93.704 265.741 L 93.704 268.889 90.556 268.889 L 87.407 268.889 87.407 275.000 L 87.407 281.111 84.259 281.111 L 81.111 281.111 81.111 296.852 L 81.111 312.593 77.963 312.593 L 74.815 312.593 74.815 334.444 L 74.815 356.296 77.963 356.296 L 81.111 356.296 81.111 362.593 L 81.111 368.889 84.259 368.889 L 87.407 368.889 87.407 375.000 L 87.407 381.111 90.556 381.111 L 93.704 381.111 93.704 384.259 L 93.704 387.407 96.852 387.407 L 100.000 387.407 100.000 390.556 L 100.000 393.704 103.148 393.704 L 106.296 393.704 106.296 396.852 L 106.296 400.000 112.593 400.000 L 118.889 400.000 118.889 396.852 L 118.889 393.704 115.741 393.704 L 112.593 393.704 112.593 390.556 L 112.593 387.407 109.444 387.407 L 106.296 387.407 106.296 384.259 L 106.296 381.111 103.148 381.111 L 100.000 381.111 100.000 377.963 L 100.000 374.815 96.852 374.815 L 93.704 374.815 93.704 368.704 L 93.704 362.593 90.556 362.593 L 87.407 362.593 87.407 356.296 L 87.407 350.000 84.259 350.000 L 81.111 350.000 81.111 331.296 L 81.111 312.593 84.259 312.593 L 87.407 312.593 87.407 300.000 L 87.407 287.407 90.556 287.407 L 93.704 287.407 93.704 290.556 L 93.704 293.704 96.852 293.704 L 100.000 293.704 100.000 309.259 L 100.000 324.815 103.148 324.815 L 106.296 324.815 106.296 331.111 L 106.296 337.407 109.444 337.407 L 112.593 337.407 112.593 340.556 L 112.593 343.704 115.741 343.704 L 118.889 343.704 118.889 350.000 L 118.889 356.296 121.852 356.296 L 124.815 356.296 124.815 359.444 L 124.815 362.593 127.963 362.593 L 131.111 362.593 131.111 365.741 L 131.111 368.889 134.259 368.889 L 137.407 368.889 137.407 378.148 L 137.407 387.407 140.556 387.407 L 143.704 387.407 143.704 393.704 L 143.704 400.000 146.852 400.000 L 150.000 400.000 150.000 390.556 L 150.000 381.111 146.852 381.111 L 143.704 381.111 143.704 371.852 L 143.704 362.593 140.556 362.593 L 137.407 362.593 137.407 359.444 L 137.407 356.296 134.259 356.296 L 131.111 356.296 131.111 353.148 L 131.111 350.000 127.963 350.000 L 124.815 350.000 124.815 343.704 L 124.815 337.407 121.852 337.407 L 118.889 337.407 118.889 334.259 L 118.889 331.111 115.741 331.111 L 112.593 331.111 112.593 325.000 L 112.593 318.889 109.444 318.889 L 106.296 318.889 106.296 303.148 L 106.296 287.407 103.148 287.407 L 100.000 287.407 100.000 278.148 L 100.000 268.889 109.444 268.889 L 118.889 268.889 118.889 265.741 L 118.889 262.593 121.852 262.593 L 124.815 262.593 124.815 265.741 L 124.815 268.889 131.111 268.889 L 137.407 268.889 137.407 271.852 L 137.407 274.815 134.259 274.815 L 131.111 274.815 131.111 277.963 L 131.111 281.111 127.963 281.111 L 124.815 281.111 124.815 287.407 L 124.815 293.704 127.963 293.704 L 131.111 293.704 131.111 296.852 L 131.111 300.000 134.259 300.000 L 137.407 300.000 137.407 306.296 L 137.407 312.593 140.556 312.593 L 143.704 312.593 143.704 315.741 L 143.704 318.889 146.852 318.889 L 150.000 318.889 150.000 321.852 L 150.000 324.815 153.148 324.815 L 156.296 324.815 156.296 327.963 L 156.296 331.111 159.444 331.111 L 162.593 331.111 162.593 334.259 L 162.593 337.407 165.741 337.407 L 168.889 337.407 168.889 340.556 L 168.889 343.704 171.852 343.704 L 174.815 343.704 174.815 346.852 L 174.815 350.000 177.963 350.000 L 181.111 350.000 181.111 353.148 L 181.111 356.296 184.259 356.296 L 187.407 356.296 187.407 359.444 L 187.407 362.593 190.556 362.593 L 193.704 362.593 193.704 381.296 L 193.704 400.000 200.000 400.000 L 206.296 400.000 206.296 381.296 L 206.296 362.593 209.444 362.593 L 212.593 362.593 212.593 359.444 L 212.593 356.296 215.741 356.296 L 218.889 356.296 218.889 353.148 L 218.889 350.000 221.852 350.000 L 224.815 350.000 224.815 346.852 L 224.815 343.704 227.963 343.704 L 231.111 343.704 231.111 340.556 L 231.111 337.407 234.259 337.407 L 237.407 337.407 237.407 334.259 L 237.407 331.111 240.556 331.111 L 243.704 331.111 243.704 327.963 L 243.704 324.815 246.852 324.815 L 250.000 324.815 250.000 321.852 L 250.000 318.889 253.148 318.889 L 256.296 318.889 256.296 315.741 L 256.296 312.593 259.444 312.593 L 262.593 312.593 262.593 306.296 L 262.593 300.000 265.741 300.000 L 268.889 300.000 268.889 296.852 L 268.889 293.704 271.852 293.704 L 274.815 293.704 274.815 287.407 L 274.815 281.111 271.852 281.111 L 268.889 281.111 268.889 277.963 L 268.889 274.815 265.741 274.815 L 262.593 274.815 262.593 271.852 L 262.593 268.889 268.704 268.889 L 274.815 268.889 274.815 265.741 L 274.815 262.593 277.963 262.593 L 281.111 262.593 281.111 265.741 L 281.111 268.889 290.556 268.889 L 300.000 268.889 300.000 278.148 L 300.000 287.407 296.852 287.407 L 293.704 287.407 293.704 303.148 L 293.704 318.889 290.556 318.889 L 287.407 318.889 287.407 325.000 L 287.407 331.111 284.259 331.111 L 281.111 331.111 281.111 334.259 L 281.111 337.407 277.963 337.407 L 274.815 337.407 274.815 343.704 L 274.815 350.000 271.852 350.000 L 268.889 350.000 268.889 353.148 L 268.889 356.296 265.741 356.296 L 262.593 356.296 262.593 359.444 L 262.593 362.593 259.444 362.593 L 256.296 362.593 256.296 371.852 L 256.296 381.111 253.148 381.111 L 250.000 381.111 250.000 390.556 L 250.000 400.000 253.148 400.000 L 256.296 400.000 256.296 393.704 L 256.296 387.407 259.444 387.407 L 262.593 387.407 262.593 378.148 L 262.593 368.889 265.741 368.889 L 268.889 368.889 268.889 365.741 L 268.889 362.593 271.852 362.593 L 274.815 362.593 274.815 359.444 L 274.815 356.296 277.963 356.296 L 281.111 356.296 281.111 350.000 L 281.111 343.704 284.259 343.704 L 287.407 343.704 287.407 340.556 L 287.407 337.407 290.556 337.407 L 293.704 337.407 293.704 331.111 L 293.704 324.815 296.852 324.815 L 300.000 324.815 300.000 309.259 L 300.000 293.704 303.148 293.704 L 306.296 293.704 306.296 290.556 L 306.296 287.407 309.444 287.407 L 312.593 287.407 312.593 300.000 L 312.593 312.593 315.741 312.593 L 318.889 312.593 318.889 331.296 L 318.889 350.000 315.741 350.000 L 312.593 350.000 312.593 356.296 L 312.593 362.593 309.444 362.593 L 306.296 362.593 306.296 368.704 L 306.296 374.815 303.148 374.815 L 300.000 374.815 300.000 377.963 L 300.000 381.111 296.852 381.111 L 293.704 381.111 293.704 384.259 L 293.704 387.407 290.556 387.407 L 287.407 387.407 287.407 390.556 L 287.407 393.704 284.259 393.704 L 281.111 393.704 281.111 396.852 L 281.111 400.000 287.407 400.000 L 293.704 400.000 293.704 396.852 L 293.704 393.704 296.852 393.704 L 300.000 393.704 300.000 390.556 L 300.000 387.407 303.148 387.407 L 306.296 387.407 306.296 384.259 L 306.296 381.111 309.444 381.111 L 312.593 381.111 312.593 375.000 L 312.593 368.889 315.741 368.889 L 318.889 368.889 318.889 362.593 L 318.889 356.296 322.037 356.296 L 325.185 356.296 325.185 334.444 L 325.185 312.593 322.037 312.593 L 318.889 312.593 318.889 296.852 L 318.889 281.111 315.741 281.111 L 312.593 281.111 312.593 275.000 L 312.593 268.889 309.444 268.889 L 306.296 268.889 306.296 265.741 L 306.296 262.593 296.852 262.593 L 287.407 262.593 287.407 259.444 L 287.407 256.296 284.259 256.296 L 281.111 256.296 281.111 253.148 L 281.111 250.000 275.000 250.000 L 268.889 250.000 268.889 246.852 L 268.889 243.704 265.741 243.704 L 262.593 243.704 262.593 240.556 L 262.593 237.407 259.444 237.407 L 256.296 237.407 256.296 231.111 L 256.296 224.815 259.444 224.815 L 262.593 224.815 262.593 215.556 L 262.593 206.296 265.741 206.296 L 268.889 206.296 268.889 200.000 L 268.889 193.704 271.852 193.704 L 274.815 193.704 274.815 190.556 L 274.815 187.407 277.963 187.407 L 281.111 187.407 281.111 175.000 L 281.111 162.593 277.963 162.593 L 274.815 162.593 274.815 153.148 L 274.815 143.704 271.852 143.704 L 268.889 143.704 268.889 128.148 L 268.889 112.593 265.741 112.593 L 262.593 112.593 262.593 109.444 L 262.593 106.296 253.148 106.296 L 243.704 106.296 243.704 103.148 L 243.704 100.000 240.556 100.000 L 237.407 100.000 237.407 96.818 L 237.407 93.637 200.000 93.763 L 162.593 93.889 162.593 96.944 M224.815 103.148 L 224.815 106.296 231.111 106.296 L 237.407 106.296 237.407 109.444 L 237.407 112.593 243.704 112.593 L 250.000 112.593 250.000 115.741 L 250.000 118.889 253.148 118.889 L 256.296 118.889 256.296 121.852 L 256.296 124.815 259.444 124.815 L 262.593 124.815 262.593 140.556 L 262.593 156.296 265.741 156.296 L 268.889 156.296 268.889 162.593 L 268.889 168.889 271.852 168.889 L 274.815 168.889 274.815 175.000 L 274.815 181.111 271.852 181.111 L 268.889 181.111 268.889 175.000 L 268.889 168.889 262.593 168.889 L 256.296 168.889 256.296 162.593 L 256.296 156.296 253.148 156.296 L 250.000 156.296 250.000 153.148 L 250.000 150.000 234.444 150.000 L 218.889 150.000 218.889 153.148 L 218.889 156.296 215.741 156.296 L 212.593 156.296 212.593 162.593 L 212.593 168.889 200.000 168.889 L 187.407 168.889 187.407 162.593 L 187.407 156.296 184.259 156.296 L 181.111 156.296 181.111 153.148 L 181.111 150.000 165.556 150.000 L 150.000 150.000 150.000 153.148 L 150.000 156.296 146.852 156.296 L 143.704 156.296 143.704 162.593 L 143.704 168.889 137.407 168.889 L 131.111 168.889 131.111 175.000 L 131.111 181.111 127.963 181.111 L 124.815 181.111 124.815 175.000 L 124.815 168.889 127.963 168.889 L 131.111 168.889 131.111 162.593 L 131.111 156.296 134.259 156.296 L 137.407 156.296 137.407 140.556 L 137.407 124.815 140.556 124.815 L 143.704 124.815 143.704 121.852 L 143.704 118.889 146.852 118.889 L 150.000 118.889 150.000 115.741 L 150.000 112.593 156.296 112.593 L 162.593 112.593 162.593 109.444 L 162.593 106.296 168.704 106.296 L 174.815 106.296 174.815 103.148 L 174.815 100.000 199.815 100.000 L 224.815 100.000 224.815 103.148 M93.704 121.852 L 93.704 124.815 96.852 124.815 L 100.000 124.815 100.000 121.852 L 100.000 118.889 96.852 118.889 L 93.704 118.889 93.704 121.852 M100.000 137.407 L 100.000 143.704 103.148 143.704 L 106.296 143.704 106.296 137.407 L 106.296 131.111 103.148 131.111 L 100.000 131.111 100.000 137.407 M293.704 140.556 L 293.704 143.704 296.852 143.704 L 300.000 143.704 300.000 140.556 L 300.000 137.407 296.852 137.407 L 293.704 137.407 293.704 140.556 M100.000 165.556 L 100.000 174.815 103.148 174.815 L 106.296 174.815 106.296 165.556 L 106.296 156.296 103.148 156.296 L 100.000 156.296 100.000 165.556 M174.815 159.444 L 174.815 162.593 177.963 162.593 L 181.111 162.593 181.111 175.000 L 181.111 187.407 177.963 187.407 L 174.815 187.407 174.815 190.556 L 174.815 193.704 165.556 193.704 L 156.296 193.704 156.296 190.556 L 156.296 187.407 153.148 187.407 L 150.000 187.407 150.000 175.000 L 150.000 162.593 153.148 162.593 L 156.296 162.593 156.296 159.444 L 156.296 156.296 165.556 156.296 L 174.815 156.296 174.815 159.444 M243.704 159.444 L 243.704 162.593 246.852 162.593 L 250.000 162.593 250.000 175.000 L 250.000 187.407 246.852 187.407 L 243.704 187.407 243.704 190.556 L 243.704 193.704 234.259 193.704 L 224.815 193.704 224.815 190.556 L 224.815 187.407 221.852 187.407 L 218.889 187.407 218.889 175.000 L 218.889 162.593 221.852 162.593 L 224.815 162.593 224.815 159.444 L 224.815 156.296 234.259 156.296 L 243.704 156.296 243.704 159.444 M293.704 165.556 L 293.704 174.815 296.852 174.815 L 300.000 174.815 300.000 165.556 L 300.000 156.296 296.852 156.296 L 293.704 156.296 293.704 165.556 M306.296 165.741 L 306.296 168.889 309.444 168.889 L 312.593 168.889 312.593 165.741 L 312.593 162.593 309.444 162.593 L 306.296 162.593 306.296 165.741 M143.704 184.259 L 143.704 193.704 146.852 193.704 L 150.000 193.704 150.000 196.852 L 150.000 200.000 165.556 200.000 L 181.111 200.000 181.111 196.852 L 181.111 193.704 184.259 193.704 L 187.407 193.704 187.407 184.259 L 187.407 174.815 200.000 174.815 L 212.593 174.815 212.593 184.259 L 212.593 193.704 215.741 193.704 L 218.889 193.704 218.889 196.852 L 218.889 200.000 234.444 200.000 L 250.000 200.000 250.000 196.852 L 250.000 193.704 253.148 193.704 L 256.296 193.704 256.296 184.259 L 256.296 174.815 259.444 174.815 L 262.593 174.815 262.593 190.556 L 262.593 206.296 259.444 206.296 L 256.296 206.296 256.296 215.556 L 256.296 224.815 253.148 224.815 L 250.000 224.815 250.000 227.963 L 250.000 231.111 246.852 231.111 L 243.704 231.111 243.704 234.259 L 243.704 237.407 240.556 237.407 L 237.407 237.407 237.407 243.704 L 237.407 250.000 231.111 250.000 L 224.815 250.000 224.815 253.148 L 224.815 256.296 215.556 256.296 L 206.296 256.296 206.296 259.444 L 206.296 262.593 200.000 262.593 L 193.704 262.593 193.704 259.444 L 193.704 256.296 184.259 256.296 L 174.815 256.296 174.815 253.148 L 174.815 250.000 168.704 250.000 L 162.593 250.000 162.593 243.704 L 162.593 237.407 159.444 237.407 L 156.296 237.407 156.296 234.259 L 156.296 231.111 153.148 231.111 L 150.000 231.111 150.000 227.963 L 150.000 224.815 146.852 224.815 L 143.704 224.815 143.704 215.556 L 143.704 206.296 140.556 206.296 L 137.407 206.296 137.407 190.556 L 137.407 174.815 140.556 174.815 L 143.704 174.815 143.704 184.259 M150.000 271.852 L 150.000 300.000 153.148 300.000 L 156.296 300.000 156.296 303.148 L 156.296 306.296 159.444 306.296 L 162.593 306.296 162.593 300.000 L 162.593 293.704 159.444 293.704 L 156.296 293.704 156.296 287.407 L 156.296 281.111 159.444 281.111 L 162.593 281.111 162.593 275.000 L 162.593 268.889 165.741 268.889 L 168.889 268.889 168.889 265.741 L 168.889 262.593 178.148 262.593 L 187.407 262.593 187.407 265.741 L 187.407 268.889 190.556 268.889 L 193.704 268.889 193.704 271.852 L 193.704 274.815 190.556 274.815 L 187.407 274.815 187.407 277.963 L 187.407 281.111 200.000 281.111 L 212.593 281.111 212.593 277.963 L 212.593 274.815 209.444 274.815 L 206.296 274.815 206.296 271.852 L 206.296 268.889 209.444 268.889 L 212.593 268.889 212.593 265.741 L 212.593 262.593 221.852 262.593 L 231.111 262.593 231.111 265.741 L 231.111 268.889 234.259 268.889 L 237.407 268.889 237.407 275.000 L 237.407 281.111 240.556 281.111 L 243.704 281.111 243.704 287.407 L 243.704 293.704 240.556 293.704 L 237.407 293.704 237.407 300.000 L 237.407 306.296 240.556 306.296 L 243.704 306.296 243.704 303.148 L 243.704 300.000 246.852 300.000 L 250.000 300.000 250.000 271.852 L 250.000 243.704 253.148 243.704 L 256.296 243.704 256.296 246.852 L 256.296 250.000 259.444 250.000 L 262.593 250.000 262.593 253.148 L 262.593 256.296 265.741 256.296 L 268.889 256.296 268.889 259.444 L 268.889 262.593 265.741 262.593 L 262.593 262.593 262.593 265.741 L 262.593 268.889 259.444 268.889 L 256.296 268.889 256.296 275.000 L 256.296 281.111 259.444 281.111 L 262.593 281.111 262.593 287.407 L 262.593 293.704 259.444 293.704 L 256.296 293.704 256.296 300.000 L 256.296 306.296 253.148 306.296 L 250.000 306.296 250.000 309.444 L 250.000 312.593 246.852 312.593 L 243.704 312.593 243.704 318.704 L 243.704 324.815 240.556 324.815 L 237.407 324.815 237.407 327.963 L 237.407 331.111 234.259 331.111 L 231.111 331.111 231.111 334.259 L 231.111 337.407 227.963 337.407 L 224.815 337.407 224.815 340.556 L 224.815 343.704 221.852 343.704 L 218.889 343.704 218.889 346.852 L 218.889 350.000 215.741 350.000 L 212.593 350.000 212.593 353.148 L 212.593 356.296 209.444 356.296 L 206.296 356.296 206.296 350.000 L 206.296 343.704 209.444 343.704 L 212.593 343.704 212.593 340.556 L 212.593 337.407 215.741 337.407 L 218.889 337.407 218.889 334.259 L 218.889 331.111 215.741 331.111 L 212.593 331.111 212.593 318.704 L 212.593 306.296 215.741 306.296 L 218.889 306.296 218.889 300.000 L 218.889 293.704 228.148 293.704 L 237.407 293.704 237.407 287.407 L 237.407 281.111 234.259 281.111 L 231.111 281.111 231.111 284.259 L 231.111 287.407 225.000 287.407 L 218.889 287.407 218.889 284.259 L 218.889 281.111 215.741 281.111 L 212.593 281.111 212.593 287.407 L 212.593 293.704 209.444 293.704 L 206.296 293.704 206.296 296.852 L 206.296 300.000 200.000 300.000 L 193.704 300.000 193.704 296.852 L 193.704 293.704 190.556 293.704 L 187.407 293.704 187.407 287.407 L 187.407 281.111 184.259 281.111 L 181.111 281.111 181.111 284.259 L 181.111 287.407 175.000 287.407 L 168.889 287.407 168.889 284.259 L 168.889 281.111 165.741 281.111 L 162.593 281.111 162.593 287.407 L 162.593 293.704 171.852 293.704 L 181.111 293.704 181.111 300.000 L 181.111 306.296 184.259 306.296 L 187.407 306.296 187.407 318.704 L 187.407 331.111 184.259 331.111 L 181.111 331.111 181.111 334.259 L 181.111 337.407 184.259 337.407 L 187.407 337.407 187.407 340.556 L 187.407 343.704 190.556 343.704 L 193.704 343.704 193.704 350.000 L 193.704 356.296 190.556 356.296 L 187.407 356.296 187.407 353.148 L 187.407 350.000 184.259 350.000 L 181.111 350.000 181.111 346.852 L 181.111 343.704 177.963 343.704 L 174.815 343.704 174.815 340.556 L 174.815 337.407 171.852 337.407 L 168.889 337.407 168.889 334.259 L 168.889 331.111 165.741 331.111 L 162.593 331.111 162.593 327.963 L 162.593 324.815 159.444 324.815 L 156.296 324.815 156.296 318.704 L 156.296 312.593 153.148 312.593 L 150.000 312.593 150.000 309.444 L 150.000 306.296 146.852 306.296 L 143.704 306.296 143.704 300.000 L 143.704 293.704 140.556 293.704 L 137.407 293.704 137.407 287.407 L 137.407 281.111 140.556 281.111 L 143.704 281.111 143.704 275.000 L 143.704 268.889 140.556 268.889 L 137.407 268.889 137.407 265.741 L 137.407 262.593 134.259 262.593 L 131.111 262.593 131.111 259.444 L 131.111 256.296 134.259 256.296 L 137.407 256.296 137.407 253.148 L 137.407 250.000 140.556 250.000 L 143.704 250.000 143.704 246.852 L 143.704 243.704 146.852 243.704 L 150.000 243.704 150.000 271.852 M162.593 312.593 L 162.593 318.889 165.741 318.889 L 168.889 318.889 168.889 321.852 L 168.889 324.815 171.852 324.815 L 174.815 324.815 174.815 327.963 L 174.815 331.111 177.963 331.111 L 181.111 331.111 181.111 327.963 L 181.111 324.815 177.963 324.815 L 174.815 324.815 174.815 321.852 L 174.815 318.889 171.852 318.889 L 168.889 318.889 168.889 312.593 L 168.889 306.296 165.741 306.296 L 162.593 306.296 162.593 312.593 M231.111 312.593 L 231.111 318.889 227.963 318.889 L 224.815 318.889 224.815 321.852 L 224.815 324.815 221.852 324.815 L 218.889 324.815 218.889 327.963 L 218.889 331.111 221.852 331.111 L 224.815 331.111 224.815 327.963 L 224.815 324.815 227.963 324.815 L 231.111 324.815 231.111 321.852 L 231.111 318.889 234.259 318.889 L 237.407 318.889 237.407 312.593 L 237.407 306.296 234.259 306.296 L 231.111 306.296 231.111 312.593 M206.296 325.000 L 206.296 337.407 200.000 337.407 L 193.704 337.407 193.704 325.000 L 193.704 312.593 200.000 312.593 L 206.296 312.593 206.296 325.000 " stroke="none" fill="#050504" fill-rule="evenodd"></path><path id="path2" d="M143.704 46.852 L 143.704 50.000 140.556 50.000 L 137.407 50.000 137.407 53.148 L 137.407 56.296 150.000 56.296 L 162.593 56.296 162.593 59.444 L 162.593 62.593 150.000 62.593 L 137.407 62.593 137.407 65.741 L 137.407 68.889 134.259 68.889 L 131.111 68.889 131.111 75.000 L 131.111 81.111 134.259 81.111 L 137.407 81.111 137.407 77.963 L 137.407 74.815 150.000 74.815 L 162.593 74.815 162.593 77.963 L 162.593 81.111 165.741 81.111 L 168.889 81.111 168.889 77.963 L 168.889 74.815 171.852 74.815 L 174.815 74.815 174.815 77.963 L 174.815 81.111 181.111 81.111 L 187.407 81.111 187.407 84.259 L 187.407 87.407 190.556 87.407 L 193.704 87.407 193.704 81.111 L 193.704 74.815 190.556 74.815 L 187.407 74.815 187.407 71.852 L 187.407 68.889 193.704 68.889 L 200.000 68.889 200.000 71.852 L 200.000 74.815 203.148 74.815 L 206.296 74.815 206.296 77.963 L 206.296 81.111 209.444 81.111 L 212.593 81.111 212.593 71.852 L 212.593 62.593 222.037 62.593 L 231.481 62.593 231.481 59.444 L 231.481 56.296 228.148 56.296 L 224.815 56.296 224.815 53.148 L 224.815 50.000 221.852 50.000 L 218.889 50.000 218.889 46.852 L 218.889 43.704 203.148 43.704 L 187.407 43.704 187.407 46.852 L 187.407 50.000 184.259 50.000 L 181.111 50.000 181.111 56.296 L 181.111 62.593 177.963 62.593 L 174.815 62.593 174.815 56.296 L 174.815 50.000 171.852 50.000 L 168.889 50.000 168.889 46.852 L 168.889 43.704 156.296 43.704 L 143.704 43.704 143.704 46.852 M212.593 59.444 L 212.593 62.593 209.444 62.593 L 206.296 62.593 206.296 59.444 L 206.296 56.296 209.444 56.296 L 212.593 56.296 212.593 59.444 M187.407 115.741 L 187.407 118.889 190.556 118.889 L 193.704 118.889 193.704 125.000 L 193.704 131.111 190.556 131.111 L 187.407 131.111 187.407 134.259 L 187.407 137.407 190.556 137.407 L 193.704 137.407 193.704 134.259 L 193.704 131.111 200.000 131.111 L 206.296 131.111 206.296 134.259 L 206.296 137.407 209.444 137.407 L 212.593 137.407 212.593 134.259 L 212.593 131.111 209.444 131.111 L 206.296 131.111 206.296 125.000 L 206.296 118.889 209.444 118.889 L 212.593 118.889 212.593 115.741 L 212.593 112.593 209.444 112.593 L 206.296 112.593 206.296 115.741 L 206.296 118.889 200.000 118.889 L 193.704 118.889 193.704 115.741 L 193.704 112.593 190.556 112.593 L 187.407 112.593 187.407 115.741 M143.704 246.852 L 143.704 250.000 140.556 250.000 L 137.407 250.000 137.407 253.148 L 137.407 256.296 134.259 256.296 L 131.111 256.296 131.111 259.444 L 131.111 262.593 134.259 262.593 L 137.407 262.593 137.407 265.741 L 137.407 268.889 131.111 268.889 L 124.815 268.889 124.815 265.741 L 124.815 262.593 121.852 262.593 L 118.889 262.593 118.889 265.741 L 118.889 268.889 109.444 268.889 L 100.000 268.889 100.000 278.148 L 100.000 287.407 103.148 287.407 L 106.296 287.407 106.296 303.148 L 106.296 318.889 109.444 318.889 L 112.593 318.889 112.593 325.000 L 112.593 331.111 115.741 331.111 L 118.889 331.111 118.889 334.259 L 118.889 337.407 121.852 337.407 L 124.815 337.407 124.815 343.704 L 124.815 350.000 127.963 350.000 L 131.111 350.000 131.111 353.148 L 131.111 356.296 134.259 356.296 L 137.407 356.296 137.407 359.444 L 137.407 362.593 140.556 362.593 L 143.704 362.593 143.704 371.852 L 143.704 381.111 146.852 381.111 L 150.000 381.111 150.000 390.556 L 150.000 400.000 162.407 400.000 L 174.815 400.000 174.815 396.852 L 174.815 393.704 181.111 393.704 L 187.407 393.704 187.407 396.852 L 187.407 400.000 190.556 400.000 L 193.704 400.000 193.704 381.296 L 193.704 362.593 190.556 362.593 L 187.407 362.593 187.407 359.444 L 187.407 356.296 190.556 356.296 L 193.704 356.296 193.704 350.000 L 193.704 343.704 190.556 343.704 L 187.407 343.704 187.407 340.556 L 187.407 337.407 184.259 337.407 L 181.111 337.407 181.111 334.259 L 181.111 331.111 177.963 331.111 L 174.815 331.111 174.815 327.963 L 174.815 324.815 171.852 324.815 L 168.889 324.815 168.889 321.852 L 168.889 318.889 165.741 318.889 L 162.593 318.889 162.593 312.593 L 162.593 306.296 159.444 306.296 L 156.296 306.296 156.296 303.148 L 156.296 300.000 153.148 300.000 L 150.000 300.000 150.000 271.852 L 150.000 243.704 146.852 243.704 L 143.704 243.704 143.704 246.852 M250.000 271.852 L 250.000 300.000 246.852 300.000 L 243.704 300.000 243.704 303.148 L 243.704 306.296 240.556 306.296 L 237.407 306.296 237.407 312.593 L 237.407 318.889 234.259 318.889 L 231.111 318.889 231.111 321.852 L 231.111 324.815 227.963 324.815 L 224.815 324.815 224.815 327.963 L 224.815 331.111 221.852 331.111 L 218.889 331.111 218.889 334.259 L 218.889 337.407 215.741 337.407 L 212.593 337.407 212.593 340.556 L 212.593 343.704 209.444 343.704 L 206.296 343.704 206.296 350.000 L 206.296 356.296 209.444 356.296 L 212.593 356.296 212.593 359.444 L 212.593 362.593 209.444 362.593 L 206.296 362.593 206.296 381.296 L 206.296 400.000 209.444 400.000 L 212.593 400.000 212.593 396.852 L 212.593 393.704 218.889 393.704 L 225.185 393.704 225.185 396.852 L 225.185 400.000 237.593 400.000 L 250.000 400.000 250.000 390.556 L 250.000 381.111 253.148 381.111 L 256.296 381.111 256.296 371.852 L 256.296 362.593 259.444 362.593 L 262.593 362.593 262.593 359.444 L 262.593 356.296 265.741 356.296 L 268.889 356.296 268.889 353.148 L 268.889 350.000 271.852 350.000 L 274.815 350.000 274.815 343.704 L 274.815 337.407 277.963 337.407 L 281.111 337.407 281.111 334.259 L 281.111 331.111 284.259 331.111 L 287.407 331.111 287.407 325.000 L 287.407 318.889 290.556 318.889 L 293.704 318.889 293.704 303.148 L 293.704 287.407 296.852 287.407 L 300.000 287.407 300.000 278.148 L 300.000 268.889 290.556 268.889 L 281.111 268.889 281.111 265.741 L 281.111 262.593 277.963 262.593 L 274.815 262.593 274.815 265.741 L 274.815 268.889 268.704 268.889 L 262.593 268.889 262.593 265.741 L 262.593 262.593 265.741 262.593 L 268.889 262.593 268.889 259.444 L 268.889 256.296 265.741 256.296 L 262.593 256.296 262.593 253.148 L 262.593 250.000 259.444 250.000 L 256.296 250.000 256.296 246.852 L 256.296 243.704 253.148 243.704 L 250.000 243.704 250.000 271.852 M143.704 275.000 L 143.704 281.111 140.556 281.111 L 137.407 281.111 137.407 287.407 L 137.407 293.704 140.556 293.704 L 143.704 293.704 143.704 300.000 L 143.704 306.296 146.852 306.296 L 150.000 306.296 150.000 309.444 L 150.000 312.593 153.148 312.593 L 156.296 312.593 156.296 318.704 L 156.296 324.815 159.444 324.815 L 162.593 324.815 162.593 327.963 L 162.593 331.111 165.741 331.111 L 168.889 331.111 168.889 334.259 L 168.889 337.407 171.852 337.407 L 174.815 337.407 174.815 340.556 L 174.815 343.704 177.963 343.704 L 181.111 343.704 181.111 346.852 L 181.111 350.000 184.259 350.000 L 187.407 350.000 187.407 353.148 L 187.407 356.296 184.259 356.296 L 181.111 356.296 181.111 353.148 L 181.111 350.000 177.963 350.000 L 174.815 350.000 174.815 346.852 L 174.815 343.704 171.852 343.704 L 168.889 343.704 168.889 340.556 L 168.889 337.407 165.741 337.407 L 162.593 337.407 162.593 334.259 L 162.593 331.111 159.444 331.111 L 156.296 331.111 156.296 327.963 L 156.296 324.815 153.148 324.815 L 150.000 324.815 150.000 321.852 L 150.000 318.889 146.852 318.889 L 143.704 318.889 143.704 315.741 L 143.704 312.593 140.556 312.593 L 137.407 312.593 137.407 306.296 L 137.407 300.000 134.259 300.000 L 131.111 300.000 131.111 296.852 L 131.111 293.704 127.963 293.704 L 124.815 293.704 124.815 287.407 L 124.815 281.111 127.963 281.111 L 131.111 281.111 131.111 277.963 L 131.111 274.815 134.259 274.815 L 137.407 274.815 137.407 271.852 L 137.407 268.889 140.556 268.889 L 143.704 268.889 143.704 275.000 M262.593 271.852 L 262.593 274.815 265.741 274.815 L 268.889 274.815 268.889 277.963 L 268.889 281.111 271.852 281.111 L 274.815 281.111 274.815 287.407 L 274.815 293.704 271.852 293.704 L 268.889 293.704 268.889 296.852 L 268.889 300.000 265.741 300.000 L 262.593 300.000 262.593 306.296 L 262.593 312.593 259.444 312.593 L 256.296 312.593 256.296 315.741 L 256.296 318.889 253.148 318.889 L 250.000 318.889 250.000 321.852 L 250.000 324.815 246.852 324.815 L 243.704 324.815 243.704 327.963 L 243.704 331.111 240.556 331.111 L 237.407 331.111 237.407 334.259 L 237.407 337.407 234.259 337.407 L 231.111 337.407 231.111 340.556 L 231.111 343.704 227.963 343.704 L 224.815 343.704 224.815 346.852 L 224.815 350.000 221.852 350.000 L 218.889 350.000 218.889 353.148 L 218.889 356.296 215.741 356.296 L 212.593 356.296 212.593 353.148 L 212.593 350.000 215.741 350.000 L 218.889 350.000 218.889 346.852 L 218.889 343.704 221.852 343.704 L 224.815 343.704 224.815 340.556 L 224.815 337.407 227.963 337.407 L 231.111 337.407 231.111 334.259 L 231.111 331.111 234.259 331.111 L 237.407 331.111 237.407 327.963 L 237.407 324.815 240.556 324.815 L 243.704 324.815 243.704 318.704 L 243.704 312.593 246.852 312.593 L 250.000 312.593 250.000 309.444 L 250.000 306.296 253.148 306.296 L 256.296 306.296 256.296 300.000 L 256.296 293.704 259.444 293.704 L 262.593 293.704 262.593 287.407 L 262.593 281.111 259.444 281.111 L 256.296 281.111 256.296 275.000 L 256.296 268.889 259.444 268.889 L 262.593 268.889 262.593 271.852 M87.407 300.000 L 87.407 312.593 84.259 312.593 L 81.111 312.593 81.111 331.296 L 81.111 350.000 84.259 350.000 L 87.407 350.000 87.407 356.296 L 87.407 362.593 90.556 362.593 L 93.704 362.593 93.704 368.704 L 93.704 374.815 96.852 374.815 L 100.000 374.815 100.000 377.963 L 100.000 381.111 103.148 381.111 L 106.296 381.111 106.296 384.259 L 106.296 387.407 109.444 387.407 L 112.593 387.407 112.593 390.556 L 112.593 393.704 115.741 393.704 L 118.889 393.704 118.889 396.852 L 118.889 400.000 128.148 400.000 L 137.407 400.000 137.407 396.852 L 137.407 393.704 134.259 393.704 L 131.111 393.704 131.111 390.556 L 131.111 387.407 127.963 387.407 L 124.815 387.407 124.815 381.111 L 124.815 374.815 121.852 374.815 L 118.889 374.815 118.889 359.259 L 118.889 343.704 115.741 343.704 L 112.593 343.704 112.593 340.556 L 112.593 337.407 109.444 337.407 L 106.296 337.407 106.296 331.111 L 106.296 324.815 103.148 324.815 L 100.000 324.815 100.000 309.259 L 100.000 293.704 96.852 293.704 L 93.704 293.704 93.704 290.556 L 93.704 287.407 90.556 287.407 L 87.407 287.407 87.407 300.000 M306.296 290.556 L 306.296 293.704 303.148 293.704 L 300.000 293.704 300.000 309.259 L 300.000 324.815 296.852 324.815 L 293.704 324.815 293.704 331.111 L 293.704 337.407 290.556 337.407 L 287.407 337.407 287.407 356.111 L 287.407 374.815 284.259 374.815 L 281.111 374.815 281.111 381.111 L 281.111 387.407 277.963 387.407 L 274.815 387.407 274.815 390.556 L 274.815 393.704 271.852 393.704 L 268.889 393.704 268.889 396.852 L 268.889 400.000 275.000 400.000 L 281.111 400.000 281.111 396.852 L 281.111 393.704 284.259 393.704 L 287.407 393.704 287.407 390.556 L 287.407 387.407 290.556 387.407 L 293.704 387.407 293.704 384.259 L 293.704 381.111 296.852 381.111 L 300.000 381.111 300.000 377.963 L 300.000 374.815 303.148 374.815 L 306.296 374.815 306.296 368.704 L 306.296 362.593 309.444 362.593 L 312.593 362.593 312.593 356.296 L 312.593 350.000 315.741 350.000 L 318.889 350.000 318.889 331.296 L 318.889 312.593 315.741 312.593 L 312.593 312.593 312.593 300.000 L 312.593 287.407 309.444 287.407 L 306.296 287.407 306.296 290.556 M187.407 381.111 L 187.407 387.407 181.111 387.407 L 174.815 387.407 174.815 381.111 L 174.815 374.815 181.111 374.815 L 187.407 374.815 187.407 381.111 M225.185 381.111 L 225.185 387.407 218.889 387.407 L 212.593 387.407 212.593 381.111 L 212.593 374.815 218.889 374.815 L 225.185 374.815 225.185 381.111 " stroke="none" fill="#fb7b7b" fill-rule="evenodd"></path><path id="path3" d="M187.407 71.852 L 187.407 74.815 193.704 74.815 L 200.000 74.815 200.000 71.852 L 200.000 68.889 193.704 68.889 L 187.407 68.889 187.407 71.852 M168.889 77.963 L 168.889 81.111 165.741 81.111 L 162.593 81.111 162.593 84.259 L 162.593 87.407 165.741 87.407 L 168.889 87.407 168.889 90.741 L 168.889 94.074 178.148 94.074 L 187.407 94.074 187.407 87.593 L 187.407 81.111 181.111 81.111 L 174.815 81.111 174.815 77.963 L 174.815 74.815 171.852 74.815 L 168.889 74.815 168.889 77.963 M162.593 112.593 L 162.593 118.889 159.259 118.889 L 155.926 118.889 155.926 121.852 L 155.926 124.815 159.259 124.815 L 162.593 124.815 162.593 127.963 L 162.593 131.111 159.259 131.111 L 155.926 131.111 155.926 134.259 L 155.926 137.407 159.259 137.407 L 162.593 137.407 162.593 143.704 L 162.593 150.000 165.741 150.000 L 168.889 150.000 168.889 143.704 L 168.889 137.407 171.852 137.407 L 174.815 137.407 174.815 134.259 L 174.815 131.111 171.852 131.111 L 168.889 131.111 168.889 127.963 L 168.889 124.815 171.852 124.815 L 174.815 124.815 174.815 121.852 L 174.815 118.889 171.852 118.889 L 168.889 118.889 168.889 112.593 L 168.889 106.296 165.741 106.296 L 162.593 106.296 162.593 112.593 M231.111 112.593 L 231.111 118.889 227.963 118.889 L 224.815 118.889 224.815 121.852 L 224.815 124.815 227.963 124.815 L 231.111 124.815 231.111 127.963 L 231.111 131.111 227.963 131.111 L 224.815 131.111 224.815 134.259 L 224.815 137.407 227.963 137.407 L 231.111 137.407 231.111 143.704 L 231.111 150.000 234.259 150.000 L 237.407 150.000 237.407 143.704 L 237.407 137.407 240.741 137.407 L 244.074 137.407 244.074 134.259 L 244.074 131.111 240.741 131.111 L 237.407 131.111 237.407 127.963 L 237.407 124.815 240.741 124.815 L 244.074 124.815 244.074 121.852 L 244.074 118.889 240.741 118.889 L 237.407 118.889 237.407 112.593 L 237.407 106.296 234.259 106.296 L 231.111 106.296 231.111 112.593 M162.593 206.296 L 162.593 212.593 159.259 212.593 L 155.926 212.593 155.926 215.741 L 155.926 218.889 159.259 218.889 L 162.593 218.889 162.593 221.852 L 162.593 224.815 159.259 224.815 L 155.926 224.815 155.926 227.963 L 155.926 231.111 159.259 231.111 L 162.593 231.111 162.593 240.556 L 162.593 250.000 165.741 250.000 L 168.889 250.000 168.889 240.556 L 168.889 231.111 171.852 231.111 L 174.815 231.111 174.815 227.963 L 174.815 224.815 171.852 224.815 L 168.889 224.815 168.889 221.852 L 168.889 218.889 171.852 218.889 L 174.815 218.889 174.815 215.741 L 174.815 212.593 171.852 212.593 L 168.889 212.593 168.889 206.296 L 168.889 200.000 165.741 200.000 L 162.593 200.000 162.593 206.296 M231.111 206.296 L 231.111 212.593 227.963 212.593 L 224.815 212.593 224.815 215.741 L 224.815 218.889 227.963 218.889 L 231.111 218.889 231.111 221.852 L 231.111 224.815 227.963 224.815 L 224.815 224.815 224.815 227.963 L 224.815 231.111 227.963 231.111 L 231.111 231.111 231.111 240.556 L 231.111 250.000 234.259 250.000 L 237.407 250.000 237.407 240.556 L 237.407 231.111 240.741 231.111 L 244.074 231.111 244.074 227.963 L 244.074 224.815 240.741 224.815 L 237.407 224.815 237.407 221.852 L 237.407 218.889 240.741 218.889 L 244.074 218.889 244.074 215.741 L 244.074 212.593 240.741 212.593 L 237.407 212.593 237.407 206.296 L 237.407 200.000 234.259 200.000 L 231.111 200.000 231.111 206.296 M193.704 215.556 L 193.704 218.889 200.000 218.889 L 206.296 218.889 206.296 215.556 L 206.296 212.222 200.000 212.222 L 193.704 212.222 193.704 215.556 " stroke="none" fill="#469a8d" fill-rule="evenodd"></path><path id="path4" d="M168.889 265.741 L 168.889 268.889 165.741 268.889 L 162.593 268.889 162.593 275.000 L 162.593 281.111 159.444 281.111 L 156.296 281.111 156.296 287.407 L 156.296 293.704 159.444 293.704 L 162.593 293.704 162.593 300.000 L 162.593 306.296 165.741 306.296 L 168.889 306.296 168.889 312.593 L 168.889 318.889 171.852 318.889 L 174.815 318.889 174.815 321.852 L 174.815 324.815 177.963 324.815 L 181.111 324.815 181.111 327.963 L 181.111 331.111 184.259 331.111 L 187.407 331.111 187.407 318.704 L 187.407 306.296 184.259 306.296 L 181.111 306.296 181.111 300.000 L 181.111 293.704 171.852 293.704 L 162.593 293.704 162.593 287.407 L 162.593 281.111 165.741 281.111 L 168.889 281.111 168.889 284.259 L 168.889 287.407 175.000 287.407 L 181.111 287.407 181.111 284.259 L 181.111 281.111 184.259 281.111 L 187.407 281.111 187.407 277.963 L 187.407 274.815 190.556 274.815 L 193.704 274.815 193.704 271.852 L 193.704 268.889 190.556 268.889 L 187.407 268.889 187.407 265.741 L 187.407 262.593 178.148 262.593 L 168.889 262.593 168.889 265.741 M212.593 265.741 L 212.593 268.889 209.444 268.889 L 206.296 268.889 206.296 271.852 L 206.296 274.815 209.444 274.815 L 212.593 274.815 212.593 277.963 L 212.593 281.111 215.741 281.111 L 218.889 281.111 218.889 284.259 L 218.889 287.407 225.000 287.407 L 231.111 287.407 231.111 284.259 L 231.111 281.111 234.259 281.111 L 237.407 281.111 237.407 287.407 L 237.407 293.704 228.148 293.704 L 218.889 293.704 218.889 300.000 L 218.889 306.296 215.741 306.296 L 212.593 306.296 212.593 318.704 L 212.593 331.111 215.741 331.111 L 218.889 331.111 218.889 327.963 L 218.889 324.815 221.852 324.815 L 224.815 324.815 224.815 321.852 L 224.815 318.889 227.963 318.889 L 231.111 318.889 231.111 312.593 L 231.111 306.296 234.259 306.296 L 237.407 306.296 237.407 300.000 L 237.407 293.704 240.556 293.704 L 243.704 293.704 243.704 287.407 L 243.704 281.111 240.556 281.111 L 237.407 281.111 237.407 275.000 L 237.407 268.889 234.259 268.889 L 231.111 268.889 231.111 265.741 L 231.111 262.593 221.852 262.593 L 212.593 262.593 212.593 265.741 M281.111 350.000 L 281.111 356.296 277.963 356.296 L 274.815 356.296 274.815 359.444 L 274.815 362.593 271.852 362.593 L 268.889 362.593 268.889 365.741 L 268.889 368.889 265.741 368.889 L 262.593 368.889 262.593 378.148 L 262.593 387.407 259.444 387.407 L 256.296 387.407 256.296 393.704 L 256.296 400.000 262.593 400.000 L 268.889 400.000 268.889 396.852 L 268.889 393.704 271.852 393.704 L 274.815 393.704 274.815 390.556 L 274.815 387.407 277.963 387.407 L 281.111 387.407 281.111 381.111 L 281.111 374.815 284.259 374.815 L 287.407 374.815 287.407 359.259 L 287.407 343.704 284.259 343.704 L 281.111 343.704 281.111 350.000 M118.889 365.556 L 118.889 374.815 121.852 374.815 L 124.815 374.815 124.815 381.111 L 124.815 387.407 127.963 387.407 L 131.111 387.407 131.111 390.556 L 131.111 393.704 134.259 393.704 L 137.407 393.704 137.407 396.852 L 137.407 400.000 140.556 400.000 L 143.704 400.000 143.704 393.704 L 143.704 387.407 140.556 387.407 L 137.407 387.407 137.407 378.148 L 137.407 368.889 134.259 368.889 L 131.111 368.889 131.111 365.741 L 131.111 362.593 127.963 362.593 L 124.815 362.593 124.815 359.444 L 124.815 356.296 121.852 356.296 L 118.889 356.296 118.889 365.556 M181.111 377.963 L 181.111 381.111 177.963 381.111 L 174.815 381.111 174.815 384.259 L 174.815 387.407 181.111 387.407 L 187.407 387.407 187.407 381.111 L 187.407 374.815 184.259 374.815 L 181.111 374.815 181.111 377.963 M212.593 381.111 L 212.593 387.407 218.889 387.407 L 225.185 387.407 225.185 384.259 L 225.185 381.111 222.037 381.111 L 218.889 381.111 218.889 377.963 L 218.889 374.815 215.741 374.815 L 212.593 374.815 212.593 381.111 M181.111 396.852 L 181.111 400.000 184.259 400.000 L 187.407 400.000 187.407 396.852 L 187.407 393.704 184.259 393.704 L 181.111 393.704 181.111 396.852 M212.593 396.852 L 212.593 400.000 215.741 400.000 L 218.889 400.000 218.889 396.852 L 218.889 393.704 215.741 393.704 L 212.593 393.704 212.593 396.852 " stroke="none" fill="#8f6626" fill-rule="evenodd"></path></g></svg>