<?xml version="1.0" encoding="UTF-8"?>
<svg width="46px" height="62px" viewBox="0 0 46 62" version="1.1" xmlns:xlink="http://www.w3.org/1999/xlink" xmlns="http://www.w3.org/2000/svg">
  <desc>Created with Lunacy</desc>
  <g id="012-woman-4">
    <path d="M37.9643 0.89899L30.7931 0L30.3384 1.03328C28.2872 5.80408 22.757 8.00929 17.9862 5.95811C15.7749 5.00741 14.013 3.24455 13.0613 1.03328L12.6066 0L5.43541 0.89899C2.31268 1.28649 -0.0236742 3.95245 0.000181036 7.09892L0.000181036 20.1808L43.3997 20.1808L43.3997 7.0575C43.4027 3.92654 41.0716 1.2854 37.9643 0.89899Z" transform="translate(1.033447 41.81912)" id="Path" fill="#DBDBDB" stroke="none"/>
    <path d="M0 6.11723L0 18.5998L4.13325 18.5998L4.13325 0C1.03328 1.03328 0 3.09997 0 6.11723Z" transform="translate(1.033447 43.40012)" id="Path" fill="#BFBFBF" stroke="none"/>
    <g id="Group" transform="translate(1.033691 44.43338)">
      <path d="M0 0L43.3995 0L43.3995 2.06668L0 2.06668L0 0Z" transform="translate(0 5.166663)" id="Rectangle" fill="#8C8C8C" stroke="none"/>
      <path d="M0 0L43.3995 0L43.3995 2.06668L0 2.06668L0 0Z" transform="translate(0 10.3332)" id="Rectangle" fill="#8C8C8C" stroke="none"/>
      <path d="M0 0L43.3995 0L43.3995 2.06668L0 2.06668L0 0Z" transform="translate(0 15.49984)" id="Rectangle" fill="#8C8C8C" stroke="none"/>
      <path d="M0 0L41.3328 0L41.3328 2.06668L0 2.06668L0 0Z" transform="translate(1.033167 0)" id="Rectangle" fill="#8C8C8C" stroke="none"/>
    </g>
    <path d="M9.09307 14.4665C12.8523 14.4686 16.2508 12.2284 17.7317 8.7729L18.1864 7.73962L16.1197 7.48133C15.0801 7.35007 14.3031 6.46246 14.3114 5.41465L14.3114 0L3.92654 0L3.92654 5.40423C3.93478 6.45205 3.15773 7.33965 2.11827 7.47092L0 7.72921L0.454702 8.76249C1.93215 12.2222 5.33182 14.4665 9.09307 14.4665Z" transform="translate(13.64014 34.10007)" id="Path" fill="#FEDAC6" stroke="none"/>
    <path d="M10.3332 5.72464L10.3332 0L0 0L0 5.72464C3.87484 7.73962 6.45822 7.73962 10.3332 5.72464Z" transform="translate(17.56689 34.10007)" id="Path" fill="#F5C4B0" stroke="none"/>
    <path d="M26.8663 15.4998L26.8663 13.4331C26.8663 6.01393 20.8524 0 13.4331 0L13.4331 0C6.01393 0 0 6.01393 0 13.4331L0 18.5998L26.8664 18.5998L26.8664 15.4998L26.8663 15.4998Z" transform="translate(9.300293 1.033844)" id="Path" fill="#70432C" stroke="none"/>
    <path d="M22.7333 6.19993L22.537 14.2391C22.5669 18.5802 20.0983 22.5522 16.1924 24.4483L14.1257 25.4816L16.0786 24.4999L14.1257 25.4816C12.3824 26.3516 10.3303 26.3516 8.58703 25.4816L6.52034 24.4483C2.61439 22.5521 0.145795 18.5801 0.175705 14.2391L0 7.23321L2.56268 1.25028C2.88927 0.490789 3.63737 -0.00108802 4.46395 1.80732e-06L18.3518 1.80732e-06C19.1361 1.80732e-06 19.8521 0.44429 20.2015 1.14699L22.7333 6.19993Z" transform="translate(11.3667 10.33374)" id="Path" fill="#FEDAC6" stroke="none"/>
    <path d="M4.13325 15.5002C3.57937 10.3336 3.7644 5.11534 4.68095 0.000401222L4.46395 0.000401222C3.61969 -0.0161884 2.85088 0.482954 2.52126 1.26109L0 7.23373L0.196291 14.2499C0.174615 18.5888 2.64006 22.5579 6.54093 24.4591L6.91292 24.6451L6.19993 23.3018C4.83582 20.9045 4.56724 18.4555 4.13325 15.5002Z" transform="translate(11.36694 10.33334)" id="Path" fill="#F5C4B0" stroke="none"/>
    <path d="M4.64995 9.2999C7.21805 9.2999 9.2999 7.21804 9.2999 4.64995C9.2999 2.08185 7.21805 0 4.64995 0C2.08185 0 0 2.08185 0 4.64995C0 7.21804 2.08185 9.2999 4.64995 9.2999Z" transform="translate(32.03296 1.033844)" id="Oval" fill="#5C3724" stroke="none"/>
    <path d="M2.06674 0.216998C2.06674 0.144705 2.06674 0.0722922 2.06674 0C0.775047 0.847284 -0.00200341 2.28877 5.51595e-05 3.83366C-0.0122963 6.39005 2.05124 8.47223 4.60762 8.4847C5.77011 8.48991 6.8913 8.05797 7.74997 7.27463C4.4341 6.54722 2.07086 3.61146 2.06674 0.216998Z" transform="translate(32.03296 1.850128)" id="Path" fill="#4F2E20" stroke="none"/>
    <path d="M3.22397 0C1.14178 2.42415 -0.0020558 5.51479 2.77377e-06 8.7109L2.77377e-06 13.8776L5.43524 13.8776C3.9039 9.4136 3.15579 4.71921 3.22397 0Z" transform="translate(9.300293 5.756073)" id="Path" fill="#5C3724" stroke="none"/>
    <path d="M0 3.09997C0 4.81221 1.38772 6.19993 3.09997 6.19993L5.16665 6.19993L5.16665 0L3.09997 0C1.38772 0 0 1.38772 0 3.09997Z" transform="translate(7.233398 16.53366)" id="Path" fill="#F5C4B0" stroke="none"/>
    <path d="M2.06669 0L0 0L0 6.19993L2.06669 6.19993C3.77893 6.19993 5.16665 4.81221 5.16665 3.09997C5.16665 1.38772 3.77893 0 2.06669 0Z" transform="translate(33.06641 16.53366)" id="Path" fill="#FEDAC6" stroke="none"/>
    <g id="Group" transform="translate(11.36694 16.53366)">
      <path d="M6.19993 6.19993L3.09997 6.19993C1.38772 6.19993 0 4.81221 0 3.09997L0 1.03328C0 0.462936 0.462936 0 1.03328 0L9.2999 0L9.2999 3.09997C9.2999 4.81221 7.91218 6.19993 6.19993 6.19993Z" id="Path" fill="#EBEBEB" stroke="none"/>
      <path d="M6.19993 6.19993L3.09997 6.19993C1.38772 6.19993 0 4.81221 0 3.09997L0 0L8.26661 0C8.83696 0 9.2999 0.462936 9.2999 1.03328L9.2999 3.09997C9.2999 4.81221 7.91218 6.19993 6.19993 6.19993Z" transform="translate(13.43313 0)" id="Path" fill="#EBEBEB" stroke="none"/>
    </g>
    <g id="Group" transform="translate(15.53979 1.033844)">
      <path d="M0 0L2.06668 0L2.06668 9.2999L0 9.2999L0 0Z" transform="translate(6.159912 0)" id="Rectangle" fill="#5C3724" stroke="none"/>
      <path d="M0.0780014 0.0204649L2.06653 0L1.98853 7.50181L0 7.52228L0.0780014 0.0204649Z" transform="matrix(-0.9615277 0.2747079 -0.2747079 -0.9615277 4.053467 9.016602)" id="Rectangle" fill="#5C3724" stroke="none"/>
      <path d="M0.0280347 0.110103L7.87039 0L7.84235 1.95667L0 2.06678L0.0280347 0.110103Z" transform="matrix(-0.3940882 0.9190726 -0.9190726 -0.3940882 15.37646 2.473969)" id="Rectangle" fill="#5C3724" stroke="none"/>
    </g>
    <path d="M2.36975 5.59447L0.303064 3.52779C-0.101021 3.1237 -0.101021 2.47065 0.303064 2.06668L2.36975 0L3.83085 1.4611L2.49472 2.79723L3.83085 4.13337L2.36975 5.59447Z" transform="translate(18.59961 20.96964)" id="Path" fill="#000000" stroke="none"/>
    <path d="M2.06677 26.8664L0.000211501 26.8664L0.000211501 13.7431C-0.0276398 10.08 2.69827 6.9708 6.3417 6.51816L15.6416 5.36185C16.1593 5.2967 16.5479 4.85241 16.5447 4.32857L16.5447 0L18.6114 0L18.6114 4.32033C18.6237 5.88267 17.4571 7.21565 15.8989 7.41207L6.59793 8.56838C3.99505 8.89182 2.04825 11.1135 2.06786 13.735L2.06786 26.8665L2.06677 26.8665L2.06677 26.8664Z" transform="translate(0 35.13348)" id="Path" fill="#000000" stroke="none"/>
    <path d="M18.6103 26.8664L16.5436 26.8664L16.5436 13.7948C16.5643 11.164 14.6175 8.9434 12.0145 8.61996L2.71463 7.46268C1.15435 7.26639 -0.0122543 5.93341 9.71637e-05 4.36272L9.71637e-05 0L2.06678 0L2.06678 4.37095C2.06266 4.90315 2.45113 5.34635 2.97098 5.41259L12.2688 6.56987C15.9113 7.02251 18.6382 10.1307 18.6103 13.8031L18.6103 26.8664L18.6103 26.8664Z" transform="translate(26.86646 35.13348)" id="Path" fill="#000000" stroke="none"/>
    <path d="M10.2547 8.67373C10.2506 8.67373 10.2465 8.67373 10.2433 8.67373C6.0677 8.67373 2.30633 6.19376 0.661285 2.35392L0 0.815315L1.89921 6.88331e-15L2.5605 1.53969C3.88004 4.61798 6.89633 6.60704 10.2443 6.60704C10.2474 6.60704 10.2505 6.60704 10.2536 6.60704C13.6036 6.60704 16.6199 4.61895 17.9384 1.54066L18.5997 0L20.4989 0.815315L19.8376 2.35501C18.1936 6.19267 14.4314 8.67373 10.2547 8.67373Z" transform="translate(12.48389 40.9263)" id="Path" fill="#000000" stroke="none"/>
    <path d="M0.788433 2.99147C0.787343 2.99147 0.786374 2.99147 0.785284 2.99147L0 2.99147L0 0.924783L0.785284 0.924783C0.786374 0.924783 0.787343 0.924783 0.788433 0.924783C2.14104 0.924783 3.49473 0.605462 4.70468 0L5.62947 1.8486C4.13434 2.59683 2.46036 2.99147 0.788433 2.99147Z" transform="translate(20.6665 26.97534)" id="Path" fill="#000000" stroke="none"/>
    <path d="M0.382405 2.06656L0.120759 2.06656L0.120759 0L0.382405 2.06656Z" transform="translate(30.97095 31.00021)" id="Path" fill="#000000" stroke="none"/>
    <path d="M2.06668 17.5665L0 17.5665L0 14.4665C0 6.48934 6.48922 0 14.4665 0C22.4439 0 28.9331 6.48922 28.9331 14.4665L28.9331 16.5332L26.8664 16.5332L26.8664 14.4665C26.8664 7.62906 21.304 2.06668 14.4665 2.06668C7.62906 2.06668 2.06668 7.62906 2.06668 14.4665L2.06668 17.5665L2.06668 17.5665Z" transform="translate(8.266846 0.0004577637)" id="Path" fill="#000000" stroke="none"/>
    <path d="M13.2927 21.2408C14.3043 21.7461 15.413 21.9982 16.5228 21.9982C17.6315 21.9982 18.7403 21.7461 19.7517 21.24C19.7517 21.24 19.7527 21.2389 19.7538 21.2389L21.8091 20.2107C26.0488 18.1533 28.7674 13.7772 28.7364 9.09731L28.7571 8.26649L28.9329 8.26649C31.2123 8.26649 33.0661 6.41269 33.0661 4.13325C33.0661 1.8538 31.2124 0 28.9329 0L27.8996 0C27.3385 0 26.8807 0.448526 26.8663 1.00858L26.671 9.07987C26.6969 13.0004 24.4349 16.6408 20.8968 18.3581L20.8731 18.3704C20.843 18.3829 20.812 18.3953 20.7821 18.4108L18.8291 19.3925C17.3845 20.1137 15.6599 20.1137 14.2164 19.3914L12.1383 18.3529C8.61064 16.6406 6.34972 13.0013 6.37551 9.04778L6.19981 2.04186C6.1854 1.48181 5.72658 1.03437 5.16653 1.03437L4.13325 1.03437C1.8538 1.03437 0 2.88817 0 5.16762C0 7.44706 1.85368 9.30086 4.13325 9.30086L4.30992 9.30086C4.3678 13.9239 7.06683 18.1873 11.226 20.2075L13.2927 21.2408ZM28.9331 6.2009L28.808 6.2009L28.9083 2.06753L28.9331 2.06753C30.073 2.06753 30.9998 2.99437 30.9998 4.13421C30.9998 5.27406 30.0728 6.2009 28.9331 6.2009ZM4.13326 3.10094C2.99354 3.10094 2.06658 4.02778 2.06658 5.16763C2.06658 6.30735 2.99342 7.23431 4.13326 7.23431L4.26344 7.23431L4.13326 3.10094Z" transform="translate(6.200195 15.49945)" id="Shape" fill="#000000" fill-rule="evenodd" stroke="none"/>
    <path d="M1.89921 8.67373L0 7.8595L2.29397 2.50686C2.94703 0.981696 4.4361 0 6.09349 0C6.10378 0 6.1142 0 6.12449 0L18.6721 0C20.2479 0.00205857 21.6635 0.878283 22.3652 2.28671L24.6074 6.77028L22.7588 7.69506L20.5166 3.2104C20.1653 2.50564 19.4585 2.06753 18.671 2.06656L6.11613 2.06656C6.11093 2.06656 6.10584 2.06656 6.10063 2.06656C5.26473 2.06656 4.52074 2.55735 4.19416 3.31999L1.89921 8.67373Z" transform="translate(10.41699 9.300354)" id="Path" fill="#000000" stroke="none"/>
    <path d="M5.10259 11.3754C5.00027 11.3754 4.8908 11.3722 4.77915 11.3661L4.9 9.30253C5.03224 9.31077 5.16556 9.31077 5.29573 9.30253C6.88701 9.30144 8.25826 8.33222 8.76879 6.88977C9.09113 5.97843 9.03955 4.99673 8.62202 4.12462C8.20559 3.25348 7.47503 2.59632 6.56466 2.27397C4.68712 1.60953 2.61426 2.59837 1.94777 4.47809L0 3.78883C1.04575 0.833573 4.30169 -0.718468 7.25283 0.325106C8.68499 0.831394 9.83307 1.86371 10.4871 3.23387C11.1412 4.60403 11.2228 6.14674 10.7164 7.57794C9.91662 9.84503 7.76323 11.3672 5.3587 11.3672C5.35761 11.3672 5.35664 11.3672 5.35555 11.3672C5.28447 11.3722 5.19765 11.3754 5.10259 11.3754Z" transform="translate(31.32642 0)" id="Path" fill="#000000" stroke="none"/>
    <path d="M4.13325 8.26661L7.23321 8.26661C9.51278 8.26661 11.3666 6.41293 11.3666 4.13325L11.3666 1.03328C11.3666 0.462936 10.9036 0 10.3333 0L2.06668 0C0.926841 0 0 0.926962 0 2.06668L0 4.13337C0 6.41281 1.85368 8.26661 4.13325 8.26661ZM2.06658 4.13336L2.06658 2.06667L9.29991 2.06667L9.29991 4.13336C9.29991 5.2732 8.37295 6.20004 7.23323 6.20004L4.13326 6.20004C2.99342 6.20004 2.06658 5.27308 2.06658 4.13336Z" transform="translate(10.33325 15.50031)" id="Shape" fill="#000000" fill-rule="evenodd" stroke="none"/>
    <path d="M4.13325 8.26649L7.23321 8.26649C9.51265 8.26649 11.3665 6.41281 11.3666 4.13337L11.3666 2.06668C11.3666 0.926841 10.4396 0 9.2999 0L1.03328 0C0.462936 0 0 0.462936 0 1.03328L0 4.13325C0 6.41269 1.85368 8.26649 4.13325 8.26649ZM2.06658 4.13323L2.06658 2.06655L9.29991 2.06655L9.29991 4.13323C9.29991 5.27307 8.37295 6.19991 7.23323 6.19991L4.13326 6.19991C2.99342 6.19991 2.06658 5.27295 2.06658 4.13323Z" transform="translate(23.7666 15.50043)" id="Shape" fill="#000000" fill-rule="evenodd" stroke="none"/>
    <path d="M0 0L4.13325 0L4.13325 2.06668L0 2.06668L0 0Z" transform="translate(20.6665 15.50043)" id="Rectangle" fill="#000000" stroke="none"/>
    <path d="M2.06668 4.13337C3.20808 4.13337 4.13337 3.20808 4.13337 2.06668C4.13337 0.925286 3.20808 0 2.06668 0C0.925286 0 0 0.925286 0 2.06668C0 3.20808 0.925286 4.13337 2.06668 4.13337Z" transform="translate(14.46655 16.53366)" id="Oval" fill="#000000" stroke="none"/>
    <path d="M2.06668 4.13337C3.20808 4.13337 4.13337 3.20808 4.13337 2.06668C4.13337 0.925286 3.20808 0 2.06668 0C0.925286 0 0 0.925286 0 2.06668C0 3.20808 0.925286 4.13337 2.06668 4.13337Z" transform="translate(26.86646 16.53366)" id="Oval" fill="#000000" stroke="none"/>
  </g>
</svg>