<svg id="svg" version="1.1" xmlns="http://www.w3.org/2000/svg" xmlns:xlink="http://www.w3.org/1999/xlink" width="400" height="539.1969407265775" viewBox="0, 0, 400,539.1969407265775"><g id="svgg"><path id="path0" d="M156.405 52.008 L 156.405 60.803 165.201 60.803 L 173.996 60.803 173.996 56.405 L 173.996 52.008 169.598 52.008 L 165.201 52.008 165.201 47.610 L 165.201 43.212 160.803 43.212 L 156.405 43.212 156.405 52.008 M234.799 47.610 L 234.799 52.008 230.402 52.008 L 226.004 52.008 226.004 56.405 L 226.004 60.803 221.606 60.803 L 217.208 60.803 217.208 65.201 L 217.208 69.598 226.004 69.598 L 234.799 69.598 234.799 60.803 L 234.799 52.008 239.197 52.008 L 243.595 52.008 243.595 47.610 L 243.595 43.212 239.197 43.212 L 234.799 43.212 234.799 47.610 M104.398 82.600 L 104.398 86.807 108.795 86.807 L 113.193 86.807 113.193 82.600 L 113.193 78.394 108.795 78.394 L 104.398 78.394 104.398 82.600 M156.405 91.205 L 156.405 95.602 147.801 95.602 L 139.197 95.602 139.197 100.000 L 139.197 104.398 134.799 104.398 L 130.402 104.398 130.402 108.795 L 130.402 113.193 126.004 113.193 L 121.606 113.193 121.606 117.400 L 121.606 121.606 117.400 121.606 L 113.193 121.606 113.193 126.004 L 113.193 130.402 108.795 130.402 L 104.398 130.402 104.398 139.197 L 104.398 147.992 100.000 147.992 L 95.602 147.992 95.602 169.598 L 95.602 191.205 91.205 191.205 L 86.807 191.205 86.807 195.602 L 86.807 200.000 91.205 200.000 L 95.602 200.000 95.602 204.398 L 95.602 208.795 108.604 208.795 L 121.606 208.795 121.606 213.193 L 121.606 217.591 143.403 217.591 L 165.201 217.591 165.201 226.195 L 165.201 234.799 173.996 234.799 L 182.792 234.799 182.792 230.593 L 182.792 226.386 200.000 226.386 L 217.208 226.386 217.208 230.593 L 217.208 234.799 226.004 234.799 L 234.799 234.799 234.799 226.195 L 234.799 217.591 256.597 217.591 L 278.394 217.591 278.394 213.193 L 278.394 208.795 291.396 208.795 L 304.398 208.795 304.398 178.394 L 304.398 147.992 300.000 147.992 L 295.602 147.992 295.602 139.197 L 295.602 130.402 291.205 130.402 L 286.807 130.402 286.807 126.004 L 286.807 121.606 282.600 121.606 L 278.394 121.606 278.394 117.400 L 278.394 113.193 273.996 113.193 L 269.598 113.193 269.598 108.795 L 269.598 104.398 265.201 104.398 L 260.803 104.398 260.803 100.000 L 260.803 95.602 252.199 95.602 L 243.595 95.602 243.595 91.205 L 243.595 86.807 200.000 86.807 L 156.405 86.807 156.405 91.205 M234.799 100.000 L 234.799 104.398 243.403 104.398 L 252.008 104.398 252.008 108.795 L 252.008 113.193 256.405 113.193 L 260.803 113.193 260.803 117.400 L 260.803 121.606 265.201 121.606 L 269.598 121.606 269.598 126.004 L 269.598 130.402 273.996 130.402 L 278.394 130.402 278.394 134.799 L 278.394 139.197 282.600 139.197 L 286.807 139.197 286.807 147.801 L 286.807 156.405 291.205 156.405 L 295.602 156.405 295.602 178.203 L 295.602 200.000 291.205 200.000 L 286.807 200.000 286.807 195.602 L 286.807 191.205 269.407 191.205 L 252.008 191.205 252.008 195.602 L 252.008 200.000 260.803 200.000 L 269.598 200.000 269.598 204.398 L 269.598 208.795 247.801 208.795 L 226.004 208.795 226.004 213.193 L 226.004 217.591 200.000 217.591 L 173.996 217.591 173.996 213.193 L 173.996 208.795 152.199 208.795 L 130.402 208.795 130.402 204.398 L 130.402 200.000 139.197 200.000 L 147.992 200.000 147.992 195.602 L 147.992 191.205 130.593 191.205 L 113.193 191.205 113.193 195.602 L 113.193 200.000 108.795 200.000 L 104.398 200.000 104.398 178.203 L 104.398 156.405 108.795 156.405 L 113.193 156.405 113.193 147.801 L 113.193 139.197 117.400 139.197 L 121.606 139.197 121.606 134.799 L 121.606 130.402 126.004 130.402 L 130.402 130.402 130.402 126.004 L 130.402 121.606 134.799 121.606 L 139.197 121.606 139.197 117.400 L 139.197 113.193 143.595 113.193 L 147.992 113.193 147.992 108.795 L 147.992 104.398 156.597 104.398 L 165.201 104.398 165.201 100.000 L 165.201 95.602 200.000 95.602 L 234.799 95.602 234.799 100.000 M52.008 160.803 L 52.008 165.201 56.405 165.201 L 60.803 165.201 60.803 160.803 L 60.803 156.405 56.405 156.405 L 52.008 156.405 52.008 160.803 M60.803 182.600 L 60.803 191.205 65.201 191.205 L 69.598 191.205 69.598 182.600 L 69.598 173.996 65.201 173.996 L 60.803 173.996 60.803 182.600 M182.792 178.394 L 182.792 182.792 165.392 182.792 L 147.992 182.792 147.992 186.998 L 147.992 191.205 165.392 191.205 L 182.792 191.205 182.792 186.998 L 182.792 182.792 200.000 182.792 L 217.208 182.792 217.208 186.998 L 217.208 191.205 234.608 191.205 L 252.008 191.205 252.008 186.998 L 252.008 182.792 234.608 182.792 L 217.208 182.792 217.208 178.394 L 217.208 173.996 200.000 173.996 L 182.792 173.996 182.792 178.394 M330.402 186.998 L 330.402 191.205 334.799 191.205 L 339.197 191.205 339.197 186.998 L 339.197 182.792 334.799 182.792 L 330.402 182.792 330.402 186.998 M60.803 213.193 L 60.803 217.591 65.201 217.591 L 69.598 217.591 69.598 213.193 L 69.598 208.795 65.201 208.795 L 60.803 208.795 60.803 213.193 M330.402 213.193 L 330.402 217.591 334.799 217.591 L 339.197 217.591 339.197 213.193 L 339.197 208.795 334.799 208.795 L 330.402 208.795 330.402 213.193 M347.992 221.797 L 347.992 226.004 352.390 226.004 L 356.788 226.004 356.788 221.797 L 356.788 217.591 352.390 217.591 L 347.992 217.591 347.992 221.797 M60.803 230.402 L 60.803 234.799 65.010 234.799 L 69.216 234.799 69.216 230.402 L 69.216 226.004 65.010 226.004 L 60.803 226.004 60.803 230.402 M330.784 230.402 L 330.784 234.799 334.990 234.799 L 339.197 234.799 339.197 230.402 L 339.197 226.004 334.990 226.004 L 330.784 226.004 330.784 230.402 M104.398 269.598 L 104.398 278.394 108.795 278.394 L 113.193 278.394 113.193 291.396 L 113.193 304.398 117.400 304.398 L 121.606 304.398 121.606 313.193 L 121.606 321.989 117.400 321.989 L 113.193 321.989 113.193 326.386 L 113.193 330.784 108.795 330.784 L 104.398 330.784 104.398 334.990 L 104.398 339.197 95.602 339.197 L 86.807 339.197 86.807 343.595 L 86.807 347.992 82.600 347.992 L 78.394 347.992 78.394 352.199 L 78.394 356.405 65.201 356.405 L 52.008 356.405 52.008 360.803 L 52.008 365.201 47.801 365.201 L 43.595 365.201 43.595 373.996 L 43.595 382.792 39.197 382.792 L 34.799 382.792 34.799 404.398 L 34.799 426.004 30.402 426.004 L 26.004 426.004 26.004 456.597 L 26.004 487.189 30.402 487.189 L 34.799 487.189 34.799 495.793 L 34.799 504.398 39.197 504.398 L 43.595 504.398 43.595 513.193 L 43.595 521.989 47.801 521.989 L 52.008 521.989 52.008 526.195 L 52.008 530.402 56.405 530.402 L 60.803 530.402 60.803 534.799 L 60.803 539.197 69.598 539.197 L 78.394 539.197 78.394 534.799 L 78.394 530.402 73.996 530.402 L 69.598 530.402 69.598 526.195 L 69.598 521.989 65.201 521.989 L 60.803 521.989 60.803 517.591 L 60.803 513.193 56.405 513.193 L 52.008 513.193 52.008 504.398 L 52.008 495.602 47.801 495.602 L 43.595 495.602 43.595 486.998 L 43.595 478.394 39.197 478.394 L 34.799 478.394 34.799 452.199 L 34.799 426.004 39.197 426.004 L 43.595 426.004 43.595 408.604 L 43.595 391.205 47.801 391.205 L 52.008 391.205 52.008 395.602 L 52.008 400.000 56.405 400.000 L 60.803 400.000 60.803 421.797 L 60.803 443.595 65.201 443.595 L 69.598 443.595 69.598 452.199 L 69.598 460.803 73.996 460.803 L 78.394 460.803 78.394 465.201 L 78.394 469.598 82.600 469.598 L 86.807 469.598 86.807 478.394 L 86.807 487.189 91.205 487.189 L 95.602 487.189 95.602 491.396 L 95.602 495.602 100.000 495.602 L 104.398 495.602 104.398 500.000 L 104.398 504.398 108.795 504.398 L 113.193 504.398 113.193 517.400 L 113.193 530.402 117.400 530.402 L 121.606 530.402 121.606 534.799 L 121.606 539.197 126.004 539.197 L 130.402 539.197 130.402 530.593 L 130.402 521.989 126.004 521.989 L 121.606 521.989 121.606 508.795 L 121.606 495.602 117.400 495.602 L 113.193 495.602 113.193 491.396 L 113.193 487.189 108.795 487.189 L 104.398 487.189 104.398 482.792 L 104.398 478.394 100.000 478.394 L 95.602 478.394 95.602 469.598 L 95.602 460.803 91.205 460.803 L 86.807 460.803 86.807 456.597 L 86.807 452.390 82.600 452.390 L 78.394 452.390 78.394 443.595 L 78.394 434.799 73.996 434.799 L 69.598 434.799 69.598 413.002 L 69.598 391.205 65.201 391.205 L 60.803 391.205 60.803 378.203 L 60.803 365.201 73.805 365.201 L 86.807 365.201 86.807 360.803 L 86.807 356.405 91.205 356.405 L 95.602 356.405 95.602 360.803 L 95.602 365.201 104.398 365.201 L 113.193 365.201 113.193 369.598 L 113.193 373.996 108.795 373.996 L 104.398 373.996 104.398 378.394 L 104.398 382.792 100.000 382.792 L 95.602 382.792 95.602 391.396 L 95.602 400.000 100.000 400.000 L 104.398 400.000 104.398 404.398 L 104.398 408.795 108.795 408.795 L 113.193 408.795 113.193 417.400 L 113.193 426.004 117.400 426.004 L 121.606 426.004 121.606 430.402 L 121.606 434.799 126.004 434.799 L 130.402 434.799 130.402 439.197 L 130.402 443.595 134.799 443.595 L 139.197 443.595 139.197 447.992 L 139.197 452.390 143.595 452.390 L 147.992 452.390 147.992 456.597 L 147.992 460.803 152.199 460.803 L 156.405 460.803 156.405 465.201 L 156.405 469.598 160.803 469.598 L 165.201 469.598 165.201 473.996 L 165.201 478.394 169.598 478.394 L 173.996 478.394 173.996 482.792 L 173.996 487.189 178.394 487.189 L 182.792 487.189 182.792 491.396 L 182.792 495.602 186.998 495.602 L 191.205 495.602 191.205 517.400 L 191.205 539.197 200.000 539.197 L 208.795 539.197 208.795 517.400 L 208.795 495.602 213.002 495.602 L 217.208 495.602 217.208 491.396 L 217.208 487.189 221.606 487.189 L 226.004 487.189 226.004 482.792 L 226.004 478.394 230.402 478.394 L 234.799 478.394 234.799 473.996 L 234.799 469.598 239.197 469.598 L 243.595 469.598 243.595 465.201 L 243.595 460.803 247.801 460.803 L 252.008 460.803 252.008 456.597 L 252.008 452.390 256.405 452.390 L 260.803 452.390 260.803 447.992 L 260.803 443.595 265.201 443.595 L 269.598 443.595 269.598 439.197 L 269.598 434.799 273.996 434.799 L 278.394 434.799 278.394 430.402 L 278.394 426.004 282.600 426.004 L 286.807 426.004 286.807 417.400 L 286.807 408.795 291.205 408.795 L 295.602 408.795 295.602 404.398 L 295.602 400.000 300.000 400.000 L 304.398 400.000 304.398 391.396 L 304.398 382.792 300.000 382.792 L 295.602 382.792 295.602 378.394 L 295.602 373.996 291.205 373.996 L 286.807 373.996 286.807 369.598 L 286.807 365.201 295.602 365.201 L 304.398 365.201 304.398 360.803 L 304.398 356.405 308.795 356.405 L 313.193 356.405 313.193 360.803 L 313.193 365.201 326.195 365.201 L 339.197 365.201 339.197 378.203 L 339.197 391.205 334.799 391.205 L 330.402 391.205 330.402 413.002 L 330.402 434.799 326.004 434.799 L 321.606 434.799 321.606 443.595 L 321.606 452.390 317.400 452.390 L 313.193 452.390 313.193 456.597 L 313.193 460.803 308.795 460.803 L 304.398 460.803 304.398 469.598 L 304.398 478.394 300.000 478.394 L 295.602 478.394 295.602 482.792 L 295.602 487.189 291.205 487.189 L 286.807 487.189 286.807 491.396 L 286.807 495.602 282.600 495.602 L 278.394 495.602 278.394 508.795 L 278.394 521.989 273.996 521.989 L 269.598 521.989 269.598 530.593 L 269.598 539.197 273.996 539.197 L 278.394 539.197 278.394 534.799 L 278.394 530.402 282.600 530.402 L 286.807 530.402 286.807 517.400 L 286.807 504.398 291.205 504.398 L 295.602 504.398 295.602 500.000 L 295.602 495.602 300.000 495.602 L 304.398 495.602 304.398 491.396 L 304.398 487.189 308.795 487.189 L 313.193 487.189 313.193 478.394 L 313.193 469.598 317.400 469.598 L 321.606 469.598 321.606 465.201 L 321.606 460.803 326.004 460.803 L 330.402 460.803 330.402 452.199 L 330.402 443.595 334.799 443.595 L 339.197 443.595 339.197 421.797 L 339.197 400.000 343.595 400.000 L 347.992 400.000 347.992 395.602 L 347.992 391.205 352.199 391.205 L 356.405 391.205 356.405 408.604 L 356.405 426.004 360.803 426.004 L 365.201 426.004 365.201 452.199 L 365.201 478.394 360.803 478.394 L 356.405 478.394 356.405 486.998 L 356.405 495.602 352.199 495.602 L 347.992 495.602 347.992 504.398 L 347.992 513.193 343.595 513.193 L 339.197 513.193 339.197 517.591 L 339.197 521.989 334.799 521.989 L 330.402 521.989 330.402 526.195 L 330.402 530.402 326.004 530.402 L 321.606 530.402 321.606 534.799 L 321.606 539.197 330.402 539.197 L 339.197 539.197 339.197 534.799 L 339.197 530.402 343.595 530.402 L 347.992 530.402 347.992 526.195 L 347.992 521.989 352.199 521.989 L 356.405 521.989 356.405 513.193 L 356.405 504.398 360.803 504.398 L 365.201 504.398 365.201 495.793 L 365.201 487.189 369.598 487.189 L 373.996 487.189 373.996 456.597 L 373.996 426.004 369.598 426.004 L 365.201 426.004 365.201 404.398 L 365.201 382.792 360.803 382.792 L 356.405 382.792 356.405 373.996 L 356.405 365.201 352.199 365.201 L 347.992 365.201 347.992 360.803 L 347.992 356.405 334.799 356.405 L 321.606 356.405 321.606 352.199 L 321.606 347.992 317.400 347.992 L 313.193 347.992 313.193 343.595 L 313.193 339.197 304.398 339.197 L 295.602 339.197 295.602 334.990 L 295.602 330.784 291.205 330.784 L 286.807 330.784 286.807 326.386 L 286.807 321.989 282.600 321.989 L 278.394 321.989 278.394 313.193 L 278.394 304.398 282.600 304.398 L 286.807 304.398 286.807 291.396 L 286.807 278.394 291.205 278.394 L 295.602 278.394 295.602 269.598 L 295.602 260.803 291.205 260.803 L 286.807 260.803 286.807 269.598 L 286.807 278.394 282.600 278.394 L 278.394 278.394 278.394 291.396 L 278.394 304.398 273.996 304.398 L 269.598 304.398 269.598 308.795 L 269.598 313.193 265.201 313.193 L 260.803 313.193 260.803 317.400 L 260.803 321.606 256.405 321.606 L 252.008 321.606 252.008 330.402 L 252.008 339.197 243.403 339.197 L 234.799 339.197 234.799 343.595 L 234.799 347.992 221.797 347.992 L 208.795 347.992 208.795 352.199 L 208.795 356.405 200.000 356.405 L 191.205 356.405 191.205 352.199 L 191.205 347.992 178.203 347.992 L 165.201 347.992 165.201 343.595 L 165.201 339.197 156.597 339.197 L 147.992 339.197 147.992 330.402 L 147.992 321.606 143.595 321.606 L 139.197 321.606 139.197 317.400 L 139.197 313.193 134.799 313.193 L 130.402 313.193 130.402 308.795 L 130.402 304.398 126.004 304.398 L 121.606 304.398 121.606 291.396 L 121.606 278.394 117.400 278.394 L 113.193 278.394 113.193 269.598 L 113.193 260.803 108.795 260.803 L 104.398 260.803 104.398 269.598 M138.815 265.201 L 138.815 269.598 152.008 269.598 L 165.201 269.598 165.201 265.201 L 165.201 260.803 152.008 260.803 L 138.815 260.803 138.815 265.201 M234.799 265.201 L 234.799 269.598 247.992 269.598 L 261.185 269.598 261.185 265.201 L 261.185 260.803 247.992 260.803 L 234.799 260.803 234.799 265.201 M138.815 282.792 L 138.815 287.189 152.008 287.189 L 165.201 287.189 165.201 282.792 L 165.201 278.394 152.008 278.394 L 138.815 278.394 138.815 282.792 M191.205 282.600 L 191.205 286.807 200.000 286.807 L 208.795 286.807 208.795 282.600 L 208.795 278.394 200.000 278.394 L 191.205 278.394 191.205 282.600 M234.799 282.792 L 234.799 287.189 247.992 287.189 L 261.185 287.189 261.185 282.792 L 261.185 278.394 247.992 278.394 L 234.799 278.394 234.799 282.792 M165.201 308.604 L 165.201 313.193 169.598 313.193 L 173.996 313.193 173.996 317.400 L 173.996 321.606 200.000 321.606 L 226.004 321.606 226.004 317.400 L 226.004 313.193 230.402 313.193 L 234.799 313.193 234.799 308.604 L 234.799 304.015 230.402 304.015 L 226.004 304.015 226.004 308.604 L 226.004 313.193 200.000 313.193 L 173.996 313.193 173.996 308.604 L 173.996 304.015 169.598 304.015 L 165.201 304.015 165.201 308.604 M130.402 369.598 L 130.402 408.795 134.799 408.795 L 139.197 408.795 139.197 413.193 L 139.197 417.591 143.595 417.591 L 147.992 417.591 147.992 408.795 L 147.992 400.000 143.595 400.000 L 139.197 400.000 139.197 391.396 L 139.197 382.792 143.595 382.792 L 147.992 382.792 147.992 369.598 L 147.992 356.405 143.595 356.405 L 139.197 356.405 139.197 347.801 L 139.197 339.197 143.595 339.197 L 147.992 339.197 147.992 343.595 L 147.992 347.992 156.597 347.992 L 165.201 347.992 165.201 352.199 L 165.201 356.405 173.996 356.405 L 182.792 356.405 182.792 360.803 L 182.792 365.201 186.998 365.201 L 191.205 365.201 191.205 369.598 L 191.205 373.996 186.998 373.996 L 182.792 373.996 182.792 378.394 L 182.792 382.792 200.000 382.792 L 217.208 382.792 217.208 378.394 L 217.208 373.996 213.002 373.996 L 208.795 373.996 208.795 369.598 L 208.795 365.201 213.002 365.201 L 217.208 365.201 217.208 360.803 L 217.208 356.405 226.004 356.405 L 234.799 356.405 234.799 352.199 L 234.799 347.992 243.403 347.992 L 252.008 347.992 252.008 343.595 L 252.008 339.197 256.405 339.197 L 260.803 339.197 260.803 347.801 L 260.803 356.405 256.405 356.405 L 252.008 356.405 252.008 369.598 L 252.008 382.792 256.405 382.792 L 260.803 382.792 260.803 391.396 L 260.803 400.000 256.405 400.000 L 252.008 400.000 252.008 408.795 L 252.008 417.591 256.405 417.591 L 260.803 417.591 260.803 413.193 L 260.803 408.795 265.201 408.795 L 269.598 408.795 269.598 369.598 L 269.598 330.402 273.996 330.402 L 278.394 330.402 278.394 334.799 L 278.394 339.197 282.600 339.197 L 286.807 339.197 286.807 343.595 L 286.807 347.992 291.205 347.992 L 295.602 347.992 295.602 352.199 L 295.602 356.405 291.205 356.405 L 286.807 356.405 286.807 360.803 L 286.807 365.201 282.600 365.201 L 278.394 365.201 278.394 373.996 L 278.394 382.792 282.600 382.792 L 286.807 382.792 286.807 391.396 L 286.807 400.000 282.600 400.000 L 278.394 400.000 278.394 408.795 L 278.394 417.591 273.996 417.591 L 269.598 417.591 269.598 421.797 L 269.598 426.004 265.201 426.004 L 260.803 426.004 260.803 434.799 L 260.803 443.595 256.405 443.595 L 252.008 443.595 252.008 447.992 L 252.008 452.390 247.801 452.390 L 243.595 452.390 243.595 456.597 L 243.595 460.803 239.197 460.803 L 234.799 460.803 234.799 465.201 L 234.799 469.598 230.402 469.598 L 226.004 469.598 226.004 473.996 L 226.004 478.394 221.606 478.394 L 217.208 478.394 217.208 482.792 L 217.208 487.189 213.002 487.189 L 208.795 487.189 208.795 478.394 L 208.795 469.598 213.002 469.598 L 217.208 469.598 217.208 465.201 L 217.208 460.803 221.606 460.803 L 226.004 460.803 226.004 456.597 L 226.004 452.390 221.606 452.390 L 217.208 452.390 217.208 439.197 L 217.208 426.004 213.002 426.004 L 208.795 426.004 208.795 443.403 L 208.795 460.803 200.000 460.803 L 191.205 460.803 191.205 443.403 L 191.205 426.004 186.998 426.004 L 182.792 426.004 182.792 439.197 L 182.792 452.390 178.394 452.390 L 173.996 452.390 173.996 456.597 L 173.996 460.803 178.394 460.803 L 182.792 460.803 182.792 465.201 L 182.792 469.598 186.998 469.598 L 191.205 469.598 191.205 478.394 L 191.205 487.189 186.998 487.189 L 182.792 487.189 182.792 482.792 L 182.792 478.394 178.394 478.394 L 173.996 478.394 173.996 473.996 L 173.996 469.598 169.598 469.598 L 165.201 469.598 165.201 465.201 L 165.201 460.803 160.803 460.803 L 156.405 460.803 156.405 456.597 L 156.405 452.390 152.199 452.390 L 147.992 452.390 147.992 447.992 L 147.992 443.595 143.595 443.595 L 139.197 443.595 139.197 434.799 L 139.197 426.004 134.799 426.004 L 130.402 426.004 130.402 421.797 L 130.402 417.591 126.004 417.591 L 121.606 417.591 121.606 408.795 L 121.606 400.000 117.400 400.000 L 113.193 400.000 113.193 391.396 L 113.193 382.792 117.400 382.792 L 121.606 382.792 121.606 373.996 L 121.606 365.201 117.400 365.201 L 113.193 365.201 113.193 360.803 L 113.193 356.405 108.795 356.405 L 104.398 356.405 104.398 352.199 L 104.398 347.992 108.795 347.992 L 113.193 347.992 113.193 343.595 L 113.193 339.197 117.400 339.197 L 121.606 339.197 121.606 334.799 L 121.606 330.402 126.004 330.402 L 130.402 330.402 130.402 369.598 M147.992 391.396 L 147.992 400.000 160.994 400.000 L 173.996 400.000 173.996 404.398 L 173.996 408.795 178.394 408.795 L 182.792 408.795 182.792 413.193 L 182.792 417.591 186.998 417.591 L 191.205 417.591 191.205 421.797 L 191.205 426.004 200.000 426.004 L 208.795 426.004 208.795 421.797 L 208.795 417.591 213.002 417.591 L 217.208 417.591 217.208 413.193 L 217.208 408.795 221.606 408.795 L 226.004 408.795 226.004 404.398 L 226.004 400.000 239.006 400.000 L 252.008 400.000 252.008 391.396 L 252.008 382.792 247.801 382.792 L 243.595 382.792 243.595 386.998 L 243.595 391.205 234.799 391.205 L 226.004 391.205 226.004 386.998 L 226.004 382.792 221.606 382.792 L 217.208 382.792 217.208 391.396 L 217.208 400.000 213.002 400.000 L 208.795 400.000 208.795 404.398 L 208.795 408.795 200.000 408.795 L 191.205 408.795 191.205 404.398 L 191.205 400.000 186.998 400.000 L 182.792 400.000 182.792 391.396 L 182.792 382.792 178.394 382.792 L 173.996 382.792 173.996 386.998 L 173.996 391.205 165.201 391.205 L 156.405 391.205 156.405 386.998 L 156.405 382.792 152.199 382.792 L 147.992 382.792 147.992 391.396 M147.992 426.195 L 147.992 434.799 152.199 434.799 L 156.405 434.799 156.405 439.197 L 156.405 443.595 160.803 443.595 L 165.201 443.595 165.201 447.992 L 165.201 452.390 169.598 452.390 L 173.996 452.390 173.996 447.992 L 173.996 443.595 169.598 443.595 L 165.201 443.595 165.201 439.197 L 165.201 434.799 160.803 434.799 L 156.405 434.799 156.405 426.195 L 156.405 417.591 152.199 417.591 L 147.992 417.591 147.992 426.195 M243.595 426.195 L 243.595 434.799 239.197 434.799 L 234.799 434.799 234.799 439.197 L 234.799 443.595 230.402 443.595 L 226.004 443.595 226.004 447.992 L 226.004 452.390 230.402 452.390 L 234.799 452.390 234.799 447.992 L 234.799 443.595 239.197 443.595 L 243.595 443.595 243.595 439.197 L 243.595 434.799 247.801 434.799 L 252.008 434.799 252.008 426.195 L 252.008 417.591 247.801 417.591 L 243.595 417.591 243.595 426.195 " stroke="none" fill="#040408" fill-rule="evenodd"></path><path id="path1" d="M182.409 126.004 L 182.409 130.402 186.807 130.402 L 191.205 130.402 191.205 143.595 L 191.205 156.788 200.000 156.788 L 208.795 156.788 208.795 152.390 L 208.795 147.992 213.193 147.992 L 217.591 147.992 217.591 143.595 L 217.591 139.197 213.193 139.197 L 208.795 139.197 208.795 134.799 L 208.795 130.402 213.193 130.402 L 217.591 130.402 217.591 126.004 L 217.591 121.606 200.000 121.606 L 182.409 121.606 182.409 126.004 M147.992 243.595 L 147.992 252.390 152.199 252.390 L 156.405 252.390 156.405 243.595 L 156.405 234.799 152.199 234.799 L 147.992 234.799 147.992 243.595 M165.201 239.197 L 165.201 243.595 169.598 243.595 L 173.996 243.595 173.996 247.992 L 173.996 252.390 178.394 252.390 L 182.792 252.390 182.792 243.595 L 182.792 234.799 173.996 234.799 L 165.201 234.799 165.201 239.197 M217.208 243.595 L 217.208 252.390 221.606 252.390 L 226.004 252.390 226.004 243.595 L 226.004 234.799 221.606 234.799 L 217.208 234.799 217.208 243.595 M234.799 239.197 L 234.799 243.595 239.197 243.595 L 243.595 243.595 243.595 247.992 L 243.595 252.390 247.801 252.390 L 252.008 252.390 252.008 243.595 L 252.008 234.799 243.403 234.799 L 234.799 234.799 234.799 239.197 M173.996 308.604 L 173.996 313.193 200.000 313.193 L 226.004 313.193 226.004 308.604 L 226.004 304.015 200.000 304.015 L 173.996 304.015 173.996 308.604 M147.992 365.392 L 147.992 382.792 143.595 382.792 L 139.197 382.792 139.197 391.396 L 139.197 400.000 143.595 400.000 L 147.992 400.000 147.992 408.795 L 147.992 417.591 152.199 417.591 L 156.405 417.591 156.405 426.195 L 156.405 434.799 160.803 434.799 L 165.201 434.799 165.201 439.197 L 165.201 443.595 169.598 443.595 L 173.996 443.595 173.996 447.992 L 173.996 452.390 178.394 452.390 L 182.792 452.390 182.792 430.593 L 182.792 408.795 178.394 408.795 L 173.996 408.795 173.996 404.398 L 173.996 400.000 160.994 400.000 L 147.992 400.000 147.992 391.396 L 147.992 382.792 152.199 382.792 L 156.405 382.792 156.405 386.998 L 156.405 391.205 165.201 391.205 L 173.996 391.205 173.996 386.998 L 173.996 382.792 178.394 382.792 L 182.792 382.792 182.792 378.394 L 182.792 373.996 186.998 373.996 L 191.205 373.996 191.205 369.598 L 191.205 365.201 186.998 365.201 L 182.792 365.201 182.792 360.803 L 182.792 356.405 173.996 356.405 L 165.201 356.405 165.201 352.199 L 165.201 347.992 156.597 347.992 L 147.992 347.992 147.992 365.392 M234.799 352.199 L 234.799 356.405 226.004 356.405 L 217.208 356.405 217.208 360.803 L 217.208 365.201 213.002 365.201 L 208.795 365.201 208.795 369.598 L 208.795 373.996 213.002 373.996 L 217.208 373.996 217.208 378.394 L 217.208 382.792 221.606 382.792 L 226.004 382.792 226.004 386.998 L 226.004 391.205 234.799 391.205 L 243.595 391.205 243.595 386.998 L 243.595 382.792 247.801 382.792 L 252.008 382.792 252.008 391.396 L 252.008 400.000 239.006 400.000 L 226.004 400.000 226.004 404.398 L 226.004 408.795 221.606 408.795 L 217.208 408.795 217.208 430.593 L 217.208 452.390 221.606 452.390 L 226.004 452.390 226.004 447.992 L 226.004 443.595 230.402 443.595 L 234.799 443.595 234.799 439.197 L 234.799 434.799 239.197 434.799 L 243.595 434.799 243.595 426.195 L 243.595 417.591 247.801 417.591 L 252.008 417.591 252.008 408.795 L 252.008 400.000 256.405 400.000 L 260.803 400.000 260.803 391.396 L 260.803 382.792 256.405 382.792 L 252.008 382.792 252.008 365.392 L 252.008 347.992 243.403 347.992 L 234.799 347.992 234.799 352.199 " stroke="none" fill="#c8c8d6" fill-rule="evenodd"></path><path id="path2" d="M121.606 334.799 L 121.606 339.197 117.400 339.197 L 113.193 339.197 113.193 343.595 L 113.193 347.992 108.795 347.992 L 104.398 347.992 104.398 352.199 L 104.398 356.405 108.795 356.405 L 113.193 356.405 113.193 360.803 L 113.193 365.201 104.398 365.201 L 95.602 365.201 95.602 360.803 L 95.602 356.405 91.205 356.405 L 86.807 356.405 86.807 360.803 L 86.807 365.201 73.805 365.201 L 60.803 365.201 60.803 378.203 L 60.803 391.205 65.201 391.205 L 69.598 391.205 69.598 413.002 L 69.598 434.799 73.996 434.799 L 78.394 434.799 78.394 443.595 L 78.394 452.390 82.600 452.390 L 86.807 452.390 86.807 456.597 L 86.807 460.803 91.205 460.803 L 95.602 460.803 95.602 469.598 L 95.602 478.394 100.000 478.394 L 104.398 478.394 104.398 482.792 L 104.398 487.189 108.795 487.189 L 113.193 487.189 113.193 491.396 L 113.193 495.602 117.400 495.602 L 121.606 495.602 121.606 508.795 L 121.606 521.989 126.004 521.989 L 130.402 521.989 130.402 530.593 L 130.402 539.197 160.803 539.197 L 191.205 539.197 191.205 517.400 L 191.205 495.602 186.998 495.602 L 182.792 495.602 182.792 491.396 L 182.792 487.189 186.998 487.189 L 191.205 487.189 191.205 478.394 L 191.205 469.598 186.998 469.598 L 182.792 469.598 182.792 465.201 L 182.792 460.803 178.394 460.803 L 173.996 460.803 173.996 456.597 L 173.996 452.390 169.598 452.390 L 165.201 452.390 165.201 447.992 L 165.201 443.595 160.803 443.595 L 156.405 443.595 156.405 439.197 L 156.405 434.799 152.199 434.799 L 147.992 434.799 147.992 426.195 L 147.992 417.591 143.595 417.591 L 139.197 417.591 139.197 413.193 L 139.197 408.795 134.799 408.795 L 130.402 408.795 130.402 369.598 L 130.402 330.402 126.004 330.402 L 121.606 330.402 121.606 334.799 M269.598 369.598 L 269.598 408.795 265.201 408.795 L 260.803 408.795 260.803 413.193 L 260.803 417.591 256.405 417.591 L 252.008 417.591 252.008 426.195 L 252.008 434.799 247.801 434.799 L 243.595 434.799 243.595 439.197 L 243.595 443.595 239.197 443.595 L 234.799 443.595 234.799 447.992 L 234.799 452.390 230.402 452.390 L 226.004 452.390 226.004 456.597 L 226.004 460.803 221.606 460.803 L 217.208 460.803 217.208 465.201 L 217.208 469.598 213.002 469.598 L 208.795 469.598 208.795 478.394 L 208.795 487.189 213.002 487.189 L 217.208 487.189 217.208 491.396 L 217.208 495.602 213.002 495.602 L 208.795 495.602 208.795 517.400 L 208.795 539.197 239.197 539.197 L 269.598 539.197 269.598 530.593 L 269.598 521.989 273.996 521.989 L 278.394 521.989 278.394 508.795 L 278.394 495.602 282.600 495.602 L 286.807 495.602 286.807 491.396 L 286.807 487.189 291.205 487.189 L 295.602 487.189 295.602 482.792 L 295.602 478.394 300.000 478.394 L 304.398 478.394 304.398 469.598 L 304.398 460.803 308.795 460.803 L 313.193 460.803 313.193 456.597 L 313.193 452.390 317.400 452.390 L 321.606 452.390 321.606 443.595 L 321.606 434.799 326.004 434.799 L 330.402 434.799 330.402 413.002 L 330.402 391.205 334.799 391.205 L 339.197 391.205 339.197 378.203 L 339.197 365.201 326.195 365.201 L 313.193 365.201 313.193 360.803 L 313.193 356.405 308.795 356.405 L 304.398 356.405 304.398 360.803 L 304.398 365.201 295.602 365.201 L 286.807 365.201 286.807 360.803 L 286.807 356.405 291.205 356.405 L 295.602 356.405 295.602 352.199 L 295.602 347.992 291.205 347.992 L 286.807 347.992 286.807 343.595 L 286.807 339.197 282.600 339.197 L 278.394 339.197 278.394 334.799 L 278.394 330.402 273.996 330.402 L 269.598 330.402 269.598 369.598 M121.606 373.996 L 121.606 382.792 117.400 382.792 L 113.193 382.792 113.193 391.396 L 113.193 400.000 117.400 400.000 L 121.606 400.000 121.606 408.795 L 121.606 417.591 126.004 417.591 L 130.402 417.591 130.402 421.797 L 130.402 426.004 134.799 426.004 L 139.197 426.004 139.197 434.799 L 139.197 443.595 143.595 443.595 L 147.992 443.595 147.992 447.992 L 147.992 452.390 152.199 452.390 L 156.405 452.390 156.405 456.597 L 156.405 460.803 160.803 460.803 L 165.201 460.803 165.201 465.201 L 165.201 469.598 169.598 469.598 L 173.996 469.598 173.996 473.996 L 173.996 478.394 178.394 478.394 L 182.792 478.394 182.792 482.792 L 182.792 487.189 178.394 487.189 L 173.996 487.189 173.996 482.792 L 173.996 478.394 169.598 478.394 L 165.201 478.394 165.201 473.996 L 165.201 469.598 160.803 469.598 L 156.405 469.598 156.405 465.201 L 156.405 460.803 152.199 460.803 L 147.992 460.803 147.992 456.597 L 147.992 452.390 143.595 452.390 L 139.197 452.390 139.197 447.992 L 139.197 443.595 134.799 443.595 L 130.402 443.595 130.402 439.197 L 130.402 434.799 126.004 434.799 L 121.606 434.799 121.606 430.402 L 121.606 426.004 117.400 426.004 L 113.193 426.004 113.193 417.400 L 113.193 408.795 108.795 408.795 L 104.398 408.795 104.398 404.398 L 104.398 400.000 100.000 400.000 L 95.602 400.000 95.602 391.396 L 95.602 382.792 100.000 382.792 L 104.398 382.792 104.398 378.394 L 104.398 373.996 108.795 373.996 L 113.193 373.996 113.193 369.598 L 113.193 365.201 117.400 365.201 L 121.606 365.201 121.606 373.996 M286.807 369.598 L 286.807 373.996 291.205 373.996 L 295.602 373.996 295.602 378.394 L 295.602 382.792 300.000 382.792 L 304.398 382.792 304.398 391.396 L 304.398 400.000 300.000 400.000 L 295.602 400.000 295.602 404.398 L 295.602 408.795 291.205 408.795 L 286.807 408.795 286.807 417.400 L 286.807 426.004 282.600 426.004 L 278.394 426.004 278.394 430.402 L 278.394 434.799 273.996 434.799 L 269.598 434.799 269.598 439.197 L 269.598 443.595 265.201 443.595 L 260.803 443.595 260.803 447.992 L 260.803 452.390 256.405 452.390 L 252.008 452.390 252.008 456.597 L 252.008 460.803 247.801 460.803 L 243.595 460.803 243.595 465.201 L 243.595 469.598 239.197 469.598 L 234.799 469.598 234.799 473.996 L 234.799 478.394 230.402 478.394 L 226.004 478.394 226.004 482.792 L 226.004 487.189 221.606 487.189 L 217.208 487.189 217.208 482.792 L 217.208 478.394 221.606 478.394 L 226.004 478.394 226.004 473.996 L 226.004 469.598 230.402 469.598 L 234.799 469.598 234.799 465.201 L 234.799 460.803 239.197 460.803 L 243.595 460.803 243.595 456.597 L 243.595 452.390 247.801 452.390 L 252.008 452.390 252.008 447.992 L 252.008 443.595 256.405 443.595 L 260.803 443.595 260.803 434.799 L 260.803 426.004 265.201 426.004 L 269.598 426.004 269.598 421.797 L 269.598 417.591 273.996 417.591 L 278.394 417.591 278.394 408.795 L 278.394 400.000 282.600 400.000 L 286.807 400.000 286.807 391.396 L 286.807 382.792 282.600 382.792 L 278.394 382.792 278.394 373.996 L 278.394 365.201 282.600 365.201 L 286.807 365.201 286.807 369.598 M182.792 386.998 L 182.792 391.205 200.000 391.205 L 217.208 391.205 217.208 386.998 L 217.208 382.792 200.000 382.792 L 182.792 382.792 182.792 386.998 M43.595 408.604 L 43.595 426.004 39.197 426.004 L 34.799 426.004 34.799 452.199 L 34.799 478.394 39.197 478.394 L 43.595 478.394 43.595 486.998 L 43.595 495.602 47.801 495.602 L 52.008 495.602 52.008 504.398 L 52.008 513.193 56.405 513.193 L 60.803 513.193 60.803 517.591 L 60.803 521.989 65.201 521.989 L 69.598 521.989 69.598 526.195 L 69.598 530.402 73.996 530.402 L 78.394 530.402 78.394 534.799 L 78.394 539.197 100.000 539.197 L 121.606 539.197 121.606 534.799 L 121.606 530.402 117.400 530.402 L 113.193 530.402 113.193 517.400 L 113.193 504.398 108.795 504.398 L 104.398 504.398 104.398 500.000 L 104.398 495.602 100.000 495.602 L 95.602 495.602 95.602 491.396 L 95.602 487.189 91.205 487.189 L 86.807 487.189 86.807 478.394 L 86.807 469.598 82.600 469.598 L 78.394 469.598 78.394 465.201 L 78.394 460.803 73.996 460.803 L 69.598 460.803 69.598 452.199 L 69.598 443.595 65.201 443.595 L 60.803 443.595 60.803 421.797 L 60.803 400.000 56.405 400.000 L 52.008 400.000 52.008 395.602 L 52.008 391.205 47.801 391.205 L 43.595 391.205 43.595 408.604 M347.992 395.602 L 347.992 400.000 343.595 400.000 L 339.197 400.000 339.197 421.797 L 339.197 443.595 334.799 443.595 L 330.402 443.595 330.402 452.199 L 330.402 460.803 326.004 460.803 L 321.606 460.803 321.606 465.201 L 321.606 469.598 317.400 469.598 L 313.193 469.598 313.193 478.394 L 313.193 487.189 308.795 487.189 L 304.398 487.189 304.398 491.396 L 304.398 495.602 300.000 495.602 L 295.602 495.602 295.602 500.000 L 295.602 504.398 291.205 504.398 L 286.807 504.398 286.807 517.400 L 286.807 530.402 282.600 530.402 L 278.394 530.402 278.394 534.799 L 278.394 539.197 300.000 539.197 L 321.606 539.197 321.606 534.799 L 321.606 530.402 326.004 530.402 L 330.402 530.402 330.402 526.195 L 330.402 521.989 334.799 521.989 L 339.197 521.989 339.197 517.591 L 339.197 513.193 343.595 513.193 L 347.992 513.193 347.992 504.398 L 347.992 495.602 352.199 495.602 L 356.405 495.602 356.405 486.998 L 356.405 478.394 360.803 478.394 L 365.201 478.394 365.201 452.199 L 365.201 426.004 360.803 426.004 L 356.405 426.004 356.405 408.604 L 356.405 391.205 352.199 391.205 L 347.992 391.205 347.992 395.602 M191.205 404.398 L 191.205 408.795 200.000 408.795 L 208.795 408.795 208.795 404.398 L 208.795 400.000 200.000 400.000 L 191.205 400.000 191.205 404.398 M191.205 430.402 L 191.205 434.799 200.000 434.799 L 208.795 434.799 208.795 430.402 L 208.795 426.004 200.000 426.004 L 191.205 426.004 191.205 430.402 M191.205 447.992 L 191.205 452.390 200.000 452.390 L 208.795 452.390 208.795 447.992 L 208.795 443.595 200.000 443.595 L 191.205 443.595 191.205 447.992 M182.792 521.606 L 182.792 530.402 173.996 530.402 L 165.201 530.402 165.201 521.606 L 165.201 512.811 173.996 512.811 L 182.792 512.811 182.792 521.606 M234.799 521.606 L 234.799 530.402 226.004 530.402 L 217.208 530.402 217.208 521.606 L 217.208 512.811 226.004 512.811 L 234.799 512.811 234.799 521.606 " stroke="none" fill="#cc3258" fill-rule="evenodd"></path><path id="path3" d="M86.807 212.942 L 86.807 217.591 73.805 217.591 L 60.803 217.591 60.803 221.797 L 60.803 226.004 64.965 226.004 L 69.126 226.004 69.407 234.799 L 69.688 243.595 74.041 243.595 L 78.394 243.595 78.394 247.992 L 78.394 252.390 69.598 252.390 L 60.803 252.390 60.803 256.597 L 60.803 260.803 73.805 260.803 L 86.807 260.803 86.807 265.201 L 86.807 269.598 73.805 269.598 L 60.803 269.598 60.803 278.203 L 60.803 286.807 65.201 286.807 L 69.598 286.807 69.598 291.205 L 69.598 295.602 78.203 295.602 L 86.807 295.602 86.807 300.000 L 86.807 304.398 78.011 304.398 L 69.216 304.398 69.216 308.795 L 69.216 313.193 73.805 313.193 L 78.394 313.193 78.394 317.357 L 78.394 321.521 86.998 321.802 L 95.602 322.082 95.602 326.433 L 95.602 330.784 104.398 330.784 L 113.193 330.784 113.193 326.386 L 113.193 321.989 117.400 321.989 L 121.606 321.989 121.606 313.193 L 121.606 304.398 117.400 304.398 L 113.193 304.398 113.193 291.396 L 113.193 278.394 104.398 278.394 L 95.602 278.394 95.602 273.996 L 95.602 269.598 100.000 269.598 L 104.398 269.598 104.398 265.201 L 104.398 260.803 113.002 260.803 L 121.606 260.803 121.606 256.597 L 121.606 252.390 130.402 252.390 L 139.197 252.390 139.197 247.992 L 139.197 243.595 143.595 243.595 L 147.992 243.595 147.992 239.197 L 147.992 234.799 156.597 234.799 L 165.201 234.799 165.201 226.195 L 165.201 217.591 143.403 217.591 L 121.606 217.591 121.606 213.193 L 121.606 208.795 110.803 208.794 C 104.861 208.794,97.032 208.680,93.403 208.543 L 86.807 208.293 86.807 212.942 M291.491 208.700 L 278.394 208.805 278.394 213.198 L 278.394 217.591 256.597 217.591 L 234.799 217.591 234.799 226.195 L 234.799 234.799 243.403 234.799 L 252.008 234.799 252.008 239.197 L 252.008 243.595 256.405 243.595 L 260.803 243.595 260.803 247.992 L 260.803 252.390 269.598 252.390 L 278.394 252.390 278.394 256.597 L 278.394 260.803 286.998 260.803 L 295.602 260.803 295.602 265.201 L 295.602 269.598 300.000 269.598 L 304.398 269.598 304.398 273.996 L 304.398 278.394 295.602 278.394 L 286.807 278.394 286.807 291.396 L 286.807 304.398 282.600 304.398 L 278.394 304.398 278.394 313.193 L 278.394 321.989 282.600 321.989 L 286.807 321.989 286.807 326.386 L 286.807 330.784 295.602 330.784 L 304.398 330.784 304.398 326.433 L 304.398 322.082 313.002 321.802 L 321.606 321.521 321.606 317.357 L 321.606 313.193 326.195 313.193 L 330.784 313.193 330.784 308.795 L 330.784 304.398 321.989 304.398 L 313.193 304.398 313.193 300.000 L 313.193 295.602 321.797 295.602 L 330.402 295.602 330.402 291.205 L 330.402 286.807 334.799 286.807 L 339.197 286.807 339.197 278.203 L 339.197 269.598 326.195 269.598 L 313.193 269.598 313.193 265.201 L 313.193 260.803 326.195 260.803 L 339.197 260.803 339.197 256.597 L 339.197 252.390 330.402 252.390 L 321.606 252.390 321.606 247.992 L 321.606 243.595 325.959 243.595 L 330.312 243.595 330.593 234.799 L 330.874 226.004 335.035 226.004 L 339.197 226.004 339.197 221.797 L 339.197 217.591 326.195 217.591 L 313.193 217.591 313.193 213.002 L 313.193 208.413 308.891 208.503 C 306.525 208.553,298.695 208.641,291.491 208.700 M104.398 221.797 L 104.398 226.004 100.000 226.004 L 95.602 226.004 95.602 230.402 L 95.602 234.799 86.998 234.799 L 78.394 234.799 78.394 230.402 L 78.394 226.004 86.998 226.004 L 95.602 226.004 95.602 221.797 L 95.602 217.591 100.000 217.591 L 104.398 217.591 104.398 221.797 M304.398 221.797 L 304.398 226.004 313.002 226.004 L 321.606 226.004 321.606 230.402 L 321.606 234.799 313.002 234.799 L 304.398 234.799 304.398 230.402 L 304.398 226.004 300.000 226.004 L 295.602 226.004 295.602 221.797 L 295.602 217.591 300.000 217.591 L 304.398 217.591 304.398 221.797 M139.197 230.402 L 139.197 234.799 134.799 234.799 L 130.402 234.799 130.402 239.197 L 130.402 243.595 121.797 243.595 L 113.193 243.595 113.193 247.992 L 113.193 252.390 104.398 252.390 L 95.602 252.390 95.602 247.992 L 95.602 243.595 104.398 243.595 L 113.193 243.595 113.193 239.197 L 113.193 234.799 117.400 234.799 L 121.606 234.799 121.606 230.402 L 121.606 226.004 130.402 226.004 L 139.197 226.004 139.197 230.402 M278.394 230.402 L 278.394 234.799 282.600 234.799 L 286.807 234.799 286.807 239.197 L 286.807 243.595 295.602 243.595 L 304.398 243.595 304.398 247.992 L 304.398 252.390 295.602 252.390 L 286.807 252.390 286.807 247.992 L 286.807 243.595 278.203 243.595 L 269.598 243.595 269.598 239.197 L 269.598 234.799 265.201 234.799 L 260.803 234.799 260.803 230.402 L 260.803 226.004 269.598 226.004 L 278.394 226.004 278.394 230.402 M95.602 282.600 L 95.602 286.807 86.998 286.807 L 78.394 286.807 78.394 282.600 L 78.394 278.394 86.998 278.394 L 95.602 278.394 95.602 282.600 M321.606 282.600 L 321.606 286.807 313.002 286.807 L 304.398 286.807 304.398 282.600 L 304.398 278.394 313.002 278.394 L 321.606 278.394 321.606 282.600 M104.398 308.795 L 104.398 313.193 100.000 313.193 L 95.602 313.193 95.602 308.795 L 95.602 304.398 100.000 304.398 L 104.398 304.398 104.398 308.795 M304.398 308.795 L 304.398 313.193 300.000 313.193 L 295.602 313.193 295.602 308.795 L 295.602 304.398 300.000 304.398 L 304.398 304.398 304.398 308.795 " stroke="none" fill="#592929" fill-rule="evenodd"></path><path id="path4" d="M165.201 100.000 L 165.201 104.398 156.597 104.398 L 147.992 104.398 147.992 108.795 L 147.992 113.193 143.595 113.193 L 139.197 113.193 139.197 117.400 L 139.197 121.606 134.799 121.606 L 130.402 121.606 130.402 126.004 L 130.402 130.402 126.004 130.402 L 121.606 130.402 121.606 134.799 L 121.606 139.197 117.400 139.197 L 113.193 139.197 113.193 147.801 L 113.193 156.405 108.795 156.405 L 104.398 156.405 104.398 178.203 L 104.398 200.000 108.795 200.000 L 113.193 200.000 113.193 195.602 L 113.193 191.205 130.593 191.205 L 147.992 191.205 147.992 195.602 L 147.992 200.000 139.197 200.000 L 130.402 200.000 130.402 204.398 L 130.402 208.795 152.199 208.795 L 173.996 208.795 173.996 213.193 L 173.996 217.591 200.000 217.591 L 226.004 217.591 226.004 213.193 L 226.004 208.795 247.801 208.795 L 269.598 208.795 269.598 204.398 L 269.598 200.000 260.803 200.000 L 252.008 200.000 252.008 195.602 L 252.008 191.205 269.407 191.205 L 286.807 191.205 286.807 195.602 L 286.807 200.000 291.205 200.000 L 295.602 200.000 295.602 178.203 L 295.602 156.405 291.205 156.405 L 286.807 156.405 286.807 147.801 L 286.807 139.197 282.600 139.197 L 278.394 139.197 278.394 134.799 L 278.394 130.402 273.996 130.402 L 269.598 130.402 269.598 126.004 L 269.598 121.606 265.201 121.606 L 260.803 121.606 260.803 117.400 L 260.803 113.193 256.405 113.193 L 252.008 113.193 252.008 108.795 L 252.008 104.398 243.403 104.398 L 234.799 104.398 234.799 100.000 L 234.799 95.602 200.000 95.602 L 165.201 95.602 165.201 100.000 M217.591 126.004 L 217.591 130.402 213.193 130.402 L 208.795 130.402 208.795 134.799 L 208.795 139.197 213.193 139.197 L 217.591 139.197 217.591 143.595 L 217.591 147.992 213.193 147.992 L 208.795 147.992 208.795 152.390 L 208.795 156.788 200.000 156.788 L 191.205 156.788 191.205 143.595 L 191.205 130.402 186.807 130.402 L 182.409 130.402 182.409 126.004 L 182.409 121.606 200.000 121.606 L 217.591 121.606 217.591 126.004 M217.208 178.394 L 217.208 182.792 234.608 182.792 L 252.008 182.792 252.008 186.998 L 252.008 191.205 234.608 191.205 L 217.208 191.205 217.208 186.998 L 217.208 182.792 200.000 182.792 L 182.792 182.792 182.792 186.998 L 182.792 191.205 165.392 191.205 L 147.992 191.205 147.992 186.998 L 147.992 182.792 165.392 182.792 L 182.792 182.792 182.792 178.394 L 182.792 173.996 200.000 173.996 L 217.208 173.996 217.208 178.394 M182.792 395.602 L 182.792 400.000 200.000 400.000 L 217.208 400.000 217.208 395.602 L 217.208 391.205 200.000 391.205 L 182.792 391.205 182.792 395.602 M191.205 439.197 L 191.205 443.595 200.000 443.595 L 208.795 443.595 208.795 439.197 L 208.795 434.799 200.000 434.799 L 191.205 434.799 191.205 439.197 M191.205 456.597 L 191.205 460.803 200.000 460.803 L 208.795 460.803 208.795 456.597 L 208.795 452.390 200.000 452.390 L 191.205 452.390 191.205 456.597 " stroke="none" fill="#5386e3" fill-rule="evenodd"></path><path id="path5" d="M182.792 239.388 L 182.792 252.390 165.392 252.390 L 147.992 252.390 147.992 247.992 L 147.992 243.595 143.595 243.595 L 139.197 243.595 139.197 247.992 L 139.197 252.390 134.799 252.390 L 130.402 252.390 130.402 256.597 L 130.402 260.803 126.004 260.803 L 121.606 260.803 121.606 282.600 L 121.606 304.398 126.004 304.398 L 130.402 304.398 130.402 308.795 L 130.402 313.193 134.799 313.193 L 139.197 313.193 139.197 317.400 L 139.197 321.606 143.595 321.606 L 147.992 321.606 147.992 330.402 L 147.992 339.197 156.597 339.197 L 165.201 339.197 165.201 343.595 L 165.201 347.992 178.203 347.992 L 191.205 347.992 191.205 352.199 L 191.205 356.405 200.000 356.405 L 208.795 356.405 208.795 352.199 L 208.795 347.992 221.797 347.992 L 234.799 347.992 234.799 343.595 L 234.799 339.197 243.403 339.197 L 252.008 339.197 252.008 330.402 L 252.008 321.606 256.405 321.606 L 260.803 321.606 260.803 317.400 L 260.803 313.193 265.201 313.193 L 269.598 313.193 269.598 308.795 L 269.598 304.398 273.996 304.398 L 278.394 304.398 278.394 282.600 L 278.394 260.803 273.996 260.803 L 269.598 260.803 269.598 256.597 L 269.598 252.390 265.201 252.390 L 260.803 252.390 260.803 247.992 L 260.803 243.595 256.405 243.595 L 252.008 243.595 252.008 247.992 L 252.008 252.390 234.608 252.390 L 217.208 252.390 217.208 239.388 L 217.208 226.386 200.000 226.386 L 182.792 226.386 182.792 239.388 M165.201 265.201 L 165.201 269.598 152.008 269.598 L 138.815 269.598 138.815 265.201 L 138.815 260.803 152.008 260.803 L 165.201 260.803 165.201 265.201 M261.185 265.201 L 261.185 269.598 247.992 269.598 L 234.799 269.598 234.799 265.201 L 234.799 260.803 247.992 260.803 L 261.185 260.803 261.185 265.201 M165.201 282.792 L 165.201 287.189 152.008 287.189 L 138.815 287.189 138.815 282.792 L 138.815 278.394 152.008 278.394 L 165.201 278.394 165.201 282.792 M208.795 282.600 L 208.795 286.807 200.000 286.807 L 191.205 286.807 191.205 282.600 L 191.205 278.394 200.000 278.394 L 208.795 278.394 208.795 282.600 M261.185 282.792 L 261.185 287.189 247.992 287.189 L 234.799 287.189 234.799 282.792 L 234.799 278.394 247.992 278.394 L 261.185 278.394 261.185 282.792 M234.799 308.604 L 234.799 313.193 230.402 313.193 L 226.004 313.193 226.004 317.400 L 226.004 321.606 200.000 321.606 L 173.996 321.606 173.996 317.400 L 173.996 313.193 169.598 313.193 L 165.201 313.193 165.201 308.604 L 165.201 304.015 200.000 304.015 L 234.799 304.015 234.799 308.604 M165.201 517.400 L 165.201 521.989 169.598 521.989 L 173.996 521.989 173.996 517.400 L 173.996 512.811 169.598 512.811 L 165.201 512.811 165.201 517.400 M226.004 517.400 L 226.004 521.989 230.402 521.989 L 234.799 521.989 234.799 517.400 L 234.799 512.811 230.402 512.811 L 226.004 512.811 226.004 517.400 " stroke="none" fill="#ebb050" fill-rule="evenodd"></path><path id="path6" d="M95.602 221.797 L 95.602 226.004 86.998 226.004 L 78.394 226.004 78.394 230.402 L 78.394 234.799 86.998 234.799 L 95.602 234.799 95.602 230.402 L 95.602 226.004 100.000 226.004 L 104.398 226.004 104.398 221.797 L 104.398 217.591 100.000 217.591 L 95.602 217.591 95.602 221.797 M295.602 221.797 L 295.602 226.004 300.000 226.004 L 304.398 226.004 304.398 230.402 L 304.398 234.799 313.002 234.799 L 321.606 234.799 321.606 230.402 L 321.606 226.004 313.002 226.004 L 304.398 226.004 304.398 221.797 L 304.398 217.591 300.000 217.591 L 295.602 217.591 295.602 221.797 M121.606 230.402 L 121.606 234.799 117.400 234.799 L 113.193 234.799 113.193 239.197 L 113.193 243.595 104.398 243.595 L 95.602 243.595 95.602 247.992 L 95.602 252.390 104.398 252.390 L 113.193 252.390 113.193 247.992 L 113.193 243.595 121.797 243.595 L 130.402 243.595 130.402 239.197 L 130.402 234.799 134.799 234.799 L 139.197 234.799 139.197 230.402 L 139.197 226.004 130.402 226.004 L 121.606 226.004 121.606 230.402 M260.803 230.402 L 260.803 234.799 265.201 234.799 L 269.598 234.799 269.598 239.197 L 269.598 243.595 278.203 243.595 L 286.807 243.595 286.807 247.992 L 286.807 252.390 295.602 252.390 L 304.398 252.390 304.398 247.992 L 304.398 243.595 295.602 243.595 L 286.807 243.595 286.807 239.197 L 286.807 234.799 282.600 234.799 L 278.394 234.799 278.394 230.402 L 278.394 226.004 269.598 226.004 L 260.803 226.004 260.803 230.402 M95.602 273.996 L 95.602 278.394 86.998 278.394 L 78.394 278.394 78.394 282.600 L 78.394 286.807 86.998 286.807 L 95.602 286.807 95.602 282.600 L 95.602 278.394 100.000 278.394 L 104.398 278.394 104.398 273.996 L 104.398 269.598 100.000 269.598 L 95.602 269.598 95.602 273.996 M295.602 273.996 L 295.602 278.394 300.000 278.394 L 304.398 278.394 304.398 282.600 L 304.398 286.807 313.002 286.807 L 321.606 286.807 321.606 282.600 L 321.606 278.394 313.002 278.394 L 304.398 278.394 304.398 273.996 L 304.398 269.598 300.000 269.598 L 295.602 269.598 295.602 273.996 M95.602 308.795 L 95.602 313.193 100.000 313.193 L 104.398 313.193 104.398 308.795 L 104.398 304.398 100.000 304.398 L 95.602 304.398 95.602 308.795 M295.602 308.795 L 295.602 313.193 300.000 313.193 L 304.398 313.193 304.398 308.795 L 304.398 304.398 300.000 304.398 L 295.602 304.398 295.602 308.795 M139.197 347.801 L 139.197 356.405 143.595 356.405 L 147.992 356.405 147.992 347.801 L 147.992 339.197 143.595 339.197 L 139.197 339.197 139.197 347.801 M252.008 347.801 L 252.008 356.405 256.405 356.405 L 260.803 356.405 260.803 347.801 L 260.803 339.197 256.405 339.197 L 252.008 339.197 252.008 347.801 M182.792 421.797 L 182.792 426.004 186.998 426.004 L 191.205 426.004 191.205 421.797 L 191.205 417.591 186.998 417.591 L 182.792 417.591 182.792 421.797 M208.795 421.797 L 208.795 426.004 213.002 426.004 L 217.208 426.004 217.208 421.797 L 217.208 417.591 213.002 417.591 L 208.795 417.591 208.795 421.797 " stroke="none" fill="#b46464" fill-rule="evenodd"></path><path id="path7" d="M121.606 256.597 L 121.606 260.803 117.400 260.803 L 113.193 260.803 113.193 269.598 L 113.193 278.394 117.400 278.394 L 121.606 278.394 121.606 269.598 L 121.606 260.803 126.004 260.803 L 130.402 260.803 130.402 256.597 L 130.402 252.390 126.004 252.390 L 121.606 252.390 121.606 256.597 M269.598 256.597 L 269.598 260.803 273.996 260.803 L 278.394 260.803 278.394 269.598 L 278.394 278.394 282.600 278.394 L 286.807 278.394 286.807 269.598 L 286.807 260.803 282.600 260.803 L 278.394 260.803 278.394 256.597 L 278.394 252.390 273.996 252.390 L 269.598 252.390 269.598 256.597 " stroke="none" fill="#bc946c" fill-rule="evenodd"></path><path id="path8" d="M156.405 243.595 L 156.405 252.390 165.201 252.390 L 173.996 252.390 173.996 247.992 L 173.996 243.595 169.598 243.595 L 165.201 243.595 165.201 239.197 L 165.201 234.799 160.803 234.799 L 156.405 234.799 156.405 243.595 M226.004 243.595 L 226.004 252.390 234.799 252.390 L 243.595 252.390 243.595 247.992 L 243.595 243.595 239.197 243.595 L 234.799 243.595 234.799 239.197 L 234.799 234.799 230.402 234.799 L 226.004 234.799 226.004 243.595 M173.996 517.400 L 173.996 521.989 169.598 521.989 L 165.201 521.989 165.201 526.195 L 165.201 530.402 173.996 530.402 L 182.792 530.402 182.792 521.606 L 182.792 512.811 178.394 512.811 L 173.996 512.811 173.996 517.400 M217.208 521.606 L 217.208 530.402 226.004 530.402 L 234.799 530.402 234.799 526.195 L 234.799 521.989 230.402 521.989 L 226.004 521.989 226.004 517.400 L 226.004 512.811 221.606 512.811 L 217.208 512.811 217.208 521.606 " stroke="none" fill="#ac9404" fill-rule="evenodd"></path></g></svg>