<svg id="svg" version="1.1" xmlns="http://www.w3.org/2000/svg" xmlns:xlink="http://www.w3.org/1999/xlink" width="400" height="400" viewBox="0, 0, 400,400"><g id="svgg"><path id="path0" d="M124.815 65.556 L 124.815 87.407 127.963 87.407 L 131.111 87.407 131.111 90.556 L 131.111 93.704 137.407 93.704 L 143.704 93.704 143.704 96.852 L 143.704 100.000 153.148 100.000 L 162.593 100.000 162.593 96.852 L 162.593 93.704 165.741 93.704 L 168.889 93.704 168.889 90.556 L 168.889 87.407 171.852 87.407 L 174.815 87.407 174.815 78.148 L 174.815 68.889 168.704 68.889 L 162.593 68.889 162.593 65.741 L 162.593 62.593 159.444 62.593 L 156.296 62.593 156.296 59.444 L 156.296 56.296 153.148 56.296 L 150.000 56.296 150.000 53.148 L 150.000 50.000 143.704 50.000 L 137.407 50.000 137.407 46.852 L 137.407 43.704 131.111 43.704 L 124.815 43.704 124.815 65.556 M168.889 49.815 L 168.889 55.926 171.852 55.926 L 174.815 55.926 174.815 59.259 L 174.815 62.593 177.963 62.593 L 181.111 62.593 181.111 65.741 L 181.111 68.889 187.407 68.889 L 193.704 68.889 193.704 65.741 L 193.704 62.593 190.556 62.593 L 187.407 62.593 187.407 59.444 L 187.407 56.296 184.259 56.296 L 181.111 56.296 181.111 53.148 L 181.111 50.000 177.963 50.000 L 174.815 50.000 174.815 46.852 L 174.815 43.704 171.852 43.704 L 168.889 43.704 168.889 49.815 M224.815 46.852 L 224.815 50.000 221.852 50.000 L 218.889 50.000 218.889 53.148 L 218.889 56.296 215.741 56.296 L 212.593 56.296 212.593 59.444 L 212.593 62.593 209.444 62.593 L 206.296 62.593 206.296 65.741 L 206.296 68.889 212.593 68.889 L 218.889 68.889 218.889 65.741 L 218.889 62.593 221.852 62.593 L 224.815 62.593 224.815 59.259 L 224.815 55.926 227.963 55.926 L 231.111 55.926 231.111 49.815 L 231.111 43.704 227.963 43.704 L 224.815 43.704 224.815 46.852 M262.593 46.852 L 262.593 50.000 256.296 50.000 L 250.000 50.000 250.000 53.148 L 250.000 56.296 246.852 56.296 L 243.704 56.296 243.704 59.444 L 243.704 62.593 240.556 62.593 L 237.407 62.593 237.407 65.741 L 237.407 68.889 231.111 68.889 L 224.815 68.889 224.815 78.148 L 224.815 87.407 227.963 87.407 L 231.111 87.407 231.111 90.556 L 231.111 93.704 234.259 93.704 L 237.407 93.704 237.407 96.852 L 237.407 100.000 246.852 100.000 L 256.296 100.000 256.296 96.852 L 256.296 93.704 262.593 93.704 L 268.889 93.704 268.889 90.556 L 268.889 87.407 271.852 87.407 L 274.815 87.407 274.815 65.556 L 274.815 43.704 268.704 43.704 L 262.593 43.704 262.593 46.852 M93.704 81.296 L 93.704 100.000 96.852 100.000 L 100.000 100.000 100.000 106.296 L 100.000 112.593 103.148 112.593 L 106.296 112.593 106.296 118.704 L 106.296 124.815 112.593 124.815 L 118.889 124.815 118.889 127.963 L 118.889 131.111 121.852 131.111 L 124.815 131.111 124.815 134.259 L 124.815 137.407 127.963 137.407 L 131.111 137.407 131.111 121.852 L 131.111 106.296 127.963 106.296 L 124.815 106.296 124.815 100.000 L 124.815 93.704 121.852 93.704 L 118.889 93.704 118.889 84.259 L 118.889 74.815 115.741 74.815 L 112.593 74.815 112.593 71.852 L 112.593 68.889 109.444 68.889 L 106.296 68.889 106.296 65.741 L 106.296 62.593 100.000 62.593 L 93.704 62.593 93.704 81.296 M293.704 65.741 L 293.704 68.889 290.556 68.889 L 287.407 68.889 287.407 71.852 L 287.407 74.815 284.259 74.815 L 281.111 74.815 281.111 84.259 L 281.111 93.704 277.963 93.704 L 274.815 93.704 274.815 100.000 L 274.815 106.296 271.852 106.296 L 268.889 106.296 268.889 121.852 L 268.889 137.407 271.852 137.407 L 274.815 137.407 274.815 134.259 L 274.815 131.111 277.963 131.111 L 281.111 131.111 281.111 127.963 L 281.111 124.815 287.407 124.815 L 293.704 124.815 293.704 118.704 L 293.704 112.593 296.852 112.593 L 300.000 112.593 300.000 106.296 L 300.000 100.000 303.148 100.000 L 306.296 100.000 306.296 81.296 L 306.296 62.593 300.000 62.593 L 293.704 62.593 293.704 65.741 M118.889 156.296 L 118.889 168.889 121.852 168.889 L 124.815 168.889 124.815 159.444 L 124.815 150.000 127.963 150.000 L 131.111 150.000 131.111 146.852 L 131.111 143.704 125.000 143.704 L 118.889 143.704 118.889 156.296 M268.889 146.852 L 268.889 150.000 271.852 150.000 L 274.815 150.000 274.815 159.444 L 274.815 168.889 277.963 168.889 L 281.111 168.889 281.111 156.296 L 281.111 143.704 275.000 143.704 L 268.889 143.704 268.889 146.852 M174.815 165.741 L 174.815 168.889 171.852 168.889 L 168.889 168.889 168.889 171.852 L 168.889 174.815 165.741 174.815 L 162.593 174.815 162.593 177.963 L 162.593 181.111 165.741 181.111 L 168.889 181.111 168.889 184.259 L 168.889 187.407 175.000 187.407 L 181.111 187.407 181.111 190.556 L 181.111 193.704 200.000 193.704 L 218.889 193.704 218.889 190.556 L 218.889 187.407 225.000 187.407 L 231.111 187.407 231.111 184.259 L 231.111 181.111 234.259 181.111 L 237.407 181.111 237.407 177.963 L 237.407 174.815 234.259 174.815 L 231.111 174.815 231.111 171.852 L 231.111 168.889 227.963 168.889 L 224.815 168.889 224.815 165.741 L 224.815 162.593 199.815 162.593 L 174.815 162.593 174.815 165.741 M206.296 171.852 L 206.296 174.815 209.444 174.815 L 212.593 174.815 212.593 181.111 L 212.593 187.407 200.000 187.407 L 187.407 187.407 187.407 178.148 L 187.407 168.889 196.852 168.889 L 206.296 168.889 206.296 171.852 M118.889 196.852 L 118.889 200.000 115.741 200.000 L 112.593 200.000 112.593 206.296 L 112.593 212.593 115.741 212.593 L 118.889 212.593 118.889 209.444 L 118.889 206.296 121.852 206.296 L 124.815 206.296 124.815 200.000 L 124.815 193.704 121.852 193.704 L 118.889 193.704 118.889 196.852 M274.815 200.000 L 274.815 206.296 277.963 206.296 L 281.111 206.296 281.111 209.444 L 281.111 212.593 284.259 212.593 L 287.407 212.593 287.407 206.296 L 287.407 200.000 284.259 200.000 L 281.111 200.000 281.111 196.852 L 281.111 193.704 277.963 193.704 L 274.815 193.704 274.815 200.000 M124.815 225.000 L 124.815 231.111 121.852 231.111 L 118.889 231.111 118.889 234.259 L 118.889 237.407 125.000 237.407 L 131.111 237.407 131.111 228.148 L 131.111 218.889 127.963 218.889 L 124.815 218.889 124.815 225.000 M268.889 228.148 L 268.889 237.407 275.000 237.407 L 281.111 237.407 281.111 234.259 L 281.111 231.111 277.963 231.111 L 274.815 231.111 274.815 225.000 L 274.815 218.889 271.852 218.889 L 268.889 218.889 268.889 228.148 M174.815 265.741 L 174.815 268.889 177.963 268.889 L 181.111 268.889 181.111 272.037 L 181.111 275.185 184.259 275.185 L 187.407 275.185 187.407 268.889 L 187.407 262.593 181.111 262.593 L 174.815 262.593 174.815 265.741 M212.593 265.741 L 212.593 268.889 215.741 268.889 L 218.889 268.889 218.889 265.741 L 218.889 262.593 215.741 262.593 L 212.593 262.593 212.593 265.741 M174.815 377.963 L 174.815 381.111 177.963 381.111 L 181.111 381.111 181.111 377.963 L 181.111 374.815 177.963 374.815 L 174.815 374.815 174.815 377.963 M218.889 377.963 L 218.889 381.111 222.037 381.111 L 225.185 381.111 225.185 377.963 L 225.185 374.815 222.037 374.815 L 218.889 374.815 218.889 377.963 M174.815 396.852 L 174.815 400.000 177.963 400.000 L 181.111 400.000 181.111 396.852 L 181.111 393.704 177.963 393.704 L 174.815 393.704 174.815 396.852 M218.889 396.852 L 218.889 400.000 222.037 400.000 L 225.185 400.000 225.185 396.852 L 225.185 393.704 222.037 393.704 L 218.889 393.704 218.889 396.852 " stroke="none" fill="#e5aacd" fill-rule="evenodd"></path><path id="path1" d="M187.407 121.667 L 187.407 124.815 200.000 124.815 L 212.593 124.815 212.593 121.667 L 212.593 118.519 200.000 118.519 L 187.407 118.519 187.407 121.667 M181.111 134.259 L 181.111 137.407 200.000 137.407 L 218.889 137.407 218.889 134.259 L 218.889 131.111 200.000 131.111 L 181.111 131.111 181.111 134.259 M124.815 175.000 L 124.815 181.111 127.963 181.111 L 131.111 181.111 131.111 175.000 L 131.111 168.889 127.963 168.889 L 124.815 168.889 124.815 175.000 M268.889 175.000 L 268.889 181.111 271.852 181.111 L 274.815 181.111 274.815 175.000 L 274.815 168.889 271.852 168.889 L 268.889 168.889 268.889 175.000 M193.704 203.148 L 193.704 206.296 200.000 206.296 L 206.296 206.296 206.296 203.148 L 206.296 200.000 200.000 200.000 L 193.704 200.000 193.704 203.148 M150.000 209.444 L 150.000 212.593 153.148 212.593 L 156.296 212.593 156.296 218.704 L 156.296 224.815 159.444 224.815 L 162.593 224.815 162.593 231.296 L 162.593 237.778 165.741 237.778 L 168.889 237.778 168.889 228.333 L 168.889 218.889 165.741 218.889 L 162.593 218.889 162.593 212.593 L 162.593 206.296 156.296 206.296 L 150.000 206.296 150.000 209.444 M237.407 212.593 L 237.407 218.889 234.259 218.889 L 231.111 218.889 231.111 228.333 L 231.111 237.778 234.259 237.778 L 237.407 237.778 237.407 231.296 L 237.407 224.815 240.556 224.815 L 243.704 224.815 243.704 218.704 L 243.704 212.593 246.852 212.593 L 250.000 212.593 250.000 209.444 L 250.000 206.296 243.704 206.296 L 237.407 206.296 237.407 212.593 M187.407 228.148 L 187.407 231.481 200.000 231.481 L 212.593 231.481 212.593 228.148 L 212.593 224.815 200.000 224.815 L 187.407 224.815 187.407 228.148 M143.704 246.852 L 143.704 250.000 140.556 250.000 L 137.407 250.000 137.407 253.148 L 137.407 256.296 134.259 256.296 L 131.111 256.296 131.111 259.444 L 131.111 262.593 134.259 262.593 L 137.407 262.593 137.407 265.741 L 137.407 268.889 131.111 268.889 L 124.815 268.889 124.815 265.741 L 124.815 262.593 121.852 262.593 L 118.889 262.593 118.889 265.741 L 118.889 268.889 109.444 268.889 L 100.000 268.889 100.000 278.148 L 100.000 287.407 103.148 287.407 L 106.296 287.407 106.296 303.148 L 106.296 318.889 109.444 318.889 L 112.593 318.889 112.593 325.000 L 112.593 331.111 115.741 331.111 L 118.889 331.111 118.889 334.259 L 118.889 337.407 121.852 337.407 L 124.815 337.407 124.815 343.704 L 124.815 350.000 127.963 350.000 L 131.111 350.000 131.111 353.148 L 131.111 356.296 134.259 356.296 L 137.407 356.296 137.407 359.444 L 137.407 362.593 140.556 362.593 L 143.704 362.593 143.704 371.852 L 143.704 381.111 146.852 381.111 L 150.000 381.111 150.000 390.556 L 150.000 400.000 162.407 400.000 L 174.815 400.000 174.815 396.852 L 174.815 393.704 181.111 393.704 L 187.407 393.704 187.407 396.852 L 187.407 400.000 190.556 400.000 L 193.704 400.000 193.704 381.296 L 193.704 362.593 190.556 362.593 L 187.407 362.593 187.407 359.444 L 187.407 356.296 190.556 356.296 L 193.704 356.296 193.704 350.000 L 193.704 343.704 190.556 343.704 L 187.407 343.704 187.407 340.556 L 187.407 337.407 184.259 337.407 L 181.111 337.407 181.111 334.259 L 181.111 331.111 177.963 331.111 L 174.815 331.111 174.815 327.963 L 174.815 324.815 171.852 324.815 L 168.889 324.815 168.889 321.852 L 168.889 318.889 165.741 318.889 L 162.593 318.889 162.593 312.593 L 162.593 306.296 159.444 306.296 L 156.296 306.296 156.296 303.148 L 156.296 300.000 153.148 300.000 L 150.000 300.000 150.000 271.852 L 150.000 243.704 146.852 243.704 L 143.704 243.704 143.704 246.852 M250.000 271.852 L 250.000 300.000 246.852 300.000 L 243.704 300.000 243.704 303.148 L 243.704 306.296 240.556 306.296 L 237.407 306.296 237.407 312.593 L 237.407 318.889 234.259 318.889 L 231.111 318.889 231.111 321.852 L 231.111 324.815 227.963 324.815 L 224.815 324.815 224.815 327.963 L 224.815 331.111 221.852 331.111 L 218.889 331.111 218.889 334.259 L 218.889 337.407 215.741 337.407 L 212.593 337.407 212.593 340.556 L 212.593 343.704 209.444 343.704 L 206.296 343.704 206.296 350.000 L 206.296 356.296 209.444 356.296 L 212.593 356.296 212.593 359.444 L 212.593 362.593 209.444 362.593 L 206.296 362.593 206.296 381.296 L 206.296 400.000 209.444 400.000 L 212.593 400.000 212.593 396.852 L 212.593 393.704 218.889 393.704 L 225.185 393.704 225.185 396.852 L 225.185 400.000 237.593 400.000 L 250.000 400.000 250.000 390.556 L 250.000 381.111 253.148 381.111 L 256.296 381.111 256.296 371.852 L 256.296 362.593 259.444 362.593 L 262.593 362.593 262.593 359.444 L 262.593 356.296 265.741 356.296 L 268.889 356.296 268.889 353.148 L 268.889 350.000 271.852 350.000 L 274.815 350.000 274.815 343.704 L 274.815 337.407 277.963 337.407 L 281.111 337.407 281.111 334.259 L 281.111 331.111 284.259 331.111 L 287.407 331.111 287.407 325.000 L 287.407 318.889 290.556 318.889 L 293.704 318.889 293.704 303.148 L 293.704 287.407 296.852 287.407 L 300.000 287.407 300.000 278.148 L 300.000 268.889 290.556 268.889 L 281.111 268.889 281.111 265.741 L 281.111 262.593 277.963 262.593 L 274.815 262.593 274.815 265.741 L 274.815 268.889 268.704 268.889 L 262.593 268.889 262.593 265.741 L 262.593 262.593 265.741 262.593 L 268.889 262.593 268.889 259.444 L 268.889 256.296 265.741 256.296 L 262.593 256.296 262.593 253.148 L 262.593 250.000 259.444 250.000 L 256.296 250.000 256.296 246.852 L 256.296 243.704 253.148 243.704 L 250.000 243.704 250.000 271.852 M143.704 275.000 L 143.704 281.111 140.556 281.111 L 137.407 281.111 137.407 287.407 L 137.407 293.704 140.556 293.704 L 143.704 293.704 143.704 300.000 L 143.704 306.296 146.852 306.296 L 150.000 306.296 150.000 309.444 L 150.000 312.593 153.148 312.593 L 156.296 312.593 156.296 318.704 L 156.296 324.815 159.444 324.815 L 162.593 324.815 162.593 327.963 L 162.593 331.111 165.741 331.111 L 168.889 331.111 168.889 334.259 L 168.889 337.407 171.852 337.407 L 174.815 337.407 174.815 340.556 L 174.815 343.704 177.963 343.704 L 181.111 343.704 181.111 346.852 L 181.111 350.000 184.259 350.000 L 187.407 350.000 187.407 353.148 L 187.407 356.296 184.259 356.296 L 181.111 356.296 181.111 353.148 L 181.111 350.000 177.963 350.000 L 174.815 350.000 174.815 346.852 L 174.815 343.704 171.852 343.704 L 168.889 343.704 168.889 340.556 L 168.889 337.407 165.741 337.407 L 162.593 337.407 162.593 334.259 L 162.593 331.111 159.444 331.111 L 156.296 331.111 156.296 327.963 L 156.296 324.815 153.148 324.815 L 150.000 324.815 150.000 321.852 L 150.000 318.889 146.852 318.889 L 143.704 318.889 143.704 315.741 L 143.704 312.593 140.556 312.593 L 137.407 312.593 137.407 306.296 L 137.407 300.000 134.259 300.000 L 131.111 300.000 131.111 296.852 L 131.111 293.704 127.963 293.704 L 124.815 293.704 124.815 287.407 L 124.815 281.111 127.963 281.111 L 131.111 281.111 131.111 277.963 L 131.111 274.815 134.259 274.815 L 137.407 274.815 137.407 271.852 L 137.407 268.889 140.556 268.889 L 143.704 268.889 143.704 275.000 M262.593 271.852 L 262.593 274.815 265.741 274.815 L 268.889 274.815 268.889 277.963 L 268.889 281.111 271.852 281.111 L 274.815 281.111 274.815 287.407 L 274.815 293.704 271.852 293.704 L 268.889 293.704 268.889 296.852 L 268.889 300.000 265.741 300.000 L 262.593 300.000 262.593 306.296 L 262.593 312.593 259.444 312.593 L 256.296 312.593 256.296 315.741 L 256.296 318.889 253.148 318.889 L 250.000 318.889 250.000 321.852 L 250.000 324.815 246.852 324.815 L 243.704 324.815 243.704 327.963 L 243.704 331.111 240.556 331.111 L 237.407 331.111 237.407 334.259 L 237.407 337.407 234.259 337.407 L 231.111 337.407 231.111 340.556 L 231.111 343.704 227.963 343.704 L 224.815 343.704 224.815 346.852 L 224.815 350.000 221.852 350.000 L 218.889 350.000 218.889 353.148 L 218.889 356.296 215.741 356.296 L 212.593 356.296 212.593 353.148 L 212.593 350.000 215.741 350.000 L 218.889 350.000 218.889 346.852 L 218.889 343.704 221.852 343.704 L 224.815 343.704 224.815 340.556 L 224.815 337.407 227.963 337.407 L 231.111 337.407 231.111 334.259 L 231.111 331.111 234.259 331.111 L 237.407 331.111 237.407 327.963 L 237.407 324.815 240.556 324.815 L 243.704 324.815 243.704 318.704 L 243.704 312.593 246.852 312.593 L 250.000 312.593 250.000 309.444 L 250.000 306.296 253.148 306.296 L 256.296 306.296 256.296 300.000 L 256.296 293.704 259.444 293.704 L 262.593 293.704 262.593 287.407 L 262.593 281.111 259.444 281.111 L 256.296 281.111 256.296 275.000 L 256.296 268.889 259.444 268.889 L 262.593 268.889 262.593 271.852 M87.407 300.000 L 87.407 312.593 84.259 312.593 L 81.111 312.593 81.111 331.296 L 81.111 350.000 84.259 350.000 L 87.407 350.000 87.407 356.296 L 87.407 362.593 90.556 362.593 L 93.704 362.593 93.704 368.704 L 93.704 374.815 96.852 374.815 L 100.000 374.815 100.000 377.963 L 100.000 381.111 103.148 381.111 L 106.296 381.111 106.296 384.259 L 106.296 387.407 109.444 387.407 L 112.593 387.407 112.593 390.556 L 112.593 393.704 115.741 393.704 L 118.889 393.704 118.889 396.852 L 118.889 400.000 125.000 400.000 L 131.111 400.000 131.111 393.704 L 131.111 387.407 127.963 387.407 L 124.815 387.407 124.815 381.111 L 124.815 374.815 121.852 374.815 L 118.889 374.815 118.889 365.556 L 118.889 356.296 115.741 356.296 L 112.593 356.296 112.593 346.852 L 112.593 337.407 109.444 337.407 L 106.296 337.407 106.296 331.111 L 106.296 324.815 103.148 324.815 L 100.000 324.815 100.000 309.259 L 100.000 293.704 96.852 293.704 L 93.704 293.704 93.704 290.556 L 93.704 287.407 90.556 287.407 L 87.407 287.407 87.407 300.000 M306.296 290.556 L 306.296 293.704 303.148 293.704 L 300.000 293.704 300.000 309.259 L 300.000 324.815 296.852 324.815 L 293.704 324.815 293.704 331.111 L 293.704 337.407 290.556 337.407 L 287.407 337.407 287.407 340.556 L 287.407 343.704 290.741 343.704 L 294.074 343.704 294.074 353.148 L 294.074 362.593 290.741 362.593 L 287.407 362.593 287.407 368.704 L 287.407 374.815 284.259 374.815 L 281.111 374.815 281.111 381.111 L 281.111 387.407 277.963 387.407 L 274.815 387.407 274.815 393.704 L 274.815 400.000 277.963 400.000 L 281.111 400.000 281.111 396.852 L 281.111 393.704 284.259 393.704 L 287.407 393.704 287.407 390.556 L 287.407 387.407 290.556 387.407 L 293.704 387.407 293.704 384.259 L 293.704 381.111 296.852 381.111 L 300.000 381.111 300.000 377.963 L 300.000 374.815 303.148 374.815 L 306.296 374.815 306.296 368.704 L 306.296 362.593 309.444 362.593 L 312.593 362.593 312.593 356.296 L 312.593 350.000 315.741 350.000 L 318.889 350.000 318.889 331.296 L 318.889 312.593 315.741 312.593 L 312.593 312.593 312.593 300.000 L 312.593 287.407 309.444 287.407 L 306.296 287.407 306.296 290.556 M187.407 381.111 L 187.407 387.407 181.111 387.407 L 174.815 387.407 174.815 381.111 L 174.815 374.815 181.111 374.815 L 187.407 374.815 187.407 381.111 M225.185 381.111 L 225.185 387.407 218.889 387.407 L 212.593 387.407 212.593 381.111 L 212.593 374.815 218.889 374.815 L 225.185 374.815 225.185 381.111 " stroke="none" fill="#7e5d34" fill-rule="evenodd"></path><path id="path2" d="M174.815 103.148 L 174.815 106.296 168.704 106.296 L 162.593 106.296 162.593 109.444 L 162.593 112.593 156.296 112.593 L 150.000 112.593 150.000 115.741 L 150.000 118.889 146.852 118.889 L 143.704 118.889 143.704 121.852 L 143.704 124.815 140.556 124.815 L 137.407 124.815 137.407 140.556 L 137.407 156.296 134.259 156.296 L 131.111 156.296 131.111 162.593 L 131.111 168.889 134.259 168.889 L 137.407 168.889 137.407 171.852 L 137.407 174.815 146.852 174.815 L 156.296 174.815 156.296 171.852 L 156.296 168.889 153.148 168.889 L 150.000 168.889 150.000 165.741 L 150.000 162.593 153.148 162.593 L 156.296 162.593 156.296 159.444 L 156.296 156.296 159.444 156.296 L 162.593 156.296 162.593 153.148 L 162.593 150.000 165.741 150.000 L 168.889 150.000 168.889 146.852 L 168.889 143.704 200.000 143.704 L 231.111 143.704 231.111 146.852 L 231.111 150.000 234.259 150.000 L 237.407 150.000 237.407 153.148 L 237.407 156.296 240.556 156.296 L 243.704 156.296 243.704 159.444 L 243.704 162.593 246.852 162.593 L 250.000 162.593 250.000 165.741 L 250.000 168.889 246.852 168.889 L 243.704 168.889 243.704 171.852 L 243.704 174.815 253.148 174.815 L 262.593 174.815 262.593 171.852 L 262.593 168.889 265.741 168.889 L 268.889 168.889 268.889 162.593 L 268.889 156.296 265.741 156.296 L 262.593 156.296 262.593 140.556 L 262.593 124.815 259.444 124.815 L 256.296 124.815 256.296 121.852 L 256.296 118.889 253.148 118.889 L 250.000 118.889 250.000 115.741 L 250.000 112.593 243.704 112.593 L 237.407 112.593 237.407 109.444 L 237.407 106.296 231.111 106.296 L 224.815 106.296 224.815 103.148 L 224.815 100.000 199.815 100.000 L 174.815 100.000 174.815 103.148 M212.593 121.667 L 212.593 124.815 200.000 124.815 L 187.407 124.815 187.407 121.667 L 187.407 118.519 200.000 118.519 L 212.593 118.519 212.593 121.667 M218.889 134.259 L 218.889 137.407 200.000 137.407 L 181.111 137.407 181.111 134.259 L 181.111 131.111 200.000 131.111 L 218.889 131.111 218.889 134.259 M137.407 193.704 L 137.407 206.296 140.556 206.296 L 143.704 206.296 143.704 215.556 L 143.704 224.815 146.852 224.815 L 150.000 224.815 150.000 227.963 L 150.000 231.111 153.148 231.111 L 156.296 231.111 156.296 234.259 L 156.296 237.407 159.444 237.407 L 162.593 237.407 162.593 231.111 L 162.593 224.815 159.444 224.815 L 156.296 224.815 156.296 218.704 L 156.296 212.593 153.148 212.593 L 150.000 212.593 150.000 209.444 L 150.000 206.296 156.296 206.296 L 162.593 206.296 162.593 212.593 L 162.593 218.889 165.741 218.889 L 168.889 218.889 168.889 228.333 L 168.889 237.778 165.741 237.778 L 162.593 237.778 162.593 243.889 L 162.593 250.000 159.444 250.000 L 156.296 250.000 156.296 256.296 L 156.296 262.593 159.444 262.593 L 162.593 262.593 162.593 271.852 L 162.593 281.111 159.444 281.111 L 156.296 281.111 156.296 287.407 L 156.296 293.704 159.444 293.704 L 162.593 293.704 162.593 300.000 L 162.593 306.296 165.741 306.296 L 168.889 306.296 168.889 312.593 L 168.889 318.889 171.852 318.889 L 174.815 318.889 174.815 321.852 L 174.815 324.815 177.963 324.815 L 181.111 324.815 181.111 327.963 L 181.111 331.111 184.259 331.111 L 187.407 331.111 187.407 321.852 L 187.407 312.593 190.556 312.593 L 193.704 312.593 193.704 309.444 L 193.704 306.296 190.556 306.296 L 187.407 306.296 187.407 303.148 L 187.407 300.000 184.259 300.000 L 181.111 300.000 181.111 296.852 L 181.111 293.704 171.852 293.704 L 162.593 293.704 162.593 287.407 L 162.593 281.111 165.741 281.111 L 168.889 281.111 168.889 284.259 L 168.889 287.407 175.000 287.407 L 181.111 287.407 181.111 284.259 L 181.111 281.111 184.259 281.111 L 187.407 281.111 187.407 278.148 L 187.407 275.185 184.259 275.185 L 181.111 275.185 181.111 272.037 L 181.111 268.889 177.963 268.889 L 174.815 268.889 174.815 262.593 L 174.815 256.296 184.259 256.296 L 193.704 256.296 193.704 246.852 L 193.704 237.407 200.000 237.407 L 206.296 237.407 206.296 246.852 L 206.296 256.296 215.556 256.296 L 224.815 256.296 224.815 259.444 L 224.815 262.593 221.852 262.593 L 218.889 262.593 218.889 265.741 L 218.889 268.889 212.593 268.889 L 206.296 268.889 206.296 271.852 L 206.296 274.815 209.444 274.815 L 212.593 274.815 212.593 277.963 L 212.593 281.111 215.741 281.111 L 218.889 281.111 218.889 284.259 L 218.889 287.407 225.000 287.407 L 231.111 287.407 231.111 284.259 L 231.111 281.111 234.259 281.111 L 237.407 281.111 237.407 287.407 L 237.407 293.704 228.148 293.704 L 218.889 293.704 218.889 296.852 L 218.889 300.000 215.741 300.000 L 212.593 300.000 212.593 303.148 L 212.593 306.296 209.444 306.296 L 206.296 306.296 206.296 309.444 L 206.296 312.593 209.444 312.593 L 212.593 312.593 212.593 321.852 L 212.593 331.111 215.741 331.111 L 218.889 331.111 218.889 327.963 L 218.889 324.815 221.852 324.815 L 224.815 324.815 224.815 321.852 L 224.815 318.889 227.963 318.889 L 231.111 318.889 231.111 312.593 L 231.111 306.296 234.259 306.296 L 237.407 306.296 237.407 300.000 L 237.407 293.704 240.556 293.704 L 243.704 293.704 243.704 287.407 L 243.704 281.111 240.556 281.111 L 237.407 281.111 237.407 271.852 L 237.407 262.593 240.556 262.593 L 243.704 262.593 243.704 256.296 L 243.704 250.000 240.556 250.000 L 237.407 250.000 237.407 243.889 L 237.407 237.778 234.259 237.778 L 231.111 237.778 231.111 228.333 L 231.111 218.889 234.259 218.889 L 237.407 218.889 237.407 212.593 L 237.407 206.296 243.704 206.296 L 250.000 206.296 250.000 209.444 L 250.000 212.593 246.852 212.593 L 243.704 212.593 243.704 218.704 L 243.704 224.815 240.556 224.815 L 237.407 224.815 237.407 231.111 L 237.407 237.407 240.556 237.407 L 243.704 237.407 243.704 234.259 L 243.704 231.111 246.852 231.111 L 250.000 231.111 250.000 227.963 L 250.000 224.815 253.148 224.815 L 256.296 224.815 256.296 215.556 L 256.296 206.296 259.444 206.296 L 262.593 206.296 262.593 193.704 L 262.593 181.111 253.148 181.111 L 243.704 181.111 243.704 184.259 L 243.704 187.407 240.556 187.407 L 237.407 187.407 237.407 190.556 L 237.407 193.704 231.111 193.704 L 224.815 193.704 224.815 196.852 L 224.815 200.000 215.556 200.000 L 206.296 200.000 206.296 206.296 L 206.296 212.593 200.000 212.593 L 193.704 212.593 193.704 206.296 L 193.704 200.000 184.259 200.000 L 174.815 200.000 174.815 196.852 L 174.815 193.704 168.704 193.704 L 162.593 193.704 162.593 190.556 L 162.593 187.407 159.444 187.407 L 156.296 187.407 156.296 184.259 L 156.296 181.111 146.852 181.111 L 137.407 181.111 137.407 193.704 M218.889 221.852 L 218.889 225.185 215.741 225.185 L 212.593 225.185 212.593 228.333 L 212.593 231.481 200.000 231.481 L 187.407 231.481 187.407 228.333 L 187.407 225.185 184.259 225.185 L 181.111 225.185 181.111 221.852 L 181.111 218.519 200.000 218.519 L 218.889 218.519 218.889 221.852 M174.815 253.148 L 174.815 256.296 168.704 256.296 L 162.593 256.296 162.593 253.148 L 162.593 250.000 168.704 250.000 L 174.815 250.000 174.815 253.148 M237.407 253.148 L 237.407 256.296 231.111 256.296 L 224.815 256.296 224.815 253.148 L 224.815 250.000 231.111 250.000 L 237.407 250.000 237.407 253.148 M187.407 271.852 L 187.407 274.815 190.556 274.815 L 193.704 274.815 193.704 271.852 L 193.704 268.889 190.556 268.889 L 187.407 268.889 187.407 271.852 " stroke="none" fill="#83cc6b" fill-rule="evenodd"></path><path id="path3" d="M168.889 59.259 L 168.889 62.593 171.852 62.593 L 174.815 62.593 174.815 65.741 L 174.815 68.889 177.963 68.889 L 181.111 68.889 181.111 71.852 L 181.111 74.815 177.963 74.815 L 174.815 74.815 174.815 81.111 L 174.815 87.407 171.852 87.407 L 168.889 87.407 168.889 90.556 L 168.889 93.704 165.741 93.704 L 162.593 93.704 162.593 96.852 L 162.593 100.000 168.704 100.000 L 174.815 100.000 174.815 96.852 L 174.815 93.704 181.111 93.704 L 187.407 93.704 187.407 90.556 L 187.407 87.407 184.259 87.407 L 181.111 87.407 181.111 81.111 L 181.111 74.815 184.259 74.815 L 187.407 74.815 187.407 77.963 L 187.407 81.111 190.556 81.111 L 193.704 81.111 193.704 75.000 L 193.704 68.889 187.407 68.889 L 181.111 68.889 181.111 65.741 L 181.111 62.593 177.963 62.593 L 174.815 62.593 174.815 59.259 L 174.815 55.926 171.852 55.926 L 168.889 55.926 168.889 59.259 M224.815 59.259 L 224.815 62.593 221.852 62.593 L 218.889 62.593 218.889 65.741 L 218.889 68.889 212.593 68.889 L 206.296 68.889 206.296 75.000 L 206.296 81.111 209.444 81.111 L 212.593 81.111 212.593 77.963 L 212.593 74.815 215.741 74.815 L 218.889 74.815 218.889 81.111 L 218.889 87.407 215.741 87.407 L 212.593 87.407 212.593 90.556 L 212.593 93.704 218.704 93.704 L 224.815 93.704 224.815 96.852 L 224.815 100.000 231.111 100.000 L 237.407 100.000 237.407 96.852 L 237.407 93.704 234.259 93.704 L 231.111 93.704 231.111 90.556 L 231.111 87.407 227.963 87.407 L 224.815 87.407 224.815 81.111 L 224.815 74.815 221.852 74.815 L 218.889 74.815 218.889 71.852 L 218.889 68.889 221.852 68.889 L 224.815 68.889 224.815 65.741 L 224.815 62.593 227.963 62.593 L 231.111 62.593 231.111 59.259 L 231.111 55.926 227.963 55.926 L 224.815 55.926 224.815 59.259 M118.889 90.556 L 118.889 93.704 121.852 93.704 L 124.815 93.704 124.815 100.000 L 124.815 106.296 127.963 106.296 L 131.111 106.296 131.111 115.556 L 131.111 124.815 134.259 124.815 L 137.407 124.815 137.407 118.704 L 137.407 112.593 143.704 112.593 L 150.000 112.593 150.000 109.444 L 150.000 106.296 143.704 106.296 L 137.407 106.296 137.407 103.148 L 137.407 100.000 134.259 100.000 L 131.111 100.000 131.111 96.852 L 131.111 93.704 127.963 93.704 L 124.815 93.704 124.815 90.556 L 124.815 87.407 121.852 87.407 L 118.889 87.407 118.889 90.556 M274.815 90.556 L 274.815 93.704 271.852 93.704 L 268.889 93.704 268.889 96.852 L 268.889 100.000 265.741 100.000 L 262.593 100.000 262.593 103.148 L 262.593 106.296 256.296 106.296 L 250.000 106.296 250.000 109.444 L 250.000 112.593 256.296 112.593 L 262.593 112.593 262.593 118.704 L 262.593 124.815 265.741 124.815 L 268.889 124.815 268.889 115.556 L 268.889 106.296 271.852 106.296 L 274.815 106.296 274.815 100.000 L 274.815 93.704 277.963 93.704 L 281.111 93.704 281.111 90.556 L 281.111 87.407 277.963 87.407 L 274.815 87.407 274.815 90.556 M112.593 175.000 L 112.593 181.111 109.444 181.111 L 106.296 181.111 106.296 184.259 L 106.296 187.407 112.593 187.407 L 118.889 187.407 118.889 178.148 L 118.889 168.889 115.741 168.889 L 112.593 168.889 112.593 175.000 M281.111 178.148 L 281.111 187.407 287.407 187.407 L 293.704 187.407 293.704 184.259 L 293.704 181.111 290.556 181.111 L 287.407 181.111 287.407 175.000 L 287.407 168.889 284.259 168.889 L 281.111 168.889 281.111 178.148 M124.815 200.000 L 124.815 206.296 121.852 206.296 L 118.889 206.296 118.889 209.444 L 118.889 212.593 128.148 212.593 L 137.407 212.593 137.407 209.444 L 137.407 206.296 134.259 206.296 L 131.111 206.296 131.111 200.000 L 131.111 193.704 127.963 193.704 L 124.815 193.704 124.815 200.000 M268.889 200.000 L 268.889 206.296 265.741 206.296 L 262.593 206.296 262.593 209.444 L 262.593 212.593 271.852 212.593 L 281.111 212.593 281.111 209.444 L 281.111 206.296 277.963 206.296 L 274.815 206.296 274.815 200.000 L 274.815 193.704 271.852 193.704 L 268.889 193.704 268.889 200.000 M131.111 228.148 L 131.111 237.407 134.259 237.407 L 137.407 237.407 137.407 234.259 L 137.407 231.111 140.556 231.111 L 143.704 231.111 143.704 227.963 L 143.704 224.815 140.556 224.815 L 137.407 224.815 137.407 221.852 L 137.407 218.889 134.259 218.889 L 131.111 218.889 131.111 228.148 M262.593 221.852 L 262.593 224.815 259.444 224.815 L 256.296 224.815 256.296 227.963 L 256.296 231.111 259.444 231.111 L 262.593 231.111 262.593 234.259 L 262.593 237.407 265.741 237.407 L 268.889 237.407 268.889 228.148 L 268.889 218.889 265.741 218.889 L 262.593 218.889 262.593 221.852 M181.111 377.963 L 181.111 381.111 177.963 381.111 L 174.815 381.111 174.815 384.259 L 174.815 387.407 181.111 387.407 L 187.407 387.407 187.407 381.111 L 187.407 374.815 184.259 374.815 L 181.111 374.815 181.111 377.963 M212.593 381.111 L 212.593 387.407 218.889 387.407 L 225.185 387.407 225.185 384.259 L 225.185 381.111 222.037 381.111 L 218.889 381.111 218.889 377.963 L 218.889 374.815 215.741 374.815 L 212.593 374.815 212.593 381.111 M181.111 396.852 L 181.111 400.000 184.259 400.000 L 187.407 400.000 187.407 396.852 L 187.407 393.704 184.259 393.704 L 181.111 393.704 181.111 396.852 M212.593 396.852 L 212.593 400.000 215.741 400.000 L 218.889 400.000 218.889 396.852 L 218.889 393.704 215.741 393.704 L 212.593 393.704 212.593 396.852 " stroke="none" fill="#c86e6e" fill-rule="evenodd"></path><path id="path4" d="M131.111 21.667 L 131.111 24.815 127.963 24.815 L 124.815 24.815 124.815 31.111 L 124.815 37.407 121.852 37.407 L 118.889 37.407 118.889 50.000 L 118.889 62.593 112.593 62.593 L 106.296 62.593 106.296 56.296 L 106.296 50.000 103.148 50.000 L 100.000 50.000 100.000 46.852 L 100.000 43.704 96.852 43.704 L 93.704 43.704 93.704 50.000 L 93.704 56.296 90.556 56.296 L 87.407 56.296 87.407 81.296 L 87.407 106.296 90.556 106.296 L 93.704 106.296 93.704 115.556 L 93.704 124.815 100.000 124.815 L 106.296 124.815 106.296 127.963 L 106.296 131.111 103.148 131.111 L 100.000 131.111 100.000 137.407 L 100.000 143.704 103.148 143.704 L 106.296 143.704 106.296 137.407 L 106.296 131.111 109.444 131.111 L 112.593 131.111 112.593 146.852 L 112.593 162.593 109.444 162.593 L 106.296 162.593 106.296 159.444 L 106.296 156.296 103.148 156.296 L 100.000 156.296 100.000 168.704 L 100.000 181.111 96.852 181.111 L 93.704 181.111 93.704 184.259 L 93.704 187.407 96.852 187.407 L 100.000 187.407 100.000 190.556 L 100.000 193.704 103.148 193.704 L 106.296 193.704 106.296 200.000 L 106.296 206.296 103.148 206.296 L 100.000 206.296 100.000 212.593 L 100.000 218.889 109.444 218.889 L 118.889 218.889 118.889 225.000 L 118.889 231.111 115.741 231.111 L 112.593 231.111 112.593 234.259 L 112.593 237.407 109.444 237.407 L 106.296 237.407 106.296 240.741 L 106.296 244.074 118.704 244.074 L 131.111 244.074 131.111 247.037 L 131.111 250.000 125.000 250.000 L 118.889 250.000 118.889 253.148 L 118.889 256.296 115.741 256.296 L 112.593 256.296 112.593 259.444 L 112.593 262.593 103.148 262.593 L 93.704 262.593 93.704 265.741 L 93.704 268.889 90.556 268.889 L 87.407 268.889 87.407 275.000 L 87.407 281.111 84.259 281.111 L 81.111 281.111 81.111 296.852 L 81.111 312.593 77.963 312.593 L 74.815 312.593 74.815 334.444 L 74.815 356.296 77.963 356.296 L 81.111 356.296 81.111 362.593 L 81.111 368.889 84.259 368.889 L 87.407 368.889 87.407 375.000 L 87.407 381.111 90.556 381.111 L 93.704 381.111 93.704 384.259 L 93.704 387.407 96.852 387.407 L 100.000 387.407 100.000 390.556 L 100.000 393.704 103.148 393.704 L 106.296 393.704 106.296 396.852 L 106.296 400.000 112.593 400.000 L 118.889 400.000 118.889 396.852 L 118.889 393.704 115.741 393.704 L 112.593 393.704 112.593 390.556 L 112.593 387.407 109.444 387.407 L 106.296 387.407 106.296 384.259 L 106.296 381.111 103.148 381.111 L 100.000 381.111 100.000 377.963 L 100.000 374.815 96.852 374.815 L 93.704 374.815 93.704 368.704 L 93.704 362.593 90.556 362.593 L 87.407 362.593 87.407 356.296 L 87.407 350.000 84.259 350.000 L 81.111 350.000 81.111 331.296 L 81.111 312.593 84.259 312.593 L 87.407 312.593 87.407 300.000 L 87.407 287.407 90.556 287.407 L 93.704 287.407 93.704 290.556 L 93.704 293.704 96.852 293.704 L 100.000 293.704 100.000 309.259 L 100.000 324.815 103.148 324.815 L 106.296 324.815 106.296 331.111 L 106.296 337.407 109.444 337.407 L 112.593 337.407 112.593 346.852 L 112.593 356.296 115.741 356.296 L 118.889 356.296 118.889 365.556 L 118.889 374.815 121.852 374.815 L 124.815 374.815 124.815 381.111 L 124.815 387.407 127.963 387.407 L 131.111 387.407 131.111 393.704 L 131.111 400.000 140.556 400.000 L 150.000 400.000 150.000 390.556 L 150.000 381.111 146.852 381.111 L 143.704 381.111 143.704 371.852 L 143.704 362.593 140.556 362.593 L 137.407 362.593 137.407 359.444 L 137.407 356.296 134.259 356.296 L 131.111 356.296 131.111 353.148 L 131.111 350.000 127.963 350.000 L 124.815 350.000 124.815 343.704 L 124.815 337.407 121.852 337.407 L 118.889 337.407 118.889 334.259 L 118.889 331.111 115.741 331.111 L 112.593 331.111 112.593 325.000 L 112.593 318.889 109.444 318.889 L 106.296 318.889 106.296 303.148 L 106.296 287.407 103.148 287.407 L 100.000 287.407 100.000 278.148 L 100.000 268.889 109.444 268.889 L 118.889 268.889 118.889 265.741 L 118.889 262.593 121.852 262.593 L 124.815 262.593 124.815 265.741 L 124.815 268.889 131.111 268.889 L 137.407 268.889 137.407 271.852 L 137.407 274.815 134.259 274.815 L 131.111 274.815 131.111 277.963 L 131.111 281.111 127.963 281.111 L 124.815 281.111 124.815 287.407 L 124.815 293.704 127.963 293.704 L 131.111 293.704 131.111 296.852 L 131.111 300.000 134.259 300.000 L 137.407 300.000 137.407 306.296 L 137.407 312.593 140.556 312.593 L 143.704 312.593 143.704 315.741 L 143.704 318.889 146.852 318.889 L 150.000 318.889 150.000 321.852 L 150.000 324.815 153.148 324.815 L 156.296 324.815 156.296 327.963 L 156.296 331.111 159.444 331.111 L 162.593 331.111 162.593 334.259 L 162.593 337.407 165.741 337.407 L 168.889 337.407 168.889 340.556 L 168.889 343.704 171.852 343.704 L 174.815 343.704 174.815 346.852 L 174.815 350.000 177.963 350.000 L 181.111 350.000 181.111 353.148 L 181.111 356.296 184.259 356.296 L 187.407 356.296 187.407 359.444 L 187.407 362.593 190.556 362.593 L 193.704 362.593 193.704 381.296 L 193.704 400.000 200.000 400.000 L 206.296 400.000 206.296 381.296 L 206.296 362.593 209.444 362.593 L 212.593 362.593 212.593 359.444 L 212.593 356.296 215.741 356.296 L 218.889 356.296 218.889 353.148 L 218.889 350.000 221.852 350.000 L 224.815 350.000 224.815 346.852 L 224.815 343.704 227.963 343.704 L 231.111 343.704 231.111 340.556 L 231.111 337.407 234.259 337.407 L 237.407 337.407 237.407 334.259 L 237.407 331.111 240.556 331.111 L 243.704 331.111 243.704 327.963 L 243.704 324.815 246.852 324.815 L 250.000 324.815 250.000 321.852 L 250.000 318.889 253.148 318.889 L 256.296 318.889 256.296 315.741 L 256.296 312.593 259.444 312.593 L 262.593 312.593 262.593 306.296 L 262.593 300.000 265.741 300.000 L 268.889 300.000 268.889 296.852 L 268.889 293.704 271.852 293.704 L 274.815 293.704 274.815 287.407 L 274.815 281.111 271.852 281.111 L 268.889 281.111 268.889 277.963 L 268.889 274.815 265.741 274.815 L 262.593 274.815 262.593 271.852 L 262.593 268.889 268.704 268.889 L 274.815 268.889 274.815 265.741 L 274.815 262.593 277.963 262.593 L 281.111 262.593 281.111 265.741 L 281.111 268.889 290.556 268.889 L 300.000 268.889 300.000 278.148 L 300.000 287.407 296.852 287.407 L 293.704 287.407 293.704 303.148 L 293.704 318.889 290.556 318.889 L 287.407 318.889 287.407 325.000 L 287.407 331.111 284.259 331.111 L 281.111 331.111 281.111 334.259 L 281.111 337.407 277.963 337.407 L 274.815 337.407 274.815 343.704 L 274.815 350.000 271.852 350.000 L 268.889 350.000 268.889 353.148 L 268.889 356.296 265.741 356.296 L 262.593 356.296 262.593 359.444 L 262.593 362.593 259.444 362.593 L 256.296 362.593 256.296 371.852 L 256.296 381.111 253.148 381.111 L 250.000 381.111 250.000 390.556 L 250.000 400.000 262.407 400.000 L 274.815 400.000 274.815 393.704 L 274.815 387.407 277.963 387.407 L 281.111 387.407 281.111 381.111 L 281.111 374.815 284.259 374.815 L 287.407 374.815 287.407 368.704 L 287.407 362.593 290.741 362.593 L 294.074 362.593 294.074 353.148 L 294.074 343.704 290.741 343.704 L 287.407 343.704 287.407 340.556 L 287.407 337.407 290.556 337.407 L 293.704 337.407 293.704 331.111 L 293.704 324.815 296.852 324.815 L 300.000 324.815 300.000 309.259 L 300.000 293.704 303.148 293.704 L 306.296 293.704 306.296 290.556 L 306.296 287.407 309.444 287.407 L 312.593 287.407 312.593 300.000 L 312.593 312.593 315.741 312.593 L 318.889 312.593 318.889 331.296 L 318.889 350.000 315.741 350.000 L 312.593 350.000 312.593 356.296 L 312.593 362.593 309.444 362.593 L 306.296 362.593 306.296 368.704 L 306.296 374.815 303.148 374.815 L 300.000 374.815 300.000 377.963 L 300.000 381.111 296.852 381.111 L 293.704 381.111 293.704 384.259 L 293.704 387.407 290.556 387.407 L 287.407 387.407 287.407 390.556 L 287.407 393.704 284.259 393.704 L 281.111 393.704 281.111 396.852 L 281.111 400.000 287.407 400.000 L 293.704 400.000 293.704 396.852 L 293.704 393.704 296.852 393.704 L 300.000 393.704 300.000 390.556 L 300.000 387.407 303.148 387.407 L 306.296 387.407 306.296 384.259 L 306.296 381.111 309.444 381.111 L 312.593 381.111 312.593 375.000 L 312.593 368.889 315.741 368.889 L 318.889 368.889 318.889 362.593 L 318.889 356.296 322.037 356.296 L 325.185 356.296 325.185 334.444 L 325.185 312.593 322.037 312.593 L 318.889 312.593 318.889 296.852 L 318.889 281.111 315.741 281.111 L 312.593 281.111 312.593 275.000 L 312.593 268.889 309.444 268.889 L 306.296 268.889 306.296 265.741 L 306.296 262.593 296.852 262.593 L 287.407 262.593 287.407 259.444 L 287.407 256.296 284.259 256.296 L 281.111 256.296 281.111 253.148 L 281.111 250.000 275.000 250.000 L 268.889 250.000 268.889 247.037 L 268.889 244.074 281.296 244.074 L 293.704 244.074 293.704 240.741 L 293.704 237.407 290.556 237.407 L 287.407 237.407 287.407 234.259 L 287.407 231.111 284.259 231.111 L 281.111 231.111 281.111 225.000 L 281.111 218.889 290.556 218.889 L 300.000 218.889 300.000 212.593 L 300.000 206.296 296.852 206.296 L 293.704 206.296 293.704 200.000 L 293.704 193.704 296.852 193.704 L 300.000 193.704 300.000 190.556 L 300.000 187.407 303.148 187.407 L 306.296 187.407 306.296 184.259 L 306.296 181.111 303.148 181.111 L 300.000 181.111 300.000 168.704 L 300.000 156.296 296.852 156.296 L 293.704 156.296 293.704 159.444 L 293.704 162.593 290.556 162.593 L 287.407 162.593 287.407 146.852 L 287.407 131.111 290.556 131.111 L 293.704 131.111 293.704 127.963 L 293.704 124.815 296.852 124.815 L 300.000 124.815 300.000 121.852 L 300.000 118.889 303.148 118.889 L 306.296 118.889 306.296 112.593 L 306.296 106.296 309.444 106.296 L 312.593 106.296 312.593 81.296 L 312.593 56.296 309.444 56.296 L 306.296 56.296 306.296 50.000 L 306.296 43.704 303.148 43.704 L 300.000 43.704 300.000 46.852 L 300.000 50.000 296.852 50.000 L 293.704 50.000 293.704 56.296 L 293.704 62.593 287.407 62.593 L 281.111 62.593 281.111 50.000 L 281.111 37.407 277.963 37.407 L 274.815 37.407 274.815 31.111 L 274.815 24.815 271.852 24.815 L 268.889 24.815 268.889 21.667 L 268.889 18.519 262.593 18.519 L 256.296 18.519 256.296 21.667 L 256.296 24.815 259.444 24.815 L 262.593 24.815 262.593 31.111 L 262.593 37.407 259.444 37.407 L 256.296 37.407 256.296 40.556 L 256.296 43.704 253.148 43.704 L 250.000 43.704 250.000 46.852 L 250.000 50.000 246.852 50.000 L 243.704 50.000 243.704 53.148 L 243.704 56.296 240.556 56.296 L 237.407 56.296 237.407 46.852 L 237.407 37.407 228.148 37.407 L 218.889 37.407 218.889 40.556 L 218.889 43.704 215.741 43.704 L 212.593 43.704 212.593 46.852 L 212.593 50.000 209.444 50.000 L 206.296 50.000 206.296 56.296 L 206.296 62.593 200.000 62.593 L 193.704 62.593 193.704 56.296 L 193.704 50.000 190.556 50.000 L 187.407 50.000 187.407 46.852 L 187.407 43.704 184.259 43.704 L 181.111 43.704 181.111 40.556 L 181.111 37.407 171.852 37.407 L 162.593 37.407 162.593 46.852 L 162.593 56.296 159.444 56.296 L 156.296 56.296 156.296 53.148 L 156.296 50.000 153.148 50.000 L 150.000 50.000 150.000 46.852 L 150.000 43.704 146.852 43.704 L 143.704 43.704 143.704 40.556 L 143.704 37.407 140.556 37.407 L 137.407 37.407 137.407 31.111 L 137.407 24.815 140.556 24.815 L 143.704 24.815 143.704 21.667 L 143.704 18.519 137.407 18.519 L 131.111 18.519 131.111 21.667 M137.407 46.852 L 137.407 50.000 143.704 50.000 L 150.000 50.000 150.000 53.148 L 150.000 56.296 153.148 56.296 L 156.296 56.296 156.296 59.444 L 156.296 62.593 159.444 62.593 L 162.593 62.593 162.593 65.741 L 162.593 68.889 168.704 68.889 L 174.815 68.889 174.815 65.741 L 174.815 62.593 171.852 62.593 L 168.889 62.593 168.889 53.148 L 168.889 43.704 171.852 43.704 L 174.815 43.704 174.815 46.852 L 174.815 50.000 177.963 50.000 L 181.111 50.000 181.111 53.148 L 181.111 56.296 184.259 56.296 L 187.407 56.296 187.407 59.444 L 187.407 62.593 190.556 62.593 L 193.704 62.593 193.704 71.852 L 193.704 81.111 190.556 81.111 L 187.407 81.111 187.407 77.963 L 187.407 74.815 184.259 74.815 L 181.111 74.815 181.111 81.111 L 181.111 87.407 184.259 87.407 L 187.407 87.407 187.407 90.556 L 187.407 93.704 181.111 93.704 L 174.815 93.704 174.815 96.852 L 174.815 100.000 199.815 100.000 L 224.815 100.000 224.815 96.852 L 224.815 93.704 218.704 93.704 L 212.593 93.704 212.593 90.556 L 212.593 87.407 215.741 87.407 L 218.889 87.407 218.889 81.111 L 218.889 74.815 215.741 74.815 L 212.593 74.815 212.593 77.963 L 212.593 81.111 209.444 81.111 L 206.296 81.111 206.296 71.852 L 206.296 62.593 209.444 62.593 L 212.593 62.593 212.593 59.444 L 212.593 56.296 215.741 56.296 L 218.889 56.296 218.889 53.148 L 218.889 50.000 221.852 50.000 L 224.815 50.000 224.815 46.852 L 224.815 43.704 227.963 43.704 L 231.111 43.704 231.111 53.148 L 231.111 62.593 227.963 62.593 L 224.815 62.593 224.815 65.741 L 224.815 68.889 231.111 68.889 L 237.407 68.889 237.407 65.741 L 237.407 62.593 240.556 62.593 L 243.704 62.593 243.704 59.444 L 243.704 56.296 246.852 56.296 L 250.000 56.296 250.000 53.148 L 250.000 50.000 256.296 50.000 L 262.593 50.000 262.593 46.852 L 262.593 43.704 268.704 43.704 L 274.815 43.704 274.815 65.556 L 274.815 87.407 277.963 87.407 L 281.111 87.407 281.111 81.111 L 281.111 74.815 284.259 74.815 L 287.407 74.815 287.407 71.852 L 287.407 68.889 290.556 68.889 L 293.704 68.889 293.704 65.741 L 293.704 62.593 300.000 62.593 L 306.296 62.593 306.296 81.296 L 306.296 100.000 303.148 100.000 L 300.000 100.000 300.000 106.296 L 300.000 112.593 296.852 112.593 L 293.704 112.593 293.704 118.704 L 293.704 124.815 287.407 124.815 L 281.111 124.815 281.111 127.963 L 281.111 131.111 277.963 131.111 L 274.815 131.111 274.815 134.259 L 274.815 137.407 271.852 137.407 L 268.889 137.407 268.889 131.111 L 268.889 124.815 265.741 124.815 L 262.593 124.815 262.593 140.556 L 262.593 156.296 265.741 156.296 L 268.889 156.296 268.889 162.593 L 268.889 168.889 271.852 168.889 L 274.815 168.889 274.815 159.444 L 274.815 150.000 271.852 150.000 L 268.889 150.000 268.889 146.852 L 268.889 143.704 275.000 143.704 L 281.111 143.704 281.111 156.296 L 281.111 168.889 284.259 168.889 L 287.407 168.889 287.407 175.000 L 287.407 181.111 290.556 181.111 L 293.704 181.111 293.704 184.259 L 293.704 187.407 287.407 187.407 L 281.111 187.407 281.111 178.148 L 281.111 168.889 277.963 168.889 L 274.815 168.889 274.815 175.000 L 274.815 181.111 271.852 181.111 L 268.889 181.111 268.889 175.000 L 268.889 168.889 265.741 168.889 L 262.593 168.889 262.593 171.852 L 262.593 174.815 253.148 174.815 L 243.704 174.815 243.704 171.852 L 243.704 168.889 246.852 168.889 L 250.000 168.889 250.000 165.741 L 250.000 162.593 246.852 162.593 L 243.704 162.593 243.704 159.444 L 243.704 156.296 240.556 156.296 L 237.407 156.296 237.407 153.148 L 237.407 150.000 234.259 150.000 L 231.111 150.000 231.111 146.852 L 231.111 143.704 200.000 143.704 L 168.889 143.704 168.889 146.852 L 168.889 150.000 165.741 150.000 L 162.593 150.000 162.593 153.148 L 162.593 156.296 159.444 156.296 L 156.296 156.296 156.296 159.444 L 156.296 162.593 153.148 162.593 L 150.000 162.593 150.000 165.741 L 150.000 168.889 153.148 168.889 L 156.296 168.889 156.296 171.852 L 156.296 174.815 146.852 174.815 L 137.407 174.815 137.407 171.852 L 137.407 168.889 134.259 168.889 L 131.111 168.889 131.111 175.000 L 131.111 181.111 127.963 181.111 L 124.815 181.111 124.815 175.000 L 124.815 168.889 121.852 168.889 L 118.889 168.889 118.889 178.148 L 118.889 187.407 112.593 187.407 L 106.296 187.407 106.296 184.259 L 106.296 181.111 109.444 181.111 L 112.593 181.111 112.593 175.000 L 112.593 168.889 115.741 168.889 L 118.889 168.889 118.889 156.296 L 118.889 143.704 125.000 143.704 L 131.111 143.704 131.111 146.852 L 131.111 150.000 127.963 150.000 L 124.815 150.000 124.815 159.444 L 124.815 168.889 127.963 168.889 L 131.111 168.889 131.111 162.593 L 131.111 156.296 134.259 156.296 L 137.407 156.296 137.407 140.556 L 137.407 124.815 134.259 124.815 L 131.111 124.815 131.111 131.111 L 131.111 137.407 127.963 137.407 L 124.815 137.407 124.815 134.259 L 124.815 131.111 121.852 131.111 L 118.889 131.111 118.889 127.963 L 118.889 124.815 112.593 124.815 L 106.296 124.815 106.296 118.704 L 106.296 112.593 103.148 112.593 L 100.000 112.593 100.000 106.296 L 100.000 100.000 96.852 100.000 L 93.704 100.000 93.704 81.296 L 93.704 62.593 100.000 62.593 L 106.296 62.593 106.296 65.741 L 106.296 68.889 109.444 68.889 L 112.593 68.889 112.593 71.852 L 112.593 74.815 115.741 74.815 L 118.889 74.815 118.889 81.111 L 118.889 87.407 121.852 87.407 L 124.815 87.407 124.815 65.556 L 124.815 43.704 131.111 43.704 L 137.407 43.704 137.407 46.852 M174.815 71.852 L 174.815 74.815 177.963 74.815 L 181.111 74.815 181.111 71.852 L 181.111 68.889 177.963 68.889 L 174.815 68.889 174.815 71.852 M218.889 71.852 L 218.889 74.815 221.852 74.815 L 224.815 74.815 224.815 71.852 L 224.815 68.889 221.852 68.889 L 218.889 68.889 218.889 71.852 M124.815 90.556 L 124.815 93.704 127.963 93.704 L 131.111 93.704 131.111 96.852 L 131.111 100.000 134.259 100.000 L 137.407 100.000 137.407 103.148 L 137.407 106.296 143.704 106.296 L 150.000 106.296 150.000 109.444 L 150.000 112.593 143.704 112.593 L 137.407 112.593 137.407 118.704 L 137.407 124.815 140.556 124.815 L 143.704 124.815 143.704 121.852 L 143.704 118.889 146.852 118.889 L 150.000 118.889 150.000 115.741 L 150.000 112.593 156.296 112.593 L 162.593 112.593 162.593 109.444 L 162.593 106.296 168.704 106.296 L 174.815 106.296 174.815 103.148 L 174.815 100.000 159.259 100.000 L 143.704 100.000 143.704 96.852 L 143.704 93.704 137.407 93.704 L 131.111 93.704 131.111 90.556 L 131.111 87.407 127.963 87.407 L 124.815 87.407 124.815 90.556 M268.889 90.556 L 268.889 93.704 262.593 93.704 L 256.296 93.704 256.296 96.852 L 256.296 100.000 240.556 100.000 L 224.815 100.000 224.815 103.148 L 224.815 106.296 231.111 106.296 L 237.407 106.296 237.407 109.444 L 237.407 112.593 243.704 112.593 L 250.000 112.593 250.000 115.741 L 250.000 118.889 253.148 118.889 L 256.296 118.889 256.296 121.852 L 256.296 124.815 259.444 124.815 L 262.593 124.815 262.593 118.704 L 262.593 112.593 256.296 112.593 L 250.000 112.593 250.000 109.444 L 250.000 106.296 256.296 106.296 L 262.593 106.296 262.593 103.148 L 262.593 100.000 265.741 100.000 L 268.889 100.000 268.889 96.852 L 268.889 93.704 271.852 93.704 L 274.815 93.704 274.815 90.556 L 274.815 87.407 271.852 87.407 L 268.889 87.407 268.889 90.556 M293.704 140.556 L 293.704 143.704 296.852 143.704 L 300.000 143.704 300.000 140.556 L 300.000 137.407 296.852 137.407 L 293.704 137.407 293.704 140.556 M224.815 165.741 L 224.815 168.889 227.963 168.889 L 231.111 168.889 231.111 171.852 L 231.111 174.815 234.259 174.815 L 237.407 174.815 237.407 177.963 L 237.407 181.111 234.259 181.111 L 231.111 181.111 231.111 184.259 L 231.111 187.407 225.000 187.407 L 218.889 187.407 218.889 190.556 L 218.889 193.704 200.000 193.704 L 181.111 193.704 181.111 190.556 L 181.111 187.407 175.000 187.407 L 168.889 187.407 168.889 184.259 L 168.889 181.111 165.741 181.111 L 162.593 181.111 162.593 177.963 L 162.593 174.815 165.741 174.815 L 168.889 174.815 168.889 171.852 L 168.889 168.889 171.852 168.889 L 174.815 168.889 174.815 165.741 L 174.815 162.593 199.815 162.593 L 224.815 162.593 224.815 165.741 M306.296 165.741 L 306.296 168.889 309.444 168.889 L 312.593 168.889 312.593 165.741 L 312.593 162.593 309.444 162.593 L 306.296 162.593 306.296 165.741 M187.407 178.148 L 187.407 187.407 200.000 187.407 L 212.593 187.407 212.593 181.111 L 212.593 174.815 209.444 174.815 L 206.296 174.815 206.296 171.852 L 206.296 168.889 196.852 168.889 L 187.407 168.889 187.407 178.148 M156.296 184.259 L 156.296 187.407 159.444 187.407 L 162.593 187.407 162.593 190.556 L 162.593 193.704 168.704 193.704 L 174.815 193.704 174.815 196.852 L 174.815 200.000 199.815 200.000 L 224.815 200.000 224.815 196.852 L 224.815 193.704 231.111 193.704 L 237.407 193.704 237.407 190.556 L 237.407 187.407 240.556 187.407 L 243.704 187.407 243.704 184.259 L 243.704 181.111 253.148 181.111 L 262.593 181.111 262.593 193.704 L 262.593 206.296 265.741 206.296 L 268.889 206.296 268.889 200.000 L 268.889 193.704 275.000 193.704 L 281.111 193.704 281.111 196.852 L 281.111 200.000 284.259 200.000 L 287.407 200.000 287.407 206.296 L 287.407 212.593 275.000 212.593 L 262.593 212.593 262.593 209.444 L 262.593 206.296 259.444 206.296 L 256.296 206.296 256.296 215.556 L 256.296 224.815 259.444 224.815 L 262.593 224.815 262.593 221.852 L 262.593 218.889 268.704 218.889 L 274.815 218.889 274.815 225.000 L 274.815 231.111 277.963 231.111 L 281.111 231.111 281.111 234.259 L 281.111 237.407 271.852 237.407 L 262.593 237.407 262.593 234.259 L 262.593 231.111 259.444 231.111 L 256.296 231.111 256.296 227.963 L 256.296 224.815 253.148 224.815 L 250.000 224.815 250.000 227.963 L 250.000 231.111 246.852 231.111 L 243.704 231.111 243.704 234.259 L 243.704 237.407 240.556 237.407 L 237.407 237.407 237.407 243.704 L 237.407 250.000 240.556 250.000 L 243.704 250.000 243.704 256.296 L 243.704 262.593 240.556 262.593 L 237.407 262.593 237.407 271.852 L 237.407 281.111 240.556 281.111 L 243.704 281.111 243.704 287.407 L 243.704 293.704 240.556 293.704 L 237.407 293.704 237.407 300.000 L 237.407 306.296 240.556 306.296 L 243.704 306.296 243.704 303.148 L 243.704 300.000 246.852 300.000 L 250.000 300.000 250.000 271.852 L 250.000 243.704 253.148 243.704 L 256.296 243.704 256.296 246.852 L 256.296 250.000 259.444 250.000 L 262.593 250.000 262.593 253.148 L 262.593 256.296 265.741 256.296 L 268.889 256.296 268.889 259.444 L 268.889 262.593 265.741 262.593 L 262.593 262.593 262.593 265.741 L 262.593 268.889 259.444 268.889 L 256.296 268.889 256.296 275.000 L 256.296 281.111 259.444 281.111 L 262.593 281.111 262.593 287.407 L 262.593 293.704 259.444 293.704 L 256.296 293.704 256.296 300.000 L 256.296 306.296 253.148 306.296 L 250.000 306.296 250.000 309.444 L 250.000 312.593 246.852 312.593 L 243.704 312.593 243.704 318.704 L 243.704 324.815 240.556 324.815 L 237.407 324.815 237.407 327.963 L 237.407 331.111 234.259 331.111 L 231.111 331.111 231.111 334.259 L 231.111 337.407 227.963 337.407 L 224.815 337.407 224.815 340.556 L 224.815 343.704 221.852 343.704 L 218.889 343.704 218.889 346.852 L 218.889 350.000 215.741 350.000 L 212.593 350.000 212.593 353.148 L 212.593 356.296 209.444 356.296 L 206.296 356.296 206.296 350.000 L 206.296 343.704 209.444 343.704 L 212.593 343.704 212.593 340.556 L 212.593 337.407 215.741 337.407 L 218.889 337.407 218.889 334.259 L 218.889 331.111 215.741 331.111 L 212.593 331.111 212.593 321.852 L 212.593 312.593 209.444 312.593 L 206.296 312.593 206.296 309.444 L 206.296 306.296 209.444 306.296 L 212.593 306.296 212.593 303.148 L 212.593 300.000 215.741 300.000 L 218.889 300.000 218.889 296.852 L 218.889 293.704 228.148 293.704 L 237.407 293.704 237.407 287.407 L 237.407 281.111 234.259 281.111 L 231.111 281.111 231.111 284.259 L 231.111 287.407 225.000 287.407 L 218.889 287.407 218.889 284.259 L 218.889 281.111 215.741 281.111 L 212.593 281.111 212.593 277.963 L 212.593 274.815 209.444 274.815 L 206.296 274.815 206.296 271.852 L 206.296 268.889 209.444 268.889 L 212.593 268.889 212.593 265.741 L 212.593 262.593 218.704 262.593 L 224.815 262.593 224.815 259.444 L 224.815 256.296 215.556 256.296 L 206.296 256.296 206.296 246.852 L 206.296 237.407 200.000 237.407 L 193.704 237.407 193.704 246.852 L 193.704 256.296 184.259 256.296 L 174.815 256.296 174.815 259.444 L 174.815 262.593 181.111 262.593 L 187.407 262.593 187.407 265.741 L 187.407 268.889 190.556 268.889 L 193.704 268.889 193.704 271.852 L 193.704 274.815 190.556 274.815 L 187.407 274.815 187.407 277.963 L 187.407 281.111 184.259 281.111 L 181.111 281.111 181.111 284.259 L 181.111 287.407 175.000 287.407 L 168.889 287.407 168.889 284.259 L 168.889 281.111 165.741 281.111 L 162.593 281.111 162.593 287.407 L 162.593 293.704 171.852 293.704 L 181.111 293.704 181.111 296.852 L 181.111 300.000 184.259 300.000 L 187.407 300.000 187.407 303.148 L 187.407 306.296 190.556 306.296 L 193.704 306.296 193.704 309.444 L 193.704 312.593 190.556 312.593 L 187.407 312.593 187.407 321.852 L 187.407 331.111 184.259 331.111 L 181.111 331.111 181.111 334.259 L 181.111 337.407 184.259 337.407 L 187.407 337.407 187.407 340.556 L 187.407 343.704 190.556 343.704 L 193.704 343.704 193.704 350.000 L 193.704 356.296 190.556 356.296 L 187.407 356.296 187.407 353.148 L 187.407 350.000 184.259 350.000 L 181.111 350.000 181.111 346.852 L 181.111 343.704 177.963 343.704 L 174.815 343.704 174.815 340.556 L 174.815 337.407 171.852 337.407 L 168.889 337.407 168.889 334.259 L 168.889 331.111 165.741 331.111 L 162.593 331.111 162.593 327.963 L 162.593 324.815 159.444 324.815 L 156.296 324.815 156.296 318.704 L 156.296 312.593 153.148 312.593 L 150.000 312.593 150.000 309.444 L 150.000 306.296 146.852 306.296 L 143.704 306.296 143.704 300.000 L 143.704 293.704 140.556 293.704 L 137.407 293.704 137.407 287.407 L 137.407 281.111 140.556 281.111 L 143.704 281.111 143.704 275.000 L 143.704 268.889 140.556 268.889 L 137.407 268.889 137.407 265.741 L 137.407 262.593 134.259 262.593 L 131.111 262.593 131.111 259.444 L 131.111 256.296 134.259 256.296 L 137.407 256.296 137.407 253.148 L 137.407 250.000 140.556 250.000 L 143.704 250.000 143.704 246.852 L 143.704 243.704 146.852 243.704 L 150.000 243.704 150.000 271.852 L 150.000 300.000 153.148 300.000 L 156.296 300.000 156.296 303.148 L 156.296 306.296 159.444 306.296 L 162.593 306.296 162.593 300.000 L 162.593 293.704 159.444 293.704 L 156.296 293.704 156.296 287.407 L 156.296 281.111 159.444 281.111 L 162.593 281.111 162.593 271.852 L 162.593 262.593 159.444 262.593 L 156.296 262.593 156.296 256.296 L 156.296 250.000 159.444 250.000 L 162.593 250.000 162.593 243.704 L 162.593 237.407 159.444 237.407 L 156.296 237.407 156.296 234.259 L 156.296 231.111 153.148 231.111 L 150.000 231.111 150.000 227.963 L 150.000 224.815 146.852 224.815 L 143.704 224.815 143.704 227.963 L 143.704 231.111 140.556 231.111 L 137.407 231.111 137.407 234.259 L 137.407 237.407 128.148 237.407 L 118.889 237.407 118.889 234.259 L 118.889 231.111 121.852 231.111 L 124.815 231.111 124.815 225.000 L 124.815 218.889 131.111 218.889 L 137.407 218.889 137.407 221.852 L 137.407 224.815 140.556 224.815 L 143.704 224.815 143.704 215.556 L 143.704 206.296 140.556 206.296 L 137.407 206.296 137.407 209.444 L 137.407 212.593 125.000 212.593 L 112.593 212.593 112.593 206.296 L 112.593 200.000 115.741 200.000 L 118.889 200.000 118.889 196.852 L 118.889 193.704 125.000 193.704 L 131.111 193.704 131.111 200.000 L 131.111 206.296 134.259 206.296 L 137.407 206.296 137.407 193.704 L 137.407 181.111 146.852 181.111 L 156.296 181.111 156.296 184.259 M193.704 209.444 L 193.704 212.593 200.000 212.593 L 206.296 212.593 206.296 209.444 L 206.296 206.296 200.000 206.296 L 193.704 206.296 193.704 209.444 M181.111 221.759 L 181.111 225.000 200.000 225.000 L 218.889 225.000 218.889 221.759 L 218.889 218.519 200.000 218.519 L 181.111 218.519 181.111 221.759 M162.593 253.148 L 162.593 256.296 168.704 256.296 L 174.815 256.296 174.815 253.148 L 174.815 250.000 168.704 250.000 L 162.593 250.000 162.593 253.148 M224.815 253.148 L 224.815 256.296 231.111 256.296 L 237.407 256.296 237.407 253.148 L 237.407 250.000 231.111 250.000 L 224.815 250.000 224.815 253.148 M162.593 312.593 L 162.593 318.889 165.741 318.889 L 168.889 318.889 168.889 321.852 L 168.889 324.815 171.852 324.815 L 174.815 324.815 174.815 327.963 L 174.815 331.111 177.963 331.111 L 181.111 331.111 181.111 327.963 L 181.111 324.815 177.963 324.815 L 174.815 324.815 174.815 321.852 L 174.815 318.889 171.852 318.889 L 168.889 318.889 168.889 312.593 L 168.889 306.296 165.741 306.296 L 162.593 306.296 162.593 312.593 M231.111 312.593 L 231.111 318.889 227.963 318.889 L 224.815 318.889 224.815 321.852 L 224.815 324.815 221.852 324.815 L 218.889 324.815 218.889 327.963 L 218.889 331.111 221.852 331.111 L 224.815 331.111 224.815 327.963 L 224.815 324.815 227.963 324.815 L 231.111 324.815 231.111 321.852 L 231.111 318.889 234.259 318.889 L 237.407 318.889 237.407 312.593 L 237.407 306.296 234.259 306.296 L 231.111 306.296 231.111 312.593 " stroke="none" fill="#752a3a" fill-rule="evenodd"></path></g></svg>