<?xml version="1.0" encoding="UTF-8"?>
<svg width="46px" height="62px" viewBox="0 0 46 62" version="1.1" xmlns:xlink="http://www.w3.org/1999/xlink" xmlns="http://www.w3.org/2000/svg">
  <desc>Created with Lunacy</desc>
  <g id="008-woman-8">
    <path d="M29.3115 42.3667L29.3115 17.5667C29.3115 6.2 25.1781 0 14.8448 0L14.8448 0C9.34755 0 4.51155 2.06671 1.41155 8.26671C-0.965161 12.896 0.378253 39.2667 0.378253 42.3667L29.3115 42.3667Z" transform="translate(7.888184 1.033295)" id="Path" fill="#70432C" stroke="none"/>
    <path d="M14.2558 0C9.01684 0.155 4.44954 2.325 1.41155 8.26671C-0.965161 12.896 0.378253 39.2667 0.378253 42.3667L10.7115 42.3667C9.67825 32.0334 7.61154 24.8 7.61154 19.6334C7.61154 7.52271 11.6311 2.06671 14.2558 0Z" transform="translate(7.888184 1.033295)" id="Path" fill="#5C3724" stroke="none"/>
    <path d="M22.7333 11.3667C18.6 7.23342 16.5333 0 16.5333 0C16.5333 0 12.4 5.16671 0 11.3667L0 12.4L0.568293 19.6333C0.822469 25.4127 5.58206 29.9666 11.3666 29.9666L11.3666 29.9666C17.1512 29.9666 21.9107 25.4127 22.1649 19.6333L22.7333 11.3667Z" transform="translate(11.3667 6.199982)" id="Path" fill="#FEDAC6" stroke="none"/>
    <path d="M0 0.857586L0.568293 9.12429C0.732617 13.1253 3.1 16.7059 6.71658 18.4243C3.84388 12.0693 3.21358 5.22859 3.09988 0C2.17 0.575437 1.09432 0.873086 0 0.857586Z" transform="translate(11.36646 16.53342)" id="Path" fill="#F5C4B0" stroke="none"/>
    <g id="Group" transform="translate(1.033203 40.81656)">
      <path d="M12.4 8.84541C12.4011 4.67797 9.30109 1.16153 5.16671 0.640707L0 0L0 21.1834L12.4 21.1834L12.4 8.84541L12.4 8.84541Z" transform="translate(31.00001 0)" id="Path" fill="#787D82" stroke="none"/>
      <path d="M7.23329 0.640586C3.09891 1.16141 -0.00108956 4.67785 2.87271e-07 8.84529L2.87271e-07 21.1833L12.4 21.1833L12.4 0L7.23329 0.640586Z" transform="translate(0 0.0001220703)" id="Path" fill="#787D82" stroke="none"/>
    </g>
    <path d="M0 0L0 10.3333L18.6 10.3333L18.6 6.88338e-15C12.6801 2.635 5.91991 2.635 0 0Z" transform="translate(13.43335 51.66672)" id="Path" fill="#DBDBDB" stroke="none"/>
    <path d="M16.2749 6.42729C15.2353 6.29603 14.4582 5.40841 14.4666 4.36059L14.4666 0L4.13329 0L4.13329 4.371C4.14153 5.41882 3.36447 6.30644 2.325 6.43771L0 6.71671L0 17.5667C5.91991 20.2017 12.6801 20.2017 18.6 17.5667L18.6 6.71671L16.2749 6.42729Z" transform="translate(13.43335 34.10001)" id="Path" fill="#FEDAC6" stroke="none"/>
    <g id="Group" transform="translate(11.3667 17.56671)">
      <path d="M6.2 6.2L3.1 6.2C1.38773 6.2 0 4.81226 0 3.1L0 1.03329C0 0.462941 0.462941 0 1.03329 0L9.3 0L9.3 3.1C9.3 4.81214 7.91226 6.2 6.2 6.2Z" id="Path" fill="#EBEBEB" stroke="none"/>
      <path d="M6.2 6.2L3.1 6.2C1.38773 6.2 0 4.81226 0 3.1L0 0L8.2667 0C8.83706 0 9.3 0.462941 9.3 1.03329L9.3 3.1C9.3 4.81214 7.91226 6.2 6.2 6.2Z" transform="translate(12.39986 0)" id="Path" fill="#EBEBEB" stroke="none"/>
    </g>
    <path d="M10.3333 3.61671L10.3333 0L0 0L0 3.61671C3.13403 5.68438 7.19914 5.68438 10.3333 3.61671Z" transform="translate(17.56689 35.1333)" id="Path" fill="#F5C4B0" stroke="none"/>
    <path d="M4.13329 0C1.57785 1.47565 0.00314844 4.2005 0 7.15071L0 19.4887L4.13329 19.4887L4.13329 0L4.13329 0Z" transform="translate(1.033203 42.51129)" id="Path" fill="#717478" stroke="none"/>
    <path d="M4.13329 1.37429C2.71347 1.05194 1.32985 0.592027 0 0L0 10.3333L4.13329 10.3333L4.13329 1.37429Z" transform="translate(13.43335 51.66672)" id="Path" fill="#BFBFBF" stroke="none"/>
    <path d="M1.03329 0L0 0L0 6.2L1.03329 6.2C2.74556 6.2 4.13329 4.81226 4.13329 3.1C4.13329 1.38773 2.74556 0 1.03329 0Z" transform="translate(34.09985 17.56671)" id="Path" fill="#FEDAC6" stroke="none"/>
    <path d="M3.80647 9.53141L0.706471 8.49812C0.18153 8.3235 -0.11188 7.76647 0.0399711 7.23329L2.10668 0L4.09383 0.568293L2.29897 6.84991L4.46074 7.57018L3.80647 9.53141Z" transform="translate(18.6001 17.2825)" id="Path" fill="#000000" stroke="none"/>
    <path d="M1.03329 8.26683L0 8.26683L0 6.20012L1.03329 6.20012C2.17303 6.20012 3.1 5.27327 3.1 4.13341C3.1 2.99368 2.17315 2.06671 1.03329 2.06671L0 2.06671L0 0L1.03329 0C3.31288 0 5.16658 1.85382 5.16658 4.13329C5.16658 6.41276 3.31288 8.26683 1.03329 8.26683Z" transform="translate(34.09985 16.53317)" id="Path" fill="#000000" stroke="none"/>
    <path d="M12.3948 20.7297C6.04088 20.7297 0.844144 15.7562 0.564176 9.4085L0 3.25706L2.05738 3.06791L2.62568 9.26791C2.85927 14.5575 7.14962 18.663 12.3948 18.663C17.64 18.663 21.9304 14.5575 22.1609 9.31756L22.7303 0L24.7929 0.126059L24.2246 9.42606C23.9464 15.7573 18.7487 20.7297 12.3948 20.7297Z" transform="translate(10.33838 16.47031)" id="Path" fill="#000000" stroke="none"/>
    <path d="M0.788441 2.9915C0.787351 2.9915 0.786383 2.9915 0.785293 2.9915L0 2.9915L0 0.924793L0.785293 0.924793C0.786383 0.924793 0.787351 0.924793 0.788441 0.924793C2.14106 0.924793 3.49573 0.605469 4.70473 0L5.62953 1.84862C4.13438 2.59673 2.46038 2.9915 0.788441 2.9915Z" transform="translate(20.6665 26.97522)" id="Path" fill="#000000" stroke="none"/>
    <path d="M2.44023 42.3667L0.373523 42.3667C0.373523 41.8531 0.335258 40.7237 0.28573 39.1778C-0.143063 26.194 -0.330152 12.4351 1.52052 8.82773C4.55029 2.88821 9.24473 0 15.8735 0C26.3039 0 31.3735 6.08423 31.3735 18.6L29.3068 18.6C29.3068 7.16621 25.1631 2.06671 15.8735 2.06671C10.0972 2.06671 6.00414 4.58594 3.36091 9.76912C1.50405 13.3879 2.11885 32.0747 2.35026 39.1095C2.40196 40.6886 2.44023 41.8427 2.44023 42.3667Z" transform="translate(6.859863 0)" id="Path" fill="#000000" stroke="none"/>
    <path d="M0.924793 13.3226L0 11.474C11.8885 5.53021 15.0494 0.544422 15.0804 0.494773C15.2943 0.145539 15.6922 -0.0477269 16.1023 0.0101559C16.5085 0.0659802 16.8443 0.353215 16.9559 0.74689C16.9766 0.816156 19.003 7.77662 22.8935 11.6671L21.4324 13.1284C18.4295 10.1255 16.4993 5.65942 15.5857 3.16392C13.7185 5.22433 9.48285 9.04254 0.924793 13.3226Z" transform="translate(11.93701 5.168884)" id="Path" fill="#000000" stroke="none"/>
    <path d="M0 0L2.0667 0L2.0667 18.6L0 18.6L0 0Z" transform="translate(36.1665 22.73331)" id="Rectangle" fill="#000000" stroke="none"/>
    <path d="M2.06659 26.8667L2.54601e-07 26.8667L2.54601e-07 14.5287C-0.00108959 9.85182 3.49682 5.88382 8.1375 5.29894L15.6208 4.36894C16.1385 4.30379 16.5271 3.8595 16.524 3.33565L16.524 0L18.5907 0L18.5907 3.32729C18.603 4.8917 17.4364 6.2247 15.8782 6.41906L8.39579 7.34906C4.78635 7.80376 2.06562 10.8903 2.06659 14.5287L2.06659 26.8667Z" transform="translate(0 35.1333)" id="Path" fill="#000000" stroke="none"/>
    <path d="M18.5898 26.8667L16.5231 26.8667L16.5231 14.5287C16.5242 10.8903 13.8033 7.80376 10.1939 7.35015L2.71465 6.42015C1.15436 6.22591 -0.0122544 4.89182 9.71648e-05 3.32015L9.71648e-05 0L2.0668 0L2.0668 3.32729C2.06269 3.8595 2.45115 4.30379 2.96992 4.36894L10.4502 5.29894C15.092 5.88273 18.5909 9.85073 18.5898 14.5287L18.5898 26.8667Z" transform="translate(26.87646 35.1333)" id="Path" fill="#000000" stroke="none"/>
    <path d="M0 0L2.06671 0L2.06671 21.7L0 21.7L0 0Z" transform="translate(12.39966 40.29999)" id="Rectangle" fill="#000000" stroke="none"/>
    <path d="M0 0L2.0667 0L2.0667 21.7L0 21.7L0 0Z" transform="translate(31 40.29999)" id="Rectangle" fill="#000000" stroke="none"/>
    <path d="M9.72056 3.95044C6.40562 3.95044 3.08971 3.26227 0 1.88688L0.840148 0C6.48324 2.51306 12.957 2.51306 18.599 0L19.4401 1.88688C16.3525 3.26215 13.0365 3.95044 9.72056 3.95044Z" transform="translate(13.01245 50.72327)" id="Path" fill="#000000" stroke="none"/>
    <path d="M4.13329 8.26671L7.23329 8.26671C9.51288 8.26671 11.3667 6.41288 11.3667 4.13329L11.3667 1.03329C11.3667 0.462941 10.9038 0 10.3334 0L2.06671 0C0.926851 0 0 0.926973 0 2.06671L0 4.13341C0 6.41288 1.8537 8.26671 4.13329 8.26671ZM2.0666 4.1334L2.0666 2.06669L9.30001 2.06669L9.30001 4.1334C9.30001 5.27326 8.37304 6.20011 7.23331 6.20011L4.13331 6.20011C2.99345 6.20011 2.0666 5.27313 2.0666 4.1334Z" transform="translate(10.33325 16.53329)" id="Shape" fill="#000000" fill-rule="evenodd" stroke="none"/>
    <path d="M4.13329 8.26659L7.23329 8.26659C9.51288 8.26659 11.3667 6.41276 11.3667 4.13342L11.3667 2.06671C11.3667 0.926852 10.4397 0 9.3 0L1.03329 0C0.462941 0 0 0.462942 0 1.03329L0 4.13329C0 6.41276 1.8537 8.26659 4.13329 8.26659ZM2.0666 4.13328L2.0666 2.06657L9.30001 2.06657L9.30001 4.13328C9.30001 5.27313 8.37304 6.19999 7.23331 6.19999L4.13331 6.19999C2.99345 6.19999 2.0666 5.27301 2.0666 4.13328Z" transform="translate(22.73315 16.53342)" id="Shape" fill="#000000" fill-rule="evenodd" stroke="none"/>
    <path d="M0 0L3.1 0L3.1 2.06671L0 2.06671L0 0Z" transform="translate(20.6665 16.53329)" id="Rectangle" fill="#000000" stroke="none"/>
    <path d="M2.06671 4.13342C3.20812 4.13342 4.13341 3.20812 4.13341 2.06671C4.13341 0.925297 3.20812 0 2.06671 0C0.925296 0 0 0.925297 0 2.06671C0 3.20812 0.925296 4.13342 2.06671 4.13342Z" transform="translate(14.46655 17.56659)" id="Oval" fill="#000000" stroke="none"/>
    <path d="M2.06671 4.13342C3.20812 4.13342 4.13341 3.20812 4.13341 2.06671C4.13341 0.925297 3.20812 0 2.06671 0C0.925296 0 0 0.925297 0 2.06671C0 3.20812 0.925296 4.13342 2.06671 4.13342Z" transform="translate(26.86646 17.56659)" id="Oval" fill="#000000" stroke="none"/>
  </g>
</svg>