<?xml version="1.0" encoding="UTF-8"?>
<svg width="46px" height="62px" viewBox="0 0 46 62" version="1.1" xmlns:xlink="http://www.w3.org/1999/xlink" xmlns="http://www.w3.org/2000/svg">
  <desc>Created with Lunacy</desc>
  <g id="022-man-4">
    <path d="M12.3995 0L0 0L0 1.03328L0 5.16641L0 25.8322L12.3995 25.8322L12.3995 5.16641L12.3995 0Z" transform="translate(16.53271 36.16776)" id="Path" fill="#FEDAC6" stroke="none"/>
    <g id="Group" transform="translate(1.033447 41.33414)">
      <path d="M7.17097 1.10557C3.0657 1.65424 0 5.15708 0 9.29953L0 20.6656L15.4993 20.6656L15.4993 0L7.17097 1.10557Z" id="Path" fill="#DE4C3C" stroke="none"/>
      <path d="M15.4992 9.29953C15.4992 5.15708 12.4334 1.65424 8.32825 1.10557L0 0L0 20.6657L15.4993 20.6657L15.4993 9.29953L15.4992 9.29953Z" transform="translate(27.89869 0.0001228498)" id="Path" fill="#DE4C3C" stroke="none"/>
    </g>
    <path d="M0 0L0 15.7679L12.3995 15.7679L12.3995 0C8.85319 3.11631 3.54631 3.11631 0 0Z" transform="translate(16.53271 46.23196)" id="Path" fill="#EBEBEB" stroke="none"/>
    <path d="M12.3995 0L0 0L0 10.0642C3.54619 13.1796 8.85319 13.1796 12.3995 10.0642L12.3995 0Z" transform="translate(16.53271 36.16776)" id="Path" fill="#FEDAC6" stroke="none"/>
    <path d="M4.13313 2.06656C2.60494 1.7338 1.18416 1.02299 0 0L0 15.7369L4.13313 15.7369L4.13313 2.06656Z" transform="translate(16.53271 46.26297)" id="Path" fill="#DBDBDB" stroke="none"/>
    <path d="M12.3995 4.13313L12.3995 0L0 0L0 4.13313C4.64983 6.19969 7.74967 6.19969 12.3995 4.13313Z" transform="translate(16.53271 36.16776)" id="Path" fill="#F5C4B0" stroke="none"/>
    <path d="M11.1698 2.65427e-07C6.03331 -0.00108957 1.50033 3.35402 0 8.26625L22.319 8.26625C20.8239 3.35922 16.3001 0.00520724 11.1698 2.65427e-07Z" transform="translate(11.87256 2.069214)" id="Path" fill="#A15D30" stroke="none"/>
    <path d="M0.506403 0C0.00423283 1.63463 -0.127031 3.36128 0.124114 5.05282L0.279113 6.19981L0.279113 16.5326C0.279113 22.8098 5.36802 27.8988 11.6453 27.8988C17.9226 27.8988 23.0115 22.8099 23.0115 16.5326L23.0115 6.19981L23.0942 5.84852C23.5117 3.90898 23.4187 1.89413 22.8255 0.000121092C22.8254 0 0.506403 0 0.506403 0Z" transform="translate(11.36621 10.33554)" id="Path" fill="#FEDAC6" stroke="none"/>
    <g id="Group" transform="translate(11.08301 3.099487)">
      <path d="M3.90584 7.23613L3.90584 8.26941L18.3719 8.26941L18.3719 8.26941L22.319 8.26941C20.4415 2.10581 13.9236 -1.36809 7.75996 0.509448C4.04219 1.6419 1.13246 4.55163 0 8.26941L3.90584 8.26941L3.90584 7.23613Z" transform="translate(0.5103182 0)" id="Path" fill="#A15D30" stroke="none"/>
      <path d="M4.41612 0L0.510288 0C0.0090862 1.63463 -0.125205 3.36019 0.117585 5.05282L0.282876 6.19981C0.282997 6.19969 4.41612 4.13313 4.41612 0Z" transform="translate(0 8.269386)" id="Path" fill="#A15D30" stroke="none"/>
      <path d="M3.94713 0L0 0C0 4.13313 4.13313 6.19969 4.13313 6.19969L4.20542 5.8484C4.6198 3.90886 4.53092 1.89607 3.94713 0Z" transform="translate(18.88226 8.269385)" id="Path" fill="#A15D30" stroke="none"/>
    </g>
    <path d="M4.13313 15.1272L4.13313 0C4.13313 4.13313 2.68734e-07 6.19969 2.68734e-07 6.19969L2.68734e-07 16.5325C-0.00108956 21.5687 3.31272 26.0057 8.14225 27.4337L5.5694 21.761C4.62185 19.6779 4.13216 17.416 4.13313 15.1272Z" transform="translate(11.36621 11.36884)" id="Path" fill="#F5C4B0" stroke="none"/>
    <path d="M1.03328 0L0 0L0 6.19969L1.03328 6.19969C2.74541 6.19969 4.13313 4.81197 4.13313 3.09984C4.13313 1.38772 2.74541 0 1.03328 0Z" transform="translate(34.09863 17.56851)" id="Path" fill="#FEDAC6" stroke="none"/>
    <path d="M0 3.09984C0 4.81197 1.38772 6.19969 3.09984 6.19969L4.13312 6.19969L4.13312 0L3.09984 0C1.38772 3.44165e-15 0 1.38772 0 3.09984Z" transform="translate(7.23291 17.56851)" id="Path" fill="#F5C4B0" stroke="none"/>
    <g id="Group" transform="translate(15.55078 3.100433)">
      <path d="M0 0L2.06656 0L2.06656 8.26625L0 8.26625L0 0Z" transform="translate(6.146973 0)" id="Rectangle" fill="#91542B" stroke="none"/>
      <path d="M0.0655718 0.020772L2.06661 0L2.00104 6.51497L0 6.53574L0.0655718 0.020772Z" transform="matrix(-0.9486933 0.3161977 -0.3161977 -0.9486933 4.0271 7.944214)" id="Rectangle" fill="#91542B" stroke="none"/>
      <path d="M0.0277658 0.0912199L6.93098 0L6.90321 1.97531L0 2.06653L0.0277658 0.0912199Z" transform="matrix(-0.4472135 0.8944272 -0.8944272 -0.4472135 15.33789 2.530975)" id="Rectangle" fill="#91542B" stroke="none"/>
    </g>
    <path d="M19.2396 6.98497C18.9844 7.49538 18.3634 7.70208 17.853 7.44585C17.7456 7.39208 17.6484 7.31979 17.5658 7.23297C16.2246 5.90422 14.4112 5.1612 12.5234 5.16641L10.2605 5.16641C8.32316 5.16847 6.46524 5.93728 5.09411 7.30526C4.69221 7.71031 4.03807 7.71346 3.63301 7.31253C3.56581 7.24641 3.50793 7.17097 3.46155 7.08826L0 0.836869L0 8.26625C0 14.5434 5.08891 19.6325 11.3662 19.6325C17.6435 19.6325 22.7324 14.5436 22.7324 8.26625L22.7324 0L19.2396 6.98497Z" transform="translate(11.36646 19.6351)" id="Path" fill="#A15D30" stroke="none"/>
    <g id="Group" transform="translate(11.36646 1.035919)">
      <path d="M4.13313 6.7371C3.85098 6.67619 3.60819 6.50048 3.46155 6.25139L0 0L0 7.42938C0.00411714 11.8002 2.51497 15.7815 6.4581 17.6693C4.93706 14.895 4.13736 11.7817 4.13325 8.61778L4.13325 6.7371L4.13313 6.7371Z" transform="translate(0 19.43606)" id="Path" fill="#8F4F24" stroke="none"/>
      <path d="M3.57513 1.37943e-06C2.09962 0.00109121 0.737695 0.789403 0 2.06656L6.3134 7.23297C8.02552 5.72331 8.18875 3.11123 6.67922 1.39898C5.89381 0.508347 4.76341 -0.00096736 3.57513 1.37943e-06Z" transform="translate(15.02404 0)" id="Path" fill="#8F4F24" stroke="none"/>
    </g>
    <g id="Group" transform="translate(1.033203 42.36539)">
      <path d="M0 0L6.19969 0L6.19969 19.6325L0 19.6325L0 0Z" transform="translate(9.2985 0)" id="Rectangle" fill="#AD3228" stroke="none"/>
      <path d="M4.13325 18.5992L0 18.5992L0 4.13313L4.13325 0L4.13325 18.5992Z" transform="translate(0 1.035347)" id="Path" fill="#AD3228" stroke="none"/>
      <path d="M0 0L5.16641 0L5.16641 5.16641L0 5.16641L0 0Z" transform="translate(4.132176 6.199675)" id="Rectangle" fill="#AD3228" stroke="none"/>
    </g>
    <g id="Group" transform="translate(1.032227 48.56509)">
      <path d="M0 0L5.16641 0L5.16641 5.16641L0 5.16641L0 0Z" transform="translate(9.29948 0)" id="Rectangle" fill="#7D241D" stroke="none"/>
      <path d="M0 0L4.13313 0L4.13313 5.16641L0 5.16641L0 0Z" id="Rectangle" fill="#7D241D" stroke="none"/>
      <path d="M0 0L5.16641 0L5.16641 3.09984L0 3.09984L0 0Z" transform="translate(9.361644 10.33292)" id="Rectangle" fill="#7D241D" stroke="none"/>
    </g>
    <g id="Group" transform="translate(28.93091 42.36539)">
      <path d="M0 0L6.19969 0L6.19969 19.6325L0 19.6325L0 0Z" id="Rectangle" fill="#AD3228" stroke="none"/>
      <path d="M0 18.5992L4.13325 18.5992L4.13325 4.13313L0 0L0 18.5992Z" transform="translate(11.36705 1.035347)" id="Path" fill="#AD3228" stroke="none"/>
      <path d="M0 0L5.16641 0L5.16641 5.16641L0 5.16641L0 0Z" transform="translate(6.199738 6.199674)" id="Rectangle" fill="#AD3228" stroke="none"/>
    </g>
    <g id="Group" transform="translate(1.032227 48.56509)">
      <path d="M0 0L5.1664 0L5.1664 5.16641L0 5.16641L0 0Z" transform="translate(28.9321 0)" id="Rectangle" fill="#7D241D" stroke="none"/>
      <path d="M0 0L4.13313 0L4.13313 5.16641L0 5.16641L0 0Z" transform="translate(39.265 0)" id="Rectangle" fill="#7D241D" stroke="none"/>
      <path d="M0 0L5.16641 0L5.16641 3.09984L0 3.09984L0 0Z" transform="translate(28.87117 10.33293)" id="Rectangle" fill="#7D241D" stroke="none"/>
      <path d="M0 0L4.13313 0L4.13313 3.09985L0 3.09985L0 0Z" transform="translate(0 10.33292)" id="Rectangle" fill="#7D241D" stroke="none"/>
    </g>
    <path d="M0 0L5.16641 0L5.16641 3.09985L0 3.09985L0 0Z" transform="translate(5.165283 58.89798)" id="Rectangle" fill="#AD3228" stroke="none"/>
    <path d="M0 0L4.13313 0L4.13313 3.09985L0 3.09985L0 0Z" transform="translate(40.29712 58.89798)" id="Rectangle" fill="#7D241D" stroke="none"/>
    <path d="M0 0L5.16641 0L5.16641 3.09985L0 3.09985L0 0Z" transform="translate(35.13062 58.89798)" id="Rectangle" fill="#AD3228" stroke="none"/>
    <path d="M0.927931 7.12351L0.0031484 5.27491L0.464995 6.19969L0 5.27697C0.0362066 5.25832 3.56484 3.42631 3.56484 0L5.6314 0C5.63249 4.71704 1.1201 7.02736 0.927931 7.12351Z" transform="translate(10.8999 11.36981)" id="Path" fill="#000000" stroke="none"/>
    <path d="M4.70456 7.12447C4.51239 7.02832 0 4.718 0 0L2.06656 0C2.06656 3.42643 5.5952 5.25844 5.6314 5.27697L4.70456 7.12447Z" transform="translate(28.93188 11.36884)" id="Path" fill="#000000" stroke="none"/>
    <path d="M0 0L20.6658 0L20.6658 2.06656L0 2.06656L0 0Z" transform="translate(12.39819 10.3335)" id="Rectangle" fill="#000000" stroke="none"/>
    <path d="M7.89316 9.04289L6.52506 7.49497C6.77718 7.2718 6.99006 7.01036 7.1585 6.71901C8.01305 5.23938 7.5047 3.33908 6.02398 2.48465C4.54326 1.63119 2.64405 2.13845 1.78962 3.61916L0 2.58588C0.690226 1.39034 1.80416 0.535789 3.13702 0.178325C4.47097 -0.17914 5.8639 0.00467807 7.05726 0.695026C9.52476 2.11992 10.372 5.28588 8.94824 7.75338C8.66815 8.23896 8.31263 8.67296 7.89316 9.04289Z" transform="translate(25.49561 0)" id="Path" fill="#000000" stroke="none"/>
    <path d="M2.06656 4.13313C3.20789 4.13313 4.13312 3.20789 4.13312 2.06656C4.13312 0.925232 3.20789 0 2.06656 0C0.925231 0 0 0.925232 0 2.06656C0 3.20789 0.925231 4.13313 2.06656 4.13313Z" transform="translate(14.46509 17.56647)" id="Oval" fill="#000000" stroke="none"/>
    <path d="M2.06656 4.13313C3.20789 4.13313 4.13312 3.20789 4.13312 2.06656C4.13312 0.925232 3.20789 0 2.06656 0C0.925231 0 0 0.925232 0 2.06656C0 3.20789 0.925231 4.13313 2.06656 4.13313Z" transform="translate(26.86426 17.56647)" id="Oval" fill="#000000" stroke="none"/>
    <path d="M4.13298 7.56052L1.03313 7.56052C0.701461 7.56052 0.389406 7.40141 0.195174 7.13065C0.000941805 6.86097 -0.0517334 6.51477 0.0525272 6.19969L2.11909 0L4.07921 0.65402L2.46517 5.49396L4.13189 5.49396L4.13189 7.56052L4.13298 7.56052Z" transform="translate(19.63257 18.27429)" id="Path" fill="#000000" stroke="none"/>
    <path d="M0.175705 3.83136L0 3.83136L0 1.7648L0.175705 1.7648C1.78454 1.76371 3.29723 1.13754 4.43598 0L5.89708 1.46207C4.36768 2.98917 2.33624 3.83027 0.175705 3.83136Z" transform="translate(20.66675 27.16995)" id="Path" fill="#000000" stroke="none"/>
    <path d="M1.03328 8.26625L0 8.26625L0 6.19969L1.03328 6.19969C2.173 6.19969 3.09985 5.27285 3.09985 4.13313C3.09985 2.9934 2.173 2.06656 1.03328 2.06656L0 2.06656L0 0L1.03328 0C3.31273 0 5.16641 1.85368 5.16641 4.13313C5.16641 6.41257 3.31273 8.26625 1.03328 8.26625Z" transform="translate(34.09863 16.53525)" id="Path" fill="#000000" stroke="none"/>
    <path d="M5.16641 8.26625L4.13313 8.26625C1.85368 8.26625 0 6.41257 0 4.13313C0 1.85368 1.85368 0 4.13313 0L5.16641 0L5.16641 2.06656L4.13313 2.06656C2.9934 2.06656 2.06656 2.9934 2.06656 4.13313C2.06656 5.27285 2.9934 6.19969 4.13313 6.19969L5.16641 6.19969L5.16641 8.26625Z" transform="translate(6.199707 16.53525)" id="Path" fill="#000000" stroke="none"/>
    <path d="M5.2605 9.11051C5.07656 9.11051 4.89165 9.08568 4.70868 9.03507C4.17648 8.8883 3.73328 8.54222 3.46046 8.0627L0 2.01074L1.79374 0.985692L5.25529 7.0408C6.83724 5.46708 8.93069 4.60018 11.1564 4.59812L13.4399 4.59812C15.6088 4.59812 17.6496 5.43814 19.1892 6.96439L22.7054 0L24.5498 0.930958L21.0367 7.89535C20.9385 8.09067 20.8094 8.27049 20.6533 8.42646C20.2648 8.81601 19.7461 9.03192 19.1942 9.03301C19.1931 9.03301 19.1922 9.03301 19.1911 9.03301C18.6404 9.03301 18.1216 8.81916 17.732 8.43057C16.5851 7.294 15.0589 6.66577 13.4398 6.66577L11.1572 6.66577C9.48226 6.66686 7.90649 7.31979 6.72027 8.50299C6.59215 8.63219 6.44236 8.74687 6.27901 8.84083C5.96307 9.01848 5.61384 9.11051 5.2605 9.11051Z" transform="translate(10.46826 19.1712)" id="Path" fill="#000000" stroke="none"/>
    <path d="M0.281096 25.8323C0.281096 32.6696 5.84335 38.2318 12.6806 38.2318C19.5178 38.2318 25.08 32.6696 25.0808 25.8313L25.0808 15.6048L25.1305 15.3651C26.5988 8.51849 22.2259 1.75258 15.3794 0.283241C14.4918 0.0920361 13.5608 -0.00399015 12.6784 0.000126992C5.66971 0.0176854 -0.0175179 5.73288 4.05474e-05 12.7416C0.00100929 13.3265 0.0433916 13.9174 0.126098 14.4982L0.126098 14.5002L0.281096 15.5738L0.281096 25.8323ZM2.33739 15.3517L2.1721 14.2079C2.10295 13.7212 2.06784 13.2262 2.0676 12.7344C2.05306 6.86641 6.81551 2.08012 12.6846 2.06571C13.4213 2.0605 14.2035 2.1432 14.9454 2.30232C20.6771 3.53407 24.339 9.19853 23.1074 14.9384L23.0351 15.2897C23.0207 15.359 23.0134 15.4292 23.0134 15.4995L23.0134 25.8323C23.0134 31.5308 18.378 36.1651 12.6805 36.1651C6.98298 36.1651 2.34768 31.5298 2.34768 25.8323L2.34768 15.4995C2.34768 15.4499 2.34466 15.4003 2.33739 15.3517Z" transform="translate(10.05151 2.069061)" id="Shape" fill="#000000" fill-rule="evenodd" stroke="none"/>
    <path d="M2.06668 24.7988L0 24.7988L0 13.4327C0 8.79324 3.46772 4.8305 8.0679 4.21474L15.4993 3.22796L15.4993 0L17.5659 0L17.5659 4.13313C17.5659 4.65079 17.1825 5.08891 16.669 5.15708L8.34072 6.26266C4.7645 6.74109 2.06656 9.82229 2.06656 13.4316L2.06668 24.7988L2.06668 24.7988Z" transform="translate(0 37.20111)" id="Path" fill="#000000" stroke="none"/>
    <path d="M17.5659 24.7979L15.4993 24.7979L15.4993 13.4318C15.4993 9.82253 12.8025 6.74024 9.22421 6.2629L0.896931 5.15732C0.383378 5.08915 0 4.65104 0 4.13337L0 0L2.06656 0L2.06656 3.22796L9.49691 4.21474C14.0971 4.82953 17.5659 8.79324 17.5659 13.4327L17.5659 24.7979Z" transform="translate(27.89868 37.20197)" id="Path" fill="#000000" stroke="none"/>
    <path d="M6.8858 4.14451C6.88265 4.14451 6.87962 4.14451 6.87647 4.14451C4.34601 4.14451 1.90321 3.22384 0 1.55204L1.36289 0C2.88902 1.34013 4.84709 2.07795 6.87647 2.07795C6.87853 2.07795 6.88168 2.07795 6.88374 2.07795C8.91519 2.07795 10.8723 1.34013 12.3984 0L13.7624 1.55204C11.86 3.22396 9.41736 4.14451 6.8858 4.14451Z" transform="translate(15.85059 45.4559)" id="Path" fill="#000000" stroke="none"/>
    <path d="M0 0L2.06656 0L2.06656 20.6657L0 20.6657L0 0Z" transform="translate(15.49805 41.33209)" id="Rectangle" fill="#000000" stroke="none"/>
    <path d="M0 0L2.06656 0L2.06656 20.6657L0 20.6657L0 0Z" transform="translate(27.89771 41.33209)" id="Rectangle" fill="#000000" stroke="none"/>
    <path d="M7.23324 12.6712L1.03355 12.6712C0.7112 12.6712 0.408469 12.5204 0.212057 12.2652C0.0167352 12.009 -0.0482914 11.6762 0.0363522 11.3662L3.1362 0L5.13047 0.542494L2.38603 10.6036L7.23324 10.6036L7.23324 12.6712L7.23324 12.6712Z" transform="translate(9.299316 41.06241)" id="Path" fill="#000000" stroke="none"/>
    <path d="M6.19969 12.6701L0 12.6701L0 10.6036L4.84612 10.6036L2.10277 0.542494L4.09704 0L7.19689 11.3662C7.28165 11.6762 7.21759 12.009 7.02118 12.2652C6.82586 12.5193 6.52204 12.6701 6.19969 12.6701Z" transform="translate(28.93188 41.06348)" id="Path" fill="#000000" stroke="none"/>
    <path d="M0 1.54998C0 2.40453 0.695434 3.09996 1.54998 3.09996C2.40441 3.09996 3.09984 2.40453 3.09997 1.54998C3.09997 0.695433 2.40453 0 1.54998 0C0.695434 0 0 0.695433 0 1.54998ZM1.03317 1.55011C1.03317 1.26591 1.2647 1.03341 1.54987 1.03341C1.83504 1.03341 2.06645 1.26591 2.06657 1.55011C2.06657 1.83432 1.83504 2.06681 1.54987 2.06681C1.26457 2.06681 1.03317 1.83432 1.03317 1.55011Z" transform="translate(11.36621 55.80011)" id="Shape" fill="#000000" fill-rule="evenodd" stroke="none"/>
  </g>
</svg>