<?xml version="1.0" encoding="UTF-8"?>
<svg width="46px" height="62px" viewBox="0 0 46 62" version="1.1" xmlns:xlink="http://www.w3.org/1999/xlink" xmlns="http://www.w3.org/2000/svg">
  <desc>Created with Lunacy</desc>
  <g id="027-boy-6">
    <path d="M1.02516 0L0 0L0 6.15121L1.02516 6.15121C2.7239 6.15121 4.10077 4.77434 4.10077 3.0756C4.10077 1.37687 2.72281 0 1.02516 0Z" transform="translate(32.87326 18.45399)" id="Path" fill="#FEDAC6" stroke="none"/>
    <path d="M0 3.0756C0 4.77434 1.37687 6.15121 3.0756 6.15121L4.10077 6.15121L4.10077 0L3.0756 0C1.37687 -0.000120324 0 1.37675 0 3.0756Z" transform="translate(8.26807 18.45411)" id="Path" fill="#F5C4B0" stroke="none"/>
    <path d="M24.6782 17.4286L25.888 11.2055C26.2847 8.84346 24.6905 6.60748 22.3284 6.21077C22.0885 6.17082 21.8455 6.15133 21.6026 6.15133L21.6026 6.15133C20.9896 4.31615 19.2723 3.07777 17.3377 3.07572L5.19919 3.07572L3.14875 0L2.12358 1.02516C-0.707039 3.85579 -0.708002 8.44459 2.12154 11.2752C2.12262 11.2763 2.12262 11.2773 2.12358 11.2773L20.5773 11.2773L24.6782 17.4286Z" transform="translate(9.22021 1.025402)" id="Path" fill="#FECB66" stroke="none"/>
    <path d="M35.9439 1.02516L28.5112 0L21.5295 4.02905L14.5478 0.0410305L7.115 1.06619C3.05719 1.60849 0.0205754 5.06047 0 9.1551L0 20.4325L43.0589 20.4325L43.0589 9.1551C43.0589 5.04603 40.0171 1.56963 35.9439 1.02516Z" transform="translate(1.09158 41.08045)" id="Path" fill="#DBDBDB" stroke="none"/>
    <path d="M13.9634 7.28923L13.1329 7.17637L13.1329 0L0.830477 0L0.830477 7.17637L0 7.28923L6.98169 11.2773L13.9634 7.28923Z" transform="translate(15.63937 33.83225)" id="Path" fill="#FEDAC6" stroke="none"/>
    <g id="Group" transform="translate(14.31857 40.91019)">
      <path d="M2.05044 8.20177L8.20165 4.10089L2.05044 0L0 0L2.05044 8.20177Z" transform="translate(0.1008316 0.09842511)" id="Path" fill="#EAEAEA" stroke="none"/>
      <path d="M0 4.10089L6.15121 8.20177L8.20165 0L6.15121 0L0 4.10089Z" transform="translate(8.302483 0.09842511)" id="Path" fill="#EAEAEA" stroke="none"/>
    </g>
    <path d="M0 16.4034L1.02516 5.12605L0 2.05044L3.0756 0L6.15121 2.05044L5.12605 5.12605L6.15121 16.4034" transform="translate(19.54545 45.1095)" id="Path" fill="#2E6AA3" stroke="none"/>
    <path d="M12.3024 5.67966L12.3024 0L0 0L0 5.67966C4.61335 7.67872 7.68907 7.67872 12.3024 5.67966Z" transform="translate(16.46984 33.83225)" id="Path" fill="#F5C4B0" stroke="none"/>
    <path d="M0 7.09443L0 18.3718L4.10089 18.3718L4.10089 0C1.56554 1.46398 0.00204551 4.16742 0 7.09443Z" transform="translate(1.09158 43.14112)" id="Path" fill="#BFBFBF" stroke="none"/>
    <path d="M22.5548 6.15133L22.5548 11.995C22.5537 14.8871 21.8166 17.73 20.412 20.2582L20.412 20.2582C18.5687 23.5749 15.0717 25.6313 11.2774 25.6304L11.2774 25.6304C7.48308 25.6314 3.9861 23.5749 2.14273 20.2582L2.14273 20.2582C0.738188 17.7301 0.00108292 14.8872 0 11.995L0 0L18.4537 0L22.5548 6.15133Z" transform="translate(11.34367 12.30266)" id="Path" fill="#FEDAC6" stroke="none"/>
    <path d="M4.10089 0L0 0L0 11.995C0.00108292 14.8871 0.738188 17.73 2.14273 20.2582C3.16789 22.0934 4.72729 23.5738 6.61265 24.5027C3.07572 14.353 4.10089 0 4.10089 0Z" transform="translate(11.34367 12.30278)" id="Path" fill="#F5C4B0" stroke="none"/>
    <path d="M0.211956 0C-0.397005 2.45942 0.326745 5.05734 2.11885 6.84837L18.5223 6.84837C6.87575 6.84837 2.11873 2.74748 0.211956 0Z" transform="translate(9.224943 5.454412)" id="Path" fill="#F5AD76" stroke="none"/>
    <path d="M1.02516 8.20177L0 8.20177L0 6.15133L1.02516 6.15133C2.15597 6.15133 3.07561 5.23169 3.07561 4.10089C3.07561 2.97008 2.15597 2.05044 1.02516 2.05044L0 2.05044L0 0L1.02516 0C3.28677 0 5.12605 1.83927 5.12605 4.10089C5.12605 6.3625 3.28677 8.20177 1.02516 8.20177Z" transform="translate(32.87326 17.42871)" id="Path" fill="#000000" stroke="none"/>
    <path d="M5.12605 8.20177L4.10089 8.20177C1.83927 8.20177 0 6.3625 0 4.10089C0 1.83927 1.83927 0 4.10089 0L5.12605 0L5.12605 2.05044L4.10089 2.05044C2.97008 2.05044 2.05044 2.97008 2.05044 4.10089C2.05044 5.23169 2.97008 6.15133 4.10089 6.15133L5.12605 6.15133L5.12605 8.20177Z" transform="translate(7.242909 17.42871)" id="Path" fill="#000000" stroke="none"/>
    <path d="M4.10065 8.48357L1.02505 8.48357C0.70318 8.48357 0.400685 8.33281 0.206963 8.07555C0.0132413 7.81818 -0.0493272 7.48609 0.0398329 7.17649L2.09028 0L4.06179 0.563839L2.38351 6.43313L4.09969 6.43313L4.09969 8.48357L4.10065 8.48357Z" transform="translate(19.54556 19.19735)" id="Path" fill="#000000" stroke="none"/>
    <path d="M12.2994 27.6806L12.3055 27.6806C16.4689 27.6806 20.3114 25.4199 22.3331 21.7806C23.8176 19.1069 24.6039 16.0773 24.605 13.0202L24.605 7.17649C24.605 6.9735 24.5446 6.77557 24.4328 6.60748L20.3319 0.456269C20.1412 0.171221 19.8213 0 19.4789 0L1.02516 0C0.459277 0 0 0.459277 0 1.02516L0 13.0211C0.000962593 16.0782 0.786318 19.1077 2.27184 21.7805C4.29461 25.421 8.13704 27.6806 12.2994 27.6806ZM12.3045 25.6301L12.3003 25.6301C8.88124 25.6301 5.72562 23.7746 4.06479 20.785C2.74844 18.4157 2.05237 15.7307 2.05129 13.02L2.05129 2.05032L18.9303 2.05032L22.5545 7.48596L22.5545 13.0191C22.5535 15.7297 21.8574 18.4148 20.541 20.785C18.8802 23.7735 15.7246 25.6301 12.3045 25.6301Z" transform="translate(10.31755 11.27774)" id="Shape" fill="#000000" fill-rule="evenodd" stroke="none"/>
    <path d="M1.19951 3.80152L0 3.80152L0 1.75108L1.19951 1.75108C2.79573 1.74999 4.29665 1.12876 5.4265 0L6.87616 1.45063C5.35875 2.96599 3.34321 3.80044 1.19951 3.80152Z" transform="translate(20.57061 27.98029)" id="Path" fill="#000000" stroke="none"/>
    <path d="M2.05044 4.10089C3.18287 4.10089 4.10089 3.18287 4.10089 2.05044C4.10089 0.918014 3.18287 0 2.05044 0C0.918015 0 0 0.918014 0 2.05044C0 3.18287 0.918015 4.10089 2.05044 4.10089Z" transform="translate(14.42349 18.45399)" id="Oval" fill="#000000" stroke="none"/>
    <path d="M2.05044 4.10089C3.18287 4.10089 4.10089 3.18287 4.10089 2.05044C4.10089 0.918014 3.18287 0 2.05044 0C0.918014 0 0 0.918014 0 2.05044C0 3.18287 0.918014 4.10089 2.05044 4.10089Z" transform="translate(26.72603 18.45399)" id="Oval" fill="#000000" stroke="none"/>
    <path d="M26.711 19.6482L24.6883 19.3109L25.898 12.0627C26.0446 11.1892 25.8427 10.3116 25.329 9.59195C24.8153 8.87229 24.0526 8.39448 23.1801 8.24793C22.9976 8.21712 22.7905 8.19462 22.6254 8.2028C22.6244 8.2028 22.6244 8.2028 22.6234 8.2028C22.1825 8.2028 21.7899 7.92089 21.6515 7.50264C21.1769 6.08269 19.8533 5.12828 18.3575 5.12624L6.22118 5.12624C5.87873 5.12624 5.55891 4.95502 5.3682 4.66997L4.01082 2.63493L3.86932 2.77535C2.69448 3.95019 2.04653 5.51368 2.04653 7.1756C2.04653 8.83848 2.69339 10.4009 3.86836 11.5759L2.41978 13.0276C-0.806593 9.80023 -0.806593 4.55109 2.41978 1.3258L3.44494 0.30064C3.66224 0.0842969 3.9657 -0.0264013 4.2712 0.0053643C4.57671 0.0350844 4.85249 0.201132 5.02263 0.456459L6.76961 3.07592L18.3596 3.07592C20.5012 3.07796 22.4194 4.30719 23.3319 6.19664C23.3954 6.20482 23.4569 6.21409 23.5205 6.22432C24.9343 6.46111 26.1697 7.2342 27.0011 8.40086C27.8326 9.56752 28.1596 10.9875 27.9217 12.4002L26.711 19.6482Z" transform="translate(8.198222 0.0002909308)" id="Path" fill="#000000" stroke="none"/>
    <path d="M2.05044 25.6304L0 25.6304L0 14.353C0 9.74974 3.44055 5.81815 8.0048 5.20703L15.3781 4.22795L15.3781 0L17.4286 0L17.4286 5.12605C17.4286 5.63971 17.0482 6.07432 16.5387 6.14206L8.27553 7.23906C4.72729 7.71374 2.05044 10.7709 2.05044 14.352L2.05044 25.6304Z" transform="translate(0.0664189 35.88257)" id="Path" fill="#000000" stroke="none"/>
    <path d="M17.4286 25.6294L15.3781 25.6294L15.3781 14.352C15.3781 10.7709 12.7024 7.71277 9.15209 7.23906L0.889917 6.14206C0.380344 6.07444 0 5.63971 0 5.12605L0 0L2.05044 0L2.05044 4.22795L9.4227 5.20703C13.987 5.81707 17.4286 9.74974 17.4286 14.353L17.4286 25.6294L17.4286 25.6294Z" transform="translate(27.7471 35.88353)" id="Path" fill="#000000" stroke="none"/>
    <path d="M0 0L2.05044 0L2.05044 8.20165L0 8.20165L0 0Z" transform="translate(8.272161 53.31115)" id="Rectangle" fill="#000000" stroke="none"/>
    <path d="M0 0L2.05044 0L2.05044 8.20165L0 8.20165L0 0Z" transform="translate(34.92768 53.31115)" id="Rectangle" fill="#000000" stroke="none"/>
    <path d="M3.04492 9.47396C2.9199 9.47396 2.79477 9.45146 2.6748 9.40525C2.36413 9.28529 2.13142 9.02082 2.05044 8.69787L0 0.496217L1.98896 0L3.68673 6.79001L8.62724 3.49602L9.76418 5.20197L3.61297 9.30286C3.44259 9.41656 3.2437 9.47396 3.04492 9.47396Z" transform="translate(13.42492 40.76159)" id="Path" fill="#000000" stroke="none"/>
    <path d="M7.68498 6.01596C7.50967 6.01596 7.33436 5.97084 7.17649 5.8806L0 1.77971L1.01698 0L7.68498 3.81066L14.353 0L15.37 1.77971L8.19347 5.8806C8.0356 5.97096 7.86029 6.01596 7.68498 6.01596Z" transform="translate(14.93607 40.1187)" id="Path" fill="#000000" stroke="none"/>
    <path d="M6.72022 9.47504C6.52133 9.47504 6.32243 9.41656 6.15121 9.30286L0 5.20197L1.13694 3.49602L6.07745 6.79001L7.77522 0L9.7631 0.496217L7.71265 8.69787C7.63264 9.02082 7.39897 9.28529 7.08829 9.40525C6.97038 9.45254 6.84536 9.47504 6.72022 9.47504Z" transform="translate(22.05204 40.76051)" id="Path" fill="#000000" stroke="none"/>
    <path d="M2.04226 14.7712L0 14.5846L1.00579 3.52153L0.04825 0.648908L1.99305 0L3.01821 3.0756C3.06225 3.20989 3.0797 3.35247 3.06634 3.49289L2.04226 14.7712Z" transform="translate(18.52426 46.83495)" id="Path" fill="#000000" stroke="none"/>
    <path d="M1.02911 14.7703L0.00394373 3.49289C-0.00832933 3.35139 0.00803475 3.20989 0.0531563 3.0756L1.07832 0L3.02215 0.648908L2.06461 3.52153L3.0704 14.5846L1.02911 14.7703Z" transform="translate(23.6454 46.83591)" id="Path" fill="#000000" stroke="none"/>
    <path d="M0 0L4.10089 0L4.10089 2.05044L0 2.05044L0 0Z" transform="translate(20.5747 49.21039)" id="Rectangle" fill="#000000" stroke="none"/>
  </g>
</svg>