<?xml version="1.0" encoding="UTF-8"?>
<svg width="46px" height="62px" viewBox="0 0 46 62" version="1.1" xmlns:xlink="http://www.w3.org/1999/xlink" xmlns="http://www.w3.org/2000/svg">
  <desc>Created with Lunacy</desc>
  <g id="001-man-13">
    <path d="M27.4723 6.41123L27.1695 6.26504C25.9175 2.52488 22.4154 0.00216583 18.4716 0L1.0653 0L3.15364 6.26504C0.725983 7.47838 -0.510347 10.2339 0.198603 12.8537L2.10947 18.7951L4.19781 18.7951L4.19781 13.5742C4.19781 13.5742 10.4628 13.5742 13.5954 12.5301L22.9929 9.39755L27.1696 16.7068L27.1696 18.7951L29.258 18.7951L30.4901 12.624C30.9954 10.1096 29.7611 7.56814 27.4723 6.41123Z" transform="translate(7.29819 1.044173)" id="Path" fill="#A15D30" stroke="none"/>
    <path d="M3.13698 0C0.714497 1.21648 -0.513411 3.97406 0.202879 6.58871L2.09281 12.5301L4.18115 12.5301L4.18115 7.30921C4.18115 7.30921 6.63492 7.30921 9.23489 7.05857C6.56393 5.34299 4.44647 2.89127 3.13698 0Z" transform="translate(7.31485 7.309207)" id="Path" fill="#8F4F24" stroke="none"/>
    <path d="M38.4148 0.971136L31.1578 0L30.6567 1.15908C28.584 5.97999 22.9956 8.20827 18.1747 6.13557C15.9402 5.1749 14.1599 3.39362 13.1982 1.15908L12.6971 0L5.44009 0.971136C2.32947 1.38457 0.00421134 4.03579 0 7.17348L0 18.3983L43.8551 18.3983L43.8551 7.17348C43.8508 4.03579 41.5254 1.38457 38.4148 0.971136Z" transform="translate(1.05452 43.20766)" id="Path" fill="#FECB66" stroke="none"/>
    <path d="M9.23054 13.5744C13.0292 13.5764 16.4635 11.3128 17.9598 7.82095L18.461 6.66186L17.3124 6.5052C16.2661 6.36839 15.4861 5.47258 15.4955 4.41686L15.4955 0L2.96551 0L2.96551 4.47943C2.97489 5.53503 2.19495 6.43096 1.14861 6.56777L0 6.72443L0.50115 7.88351C2.01639 11.3514 5.44647 13.587 9.23054 13.5744Z" transform="translate(13.75136 36.54568)" id="Path" fill="#FEDAC6" stroke="none"/>
    <path d="M12.7806 5.12677C12.6971 4.90646 12.6542 4.67255 12.6553 4.43767L12.6553 0L0.125257 0L0.125257 4.47943C0.12634 4.71442 0.0835049 4.94821 0 5.16852C4.02424 7.19105 8.76994 7.17541 12.7806 5.12677Z" transform="translate(16.59161 36.54604)" id="Path" fill="#F5C4B0" stroke="none"/>
    <path d="M4.17669 0C1.68009 0.882337 0.00733977 3.24009 0 5.88914L0 17.1139L4.17669 17.1139L4.17669 0Z" transform="translate(1.0544 44.492)" id="Path" fill="#F5AD76" stroke="none"/>
    <path d="M1.04417 0L0 0L0 6.26504L1.04417 6.26504C2.77431 6.26504 4.17669 4.86266 4.17669 3.13252C4.17669 1.40238 2.77431 0 1.04417 0Z" transform="translate(33.42363 18.79498)" id="Path" fill="#FEDAC6" stroke="none"/>
    <path d="M0 3.13252C0 4.86266 1.40238 6.26504 3.13252 6.26504L4.17669 6.26504L4.17669 0L3.13252 0C1.40238 3.41982e-15 0 1.40238 0 3.13252Z" transform="translate(8.363487 18.79498)" id="Path" fill="#F5C4B0" stroke="none"/>
    <path d="M22.951 18.5758C22.9646 20.1107 22.4153 21.5965 21.4057 22.7524L16.8948 27.8584C16.1033 28.7595 14.9621 29.2774 13.7623 29.2785L9.18892 29.2785C7.98917 29.2774 6.84789 28.7595 6.0564 27.8584L1.54557 22.7002C0.535809 21.5443 -0.0133501 20.0585 0.000246559 18.5235L0.000246559 4.17669C0.000246559 4.17669 6.26528 4.17669 9.3978 3.13252L18.7954 0L22.972 7.30921L22.951 18.5758Z" transform="translate(11.51682 10.44172)" id="Path" fill="#FEDAC6" stroke="none"/>
    <path d="M4.17694 0C1.93193 0.177478 0.000246507 0.177478 0.000246507 0.177478L0.000246507 14.5765C-0.0133501 16.1115 0.535929 17.5973 1.54557 18.7532L4.17682 21.6978L4.17682 0L4.17694 0Z" transform="translate(11.49576 14.44082)" id="Path" fill="#F5C4B0" stroke="none"/>
    <g id="Group" transform="translate(11.43079 17.68764)">
      <path d="M0 0L9.39755 0L9.39755 0L9.39755 3.13252C9.39755 4.86266 7.99518 6.26504 6.26504 6.26504L3.13252 6.26504C1.40238 6.26504 3.41982e-15 4.86266 3.41982e-15 3.13252L3.41982e-15 0L0 0Z" transform="translate(0.06521566 0.06317015)" id="Path" fill="#EBEBEB" stroke="none"/>
      <path d="M0 0L9.39755 0L9.39755 0L9.39755 3.13252C9.39755 4.86266 7.99517 6.26504 6.26503 6.26504L3.13252 6.26504C1.40238 6.26504 0 4.86266 0 3.13252L0 0L0 0Z" transform="translate(13.63946 0.06317015)" id="Path" fill="#EBEBEB" stroke="none"/>
    </g>
    <path d="M2.08835 24.0159L2.66219e-06 24.0159L2.66219e-06 12.8328C-0.00312576 9.15005 2.75133 6.028 6.40702 5.57377L14.7499 4.44718C15.2762 4.37932 15.6667 3.93027 15.6626 3.40301L15.6626 0L17.7509 0L17.7509 3.3935C17.7645 4.96602 16.5929 6.31305 15.0246 6.51663L6.67546 7.64431C4.05252 7.97111 2.08534 10.1994 2.08739 12.8317L2.08739 24.0159L2.08835 24.0159Z" transform="translate(0.01022489 37.59009)" id="Path" fill="#000000" stroke="none"/>
    <path d="M17.751 24.0159L15.6627 24.0159L15.6627 12.8328C15.6647 10.2005 13.6976 7.97111 11.0861 7.64539L2.72125 6.51663C1.15812 6.31305 -0.0134795 4.96602 0.000117136 3.38412L0.000117136 0L2.08846 0L2.08846 3.3935C2.08329 3.93015 2.47374 4.37811 2.99691 4.44706L11.3544 5.57474C14.9996 6.02896 17.7541 9.14993 17.7509 12.8338L17.7509 24.0159L17.751 24.0159Z" transform="translate(28.20253 37.59009)" id="Path" fill="#000000" stroke="none"/>
    <path d="M1.04417 8.35338L0 8.35338L0 6.26504L1.04417 6.26504C2.19591 6.26504 3.13252 5.32843 3.13252 4.17669C3.13252 3.02495 2.19591 2.08835 1.04417 2.08835L0 2.08835L0 0L1.04417 0C3.34766 0 5.22086 1.87321 5.22086 4.17669C5.22086 6.48018 3.34754 8.35338 1.04417 8.35338Z" transform="translate(33.42363 17.75081)" id="Path" fill="#000000" stroke="none"/>
    <path d="M5.22086 8.35338L4.17669 8.35338C1.87321 8.35338 0 6.48018 0 4.17669C0 1.87321 1.87321 0 4.17669 0L5.22086 0L5.22086 2.08835L4.17669 2.08835C3.02495 2.08835 2.08835 3.02495 2.08835 4.17669C2.08835 5.32843 3.02495 6.26504 4.17669 6.26504L5.22086 6.26504L5.22086 8.35338Z" transform="translate(7.319315 17.75081)" id="Path" fill="#000000" stroke="none"/>
    <path d="M10.3623 8.76465C10.3581 8.76465 10.354 8.76465 10.3509 8.76465C6.13039 8.76465 2.33068 6.25866 0.66828 2.37857L0 0.823859L1.91917 0L2.58745 1.55579C3.92088 4.66641 6.96773 6.67642 10.3518 6.67642C10.355 6.67642 10.3581 6.67642 10.3612 6.67642C13.7453 6.67642 16.7933 4.66641 18.1278 1.55579L18.7961 0L20.7152 0.823859L20.047 2.37965C18.3837 6.25866 14.5818 8.76465 10.3623 8.76465Z" transform="translate(12.62477 42.39956)" id="Path" fill="#000000" stroke="none"/>
    <path d="M5.22099 9.60956L1.0443 9.60956C0.722679 9.60956 0.41886 9.46132 0.220446 9.20756C0.0231143 8.9538 -0.0469144 8.62279 0.0314166 8.31163L2.11976 0L4.14446 0.50849L2.38291 7.5211L5.22099 7.5211L5.22099 9.60956Z" transform="translate(18.80508 17.5388)" id="Path" fill="#000000" stroke="none"/>
    <path d="M1.83988 3.02386L0 3.02386L0 0.93552L1.83771 0.93552C3.20351 0.932391 4.57556 0.60872 5.80143 0L6.72973 1.87116C5.21773 2.62078 3.52718 3.01965 1.83988 3.02386Z" transform="translate(19.84938 28.30119)" id="Path" fill="#000000" stroke="none"/>
    <path d="M10.232 31.3664L14.8076 31.3664C16.306 31.3643 17.7334 30.7169 18.7201 29.5936L23.234 24.4823C24.413 23.1333 25.054 21.4052 25.0384 19.6155L25.0614 8.35516C25.0614 8.17239 25.0143 7.99275 24.9235 7.83512L20.7468 0.525917C20.4994 0.0935924 19.9825 -0.102656 19.5095 0.0529229L10.112 3.18544C7.17785 4.1638 1.10498 4.17631 1.04445 4.17631C0.4681 4.17631 0.000280035 4.64413 0.000280035 5.22048L0.000280035 19.5589C-0.0153621 21.3506 0.624762 23.0809 1.80358 24.432L6.31537 29.5913C7.30419 30.7169 8.73051 31.3644 10.232 31.3664ZM2.08754 19.5672L2.08754 6.24889C4.04642 6.1998 8.27533 5.99838 10.7709 5.1661L19.355 2.30407L22.9699 8.62854L22.949 19.6163L22.949 19.6277C22.9615 20.9069 22.5041 22.1431 21.6657 23.1038L17.1539 28.2119C16.5598 28.8885 15.7025 29.2769 14.8056 29.278L10.2331 29.278C9.33298 29.2769 8.47675 28.8885 7.88476 28.2139L3.37501 23.0578C2.53334 22.093 2.07611 20.8567 2.08754 19.5672Z" transform="translate(10.47357 9.397933)" id="Shape" fill="#000000" fill-rule="evenodd" stroke="none"/>
    <path d="M2.14556 20.1578L0.245164 14.2164C-0.532732 11.3877 0.588689 8.43689 2.92659 6.83934L1.10452 1.37518C0.998031 1.05669 1.0523 0.706904 1.24867 0.43437C1.446 0.160753 1.76137 0 2.09659 0L19.5133 0C23.7652 0.00421134 27.5419 2.62716 29.0455 6.56994C31.6976 7.93357 33.1418 10.9262 32.5456 13.8749L31.3134 20.0438L29.2659 19.6345L30.498 13.4634C30.9136 11.4074 29.8945 9.32331 28.0181 8.3908L27.7206 8.23631C27.4804 8.11105 27.2976 7.89795 27.2121 7.6401C26.1032 4.32276 23.0093 2.09135 19.5124 2.08822L3.54481 2.08822L5.1758 6.9794C5.34077 7.47333 5.11624 8.01214 4.65059 8.24389C2.67294 9.22958 1.66222 11.4902 2.24796 13.6214L4.13584 19.521L2.14556 20.1578Z" transform="translate(6.267017 -0.0001203241)" id="Path" fill="#000000" stroke="none"/>
    <path d="M4.17669 8.35338L7.30921 8.35338C9.61269 8.35338 11.4859 6.48018 11.4859 4.17669L11.4859 1.04417C11.4859 0.46782 11.0181 0 10.4417 0L1.04417 0C0.46782 0 0 0.46782 0 1.04417L0 4.17669C0 6.48018 1.87321 8.35338 4.17669 8.35338ZM2.08835 4.17669L2.08835 2.08835L9.39755 2.08835L9.39755 4.17669C9.39755 5.32843 8.46095 6.26504 7.30921 6.26504L4.17669 6.26504C3.02495 6.26504 2.08835 5.32843 2.08835 4.17669Z" transform="translate(10.45183 16.70664)" id="Shape" fill="#000000" fill-rule="evenodd" stroke="none"/>
    <path d="M4.17669 8.35338L7.30921 8.35338C9.61257 8.35338 11.4859 6.48018 11.4859 4.17669L11.4859 1.04417C11.4859 0.46782 11.0192 0 10.4417 0L1.04417 0C0.46782 0 0 0.46782 0 1.04417L0 4.17669C0 6.48018 1.87321 8.35338 4.17669 8.35338ZM2.08835 4.17669L2.08835 2.08835L9.39755 2.08835L9.39755 4.17669C9.39755 5.32843 8.46095 6.26504 7.30921 6.26504L4.17669 6.26504C3.02495 6.26504 2.08835 5.32843 2.08835 4.17669Z" transform="translate(24.02608 16.70664)" id="Shape" fill="#000000" fill-rule="evenodd" stroke="none"/>
    <path d="M0 0L4.17669 0L4.17669 2.08834L0 2.08834L0 0Z" transform="translate(20.89356 16.70664)" id="Rectangle" fill="#000000" stroke="none"/>
  </g>
</svg>