<?xml version="1.0" encoding="UTF-8"?>
<svg width="46px" height="62px" viewBox="0 0 46 62" version="1.1" xmlns:xlink="http://www.w3.org/1999/xlink" xmlns="http://www.w3.org/2000/svg">
  <desc>Created with Lunacy</desc>
  <g id="006-woman-10">
    <path d="M27.3516 41.3333C29.4052 35.1333 29.4052 17.5667 29.4052 17.5667C29.4052 5.1667 25.2982 0 15.0304 0L15.0304 0C9.56806 0 3.80791 1.6947 1.6825 8.26669C-0.371071 14.4667 -1.3978 29.9666 3.73607 41.3333C6.08636 45.3282 10.4214 47.707 15.0305 47.5333C19.8789 47.5333 24.4428 45.2362 27.3516 41.3333Z" transform="translate(7.558594 1.033294)" id="Path" fill="#A15D30" stroke="none"/>
    <path d="M7.84309 0C4.87783 1.27826 2.62307 3.80779 1.6825 6.91299C-0.371071 13.113 -1.3978 28.6129 3.73607 39.9796C6.03607 43.8825 10.2355 46.2478 14.743 46.1796C8.39755 34.6579 7.84309 9.21727 7.84309 0Z" transform="translate(7.558594 2.386993)" id="Path" fill="#8F4F24" stroke="none"/>
    <path d="M0 0L4.10702 0L4.10702 8.26669L0 8.26669L0 0Z" transform="translate(5.134033 53.73318)" id="Rectangle" fill="#FEDAC6" stroke="none"/>
    <path d="M0 0L4.10702 0L4.10702 8.26669L0 8.26669L0 0Z" transform="translate(1.026855 53.73318)" id="Rectangle" fill="#F5C4B0" stroke="none"/>
    <path d="M0 0L8.21416 0L8.21416 8.26669L0 8.26669L0 0Z" transform="translate(35.93701 53.73318)" id="Rectangle" fill="#FEDAC6" stroke="none"/>
    <path d="M43.1242 7.09898C43.1478 3.95249 40.8263 1.2865 37.7235 0.898998L30.5978 0L30.1459 1.03329C28.1078 5.80413 22.6126 8.00937 17.872 5.95816C15.6748 5.00746 13.9241 3.24458 12.9785 1.03329L12.5266 0L5.40093 0.898998C2.29801 1.2865 -0.023524 3.95249 0.000179888 7.09898L0.000179888 11.9557L8.21434 11.9557L7.99872 12.3897C6.78923 14.8211 6.15981 17.5036 6.16077 20.2224L36.9637 20.2224C36.9648 17.5037 36.3354 14.8211 35.1258 12.3897L34.9102 11.9557L43.1243 11.9557L43.1243 7.09898L43.1242 7.09898Z" transform="translate(1.026855 41.77762)" id="Path" fill="#F288B7" stroke="none"/>
    <path d="M4.10702 0C1.64796 0.875263 0.0030081 3.2137 0 5.83828L0 10.695L4.10702 10.695L4.10702 0L4.10702 0Z" transform="translate(1.026855 43.03821)" id="Path" fill="#ED7BB2" stroke="none"/>
    <path d="M9.03538 14.4667C12.7707 14.4687 16.1477 12.2285 17.6192 8.77298L18.071 7.73969L16.0174 7.4814C14.9844 7.35013 14.2123 6.46252 14.2206 5.4147L14.2206 0L3.90163 0L3.90163 5.40428C3.90981 6.4521 3.13769 7.33972 2.10483 7.47098L0 7.72928L0.451817 8.76257C1.91989 12.2222 5.29799 14.4667 9.03538 14.4667Z" transform="translate(13.55347 34.09995)" id="Path" fill="#FEDAC6" stroke="none"/>
    <path d="M10.2676 5.7247L10.2676 0L0 0L0 5.7247C3.85037 7.7397 6.41724 7.7397 10.2676 5.7247Z" transform="translate(17.45508 34.09995)" id="Path" fill="#F5C4B0" stroke="none"/>
    <g id="Group" transform="translate(11.28369 9.203094)">
      <path d="M2.05357 0L0 0L0 6.19999L2.05357 6.19999C3.75495 6.19999 5.13387 4.81226 5.13387 3.09999C5.13387 1.38773 3.75495 0 2.05357 0Z" transform="translate(21.57291 8.363565)" id="Path" fill="#FEDAC6" stroke="none"/>
      <path d="M22.5888 8.26669C9.24089 5.1667 4.10702 0 4.10702 0L0 9.29998L0.564681 16.5333C0.817241 22.3127 5.54658 26.8665 11.2943 26.8665L11.2943 26.8665C17.0422 26.8665 21.7714 22.3127 22.024 16.5333L22.5888 8.26669Z" transform="translate(0.01094949 0.0968748)" id="Path" fill="#FEDAC6" stroke="none"/>
    </g>
    <path d="M4.10702 0L0 9.29998L0.564681 16.5333C0.811105 22.072 4.10702 24.8 8.21404 25.8332C6.65332 23.8802 6.16047 22.258 5.13375 19.6333C3.90163 16.5333 4.10702 0 4.10702 0Z" transform="translate(11.29468 9.299988)" id="Path" fill="#F5C4B0" stroke="none"/>
    <path d="M1.3451 0C0.465173 1.7412 0.00409102 3.66732 0 5.62128L6.85884 5.62128C3.28569 4.11258 1.87898 1.798 1.3451 0Z" transform="translate(7.1875 56.37863)" id="Path" fill="#ED7BB2" stroke="none"/>
    <path d="M2.05357 4.13341C3.18773 4.13341 4.10714 3.20811 4.10714 2.0667C4.10714 0.925295 3.18773 0 2.05357 0C0.919415 0 0 0.925295 0 2.0667C0 3.20811 0.919415 4.13341 2.05357 4.13341Z" transform="translate(26.69604 17.56656)" id="Oval" fill="#000000" stroke="none"/>
    <path d="M3.78156 5.68643L0.701261 4.65314C0.398405 4.55082 0.15908 4.31214 0.0554809 4.00832C-0.0482384 3.70352 -0.00504208 3.36761 0.172556 3.09999L2.22613 0L3.93461 1.14591L2.62657 3.12058L4.43167 3.72617L3.78156 5.68643Z" transform="translate(18.48291 21.12744)" id="Path" fill="#000000" stroke="none"/>
    <path d="M2.05378 26.8665L0.00021016 26.8665L0.00021016 13.7433C-0.0274644 10.0801 2.68115 6.97087 6.30146 6.51822L15.5424 5.36093C16.0567 5.29578 16.4429 4.85149 16.4397 4.32764L16.4397 0L18.4933 0L18.4933 4.31928C18.5056 5.88369 17.3464 7.21669 15.798 7.41104L6.55607 8.56833C3.9697 8.89177 2.03525 11.1135 2.05474 13.735L2.05474 26.8665L2.05378 26.8665Z" transform="translate(0 35.13333)" id="Path" fill="#000000" stroke="none"/>
    <path d="M18.4922 26.8667L16.4387 26.8667L16.4387 13.795C16.4592 11.1652 14.5237 8.94457 11.9383 8.62004L2.6974 7.46372C1.14703 7.26743 -0.0121765 5.93443 9.65472e-05 4.36373L9.65472e-05 0L2.05367 0L2.05367 4.37099C2.04958 4.9032 2.43558 5.3464 2.95213 5.41264L12.191 6.56896C15.8114 7.02161 18.5199 10.1319 18.4922 13.8022L18.4922 26.8667L18.4922 26.8667Z" transform="translate(26.6958 35.13324)" id="Path" fill="#000000" stroke="none"/>
    <path d="M1.02673 8.26681L0 8.26681L0 6.20011L1.02673 6.20011C2.15922 6.20011 3.0803 5.27326 3.0803 4.13341C3.0803 2.99367 2.15934 2.0667 1.02673 2.0667L0 2.0667L0 0L1.02673 0C3.29183 0 5.13375 1.85382 5.13375 4.13329C5.13375 6.41275 3.29183 8.26681 1.02673 8.26681Z" transform="translate(33.8833 16.53314)" id="Path" fill="#000000" stroke="none"/>
    <path d="M10.1896 8.67381C10.1856 8.67381 10.1815 8.67381 10.1783 8.67381C6.0292 8.67381 2.29169 6.19381 0.65709 2.35394L0 0.815323L1.88716 6.88337e-15L2.54425 1.5397C3.85543 4.61802 6.85258 6.60711 10.1793 6.60711C10.1824 6.60711 10.1854 6.60711 10.1886 6.60711C13.5173 6.60711 16.5145 4.61899 17.8257 1.54067L18.4827 0L20.3699 0.815323L19.7128 2.35503C18.0783 6.19381 14.3399 8.67381 10.1896 8.67381Z" transform="translate(12.40454 40.92609)" id="Path" fill="#000000" stroke="none"/>
    <path d="M0.78343 2.9915C0.782347 2.9915 0.781385 2.9915 0.780302 2.9915L0 2.9915L0 0.924791L0.780302 0.924791C0.781385 0.924791 0.782347 0.924791 0.78343 0.924791C2.12745 0.924791 3.47255 0.605468 4.67483 0L5.59375 1.84861C4.1081 2.59673 2.44474 2.9915 0.78343 2.9915Z" transform="translate(20.5354 26.97516)" id="Path" fill="#000000" stroke="none"/>
    <path d="M3.81519 42.7944C-1.60505 30.7934 -0.223132 14.8449 1.72167 8.97351C3.62014 3.1052 8.57328 0 16.044 0C26.8393 0 31.4454 5.56243 31.4454 18.6L29.3919 18.6C29.3919 6.70216 25.6493 2.0667 16.044 2.0667C9.45526 2.0667 5.29373 4.60761 3.67248 9.6204C1.81408 15.2303 0.499775 30.4606 5.68394 41.9389L3.81519 42.7944Z" transform="translate(6.544922 0)" id="Path" fill="#000000" stroke="none"/>
    <path d="M0.565749 17.6124C0.843938 23.9601 6.00765 28.9335 12.3212 28.9335C18.6358 28.9335 23.7994 23.9612 24.0756 17.6371L24.6403 9.3704C24.6752 8.8641 24.3384 8.40734 23.8467 8.29266C11.0111 5.31255 5.90802 0.350505 5.85977 0.302915C5.62044 0.0621816 5.27957 -0.0453494 4.94591 0.0177403C4.61321 0.0797401 4.33286 0.302915 4.19532 0.614005L0.0883028 9.91398C0.0195978 10.071 -0.0102426 10.2436 0.00311337 10.4152L0.565749 17.6124ZM2.61619 17.4852L2.071 10.5134L5.51684 2.71074C7.62793 4.34647 12.8839 7.74096 22.5314 10.1031L22.0252 17.5214C21.7962 22.7614 17.533 26.8668 12.3212 26.8668C7.10933 26.8668 2.84721 22.7614 2.61619 17.4852Z" transform="translate(10.26782 8.266388)" id="Shape" fill="#000000" fill-rule="evenodd" stroke="none"/>
    <path d="M2.05357 4.13341C3.18773 4.13341 4.10714 3.20811 4.10714 2.0667C4.10714 0.925295 3.18773 0 2.05357 0C0.919415 0 0 0.925295 0 2.0667C0 3.20811 0.919415 4.13341 2.05357 4.13341Z" transform="translate(14.37476 17.56656)" id="Oval" fill="#000000" stroke="none"/>
    <path d="M1.97548 19.9175L0 19.3501C1.98992 12.341 2.01447 0.12291 2.01447 0L4.06804 0C4.06804 0.513558 4.04446 12.6293 1.97548 19.9175Z" transform="translate(33.92236 22.73224)" id="Path" fill="#000000" stroke="none"/>
    <path d="M0 11.3666C0 8.50222 0.672491 5.63363 1.94672 3.07202L2.05345 2.85611L2.05345 0L4.10702 0L4.10702 3.09999C4.10702 3.2602 4.07008 3.41932 3.99921 3.56185L3.78359 3.99584C2.6511 6.27228 2.05345 8.82154 2.05345 11.3666L0 11.3666L0 11.3666Z" transform="translate(6.160645 50.6333)" id="Path" fill="#000000" stroke="none"/>
    <path d="M0 0L8.21416 0L8.21416 2.0667L0 2.0667L0 0Z" transform="translate(1.026855 52.69989)" id="Rectangle" fill="#000000" stroke="none"/>
    <path d="M0 0L8.21416 0L8.21416 2.0667L0 2.0667L0 0Z" transform="translate(35.93701 52.69989)" id="Rectangle" fill="#000000" stroke="none"/>
    <path d="M4.10714 11.3666L2.05357 11.3666C2.05465 8.82142 1.457 6.27325 0.323431 3.99584L0.10781 3.56185C0.0369395 3.41823 0 3.26008 0 3.09999L0 0L2.05357 0L2.05357 2.85611L2.1603 3.07202C3.43561 5.63472 4.10811 8.50319 4.10714 11.3666Z" transform="translate(34.91016 50.6333)" id="Path" fill="#000000" stroke="none"/>
  </g>
</svg>