<svg id="svg" version="1.1" xmlns="http://www.w3.org/2000/svg" xmlns:xlink="http://www.w3.org/1999/xlink" width="400" height="400" viewBox="0, 0, 400,400"><g id="svgg"><path id="path0" d="M156.296 34.259 L 156.296 43.704 153.148 43.704 L 150.000 43.704 150.000 50.000 L 150.000 56.296 146.852 56.296 L 143.704 56.296 143.704 59.444 L 143.704 62.593 137.407 62.593 L 131.111 62.593 131.111 65.741 L 131.111 68.889 134.259 68.889 L 137.407 68.889 137.407 71.852 L 137.407 74.815 134.259 74.815 L 131.111 74.815 131.111 77.963 L 131.111 81.111 99.815 81.111 L 68.519 81.111 68.519 87.407 L 68.519 93.704 71.667 93.704 L 74.815 93.704 74.815 96.852 L 74.815 100.000 77.963 100.000 L 81.111 100.000 81.111 103.148 L 81.111 106.296 87.407 106.296 L 93.704 106.296 93.704 109.444 L 93.704 112.593 100.000 112.593 L 106.296 112.593 106.296 115.556 L 106.296 118.519 109.444 118.519 L 112.593 118.519 112.593 121.667 L 112.593 124.815 118.704 124.815 L 124.815 124.815 124.815 127.963 L 124.815 131.111 127.963 131.111 L 131.111 131.111 131.111 134.259 L 131.111 137.407 140.556 137.407 L 150.000 137.407 150.000 159.259 L 150.000 181.111 153.148 181.111 L 156.296 181.111 156.296 187.407 L 156.296 193.704 153.148 193.704 L 150.000 193.704 150.000 246.852 L 150.000 300.000 153.148 300.000 L 156.296 300.000 156.296 303.148 L 156.296 306.296 159.444 306.296 L 162.593 306.296 162.593 312.593 L 162.593 318.889 165.741 318.889 L 168.889 318.889 168.889 321.852 L 168.889 324.815 171.852 324.815 L 174.815 324.815 174.815 327.963 L 174.815 331.111 177.963 331.111 L 181.111 331.111 181.111 334.259 L 181.111 337.407 184.259 337.407 L 187.407 337.407 187.407 340.556 L 187.407 343.704 190.556 343.704 L 193.704 343.704 193.704 350.000 L 193.704 356.296 190.556 356.296 L 187.407 356.296 187.407 353.148 L 187.407 350.000 184.259 350.000 L 181.111 350.000 181.111 346.852 L 181.111 343.704 177.963 343.704 L 174.815 343.704 174.815 340.556 L 174.815 337.407 171.852 337.407 L 168.889 337.407 168.889 334.259 L 168.889 331.111 165.741 331.111 L 162.593 331.111 162.593 327.963 L 162.593 324.815 159.444 324.815 L 156.296 324.815 156.296 318.704 L 156.296 312.593 150.000 312.593 L 143.704 312.593 143.704 315.741 L 143.704 318.889 146.852 318.889 L 150.000 318.889 150.000 321.852 L 150.000 324.815 153.148 324.815 L 156.296 324.815 156.296 327.963 L 156.296 331.111 159.444 331.111 L 162.593 331.111 162.593 334.259 L 162.593 337.407 165.741 337.407 L 168.889 337.407 168.889 340.556 L 168.889 343.704 171.852 343.704 L 174.815 343.704 174.815 346.852 L 174.815 350.000 177.963 350.000 L 181.111 350.000 181.111 353.148 L 181.111 356.296 184.259 356.296 L 187.407 356.296 187.407 359.444 L 187.407 362.593 190.556 362.593 L 193.704 362.593 193.704 381.296 L 193.704 400.000 200.000 400.000 L 206.296 400.000 206.296 381.296 L 206.296 362.593 209.444 362.593 L 212.593 362.593 212.593 359.444 L 212.593 356.296 215.741 356.296 L 218.889 356.296 218.889 353.148 L 218.889 350.000 221.852 350.000 L 224.815 350.000 224.815 346.852 L 224.815 343.704 227.963 343.704 L 231.111 343.704 231.111 340.556 L 231.111 337.407 234.259 337.407 L 237.407 337.407 237.407 334.259 L 237.407 331.111 240.556 331.111 L 243.704 331.111 243.704 327.963 L 243.704 324.815 246.852 324.815 L 250.000 324.815 250.000 321.852 L 250.000 318.889 253.148 318.889 L 256.296 318.889 256.296 315.741 L 256.296 312.593 250.000 312.593 L 243.704 312.593 243.704 318.704 L 243.704 324.815 240.556 324.815 L 237.407 324.815 237.407 327.963 L 237.407 331.111 234.259 331.111 L 231.111 331.111 231.111 334.259 L 231.111 337.407 227.963 337.407 L 224.815 337.407 224.815 340.556 L 224.815 343.704 221.852 343.704 L 218.889 343.704 218.889 346.852 L 218.889 350.000 215.741 350.000 L 212.593 350.000 212.593 353.148 L 212.593 356.296 209.444 356.296 L 206.296 356.296 206.296 350.000 L 206.296 343.704 209.444 343.704 L 212.593 343.704 212.593 340.556 L 212.593 337.407 215.741 337.407 L 218.889 337.407 218.889 334.259 L 218.889 331.111 221.852 331.111 L 224.815 331.111 224.815 327.963 L 224.815 324.815 227.963 324.815 L 231.111 324.815 231.111 321.852 L 231.111 318.889 234.259 318.889 L 237.407 318.889 237.407 312.593 L 237.407 306.296 240.556 306.296 L 243.704 306.296 243.704 303.148 L 243.704 300.000 246.852 300.000 L 250.000 300.000 250.000 246.852 L 250.000 193.704 246.852 193.704 L 243.704 193.704 243.704 187.407 L 243.704 181.111 246.852 181.111 L 250.000 181.111 250.000 159.259 L 250.000 137.407 259.444 137.407 L 268.889 137.407 268.889 134.259 L 268.889 131.111 271.852 131.111 L 274.815 131.111 274.815 127.963 L 274.815 124.815 281.111 124.815 L 287.407 124.815 287.407 121.667 L 287.407 118.519 290.556 118.519 L 293.704 118.519 293.704 115.556 L 293.704 112.593 300.000 112.593 L 306.296 112.593 306.296 109.444 L 306.296 106.296 312.593 106.296 L 318.889 106.296 318.889 103.148 L 318.889 100.000 321.852 100.000 L 324.815 100.000 324.815 96.852 L 324.815 93.704 328.148 93.704 L 331.481 93.704 331.481 87.407 L 331.481 81.111 300.185 81.111 L 268.889 81.111 268.889 77.963 L 268.889 74.815 265.741 74.815 L 262.593 74.815 262.593 68.704 L 262.593 62.593 259.444 62.593 L 256.296 62.593 256.296 59.444 L 256.296 56.296 253.148 56.296 L 250.000 56.296 250.000 50.000 L 250.000 43.704 246.852 43.704 L 243.704 43.704 243.704 34.259 L 243.704 24.815 231.296 24.815 L 218.889 24.815 218.889 27.963 L 218.889 31.111 215.741 31.111 L 212.593 31.111 212.593 34.259 L 212.593 37.407 200.000 37.407 L 187.407 37.407 187.407 34.259 L 187.407 31.111 184.259 31.111 L 181.111 31.111 181.111 27.963 L 181.111 24.815 168.704 24.815 L 156.296 24.815 156.296 34.259 M174.815 34.259 L 174.815 37.407 177.963 37.407 L 181.111 37.407 181.111 40.556 L 181.111 43.704 200.000 43.704 L 218.889 43.704 218.889 40.556 L 218.889 37.407 221.852 37.407 L 224.815 37.407 224.815 34.259 L 224.815 31.111 231.111 31.111 L 237.407 31.111 237.407 40.556 L 237.407 50.000 240.556 50.000 L 243.704 50.000 243.704 56.296 L 243.704 62.593 246.852 62.593 L 250.000 62.593 250.000 65.741 L 250.000 68.889 253.148 68.889 L 256.296 68.889 256.296 75.000 L 256.296 81.111 259.444 81.111 L 262.593 81.111 262.593 84.259 L 262.593 87.407 290.741 87.407 L 318.889 87.407 318.889 90.556 L 318.889 93.704 315.741 93.704 L 312.593 93.704 312.593 96.852 L 312.593 100.000 306.296 100.000 L 300.000 100.000 300.000 103.148 L 300.000 106.296 296.852 106.296 L 293.704 106.296 293.704 109.444 L 293.704 112.593 287.407 112.593 L 281.111 112.593 281.111 115.741 L 281.111 118.889 275.000 118.889 L 268.889 118.889 268.889 121.852 L 268.889 124.815 262.593 124.815 L 256.296 124.815 256.296 127.963 L 256.296 131.111 253.148 131.111 L 250.000 131.111 250.000 134.259 L 250.000 137.407 243.704 137.407 L 237.407 137.407 237.407 140.556 L 237.407 143.704 231.111 143.704 L 224.815 143.704 224.815 146.852 L 224.815 150.000 218.704 150.000 L 212.593 150.000 212.593 153.148 L 212.593 156.296 209.444 156.296 L 206.296 156.296 206.296 159.444 L 206.296 162.593 200.000 162.593 L 193.704 162.593 193.704 159.444 L 193.704 156.296 190.556 156.296 L 187.407 156.296 187.407 153.148 L 187.407 150.000 181.111 150.000 L 174.815 150.000 174.815 146.852 L 174.815 143.704 168.704 143.704 L 162.593 143.704 162.593 140.556 L 162.593 137.407 156.296 137.407 L 150.000 137.407 150.000 134.259 L 150.000 131.111 146.852 131.111 L 143.704 131.111 143.704 127.963 L 143.704 124.815 137.407 124.815 L 131.111 124.815 131.111 121.852 L 131.111 118.889 125.000 118.889 L 118.889 118.889 118.889 115.741 L 118.889 112.593 112.593 112.593 L 106.296 112.593 106.296 109.444 L 106.296 106.296 103.148 106.296 L 100.000 106.296 100.000 103.148 L 100.000 100.000 93.704 100.000 L 87.407 100.000 87.407 96.852 L 87.407 93.704 84.259 93.704 L 81.111 93.704 81.111 90.556 L 81.111 87.407 109.259 87.407 L 137.407 87.407 137.407 84.259 L 137.407 81.111 140.556 81.111 L 143.704 81.111 143.704 75.000 L 143.704 68.889 146.852 68.889 L 150.000 68.889 150.000 65.741 L 150.000 62.593 153.148 62.593 L 156.296 62.593 156.296 56.296 L 156.296 50.000 159.444 50.000 L 162.593 50.000 162.593 40.556 L 162.593 31.111 168.704 31.111 L 174.815 31.111 174.815 34.259 M193.704 103.148 L 193.704 106.296 190.556 106.296 L 187.407 106.296 187.407 118.704 L 187.407 131.111 190.556 131.111 L 193.704 131.111 193.704 134.259 L 193.704 137.407 200.000 137.407 L 206.296 137.407 206.296 134.259 L 206.296 131.111 209.444 131.111 L 212.593 131.111 212.593 118.704 L 212.593 106.296 209.444 106.296 L 206.296 106.296 206.296 103.148 L 206.296 100.000 200.000 100.000 L 193.704 100.000 193.704 103.148 M206.296 118.704 L 206.296 131.111 200.000 131.111 L 193.704 131.111 193.704 118.704 L 193.704 106.296 200.000 106.296 L 206.296 106.296 206.296 118.704 M93.704 121.852 L 93.704 124.815 96.852 124.815 L 100.000 124.815 100.000 121.852 L 100.000 118.889 96.852 118.889 L 93.704 118.889 93.704 121.852 M100.000 137.407 L 100.000 143.704 102.963 143.704 L 105.926 143.704 105.926 137.407 L 105.926 131.111 102.963 131.111 L 100.000 131.111 100.000 137.407 M294.074 140.556 L 294.074 143.704 297.037 143.704 L 300.000 143.704 300.000 140.556 L 300.000 137.407 297.037 137.407 L 294.074 137.407 294.074 140.556 M100.000 165.556 L 100.000 174.815 102.963 174.815 L 105.926 174.815 105.926 165.556 L 105.926 156.296 102.963 156.296 L 100.000 156.296 100.000 165.556 M294.074 165.556 L 294.074 174.815 297.037 174.815 L 300.000 174.815 300.000 165.556 L 300.000 156.296 297.037 156.296 L 294.074 156.296 294.074 165.556 M306.296 165.741 L 306.296 168.889 309.444 168.889 L 312.593 168.889 312.593 165.741 L 312.593 162.593 309.444 162.593 L 306.296 162.593 306.296 165.741 M168.889 187.407 L 168.889 193.704 165.741 193.704 L 162.593 193.704 162.593 187.407 L 162.593 181.111 165.741 181.111 L 168.889 181.111 168.889 187.407 M181.111 187.407 L 181.111 193.704 177.963 193.704 L 174.815 193.704 174.815 187.407 L 174.815 181.111 177.963 181.111 L 181.111 181.111 181.111 187.407 M193.704 187.407 L 193.704 193.704 190.556 193.704 L 187.407 193.704 187.407 187.407 L 187.407 181.111 190.556 181.111 L 193.704 181.111 193.704 187.407 M212.593 187.407 L 212.593 193.704 209.444 193.704 L 206.296 193.704 206.296 187.407 L 206.296 181.111 209.444 181.111 L 212.593 181.111 212.593 187.407 M224.815 187.407 L 224.815 193.704 221.852 193.704 L 218.889 193.704 218.889 187.407 L 218.889 181.111 221.852 181.111 L 224.815 181.111 224.815 187.407 M237.407 187.407 L 237.407 193.704 234.259 193.704 L 231.111 193.704 231.111 187.407 L 231.111 181.111 234.259 181.111 L 237.407 181.111 237.407 187.407 M187.407 234.444 L 187.407 237.778 184.259 237.778 L 181.111 237.778 181.111 234.444 L 181.111 231.111 184.259 231.111 L 187.407 231.111 187.407 234.444 M206.296 234.444 L 206.296 237.778 200.000 237.778 L 193.704 237.778 193.704 234.444 L 193.704 231.111 200.000 231.111 L 206.296 231.111 206.296 234.444 M218.889 234.444 L 218.889 237.778 215.741 237.778 L 212.593 237.778 212.593 234.444 L 212.593 231.111 215.741 231.111 L 218.889 231.111 218.889 234.444 M93.704 265.741 L 93.704 268.889 90.556 268.889 L 87.407 268.889 87.407 275.000 L 87.407 281.111 84.259 281.111 L 81.111 281.111 81.111 296.852 L 81.111 312.593 77.963 312.593 L 74.815 312.593 74.815 334.444 L 74.815 356.296 77.963 356.296 L 81.111 356.296 81.111 362.593 L 81.111 368.889 84.259 368.889 L 87.407 368.889 87.407 375.000 L 87.407 381.111 90.556 381.111 L 93.704 381.111 93.704 384.259 L 93.704 387.407 96.852 387.407 L 100.000 387.407 100.000 390.556 L 100.000 393.704 103.148 393.704 L 106.296 393.704 106.296 396.852 L 106.296 400.000 112.593 400.000 L 118.889 400.000 118.889 396.852 L 118.889 393.704 115.741 393.704 L 112.593 393.704 112.593 390.556 L 112.593 387.407 109.444 387.407 L 106.296 387.407 106.296 384.259 L 106.296 381.111 103.148 381.111 L 100.000 381.111 100.000 377.963 L 100.000 374.815 96.852 374.815 L 93.704 374.815 93.704 368.704 L 93.704 362.593 90.556 362.593 L 87.407 362.593 87.407 356.296 L 87.407 350.000 84.259 350.000 L 81.111 350.000 81.111 331.296 L 81.111 312.593 84.259 312.593 L 87.407 312.593 87.407 300.000 L 87.407 287.407 90.556 287.407 L 93.704 287.407 93.704 290.556 L 93.704 293.704 96.852 293.704 L 100.000 293.704 100.000 309.259 L 100.000 324.815 103.148 324.815 L 106.296 324.815 106.296 331.111 L 106.296 337.407 109.444 337.407 L 112.593 337.407 112.593 340.556 L 112.593 343.704 115.741 343.704 L 118.889 343.704 118.889 350.000 L 118.889 356.296 121.852 356.296 L 124.815 356.296 124.815 359.444 L 124.815 362.593 127.963 362.593 L 131.111 362.593 131.111 365.741 L 131.111 368.889 134.259 368.889 L 137.407 368.889 137.407 378.148 L 137.407 387.407 140.556 387.407 L 143.704 387.407 143.704 393.704 L 143.704 400.000 146.852 400.000 L 150.000 400.000 150.000 390.556 L 150.000 381.111 146.852 381.111 L 143.704 381.111 143.704 371.852 L 143.704 362.593 140.556 362.593 L 137.407 362.593 137.407 359.444 L 137.407 356.296 134.259 356.296 L 131.111 356.296 131.111 353.148 L 131.111 350.000 127.963 350.000 L 124.815 350.000 124.815 343.704 L 124.815 337.407 121.852 337.407 L 118.889 337.407 118.889 334.259 L 118.889 331.111 115.741 331.111 L 112.593 331.111 112.593 325.000 L 112.593 318.889 109.444 318.889 L 106.296 318.889 106.296 303.148 L 106.296 287.407 103.148 287.407 L 100.000 287.407 100.000 278.148 L 100.000 268.889 102.963 268.889 L 105.926 268.889 105.926 265.741 L 105.926 262.593 99.815 262.593 L 93.704 262.593 93.704 265.741 M187.407 265.741 L 187.407 268.889 190.556 268.889 L 193.704 268.889 193.704 271.852 L 193.704 274.815 190.556 274.815 L 187.407 274.815 187.407 277.963 L 187.407 281.111 200.000 281.111 L 212.593 281.111 212.593 277.963 L 212.593 274.815 209.444 274.815 L 206.296 274.815 206.296 271.852 L 206.296 268.889 209.444 268.889 L 212.593 268.889 212.593 265.741 L 212.593 262.593 221.852 262.593 L 231.111 262.593 231.111 265.741 L 231.111 268.889 234.259 268.889 L 237.407 268.889 237.407 275.000 L 237.407 281.111 240.556 281.111 L 243.704 281.111 243.704 287.407 L 243.704 293.704 240.556 293.704 L 237.407 293.704 237.407 300.000 L 237.407 306.296 234.259 306.296 L 231.111 306.296 231.111 312.593 L 231.111 318.889 227.963 318.889 L 224.815 318.889 224.815 321.852 L 224.815 324.815 221.852 324.815 L 218.889 324.815 218.889 327.963 L 218.889 331.111 215.741 331.111 L 212.593 331.111 212.593 318.704 L 212.593 306.296 215.741 306.296 L 218.889 306.296 218.889 300.000 L 218.889 293.704 228.148 293.704 L 237.407 293.704 237.407 287.407 L 237.407 281.111 234.259 281.111 L 231.111 281.111 231.111 284.259 L 231.111 287.407 225.000 287.407 L 218.889 287.407 218.889 284.259 L 218.889 281.111 215.741 281.111 L 212.593 281.111 212.593 287.407 L 212.593 293.704 209.444 293.704 L 206.296 293.704 206.296 296.852 L 206.296 300.000 200.000 300.000 L 193.704 300.000 193.704 296.852 L 193.704 293.704 190.556 293.704 L 187.407 293.704 187.407 287.407 L 187.407 281.111 184.259 281.111 L 181.111 281.111 181.111 284.259 L 181.111 287.407 175.000 287.407 L 168.889 287.407 168.889 284.259 L 168.889 281.111 165.741 281.111 L 162.593 281.111 162.593 287.407 L 162.593 293.704 171.852 293.704 L 181.111 293.704 181.111 300.000 L 181.111 306.296 184.259 306.296 L 187.407 306.296 187.407 318.704 L 187.407 331.111 184.259 331.111 L 181.111 331.111 181.111 327.963 L 181.111 324.815 177.963 324.815 L 174.815 324.815 174.815 321.852 L 174.815 318.889 171.852 318.889 L 168.889 318.889 168.889 312.593 L 168.889 306.296 165.741 306.296 L 162.593 306.296 162.593 300.000 L 162.593 293.704 159.444 293.704 L 156.296 293.704 156.296 287.407 L 156.296 281.111 159.444 281.111 L 162.593 281.111 162.593 275.000 L 162.593 268.889 165.741 268.889 L 168.889 268.889 168.889 265.741 L 168.889 262.593 178.148 262.593 L 187.407 262.593 187.407 265.741 M294.074 265.741 L 294.074 268.889 297.037 268.889 L 300.000 268.889 300.000 278.148 L 300.000 287.407 296.852 287.407 L 293.704 287.407 293.704 303.148 L 293.704 318.889 290.556 318.889 L 287.407 318.889 287.407 325.000 L 287.407 331.111 284.259 331.111 L 281.111 331.111 281.111 334.259 L 281.111 337.407 277.963 337.407 L 274.815 337.407 274.815 343.704 L 274.815 350.000 271.852 350.000 L 268.889 350.000 268.889 353.148 L 268.889 356.296 265.741 356.296 L 262.593 356.296 262.593 359.444 L 262.593 362.593 259.444 362.593 L 256.296 362.593 256.296 371.852 L 256.296 381.111 253.148 381.111 L 250.000 381.111 250.000 390.556 L 250.000 400.000 253.148 400.000 L 256.296 400.000 256.296 393.704 L 256.296 387.407 259.444 387.407 L 262.593 387.407 262.593 378.148 L 262.593 368.889 265.741 368.889 L 268.889 368.889 268.889 365.741 L 268.889 362.593 271.852 362.593 L 274.815 362.593 274.815 359.444 L 274.815 356.296 277.963 356.296 L 281.111 356.296 281.111 350.000 L 281.111 343.704 284.259 343.704 L 287.407 343.704 287.407 340.556 L 287.407 337.407 290.556 337.407 L 293.704 337.407 293.704 331.111 L 293.704 324.815 296.852 324.815 L 300.000 324.815 300.000 309.259 L 300.000 293.704 303.148 293.704 L 306.296 293.704 306.296 290.556 L 306.296 287.407 309.444 287.407 L 312.593 287.407 312.593 300.000 L 312.593 312.593 315.741 312.593 L 318.889 312.593 318.889 331.296 L 318.889 350.000 315.741 350.000 L 312.593 350.000 312.593 356.296 L 312.593 362.593 309.444 362.593 L 306.296 362.593 306.296 368.704 L 306.296 374.815 303.148 374.815 L 300.000 374.815 300.000 377.963 L 300.000 381.111 296.852 381.111 L 293.704 381.111 293.704 384.259 L 293.704 387.407 290.556 387.407 L 287.407 387.407 287.407 390.556 L 287.407 393.704 284.259 393.704 L 281.111 393.704 281.111 396.852 L 281.111 400.000 287.407 400.000 L 293.704 400.000 293.704 396.852 L 293.704 393.704 296.852 393.704 L 300.000 393.704 300.000 390.556 L 300.000 387.407 303.148 387.407 L 306.296 387.407 306.296 384.259 L 306.296 381.111 309.444 381.111 L 312.593 381.111 312.593 375.000 L 312.593 368.889 315.741 368.889 L 318.889 368.889 318.889 362.593 L 318.889 356.296 322.037 356.296 L 325.185 356.296 325.185 334.444 L 325.185 312.593 322.037 312.593 L 318.889 312.593 318.889 296.852 L 318.889 281.111 315.741 281.111 L 312.593 281.111 312.593 275.000 L 312.593 268.889 309.444 268.889 L 306.296 268.889 306.296 265.741 L 306.296 262.593 300.185 262.593 L 294.074 262.593 294.074 265.741 M206.296 325.000 L 206.296 337.407 200.000 337.407 L 193.704 337.407 193.704 325.000 L 193.704 312.593 200.000 312.593 L 206.296 312.593 206.296 325.000 " stroke="none" fill="#07170f" fill-rule="evenodd"></path><path id="path1" d="M137.407 84.259 L 137.407 87.407 140.556 87.407 L 143.704 87.407 143.704 90.556 L 143.704 93.704 146.852 93.704 L 150.000 93.704 150.000 96.852 L 150.000 100.000 153.148 100.000 L 156.296 100.000 156.296 93.704 L 156.296 87.407 153.148 87.407 L 150.000 87.407 150.000 84.259 L 150.000 81.111 143.704 81.111 L 137.407 81.111 137.407 84.259 M250.000 84.259 L 250.000 87.407 246.852 87.407 L 243.704 87.407 243.704 93.704 L 243.704 100.000 246.852 100.000 L 250.000 100.000 250.000 96.852 L 250.000 93.704 253.148 93.704 L 256.296 93.704 256.296 90.556 L 256.296 87.407 259.444 87.407 L 262.593 87.407 262.593 84.259 L 262.593 81.111 256.296 81.111 L 250.000 81.111 250.000 84.259 M168.889 106.296 L 168.889 112.593 171.852 112.593 L 174.815 112.593 174.815 115.741 L 174.815 118.889 181.111 118.889 L 187.407 118.889 187.407 115.741 L 187.407 112.593 184.259 112.593 L 181.111 112.593 181.111 109.444 L 181.111 106.296 177.963 106.296 L 174.815 106.296 174.815 103.148 L 174.815 100.000 171.852 100.000 L 168.889 100.000 168.889 106.296 M224.815 103.148 L 224.815 106.296 221.852 106.296 L 218.889 106.296 218.889 109.444 L 218.889 112.593 215.741 112.593 L 212.593 112.593 212.593 115.741 L 212.593 118.889 218.704 118.889 L 224.815 118.889 224.815 115.741 L 224.815 112.593 227.963 112.593 L 231.111 112.593 231.111 106.296 L 231.111 100.000 227.963 100.000 L 224.815 100.000 224.815 103.148 M112.593 199.815 L 112.593 274.815 115.741 274.815 L 118.889 274.815 118.889 215.556 L 118.889 156.296 121.852 156.296 L 124.815 156.296 124.815 221.852 L 124.815 287.407 127.963 287.407 L 131.111 287.407 131.111 237.407 L 131.111 187.407 134.259 187.407 L 137.407 187.407 137.407 243.704 L 137.407 300.000 140.556 300.000 L 143.704 300.000 143.704 218.704 L 143.704 137.407 137.407 137.407 L 131.111 137.407 131.111 134.259 L 131.111 131.111 127.963 131.111 L 124.815 131.111 124.815 127.963 L 124.815 124.815 118.704 124.815 L 112.593 124.815 112.593 199.815 M274.815 127.963 L 274.815 131.111 271.852 131.111 L 268.889 131.111 268.889 134.259 L 268.889 137.407 262.593 137.407 L 256.296 137.407 256.296 218.704 L 256.296 300.000 259.444 300.000 L 262.593 300.000 262.593 243.704 L 262.593 187.407 265.741 187.407 L 268.889 187.407 268.889 237.407 L 268.889 287.407 271.852 287.407 L 274.815 287.407 274.815 221.852 L 274.815 156.296 277.963 156.296 L 281.111 156.296 281.111 215.556 L 281.111 274.815 284.259 274.815 L 287.407 274.815 287.407 199.815 L 287.407 124.815 281.111 124.815 L 274.815 124.815 274.815 127.963 M187.407 287.407 L 187.407 293.704 190.556 293.704 L 193.704 293.704 193.704 296.852 L 193.704 300.000 200.000 300.000 L 206.296 300.000 206.296 296.852 L 206.296 293.704 209.444 293.704 L 212.593 293.704 212.593 287.407 L 212.593 281.111 200.000 281.111 L 187.407 281.111 187.407 287.407 M193.704 325.000 L 193.704 337.407 200.000 337.407 L 206.296 337.407 206.296 325.000 L 206.296 312.593 200.000 312.593 L 193.704 312.593 193.704 325.000 M281.111 350.000 L 281.111 356.296 277.963 356.296 L 274.815 356.296 274.815 359.444 L 274.815 362.593 271.852 362.593 L 268.889 362.593 268.889 365.741 L 268.889 368.889 265.741 368.889 L 262.593 368.889 262.593 378.148 L 262.593 387.407 259.444 387.407 L 256.296 387.407 256.296 393.704 L 256.296 400.000 259.444 400.000 L 262.593 400.000 262.593 396.852 L 262.593 393.704 265.741 393.704 L 268.889 393.704 268.889 390.556 L 268.889 387.407 271.852 387.407 L 274.815 387.407 274.815 381.111 L 274.815 374.815 277.963 374.815 L 281.111 374.815 281.111 368.704 L 281.111 362.593 284.259 362.593 L 287.407 362.593 287.407 353.148 L 287.407 343.704 284.259 343.704 L 281.111 343.704 281.111 350.000 M118.889 359.444 L 118.889 362.593 121.852 362.593 L 124.815 362.593 124.815 368.704 L 124.815 374.815 127.963 374.815 L 131.111 374.815 131.111 381.111 L 131.111 387.407 134.259 387.407 L 137.407 387.407 137.407 390.556 L 137.407 393.704 140.556 393.704 L 143.704 393.704 143.704 390.556 L 143.704 387.407 140.556 387.407 L 137.407 387.407 137.407 378.148 L 137.407 368.889 134.259 368.889 L 131.111 368.889 131.111 365.741 L 131.111 362.593 127.963 362.593 L 124.815 362.593 124.815 359.444 L 124.815 356.296 121.852 356.296 L 118.889 356.296 118.889 359.444 M181.111 377.963 L 181.111 381.111 177.963 381.111 L 174.815 381.111 174.815 384.259 L 174.815 387.407 181.111 387.407 L 187.407 387.407 187.407 381.111 L 187.407 374.815 184.259 374.815 L 181.111 374.815 181.111 377.963 M212.593 381.111 L 212.593 387.407 218.889 387.407 L 225.185 387.407 225.185 384.259 L 225.185 381.111 222.037 381.111 L 218.889 381.111 218.889 377.963 L 218.889 374.815 215.741 374.815 L 212.593 374.815 212.593 381.111 M181.111 396.852 L 181.111 400.000 184.259 400.000 L 187.407 400.000 187.407 396.852 L 187.407 393.704 184.259 393.704 L 181.111 393.704 181.111 396.852 M212.593 396.852 L 212.593 400.000 215.741 400.000 L 218.889 400.000 218.889 396.852 L 218.889 393.704 215.741 393.704 L 212.593 393.704 212.593 396.852 " stroke="none" fill="#841c24" fill-rule="evenodd"></path><path id="path2" d="M193.704 31.111 L 193.704 37.407 196.852 37.407 L 200.000 37.407 200.000 31.111 L 200.000 24.815 196.852 24.815 L 193.704 24.815 193.704 31.111 M162.593 40.556 L 162.593 50.000 159.444 50.000 L 156.296 50.000 156.296 56.296 L 156.296 62.593 153.148 62.593 L 150.000 62.593 150.000 65.741 L 150.000 68.889 146.852 68.889 L 143.704 68.889 143.704 75.000 L 143.704 81.111 146.852 81.111 L 150.000 81.111 150.000 84.259 L 150.000 87.407 153.148 87.407 L 156.296 87.407 156.296 100.000 L 156.296 112.593 153.148 112.593 L 150.000 112.593 150.000 109.444 L 150.000 106.296 146.852 106.296 L 143.704 106.296 143.704 103.148 L 143.704 100.000 140.556 100.000 L 137.407 100.000 137.407 93.704 L 137.407 87.407 109.259 87.407 L 81.111 87.407 81.111 90.556 L 81.111 93.704 84.259 93.704 L 87.407 93.704 87.407 96.852 L 87.407 100.000 93.704 100.000 L 100.000 100.000 100.000 103.148 L 100.000 106.296 103.148 106.296 L 106.296 106.296 106.296 109.444 L 106.296 112.593 112.593 112.593 L 118.889 112.593 118.889 115.741 L 118.889 118.889 125.000 118.889 L 131.111 118.889 131.111 121.852 L 131.111 124.815 137.407 124.815 L 143.704 124.815 143.704 127.963 L 143.704 131.111 146.852 131.111 L 150.000 131.111 150.000 134.259 L 150.000 137.407 156.296 137.407 L 162.593 137.407 162.593 140.556 L 162.593 143.704 168.704 143.704 L 174.815 143.704 174.815 146.852 L 174.815 150.000 181.111 150.000 L 187.407 150.000 187.407 153.148 L 187.407 156.296 190.556 156.296 L 193.704 156.296 193.704 159.444 L 193.704 162.593 200.000 162.593 L 206.296 162.593 206.296 159.444 L 206.296 156.296 209.444 156.296 L 212.593 156.296 212.593 153.148 L 212.593 150.000 218.704 150.000 L 224.815 150.000 224.815 146.852 L 224.815 143.704 231.111 143.704 L 237.407 143.704 237.407 140.556 L 237.407 137.407 243.704 137.407 L 250.000 137.407 250.000 134.259 L 250.000 131.111 253.148 131.111 L 256.296 131.111 256.296 127.963 L 256.296 124.815 262.593 124.815 L 268.889 124.815 268.889 121.852 L 268.889 118.889 275.000 118.889 L 281.111 118.889 281.111 115.741 L 281.111 112.593 287.407 112.593 L 293.704 112.593 293.704 109.444 L 293.704 106.296 296.852 106.296 L 300.000 106.296 300.000 103.148 L 300.000 100.000 306.296 100.000 L 312.593 100.000 312.593 96.852 L 312.593 93.704 315.741 93.704 L 318.889 93.704 318.889 90.556 L 318.889 87.407 290.741 87.407 L 262.593 87.407 262.593 93.704 L 262.593 100.000 259.444 100.000 L 256.296 100.000 256.296 103.148 L 256.296 106.296 253.148 106.296 L 250.000 106.296 250.000 109.444 L 250.000 112.593 246.852 112.593 L 243.704 112.593 243.704 100.000 L 243.704 87.407 246.852 87.407 L 250.000 87.407 250.000 84.259 L 250.000 81.111 253.148 81.111 L 256.296 81.111 256.296 75.000 L 256.296 68.889 253.148 68.889 L 250.000 68.889 250.000 65.741 L 250.000 62.593 246.852 62.593 L 243.704 62.593 243.704 56.296 L 243.704 50.000 240.556 50.000 L 237.407 50.000 237.407 40.556 L 237.407 31.111 231.111 31.111 L 224.815 31.111 224.815 34.259 L 224.815 37.407 221.852 37.407 L 218.889 37.407 218.889 40.556 L 218.889 43.704 200.000 43.704 L 181.111 43.704 181.111 40.556 L 181.111 37.407 177.963 37.407 L 174.815 37.407 174.815 34.259 L 174.815 31.111 168.704 31.111 L 162.593 31.111 162.593 40.556 M143.704 46.852 L 143.704 50.000 146.852 50.000 L 150.000 50.000 150.000 46.852 L 150.000 43.704 146.852 43.704 L 143.704 43.704 143.704 46.852 M174.815 103.148 L 174.815 106.296 177.963 106.296 L 181.111 106.296 181.111 109.444 L 181.111 112.593 184.259 112.593 L 187.407 112.593 187.407 109.444 L 187.407 106.296 190.556 106.296 L 193.704 106.296 193.704 103.148 L 193.704 100.000 200.000 100.000 L 206.296 100.000 206.296 103.148 L 206.296 106.296 209.444 106.296 L 212.593 106.296 212.593 109.444 L 212.593 112.593 215.741 112.593 L 218.889 112.593 218.889 109.444 L 218.889 106.296 221.852 106.296 L 224.815 106.296 224.815 103.148 L 224.815 100.000 227.963 100.000 L 231.111 100.000 231.111 112.407 L 231.111 124.815 221.852 124.815 L 212.593 124.815 212.593 127.963 L 212.593 131.111 209.444 131.111 L 206.296 131.111 206.296 134.259 L 206.296 137.407 200.000 137.407 L 193.704 137.407 193.704 134.259 L 193.704 131.111 190.556 131.111 L 187.407 131.111 187.407 127.963 L 187.407 124.815 178.148 124.815 L 168.889 124.815 168.889 112.407 L 168.889 100.000 171.852 100.000 L 174.815 100.000 174.815 103.148 M193.704 112.593 L 193.704 118.889 196.852 118.889 L 200.000 118.889 200.000 112.593 L 200.000 106.296 196.852 106.296 L 193.704 106.296 193.704 112.593 M100.000 278.148 L 100.000 287.407 103.148 287.407 L 106.296 287.407 106.296 303.148 L 106.296 318.889 109.444 318.889 L 112.593 318.889 112.593 325.000 L 112.593 331.111 115.741 331.111 L 118.889 331.111 118.889 334.259 L 118.889 337.407 121.852 337.407 L 124.815 337.407 124.815 343.704 L 124.815 350.000 127.963 350.000 L 131.111 350.000 131.111 353.148 L 131.111 356.296 134.259 356.296 L 137.407 356.296 137.407 359.444 L 137.407 362.593 140.556 362.593 L 143.704 362.593 143.704 371.852 L 143.704 381.111 146.852 381.111 L 150.000 381.111 150.000 390.556 L 150.000 400.000 165.556 400.000 L 181.111 400.000 181.111 396.852 L 181.111 393.704 184.259 393.704 L 187.407 393.704 187.407 396.852 L 187.407 400.000 190.556 400.000 L 193.704 400.000 193.704 381.296 L 193.704 362.593 190.556 362.593 L 187.407 362.593 187.407 359.444 L 187.407 356.296 190.556 356.296 L 193.704 356.296 193.704 350.000 L 193.704 343.704 190.556 343.704 L 187.407 343.704 187.407 340.556 L 187.407 337.407 184.259 337.407 L 181.111 337.407 181.111 334.259 L 181.111 331.111 177.963 331.111 L 174.815 331.111 174.815 327.963 L 174.815 324.815 171.852 324.815 L 168.889 324.815 168.889 321.852 L 168.889 318.889 165.741 318.889 L 162.593 318.889 162.593 312.593 L 162.593 306.296 159.444 306.296 L 156.296 306.296 156.296 303.148 L 156.296 300.000 153.148 300.000 L 150.000 300.000 150.000 306.296 L 150.000 312.593 153.148 312.593 L 156.296 312.593 156.296 318.704 L 156.296 324.815 153.148 324.815 L 150.000 324.815 150.000 321.852 L 150.000 318.889 146.852 318.889 L 143.704 318.889 143.704 315.741 L 143.704 312.593 140.556 312.593 L 137.407 312.593 137.407 309.444 L 137.407 306.296 134.259 306.296 L 131.111 306.296 131.111 303.148 L 131.111 300.000 127.963 300.000 L 124.815 300.000 124.815 296.852 L 124.815 293.704 121.852 293.704 L 118.889 293.704 118.889 287.407 L 118.889 281.111 112.407 281.111 L 105.926 281.111 105.926 275.000 L 105.926 268.889 102.963 268.889 L 100.000 268.889 100.000 278.148 M294.074 275.000 L 294.074 281.111 287.593 281.111 L 281.111 281.111 281.111 287.407 L 281.111 293.704 277.963 293.704 L 274.815 293.704 274.815 296.852 L 274.815 300.000 271.852 300.000 L 268.889 300.000 268.889 303.148 L 268.889 306.296 265.741 306.296 L 262.593 306.296 262.593 309.444 L 262.593 312.593 259.444 312.593 L 256.296 312.593 256.296 315.741 L 256.296 318.889 253.148 318.889 L 250.000 318.889 250.000 321.852 L 250.000 324.815 246.852 324.815 L 243.704 324.815 243.704 318.704 L 243.704 312.593 246.852 312.593 L 250.000 312.593 250.000 306.296 L 250.000 300.000 246.852 300.000 L 243.704 300.000 243.704 303.148 L 243.704 306.296 240.556 306.296 L 237.407 306.296 237.407 312.593 L 237.407 318.889 234.259 318.889 L 231.111 318.889 231.111 321.852 L 231.111 324.815 227.963 324.815 L 224.815 324.815 224.815 327.963 L 224.815 331.111 221.852 331.111 L 218.889 331.111 218.889 334.259 L 218.889 337.407 215.741 337.407 L 212.593 337.407 212.593 340.556 L 212.593 343.704 209.444 343.704 L 206.296 343.704 206.296 350.000 L 206.296 356.296 209.444 356.296 L 212.593 356.296 212.593 359.444 L 212.593 362.593 209.444 362.593 L 206.296 362.593 206.296 381.296 L 206.296 400.000 209.444 400.000 L 212.593 400.000 212.593 396.852 L 212.593 393.704 215.741 393.704 L 218.889 393.704 218.889 396.852 L 218.889 400.000 234.444 400.000 L 250.000 400.000 250.000 390.556 L 250.000 381.111 253.148 381.111 L 256.296 381.111 256.296 371.852 L 256.296 362.593 259.444 362.593 L 262.593 362.593 262.593 359.444 L 262.593 356.296 265.741 356.296 L 268.889 356.296 268.889 353.148 L 268.889 350.000 271.852 350.000 L 274.815 350.000 274.815 343.704 L 274.815 337.407 277.963 337.407 L 281.111 337.407 281.111 334.259 L 281.111 331.111 284.259 331.111 L 287.407 331.111 287.407 325.000 L 287.407 318.889 290.556 318.889 L 293.704 318.889 293.704 303.148 L 293.704 287.407 296.852 287.407 L 300.000 287.407 300.000 278.148 L 300.000 268.889 297.037 268.889 L 294.074 268.889 294.074 275.000 M87.407 300.000 L 87.407 312.593 84.259 312.593 L 81.111 312.593 81.111 331.296 L 81.111 350.000 84.259 350.000 L 87.407 350.000 87.407 356.296 L 87.407 362.593 90.556 362.593 L 93.704 362.593 93.704 368.704 L 93.704 374.815 96.852 374.815 L 100.000 374.815 100.000 377.963 L 100.000 381.111 103.148 381.111 L 106.296 381.111 106.296 384.259 L 106.296 387.407 109.444 387.407 L 112.593 387.407 112.593 390.556 L 112.593 393.704 115.741 393.704 L 118.889 393.704 118.889 396.852 L 118.889 400.000 131.296 400.000 L 143.704 400.000 143.704 396.852 L 143.704 393.704 140.556 393.704 L 137.407 393.704 137.407 390.556 L 137.407 387.407 134.259 387.407 L 131.111 387.407 131.111 381.111 L 131.111 374.815 127.963 374.815 L 124.815 374.815 124.815 368.704 L 124.815 362.593 121.852 362.593 L 118.889 362.593 118.889 353.148 L 118.889 343.704 115.741 343.704 L 112.593 343.704 112.593 340.556 L 112.593 337.407 109.444 337.407 L 106.296 337.407 106.296 331.111 L 106.296 324.815 103.148 324.815 L 100.000 324.815 100.000 309.259 L 100.000 293.704 96.852 293.704 L 93.704 293.704 93.704 290.556 L 93.704 287.407 90.556 287.407 L 87.407 287.407 87.407 300.000 M306.296 290.556 L 306.296 293.704 303.148 293.704 L 300.000 293.704 300.000 309.259 L 300.000 324.815 296.852 324.815 L 293.704 324.815 293.704 331.111 L 293.704 337.407 290.556 337.407 L 287.407 337.407 287.407 350.000 L 287.407 362.593 284.259 362.593 L 281.111 362.593 281.111 368.704 L 281.111 374.815 277.963 374.815 L 274.815 374.815 274.815 381.111 L 274.815 387.407 271.852 387.407 L 268.889 387.407 268.889 390.556 L 268.889 393.704 265.741 393.704 L 262.593 393.704 262.593 396.852 L 262.593 400.000 271.852 400.000 L 281.111 400.000 281.111 396.852 L 281.111 393.704 284.259 393.704 L 287.407 393.704 287.407 390.556 L 287.407 387.407 290.556 387.407 L 293.704 387.407 293.704 384.259 L 293.704 381.111 296.852 381.111 L 300.000 381.111 300.000 377.963 L 300.000 374.815 303.148 374.815 L 306.296 374.815 306.296 368.704 L 306.296 362.593 309.444 362.593 L 312.593 362.593 312.593 356.296 L 312.593 350.000 315.741 350.000 L 318.889 350.000 318.889 331.296 L 318.889 312.593 315.741 312.593 L 312.593 312.593 312.593 300.000 L 312.593 287.407 309.444 287.407 L 306.296 287.407 306.296 290.556 M162.593 327.963 L 162.593 331.111 165.741 331.111 L 168.889 331.111 168.889 334.259 L 168.889 337.407 171.852 337.407 L 174.815 337.407 174.815 340.556 L 174.815 343.704 177.963 343.704 L 181.111 343.704 181.111 346.852 L 181.111 350.000 184.259 350.000 L 187.407 350.000 187.407 353.148 L 187.407 356.296 184.259 356.296 L 181.111 356.296 181.111 353.148 L 181.111 350.000 177.963 350.000 L 174.815 350.000 174.815 346.852 L 174.815 343.704 171.852 343.704 L 168.889 343.704 168.889 340.556 L 168.889 337.407 165.741 337.407 L 162.593 337.407 162.593 334.259 L 162.593 331.111 159.444 331.111 L 156.296 331.111 156.296 327.963 L 156.296 324.815 159.444 324.815 L 162.593 324.815 162.593 327.963 M243.704 327.963 L 243.704 331.111 240.556 331.111 L 237.407 331.111 237.407 334.259 L 237.407 337.407 234.259 337.407 L 231.111 337.407 231.111 340.556 L 231.111 343.704 227.963 343.704 L 224.815 343.704 224.815 346.852 L 224.815 350.000 221.852 350.000 L 218.889 350.000 218.889 353.148 L 218.889 356.296 215.741 356.296 L 212.593 356.296 212.593 353.148 L 212.593 350.000 215.741 350.000 L 218.889 350.000 218.889 346.852 L 218.889 343.704 221.852 343.704 L 224.815 343.704 224.815 340.556 L 224.815 337.407 227.963 337.407 L 231.111 337.407 231.111 334.259 L 231.111 331.111 234.259 331.111 L 237.407 331.111 237.407 327.963 L 237.407 324.815 240.556 324.815 L 243.704 324.815 243.704 327.963 M187.407 381.111 L 187.407 387.407 181.111 387.407 L 174.815 387.407 174.815 384.259 L 174.815 381.111 177.963 381.111 L 181.111 381.111 181.111 377.963 L 181.111 374.815 184.259 374.815 L 187.407 374.815 187.407 381.111 M218.889 377.963 L 218.889 381.111 222.037 381.111 L 225.185 381.111 225.185 384.259 L 225.185 387.407 218.889 387.407 L 212.593 387.407 212.593 381.111 L 212.593 374.815 215.741 374.815 L 218.889 374.815 218.889 377.963 " stroke="none" fill="#f9f9f9" fill-rule="evenodd"></path><path id="path3" d="M200.000 112.593 L 200.000 118.889 196.852 118.889 L 193.704 118.889 193.704 125.000 L 193.704 131.111 200.000 131.111 L 206.296 131.111 206.296 118.704 L 206.296 106.296 203.148 106.296 L 200.000 106.296 200.000 112.593 M150.000 187.407 L 150.000 193.704 153.148 193.704 L 156.296 193.704 156.296 187.407 L 156.296 181.111 153.148 181.111 L 150.000 181.111 150.000 187.407 M162.593 187.407 L 162.593 193.704 165.741 193.704 L 168.889 193.704 168.889 187.407 L 168.889 181.111 165.741 181.111 L 162.593 181.111 162.593 187.407 M174.815 187.407 L 174.815 193.704 177.963 193.704 L 181.111 193.704 181.111 187.407 L 181.111 181.111 177.963 181.111 L 174.815 181.111 174.815 187.407 M187.407 187.407 L 187.407 193.704 190.556 193.704 L 193.704 193.704 193.704 187.407 L 193.704 181.111 190.556 181.111 L 187.407 181.111 187.407 187.407 M206.296 187.407 L 206.296 193.704 209.444 193.704 L 212.593 193.704 212.593 187.407 L 212.593 181.111 209.444 181.111 L 206.296 181.111 206.296 187.407 M218.889 187.407 L 218.889 193.704 221.852 193.704 L 224.815 193.704 224.815 187.407 L 224.815 181.111 221.852 181.111 L 218.889 181.111 218.889 187.407 M231.111 187.407 L 231.111 193.704 234.259 193.704 L 237.407 193.704 237.407 187.407 L 237.407 181.111 234.259 181.111 L 231.111 181.111 231.111 187.407 M243.704 187.407 L 243.704 193.704 246.852 193.704 L 250.000 193.704 250.000 187.407 L 250.000 181.111 246.852 181.111 L 243.704 181.111 243.704 187.407 M181.111 234.444 L 181.111 237.778 184.259 237.778 L 187.407 237.778 187.407 234.444 L 187.407 231.111 184.259 231.111 L 181.111 231.111 181.111 234.444 M193.704 234.444 L 193.704 237.778 200.000 237.778 L 206.296 237.778 206.296 234.444 L 206.296 231.111 200.000 231.111 L 193.704 231.111 193.704 234.444 M212.593 234.444 L 212.593 237.778 215.741 237.778 L 218.889 237.778 218.889 234.444 L 218.889 231.111 215.741 231.111 L 212.593 231.111 212.593 234.444 M168.889 265.741 L 168.889 268.889 165.741 268.889 L 162.593 268.889 162.593 275.000 L 162.593 281.111 159.444 281.111 L 156.296 281.111 156.296 287.407 L 156.296 293.704 159.444 293.704 L 162.593 293.704 162.593 300.000 L 162.593 306.296 165.741 306.296 L 168.889 306.296 168.889 312.593 L 168.889 318.889 171.852 318.889 L 174.815 318.889 174.815 321.852 L 174.815 324.815 177.963 324.815 L 181.111 324.815 181.111 327.963 L 181.111 331.111 184.259 331.111 L 187.407 331.111 187.407 318.704 L 187.407 306.296 184.259 306.296 L 181.111 306.296 181.111 300.000 L 181.111 293.704 171.852 293.704 L 162.593 293.704 162.593 287.407 L 162.593 281.111 165.741 281.111 L 168.889 281.111 168.889 284.259 L 168.889 287.407 175.000 287.407 L 181.111 287.407 181.111 284.259 L 181.111 281.111 184.259 281.111 L 187.407 281.111 187.407 277.963 L 187.407 274.815 190.556 274.815 L 193.704 274.815 193.704 271.852 L 193.704 268.889 190.556 268.889 L 187.407 268.889 187.407 265.741 L 187.407 262.593 178.148 262.593 L 168.889 262.593 168.889 265.741 M212.593 265.741 L 212.593 268.889 209.444 268.889 L 206.296 268.889 206.296 271.852 L 206.296 274.815 209.444 274.815 L 212.593 274.815 212.593 277.963 L 212.593 281.111 215.741 281.111 L 218.889 281.111 218.889 284.259 L 218.889 287.407 225.000 287.407 L 231.111 287.407 231.111 284.259 L 231.111 281.111 234.259 281.111 L 237.407 281.111 237.407 287.407 L 237.407 293.704 228.148 293.704 L 218.889 293.704 218.889 300.000 L 218.889 306.296 215.741 306.296 L 212.593 306.296 212.593 318.704 L 212.593 331.111 215.741 331.111 L 218.889 331.111 218.889 327.963 L 218.889 324.815 221.852 324.815 L 224.815 324.815 224.815 321.852 L 224.815 318.889 227.963 318.889 L 231.111 318.889 231.111 312.593 L 231.111 306.296 234.259 306.296 L 237.407 306.296 237.407 300.000 L 237.407 293.704 240.556 293.704 L 243.704 293.704 243.704 287.407 L 243.704 281.111 240.556 281.111 L 237.407 281.111 237.407 275.000 L 237.407 268.889 234.259 268.889 L 231.111 268.889 231.111 265.741 L 231.111 262.593 221.852 262.593 L 212.593 262.593 212.593 265.741 " stroke="none" fill="#04f973" fill-rule="evenodd"></path><path id="path4" d="M137.407 93.704 L 137.407 100.000 140.556 100.000 L 143.704 100.000 143.704 103.148 L 143.704 106.296 146.852 106.296 L 150.000 106.296 150.000 109.444 L 150.000 112.593 153.148 112.593 L 156.296 112.593 156.296 106.296 L 156.296 100.000 153.148 100.000 L 150.000 100.000 150.000 96.852 L 150.000 93.704 146.852 93.704 L 143.704 93.704 143.704 90.556 L 143.704 87.407 140.556 87.407 L 137.407 87.407 137.407 93.704 M256.296 90.556 L 256.296 93.704 253.148 93.704 L 250.000 93.704 250.000 96.852 L 250.000 100.000 246.852 100.000 L 243.704 100.000 243.704 106.296 L 243.704 112.593 246.852 112.593 L 250.000 112.593 250.000 109.444 L 250.000 106.296 253.148 106.296 L 256.296 106.296 256.296 103.148 L 256.296 100.000 259.444 100.000 L 262.593 100.000 262.593 93.704 L 262.593 87.407 259.444 87.407 L 256.296 87.407 256.296 90.556 M168.889 118.704 L 168.889 124.815 178.148 124.815 L 187.407 124.815 187.407 121.852 L 187.407 118.889 181.111 118.889 L 174.815 118.889 174.815 115.741 L 174.815 112.593 171.852 112.593 L 168.889 112.593 168.889 118.704 M224.815 115.741 L 224.815 118.889 218.704 118.889 L 212.593 118.889 212.593 121.852 L 212.593 124.815 221.852 124.815 L 231.111 124.815 231.111 118.704 L 231.111 112.593 227.963 112.593 L 224.815 112.593 224.815 115.741 M105.926 199.815 L 105.926 281.111 112.407 281.111 L 118.889 281.111 118.889 287.407 L 118.889 293.704 121.852 293.704 L 124.815 293.704 124.815 296.852 L 124.815 300.000 127.963 300.000 L 131.111 300.000 131.111 303.148 L 131.111 306.296 134.259 306.296 L 137.407 306.296 137.407 309.444 L 137.407 312.593 143.704 312.593 L 150.000 312.593 150.000 225.000 L 150.000 137.407 146.852 137.407 L 143.704 137.407 143.704 218.704 L 143.704 300.000 140.556 300.000 L 137.407 300.000 137.407 243.704 L 137.407 187.407 134.259 187.407 L 131.111 187.407 131.111 237.407 L 131.111 287.407 127.963 287.407 L 124.815 287.407 124.815 221.852 L 124.815 156.296 121.852 156.296 L 118.889 156.296 118.889 215.556 L 118.889 274.815 115.741 274.815 L 112.593 274.815 112.593 196.667 L 112.593 118.519 109.259 118.519 L 105.926 118.519 105.926 199.815 M287.407 196.667 L 287.407 274.815 284.259 274.815 L 281.111 274.815 281.111 215.556 L 281.111 156.296 277.963 156.296 L 274.815 156.296 274.815 221.852 L 274.815 287.407 271.852 287.407 L 268.889 287.407 268.889 237.407 L 268.889 187.407 265.741 187.407 L 262.593 187.407 262.593 243.704 L 262.593 300.000 259.444 300.000 L 256.296 300.000 256.296 218.704 L 256.296 137.407 253.148 137.407 L 250.000 137.407 250.000 225.000 L 250.000 312.593 256.296 312.593 L 262.593 312.593 262.593 309.444 L 262.593 306.296 265.741 306.296 L 268.889 306.296 268.889 303.148 L 268.889 300.000 271.852 300.000 L 274.815 300.000 274.815 296.852 L 274.815 293.704 277.963 293.704 L 281.111 293.704 281.111 287.407 L 281.111 281.111 287.593 281.111 L 294.074 281.111 294.074 199.815 L 294.074 118.519 290.741 118.519 L 287.407 118.519 287.407 196.667 " stroke="none" fill="#5c1414" fill-rule="evenodd"></path></g></svg>