<?xml version="1.0" encoding="UTF-8"?>
<svg width="46px" height="62px" viewBox="0 0 46 62" version="1.1" xmlns:xlink="http://www.w3.org/1999/xlink" xmlns="http://www.w3.org/2000/svg">
  <desc>Created with Lunacy</desc>
  <g id="009-woman-7">
    <path d="M13.6916 0C8.19435 0 4.39165 1.03329 1.29166 7.23328C-0.775044 11.3666 0.258368 24.8 0.258368 24.8L0.258368 45.4666L27.0733 45.4666L27.0733 15.5C26.8149 6.3654 23.9733 0 13.6916 0Z" transform="translate(9.093262 1.033295)" id="Path" fill="#FECB66" stroke="none"/>
    <path d="M12.0383 0C7.42965 0.237707 4.06107 1.65329 1.29166 7.23328C-0.775044 11.3666 0.258368 24.8 0.258368 24.8L0.258368 45.4666L12.2553 45.4666C8.74206 26.4534 10.9843 7.33669 12.0383 0Z" transform="translate(9.300049 1.033295)" id="Path" fill="#F5AD76" stroke="none"/>
    <path d="M9.09315 14.4667C12.8524 14.4687 16.251 12.2285 17.7318 8.77298L18.1866 7.73969L16.1198 7.4814C15.0803 7.35013 14.3032 6.46252 14.3116 5.4147L14.3116 0L3.92658 0L3.92658 5.40428C3.93481 6.4521 3.15776 7.33972 2.11829 7.47098L0 7.72928L0.454706 8.76257C1.93217 12.2222 5.33187 14.4667 9.09315 14.4667Z" transform="translate(13.64014 34.09995)" id="Path" fill="#FEDAC6" stroke="none"/>
    <path d="M10.3333 4.69128L10.3333 0L0 0L0 4.69128C3.87499 6.70628 6.45828 6.70628 10.3333 4.69128Z" transform="translate(17.56689 34.09995)" id="Path" fill="#F5C4B0" stroke="none"/>
    <path d="M8.26675 11.3667L8.26675 0L5.43546 0.351292C2.3127 0.738791 -0.0236744 3.40479 0.000181038 6.55128L0.000181038 19.6334L6.20017 19.6334C6.19908 16.9147 6.83252 14.2321 8.04987 11.8007L8.26675 11.3667Z" transform="translate(1.033447 42.36652)" id="Path" fill="#FEDAC6" stroke="none"/>
    <path d="M28.9334 11.9144L28.9334 0.547706L24.5934 0L24.1387 1.03329C22.0875 5.80413 16.5571 8.00937 11.7863 5.95816C9.57499 5.00746 7.81308 3.24458 6.8614 1.03329L6.4067 0L2.0667 0.547706L2.0667 11.9144L1.8497 12.3484C0.632473 14.7798 -0.000967639 17.4623 1.10949e-06 20.1811L30.9999 20.1811C31.001 17.4624 30.3676 14.7798 29.1502 12.3484L28.9334 11.9144Z" transform="translate(7.233398 41.81882)" id="Path" fill="#74A32E" stroke="none"/>
    <path d="M2.83129 0.351292L0 0L0 11.3667L0.217 11.8007C1.43423 14.2321 2.06767 16.9146 2.0667 19.6334L8.26669 19.6334L8.26669 6.50999C8.26972 3.37899 5.93855 0.737823 2.83129 0.351292Z" transform="translate(36.16675 42.36664)" id="Path" fill="#FEDAC6" stroke="none"/>
    <path d="M0 5.3424L0 18.4657L3.09999 18.4657L3.09999 0C1.19047 1.10256 0.010414 3.13729 0 5.3424Z" transform="translate(1.033447 43.53421)" id="Path" fill="#F5C4B0" stroke="none"/>
    <path d="M25.0583 16.5333C22.4491 13.8311 20.3494 10.6804 18.8583 7.23328C14.3932 14.6888 7.9566 20.7679 0.258323 24.8C0.258323 24.8 -0.774968 11.3667 1.29161 7.23328C4.39161 1.03329 8.24589 0 13.6916 0L13.6916 0C24.0249 0 26.8149 6.36528 27.1249 15.5L27.1249 17.5666" transform="translate(9.041748 1.033417)" id="Path" fill="#FECB66" stroke="none"/>
    <path d="M0.237707 17.5667C9.3414 13.0097 15.7377 6.19999 18.8377 0C10.85 7.23328 6.4377 11.3667 0 11.997C0.0517069 15.1177 0.237707 17.5667 0.237707 17.5667Z" transform="translate(9.062256 8.266571)" id="Path" fill="#F5AD76" stroke="none"/>
    <path d="M22.2098 9.29998C19.6006 6.59778 17.5009 3.44717 16.0098 0C12.081 6.55237 6.63341 12.0631 0.127535 16.0683C-0.0584642 16.182 0.0138286 16.275 0.0138286 16.275L0.0138286 17.577C0.27418 23.3637 5.05023 27.9165 10.8431 27.8999L10.8431 27.8999C16.6277 27.8999 21.3872 23.3461 21.6414 17.5667L22.2098 9.29998Z" transform="translate(11.89014 8.266693)" id="Path" fill="#FEDAC6" stroke="none"/>
    <path d="M0 2.06658L0.0517069 4.13329C0.237706 8.26657 3.7407 11.7283 7.28498 13.4333C5.21828 9.29998 3.1517 5.16658 4.18499 0C3.09999 1.03317 0 2.06658 0 2.06658Z" transform="translate(11.36694 21.70007)" id="Path" fill="#F5C4B0" stroke="none"/>
    <path d="M2.0667 0L0 0L0 6.19999L2.0667 6.19999C3.77897 6.19999 5.1667 4.81226 5.1667 3.09999C5.1667 1.38773 3.77897 0 2.0667 0Z" transform="translate(33.06665 17.56668)" id="Path" fill="#FEDAC6" stroke="none"/>
    <path d="M1.15729 0C0.402999 1.98085 0.0113828 4.08061 0 6.19999L6.87169 6.19999C2.83129 4.50528 1.54988 1.798 1.15729 0Z" transform="translate(7.233398 55.79987)" id="Path" fill="#688E26" stroke="none"/>
    <path d="M2.0667 4.13341C3.20811 4.13341 4.13341 3.20811 4.13341 2.0667C4.13341 0.925295 3.20811 0 2.0667 0C0.925295 0 0 0.925295 0 2.0667C0 3.20811 0.925295 4.13341 2.0667 4.13341Z" transform="translate(26.86646 17.56656)" id="Oval" fill="#000000" stroke="none"/>
    <path d="M3.8062 6.76622L0.706206 5.73293C0.390999 5.62758 0.146148 5.37752 0.0469727 5.06122C-0.0522028 4.74396 0.00773845 4.39884 0.207179 4.13329L3.30717 0L4.96046 1.24L2.7212 4.22628L4.46132 4.80596L3.8062 6.76622Z" transform="translate(18.60059 20.04764)" id="Path" fill="#000000" stroke="none"/>
    <path d="M2.06691 26.8665L0.000211503 26.8665L0.000211503 13.7433C-0.02764 10.0801 2.6983 6.97087 6.34176 6.51822L15.6417 5.36093C16.1594 5.29578 16.548 4.85149 16.5449 4.32764L16.5449 0L18.6116 0L18.6116 4.31928C18.6239 5.88369 17.4573 7.21669 15.8991 7.41104L6.59799 8.56833C3.99509 8.89177 2.04827 11.1135 2.06788 13.735L2.06788 26.8665L2.06691 26.8665Z" transform="translate(0 35.13333)" id="Path" fill="#000000" stroke="none"/>
    <path d="M18.6105 26.8667L16.5438 26.8667L16.5438 13.795C16.5645 11.1652 14.6166 8.94457 12.0146 8.62004L2.71465 7.46372C1.15436 7.26743 -0.0122544 5.93443 9.71646e-05 4.36373L9.71646e-05 0L2.0668 0L2.0668 4.37099C2.06268 4.9032 2.45115 5.3464 2.97101 5.41264L12.2689 6.56896C15.9125 7.02161 18.6383 10.1319 18.6105 13.8022L18.6105 26.8667L18.6105 26.8667Z" transform="translate(26.86646 35.13324)" id="Path" fill="#000000" stroke="none"/>
    <path d="M1.03329 8.26681L0 8.26681L0 6.20011L1.03329 6.20011C2.17302 6.20011 3.09999 5.27326 3.09999 4.13341C3.09999 2.99367 2.17314 2.0667 1.03329 2.0667L0 2.0667L0 0L1.03329 0C3.31287 0 5.16657 1.85382 5.16657 4.13329C5.16657 6.41275 3.31287 8.26681 1.03329 8.26681Z" transform="translate(34.1001 16.53314)" id="Path" fill="#000000" stroke="none"/>
    <path d="M10.2548 8.67381C10.2507 8.67381 10.2466 8.67381 10.2434 8.67381C6.06775 8.67381 2.30635 6.19381 0.661292 2.35394L0 0.815323L1.89923 6.88337e-15L2.56052 1.5397C3.88008 4.61802 6.8964 6.60711 10.2444 6.60711C10.2475 6.60711 10.2506 6.60711 10.2537 6.60711C13.6038 6.60711 16.6201 4.61899 17.9396 1.54067L18.6009 0L20.5002 0.815323L19.8389 2.35503C18.1939 6.19381 14.4316 8.67381 10.2548 8.67381Z" transform="translate(12.48389 40.92609)" id="Path" fill="#000000" stroke="none"/>
    <path d="M11.8833 20.7296C5.52937 20.7296 0.332644 15.7562 0.0526757 9.40848L0 7.32216L2.06561 7.27045L2.11732 9.33716C2.34873 14.5575 6.63811 18.6629 11.8834 18.6629C17.1287 18.6629 21.419 14.5575 21.6495 9.31754L22.2188 0L24.2814 0.126058L23.7131 9.42604C23.4349 15.7573 18.2383 20.7296 11.8833 20.7296Z" transform="translate(10.85034 16.47028)" id="Path" fill="#000000" stroke="none"/>
    <path d="M0.78844 2.9915C0.78735 2.9915 0.786381 2.9915 0.785291 2.9915L0 2.9915L0 0.924791L0.785291 0.924791C0.786381 0.924791 0.78735 0.924791 0.78844 0.924791C2.14105 0.924791 3.49476 0.605468 4.70473 0L5.62952 1.84861C4.13438 2.59673 2.46038 2.9915 0.78844 2.9915Z" transform="translate(20.6665 26.97516)" id="Path" fill="#000000" stroke="none"/>
    <path d="M1.29141 26.8667C1.11886 26.8667 0.946298 26.8233 0.791298 26.7374C0.487474 26.569 0.288033 26.259 0.261151 25.9128C0.217799 25.3527 -0.769113 12.1447 1.40088 7.80472C4.66423 1.27717 8.75719 0 14.7247 0C27.0513 0 28.9299 8.81742 29.1903 16.4981L29.1914 18.6L27.1247 18.6L27.1247 16.5333C26.7754 6.26816 23.1835 2.06658 14.7247 2.06658C9.32246 2.06658 6.0654 3.09685 3.2495 8.72842C1.85244 11.5216 1.97741 19.7168 2.21826 24.1498C9.1281 20.2201 14.9096 14.5719 19.0058 7.73533C19.2032 7.40257 19.5679 7.20833 19.9596 7.23522C20.3471 7.26101 20.687 7.50077 20.841 7.85631C22.2866 11.2002 24.3037 14.2257 26.8363 16.8494L25.3494 18.2848C23.0916 15.9463 21.2182 13.3093 19.7622 10.4242C15.261 17.3041 9.07543 22.9254 1.77288 26.7498C1.62006 26.8273 1.45574 26.8667 1.29141 26.8667Z" transform="translate(8.008545 0)" id="Path" fill="#000000" stroke="none"/>
    <path d="M0 0L2.0667 0L2.0667 18.6L0 18.6L0 0Z" transform="translate(35.1333 23.76669)" id="Rectangle" fill="#000000" stroke="none"/>
    <path d="M0 0L2.0667 0L2.0667 17.5667L0 17.5667L0 0Z" transform="translate(8.266846 24.79996)" id="Rectangle" fill="#000000" stroke="none"/>
    <path d="M0 19.6333C0 16.7689 0.676792 13.9003 1.95917 11.3387L2.06658 11.1228L2.06658 0L4.13328 0L4.13328 11.3667C4.13328 11.5269 4.09611 11.686 4.02479 11.8285L3.80779 12.2625C2.66805 14.539 2.06658 17.0882 2.06658 19.6333L0 19.6333L0 19.6333Z" transform="translate(6.200195 42.36664)" id="Path" fill="#000000" stroke="none"/>
    <path d="M4.13341 19.6333L2.0667 19.6333C2.06779 17.0881 1.46632 14.5399 0.325499 12.2625L0.1085 11.8285C0.0371757 11.6849 0 11.5268 0 11.3667L0 0L2.0667 0L2.0667 11.1228L2.17411 11.3387C3.45758 13.9014 4.13438 16.7699 4.13341 19.6333Z" transform="translate(35.1333 42.36664)" id="Path" fill="#000000" stroke="none"/>
  </g>
</svg>