<svg id="svg" version="1.1" xmlns="http://www.w3.org/2000/svg" xmlns:xlink="http://www.w3.org/1999/xlink" width="400" height="539.1969407265775" viewBox="0, 0, 400,539.1969407265775"><g id="svgg"><path id="path0" d="M104.398 69.407 L 104.398 86.807 108.795 86.807 L 113.193 86.807 113.193 91.205 L 113.193 95.602 117.400 95.602 L 121.606 95.602 121.606 100.000 L 121.606 104.398 126.004 104.398 L 130.402 104.398 130.402 100.000 L 130.402 95.602 126.004 95.602 L 121.606 95.602 121.606 86.998 L 121.606 78.394 117.400 78.394 L 113.193 78.394 113.193 65.201 L 113.193 52.008 108.795 52.008 L 104.398 52.008 104.398 69.407 M286.807 65.010 L 286.807 69.216 291.205 69.216 L 295.602 69.216 295.602 65.010 L 295.602 60.803 291.205 60.803 L 286.807 60.803 286.807 65.010 M278.394 73.996 L 278.394 78.394 282.600 78.394 L 286.807 78.394 286.807 73.996 L 286.807 69.598 282.600 69.598 L 278.394 69.598 278.394 73.996 M243.595 82.600 L 243.595 86.807 256.597 86.807 L 269.598 86.807 269.598 82.600 L 269.598 78.394 256.597 78.394 L 243.595 78.394 243.595 82.600 M52.008 126.004 L 52.008 130.402 60.803 130.402 L 69.598 130.402 69.598 134.799 L 69.598 139.197 78.203 139.197 L 86.807 139.197 86.807 143.595 L 86.807 147.992 91.205 147.992 L 95.602 147.992 95.602 143.595 L 95.602 139.197 91.205 139.197 L 86.807 139.197 86.807 134.799 L 86.807 130.402 78.203 130.402 L 69.598 130.402 69.598 126.004 L 69.598 121.606 60.803 121.606 L 52.008 121.606 52.008 126.004 M304.398 143.595 L 304.398 147.992 308.795 147.992 L 313.193 147.992 313.193 152.199 L 313.193 156.405 317.400 156.405 L 321.606 156.405 321.606 160.803 L 321.606 165.201 317.400 165.201 L 313.193 165.201 313.193 169.598 L 313.193 173.996 308.795 173.996 L 304.398 173.996 304.398 178.394 L 304.398 182.792 295.602 182.792 L 286.807 182.792 286.807 186.998 L 286.807 191.205 295.602 191.205 L 304.398 191.205 304.398 186.998 L 304.398 182.792 308.795 182.792 L 313.193 182.792 313.193 178.394 L 313.193 173.996 317.400 173.996 L 321.606 173.996 321.606 169.598 L 321.606 165.201 330.402 165.201 L 339.197 165.201 339.197 160.803 L 339.197 156.405 334.799 156.405 L 330.402 156.405 330.402 152.199 L 330.402 147.992 321.797 147.992 L 313.193 147.992 313.193 143.595 L 313.193 139.197 308.795 139.197 L 304.398 139.197 304.398 143.595 M78.394 195.793 L 78.394 208.795 82.600 208.795 L 86.807 208.795 86.807 195.793 L 86.807 182.792 82.600 182.792 L 78.394 182.792 78.394 195.793 M165.201 195.793 L 165.201 208.795 160.803 208.795 L 156.405 208.795 156.405 213.193 L 156.405 217.591 152.199 217.591 L 147.992 217.591 147.992 221.797 L 147.992 226.004 152.199 226.004 L 156.405 226.004 156.405 221.797 L 156.405 217.591 160.803 217.591 L 165.201 217.591 165.201 213.193 L 165.201 208.795 169.598 208.795 L 173.996 208.795 173.996 195.793 L 173.996 182.792 169.598 182.792 L 165.201 182.792 165.201 195.793 M191.205 204.398 L 191.205 208.795 195.602 208.795 L 200.000 208.795 200.000 204.398 L 200.000 200.000 195.602 200.000 L 191.205 200.000 191.205 204.398 M208.795 213.193 L 208.795 217.591 213.002 217.591 L 217.208 217.591 217.208 213.193 L 217.208 208.795 213.002 208.795 L 208.795 208.795 208.795 213.193 M339.197 213.193 L 339.197 217.591 334.990 217.591 L 330.784 217.591 330.784 221.797 L 330.784 226.004 334.990 226.004 L 339.197 226.004 339.197 221.797 L 339.197 217.591 343.595 217.591 L 347.992 217.591 347.992 213.193 L 347.992 208.795 343.595 208.795 L 339.197 208.795 339.197 213.193 M69.598 221.797 L 69.598 226.004 65.201 226.004 L 60.803 226.004 60.803 230.402 L 60.803 234.799 65.201 234.799 L 69.598 234.799 69.598 230.402 L 69.598 226.004 73.996 226.004 L 78.394 226.004 78.394 221.797 L 78.394 217.591 73.996 217.591 L 69.598 217.591 69.598 221.797 M243.595 221.797 L 243.595 226.004 247.801 226.004 L 252.008 226.004 252.008 221.797 L 252.008 217.591 247.801 217.591 L 243.595 217.591 243.595 221.797 M182.792 230.402 L 182.792 234.799 186.998 234.799 L 191.205 234.799 191.205 247.801 L 191.205 260.803 186.998 260.803 L 182.792 260.803 182.792 256.405 L 182.792 252.008 178.394 252.008 L 173.996 252.008 173.996 256.597 L 173.996 261.185 178.394 261.185 L 182.792 261.185 182.792 265.392 L 182.792 269.598 165.392 269.598 L 147.992 269.598 147.992 265.392 L 147.992 261.185 152.199 261.185 L 156.405 261.185 156.405 256.597 L 156.405 252.008 152.008 252.008 L 147.610 252.008 147.610 256.405 L 147.610 260.803 143.403 260.803 L 139.197 260.803 139.197 269.598 L 139.197 278.394 134.799 278.394 L 130.402 278.394 130.402 295.793 L 130.402 313.193 134.799 313.193 L 139.197 313.193 139.197 317.400 L 139.197 321.606 143.595 321.606 L 147.992 321.606 147.992 330.402 L 147.992 339.197 156.597 339.197 L 165.201 339.197 165.201 343.595 L 165.201 347.992 178.203 347.992 L 191.205 347.992 191.205 352.199 L 191.205 356.405 200.000 356.405 L 208.795 356.405 208.795 352.199 L 208.795 347.992 221.797 347.992 L 234.799 347.992 234.799 343.595 L 234.799 339.197 243.403 339.197 L 252.008 339.197 252.008 330.402 L 252.008 321.606 256.405 321.606 L 260.803 321.606 260.803 317.400 L 260.803 313.193 265.201 313.193 L 269.598 313.193 269.598 295.793 L 269.598 278.394 265.201 278.394 L 260.803 278.394 260.803 269.598 L 260.803 260.803 256.597 260.803 L 252.390 260.803 252.390 256.405 L 252.390 252.008 247.992 252.008 L 243.595 252.008 243.595 256.597 L 243.595 261.185 247.801 261.185 L 252.008 261.185 252.008 265.392 L 252.008 269.598 234.608 269.598 L 217.208 269.598 217.208 265.392 L 217.208 261.185 221.606 261.185 L 226.004 261.185 226.004 256.597 L 226.004 252.008 221.606 252.008 L 217.208 252.008 217.208 256.405 L 217.208 260.803 213.002 260.803 L 208.795 260.803 208.795 247.801 L 208.795 234.799 213.002 234.799 L 217.208 234.799 217.208 230.402 L 217.208 226.004 200.000 226.004 L 182.792 226.004 182.792 230.402 M260.803 230.402 L 260.803 234.799 265.201 234.799 L 269.598 234.799 269.598 243.595 L 269.598 252.390 273.996 252.390 L 278.394 252.390 278.394 243.595 L 278.394 234.799 273.996 234.799 L 269.598 234.799 269.598 230.402 L 269.598 226.004 265.201 226.004 L 260.803 226.004 260.803 230.402 M313.193 230.402 L 313.193 234.799 317.400 234.799 L 321.606 234.799 321.606 230.402 L 321.606 226.004 317.400 226.004 L 313.193 226.004 313.193 230.402 M78.394 260.994 L 78.394 278.394 82.600 278.394 L 86.807 278.394 86.807 282.600 L 86.807 286.807 91.205 286.807 L 95.602 286.807 95.602 295.602 L 95.602 304.398 100.000 304.398 L 104.398 304.398 104.398 295.602 L 104.398 286.807 100.000 286.807 L 95.602 286.807 95.602 278.203 L 95.602 269.598 91.205 269.598 L 86.807 269.598 86.807 256.597 L 86.807 243.595 82.600 243.595 L 78.394 243.595 78.394 260.994 M208.795 282.600 L 208.795 286.807 200.000 286.807 L 191.205 286.807 191.205 282.600 L 191.205 278.394 200.000 278.394 L 208.795 278.394 208.795 282.600 M217.208 300.000 L 217.208 304.398 221.797 304.398 L 226.386 304.398 226.386 308.795 L 226.386 313.193 221.797 313.193 L 217.208 313.193 217.208 317.591 L 217.208 321.989 200.000 321.989 L 182.792 321.989 182.792 317.591 L 182.792 313.193 178.203 313.193 L 173.614 313.193 173.614 308.795 L 173.614 304.398 178.203 304.398 L 182.792 304.398 182.792 300.000 L 182.792 295.602 200.000 295.602 L 217.208 295.602 217.208 300.000 M191.205 308.604 L 191.205 313.193 200.000 313.193 L 208.795 313.193 208.795 308.604 L 208.795 304.015 200.000 304.015 L 191.205 304.015 191.205 308.604 M52.008 478.394 L 52.008 487.189 56.405 487.189 L 60.803 487.189 60.803 478.394 L 60.803 469.598 56.405 469.598 L 52.008 469.598 52.008 478.394 M339.197 473.996 L 339.197 478.394 343.595 478.394 L 347.992 478.394 347.992 473.996 L 347.992 469.598 343.595 469.598 L 339.197 469.598 339.197 473.996 M43.212 504.398 L 43.212 513.193 47.610 513.193 L 52.008 513.193 52.008 504.398 L 52.008 495.602 47.610 495.602 L 43.212 495.602 43.212 504.398 M347.992 500.000 L 347.992 504.398 352.390 504.398 L 356.788 504.398 356.788 500.000 L 356.788 495.602 352.390 495.602 L 347.992 495.602 347.992 500.000 M60.803 526.195 L 60.803 530.402 65.201 530.402 L 69.598 530.402 69.598 526.195 L 69.598 521.989 65.201 521.989 L 60.803 521.989 60.803 526.195 " stroke="none" fill="#ecb98c" fill-rule="evenodd"></path><path id="path1" d="M113.193 69.598 L 113.193 78.394 121.797 78.394 L 130.402 78.394 130.402 82.600 L 130.402 86.807 134.799 86.807 L 139.197 86.807 139.197 91.205 L 139.197 95.602 143.595 95.602 L 147.992 95.602 147.992 91.205 L 147.992 86.807 143.595 86.807 L 139.197 86.807 139.197 78.011 L 139.197 69.216 143.595 69.216 L 147.992 69.216 147.992 73.805 L 147.992 78.394 152.199 78.394 L 156.405 78.394 156.405 82.600 L 156.405 86.807 169.598 86.807 L 182.792 86.807 182.792 78.203 L 182.792 69.598 169.598 69.598 L 156.405 69.598 156.405 65.201 L 156.405 60.803 134.799 60.803 L 113.193 60.803 113.193 69.598 M269.598 82.600 L 269.598 86.807 247.801 86.807 L 226.004 86.807 226.004 91.205 L 226.004 95.602 217.400 95.602 L 208.795 95.602 208.795 108.604 L 208.795 121.606 165.201 121.606 L 121.606 121.606 121.606 117.400 L 121.606 113.193 104.207 113.193 L 86.807 113.193 86.807 117.400 L 86.807 121.606 78.203 121.606 L 69.598 121.606 69.598 126.004 L 69.598 130.402 78.203 130.402 L 86.807 130.402 86.807 134.799 L 86.807 139.197 91.205 139.197 L 95.602 139.197 95.602 143.595 L 95.602 147.992 104.398 147.992 L 113.193 147.992 113.193 143.595 L 113.193 139.197 108.795 139.197 L 104.398 139.197 104.398 134.799 L 104.398 130.402 113.002 130.402 L 121.606 130.402 121.606 134.799 L 121.606 139.197 147.801 139.197 L 173.996 139.197 173.996 143.595 L 173.996 147.992 178.394 147.992 L 182.792 147.992 182.792 152.199 L 182.792 156.405 186.998 156.405 L 191.205 156.405 191.205 165.201 L 191.205 173.996 195.602 173.996 L 200.000 173.996 200.000 178.394 L 200.000 182.792 204.398 182.792 L 208.795 182.792 208.795 186.998 L 208.795 191.205 213.002 191.205 L 217.208 191.205 217.208 195.602 L 217.208 200.000 221.606 200.000 L 226.004 200.000 226.004 204.398 L 226.004 208.795 230.402 208.795 L 234.799 208.795 234.799 213.193 L 234.799 217.591 243.403 217.591 L 252.008 217.591 252.008 221.797 L 252.008 226.004 260.803 226.004 L 269.598 226.004 269.598 230.402 L 269.598 234.799 273.996 234.799 L 278.394 234.799 278.394 247.801 L 278.394 260.803 282.600 260.803 L 286.807 260.803 286.807 273.805 L 286.807 286.807 291.205 286.807 L 295.602 286.807 295.602 291.205 L 295.602 295.602 300.000 295.602 L 304.398 295.602 304.398 286.998 L 304.398 278.394 300.000 278.394 L 295.602 278.394 295.602 260.994 L 295.602 243.595 291.205 243.595 L 286.807 243.595 286.807 234.799 L 286.807 226.004 282.600 226.004 L 278.394 226.004 278.394 221.797 L 278.394 217.591 273.996 217.591 L 269.598 217.591 269.598 213.193 L 269.598 208.795 260.803 208.795 L 252.008 208.795 252.008 204.398 L 252.008 200.000 247.801 200.000 L 243.595 200.000 243.595 195.602 L 243.595 191.205 239.197 191.205 L 234.799 191.205 234.799 182.600 L 234.799 173.996 230.402 173.996 L 226.004 173.996 226.004 169.598 L 226.004 165.201 217.400 165.201 L 208.795 165.201 208.795 160.803 L 208.795 156.405 204.398 156.405 L 200.000 156.405 200.000 152.199 L 200.000 147.992 213.002 147.992 L 226.004 147.992 226.004 152.199 L 226.004 156.405 230.402 156.405 L 234.799 156.405 234.799 152.199 L 234.799 147.992 230.402 147.992 L 226.004 147.992 226.004 143.595 L 226.004 139.197 221.606 139.197 L 217.208 139.197 217.208 134.799 L 217.208 130.402 213.002 130.402 L 208.795 130.402 208.795 126.004 L 208.795 121.606 213.002 121.606 L 217.208 121.606 217.208 117.400 L 217.208 113.193 221.606 113.193 L 226.004 113.193 226.004 108.795 L 226.004 104.398 234.799 104.398 L 243.595 104.398 243.595 100.000 L 243.595 95.602 247.801 95.602 L 252.008 95.602 252.008 104.398 L 252.008 113.193 247.801 113.193 L 243.595 113.193 243.595 117.400 L 243.595 121.606 247.801 121.606 L 252.008 121.606 252.008 126.004 L 252.008 130.402 256.405 130.402 L 260.803 130.402 260.803 134.799 L 260.803 139.197 265.201 139.197 L 269.598 139.197 269.598 143.595 L 269.598 147.992 260.803 147.992 L 252.008 147.992 252.008 143.595 L 252.008 139.197 247.801 139.197 L 243.595 139.197 243.595 143.595 L 243.595 147.992 247.801 147.992 L 252.008 147.992 252.008 152.199 L 252.008 156.405 256.405 156.405 L 260.803 156.405 260.803 165.201 L 260.803 173.996 269.598 173.996 L 278.394 173.996 278.394 182.600 L 278.394 191.205 282.600 191.205 L 286.807 191.205 286.807 186.998 L 286.807 182.792 295.602 182.792 L 304.398 182.792 304.398 178.394 L 304.398 173.996 308.795 173.996 L 313.193 173.996 313.193 169.598 L 313.193 165.201 317.400 165.201 L 321.606 165.201 321.606 160.803 L 321.606 156.405 317.400 156.405 L 313.193 156.405 313.193 152.199 L 313.193 147.992 308.795 147.992 L 304.398 147.992 304.398 143.595 L 304.398 139.197 300.000 139.197 L 295.602 139.197 295.602 130.402 L 295.602 121.606 278.203 121.606 L 260.803 121.606 260.803 108.604 L 260.803 95.602 265.201 95.602 L 269.598 95.602 269.598 91.205 L 269.598 86.807 278.203 86.807 L 286.807 86.807 286.807 82.600 L 286.807 78.394 278.203 78.394 L 269.598 78.394 269.598 82.600 M104.398 126.004 L 104.398 130.402 100.000 130.402 L 95.602 130.402 95.602 126.004 L 95.602 121.606 100.000 121.606 L 104.398 121.606 104.398 126.004 M295.602 152.199 L 295.602 156.405 282.600 156.405 L 269.598 156.405 269.598 152.199 L 269.598 147.992 282.600 147.992 L 295.602 147.992 295.602 152.199 M95.602 169.598 L 95.602 173.996 91.205 173.996 L 86.807 173.996 86.807 191.396 L 86.807 208.795 82.600 208.795 L 78.394 208.795 78.394 217.400 L 78.394 226.004 73.996 226.004 L 69.598 226.004 69.598 230.402 L 69.598 234.799 73.996 234.799 L 78.394 234.799 78.394 230.402 L 78.394 226.004 86.998 226.004 L 95.602 226.004 95.602 221.797 L 95.602 217.591 100.000 217.591 L 104.398 217.591 104.398 208.795 L 104.398 200.000 108.795 200.000 L 113.193 200.000 113.193 195.602 L 113.193 191.205 117.400 191.205 L 121.606 191.205 121.606 186.998 L 121.606 182.792 117.400 182.792 L 113.193 182.792 113.193 186.998 L 113.193 191.205 108.795 191.205 L 104.398 191.205 104.398 182.600 L 104.398 173.996 113.002 173.996 L 121.606 173.996 121.606 169.598 L 121.606 165.201 108.604 165.201 L 95.602 165.201 95.602 169.598 M156.405 182.600 L 156.405 191.205 152.199 191.205 L 147.992 191.205 147.992 195.602 L 147.992 200.000 143.595 200.000 L 139.197 200.000 139.197 208.795 L 139.197 217.591 147.801 217.591 L 156.405 217.591 156.405 213.193 L 156.405 208.795 160.803 208.795 L 165.201 208.795 165.201 191.396 L 165.201 173.996 160.803 173.996 L 156.405 173.996 156.405 182.600 M321.606 204.398 L 321.606 208.795 326.004 208.795 L 330.402 208.795 330.402 204.398 L 330.402 200.000 326.004 200.000 L 321.606 200.000 321.606 204.398 M330.784 213.193 L 330.784 217.591 334.990 217.591 L 339.197 217.591 339.197 213.193 L 339.197 208.795 334.990 208.795 L 330.784 208.795 330.784 213.193 M86.807 252.199 L 86.807 269.598 91.205 269.598 L 95.602 269.598 95.602 278.203 L 95.602 286.807 104.398 286.807 L 113.193 286.807 113.193 273.805 L 113.193 260.803 104.398 260.803 L 95.602 260.803 95.602 256.597 L 95.602 252.390 100.000 252.390 L 104.398 252.390 104.398 247.992 L 104.398 243.595 100.000 243.595 L 95.602 243.595 95.602 239.197 L 95.602 234.799 91.205 234.799 L 86.807 234.799 86.807 252.199 M347.992 508.795 L 347.992 513.193 352.390 513.193 L 356.788 513.193 356.788 508.795 L 356.788 504.398 352.390 504.398 L 347.992 504.398 347.992 508.795 " stroke="none" fill="#8c8c8c" fill-rule="evenodd"></path><path id="path2" d="M139.197 78.011 L 139.197 86.807 134.799 86.807 L 130.402 86.807 130.402 82.600 L 130.402 78.394 126.004 78.394 L 121.606 78.394 121.606 86.998 L 121.606 95.602 126.004 95.602 L 130.402 95.602 130.402 100.000 L 130.402 104.398 156.597 104.398 L 182.792 104.398 182.792 100.000 L 182.792 95.602 186.998 95.602 L 191.205 95.602 191.205 104.398 L 191.205 113.193 195.602 113.193 L 200.000 113.193 200.000 117.400 L 200.000 121.606 204.398 121.606 L 208.795 121.606 208.795 126.004 L 208.795 130.402 213.002 130.402 L 217.208 130.402 217.208 134.799 L 217.208 139.197 221.606 139.197 L 226.004 139.197 226.004 143.595 L 226.004 147.992 213.002 147.992 L 200.000 147.992 200.000 152.199 L 200.000 156.405 204.398 156.405 L 208.795 156.405 208.795 160.803 L 208.795 165.201 217.400 165.201 L 226.004 165.201 226.004 169.598 L 226.004 173.996 239.006 173.996 L 252.008 173.996 252.008 178.394 L 252.008 182.792 256.405 182.792 L 260.803 182.792 260.803 186.998 L 260.803 191.205 269.598 191.205 L 278.394 191.205 278.394 182.600 L 278.394 173.996 269.598 173.996 L 260.803 173.996 260.803 165.201 L 260.803 156.405 256.405 156.405 L 252.008 156.405 252.008 152.199 L 252.008 147.992 260.803 147.992 L 269.598 147.992 269.598 152.199 L 269.598 156.405 282.600 156.405 L 295.602 156.405 295.602 152.199 L 295.602 147.992 282.600 147.992 L 269.598 147.992 269.598 143.595 L 269.598 139.197 265.201 139.197 L 260.803 139.197 260.803 134.799 L 260.803 130.402 256.405 130.402 L 252.008 130.402 252.008 126.004 L 252.008 121.606 247.801 121.606 L 243.595 121.606 243.595 117.400 L 243.595 113.193 247.801 113.193 L 252.008 113.193 252.008 104.398 L 252.008 95.602 247.801 95.602 L 243.595 95.602 243.595 100.000 L 243.595 104.398 234.799 104.398 L 226.004 104.398 226.004 108.795 L 226.004 113.193 221.606 113.193 L 217.208 113.193 217.208 117.400 L 217.208 121.606 213.002 121.606 L 208.795 121.606 208.795 108.604 L 208.795 95.602 217.400 95.602 L 226.004 95.602 226.004 91.205 L 226.004 86.807 217.400 86.807 L 208.795 86.807 208.795 91.205 L 208.795 95.602 200.000 95.602 L 191.205 95.602 191.205 91.205 L 191.205 86.807 195.602 86.807 L 200.000 86.807 200.000 82.600 L 200.000 78.394 191.396 78.394 L 182.792 78.394 182.792 82.600 L 182.792 86.807 169.598 86.807 L 156.405 86.807 156.405 82.600 L 156.405 78.394 152.199 78.394 L 147.992 78.394 147.992 73.805 L 147.992 69.216 143.595 69.216 L 139.197 69.216 139.197 78.011 M286.807 78.011 L 286.807 86.807 278.203 86.807 L 269.598 86.807 269.598 91.205 L 269.598 95.602 265.201 95.602 L 260.803 95.602 260.803 100.000 L 260.803 104.398 265.201 104.398 L 269.598 104.398 269.598 108.795 L 269.598 113.193 265.201 113.193 L 260.803 113.193 260.803 117.400 L 260.803 121.606 278.203 121.606 L 295.602 121.606 295.602 130.402 L 295.602 139.197 300.000 139.197 L 304.398 139.197 304.398 130.402 L 304.398 121.606 300.000 121.606 L 295.602 121.606 295.602 117.400 L 295.602 113.193 286.998 113.193 L 278.394 113.193 278.394 108.795 L 278.394 104.398 273.996 104.398 L 269.598 104.398 269.598 100.000 L 269.598 95.602 278.203 95.602 L 286.807 95.602 286.807 91.205 L 286.807 86.807 291.205 86.807 L 295.602 86.807 295.602 78.011 L 295.602 69.216 291.205 69.216 L 286.807 69.216 286.807 78.011 M147.992 91.205 L 147.992 95.602 143.595 95.602 L 139.197 95.602 139.197 91.205 L 139.197 86.807 143.595 86.807 L 147.992 86.807 147.992 91.205 M121.606 117.400 L 121.606 121.606 152.199 121.606 L 182.792 121.606 182.792 117.400 L 182.792 113.193 152.199 113.193 L 121.606 113.193 121.606 117.400 M95.602 126.004 L 95.602 130.402 100.000 130.402 L 104.398 130.402 104.398 134.799 L 104.398 139.197 108.795 139.197 L 113.193 139.197 113.193 143.595 L 113.193 147.992 143.595 147.992 L 173.996 147.992 173.996 152.199 L 173.996 156.405 165.201 156.405 L 156.405 156.405 156.405 165.201 L 156.405 173.996 152.199 173.996 L 147.992 173.996 147.992 182.600 L 147.992 191.205 143.595 191.205 L 139.197 191.205 139.197 195.602 L 139.197 200.000 143.595 200.000 L 147.992 200.000 147.992 195.602 L 147.992 191.205 152.199 191.205 L 156.405 191.205 156.405 182.600 L 156.405 173.996 160.803 173.996 L 165.201 173.996 165.201 178.394 L 165.201 182.792 169.598 182.792 L 173.996 182.792 173.996 169.598 L 173.996 156.405 178.394 156.405 L 182.792 156.405 182.792 173.805 L 182.792 191.205 186.998 191.205 L 191.205 191.205 191.205 195.602 L 191.205 200.000 195.602 200.000 L 200.000 200.000 200.000 204.398 L 200.000 208.795 208.604 208.795 L 217.208 208.795 217.208 213.193 L 217.208 217.591 226.004 217.591 L 234.799 217.591 234.799 213.193 L 234.799 208.795 230.402 208.795 L 226.004 208.795 226.004 204.398 L 226.004 200.000 221.606 200.000 L 217.208 200.000 217.208 195.602 L 217.208 191.205 213.002 191.205 L 208.795 191.205 208.795 186.998 L 208.795 182.792 204.398 182.792 L 200.000 182.792 200.000 178.394 L 200.000 173.996 195.602 173.996 L 191.205 173.996 191.205 165.201 L 191.205 156.405 186.998 156.405 L 182.792 156.405 182.792 152.199 L 182.792 147.992 178.394 147.992 L 173.996 147.992 173.996 143.595 L 173.996 139.197 147.801 139.197 L 121.606 139.197 121.606 134.799 L 121.606 130.402 113.002 130.402 L 104.398 130.402 104.398 126.004 L 104.398 121.606 100.000 121.606 L 95.602 121.606 95.602 126.004 M252.008 143.595 L 252.008 147.992 247.801 147.992 L 243.595 147.992 243.595 143.595 L 243.595 139.197 247.801 139.197 L 252.008 139.197 252.008 143.595 M234.799 152.199 L 234.799 156.405 230.402 156.405 L 226.004 156.405 226.004 152.199 L 226.004 147.992 230.402 147.992 L 234.799 147.992 234.799 152.199 M104.398 160.803 L 104.398 165.201 113.002 165.201 L 121.606 165.201 121.606 169.598 L 121.606 173.996 113.002 173.996 L 104.398 173.996 104.398 182.600 L 104.398 191.205 108.795 191.205 L 113.193 191.205 113.193 195.602 L 113.193 200.000 108.795 200.000 L 104.398 200.000 104.398 208.795 L 104.398 217.591 108.795 217.591 L 113.193 217.591 113.193 221.797 L 113.193 226.004 108.795 226.004 L 104.398 226.004 104.398 230.402 L 104.398 234.799 100.000 234.799 L 95.602 234.799 95.602 239.197 L 95.602 243.595 100.000 243.595 L 104.398 243.595 104.398 247.992 L 104.398 252.390 100.000 252.390 L 95.602 252.390 95.602 256.597 L 95.602 260.803 108.604 260.803 L 121.606 260.803 121.606 247.801 L 121.606 234.799 126.004 234.799 L 130.402 234.799 130.402 221.797 L 130.402 208.795 126.004 208.795 L 121.606 208.795 121.606 204.398 L 121.606 200.000 126.004 200.000 L 130.402 200.000 130.402 191.396 L 130.402 182.792 134.799 182.792 L 139.197 182.792 139.197 173.996 L 139.197 165.201 143.595 165.201 L 147.992 165.201 147.992 160.803 L 147.992 156.405 126.195 156.405 L 104.398 156.405 104.398 160.803 M121.606 186.998 L 121.606 191.205 117.400 191.205 L 113.193 191.205 113.193 186.998 L 113.193 182.792 117.400 182.792 L 121.606 182.792 121.606 186.998 M234.799 186.998 L 234.799 191.205 239.197 191.205 L 243.595 191.205 243.595 195.602 L 243.595 200.000 247.801 200.000 L 252.008 200.000 252.008 204.398 L 252.008 208.795 260.803 208.795 L 269.598 208.795 269.598 213.193 L 269.598 217.591 273.996 217.591 L 278.394 217.591 278.394 221.797 L 278.394 226.004 282.600 226.004 L 286.807 226.004 286.807 234.799 L 286.807 243.595 291.205 243.595 L 295.602 243.595 295.602 260.994 L 295.602 278.394 300.000 278.394 L 304.398 278.394 304.398 239.197 L 304.398 200.000 278.203 200.000 L 252.008 200.000 252.008 195.602 L 252.008 191.205 247.801 191.205 L 243.595 191.205 243.595 186.998 L 243.595 182.792 239.197 182.792 L 234.799 182.792 234.799 186.998 M313.193 213.002 L 313.193 226.004 321.989 226.004 L 330.784 226.004 330.784 217.400 L 330.784 208.795 326.195 208.795 L 321.606 208.795 321.606 204.398 L 321.606 200.000 317.400 200.000 L 313.193 200.000 313.193 213.002 M121.606 213.193 L 121.606 217.591 117.400 217.591 L 113.193 217.591 113.193 213.193 L 113.193 208.795 117.400 208.795 L 121.606 208.795 121.606 213.193 M43.358 395.602 C 43.359 398.126,43.421 399.109,43.496 397.786 C 43.571 396.463,43.570 394.398,43.494 393.197 C 43.419 391.996,43.357 393.078,43.358 395.602 M165.201 517.400 L 165.201 521.989 169.598 521.989 L 173.996 521.989 173.996 517.400 L 173.996 512.811 169.598 512.811 L 165.201 512.811 165.201 517.400 M226.004 517.400 L 226.004 521.989 230.402 521.989 L 234.799 521.989 234.799 517.400 L 234.799 512.811 230.402 512.811 L 226.004 512.811 226.004 517.400 M339.197 526.195 L 339.197 539.197 347.801 539.197 L 356.405 539.197 356.405 534.799 L 356.405 530.402 352.199 530.402 L 347.992 530.402 347.992 521.797 L 347.992 513.193 343.595 513.193 L 339.197 513.193 339.197 526.195 M52.008 530.593 L 52.008 539.197 56.405 539.197 L 60.803 539.197 60.803 530.593 L 60.803 521.989 56.405 521.989 L 52.008 521.989 52.008 530.593 " stroke="none" fill="#7c7474" fill-rule="evenodd"></path><path id="path3" d="M104.398 34.799 L 104.398 43.595 100.000 43.595 L 95.602 43.595 95.602 69.598 L 95.602 95.602 100.000 95.602 L 104.398 95.602 104.398 100.000 L 104.398 104.398 95.602 104.398 L 86.807 104.398 86.807 108.795 L 86.807 113.193 65.201 113.193 L 43.595 113.193 43.595 108.795 L 43.595 104.398 39.197 104.398 L 34.799 104.398 34.799 95.602 L 34.799 86.807 30.402 86.807 L 26.004 86.807 26.004 95.602 L 26.004 104.398 30.402 104.398 L 34.799 104.398 34.799 113.002 L 34.799 121.606 39.197 121.606 L 43.595 121.606 43.595 126.004 L 43.595 130.402 47.801 130.402 L 52.008 130.402 52.008 134.799 L 52.008 139.197 60.803 139.197 L 69.598 139.197 69.598 143.595 L 69.598 147.992 78.203 147.992 L 86.807 147.992 86.807 156.597 L 86.807 165.201 82.600 165.201 L 78.394 165.201 78.394 173.996 L 78.394 182.792 73.996 182.792 L 69.598 182.792 69.598 195.793 L 69.598 208.795 65.201 208.795 L 60.803 208.795 60.803 213.193 L 60.803 217.591 56.405 217.591 L 52.008 217.591 52.008 221.797 L 52.008 226.004 43.403 226.004 L 34.799 226.004 34.799 230.402 L 34.799 234.799 39.197 234.799 L 43.595 234.799 43.595 239.197 L 43.595 243.595 56.597 243.595 L 69.598 243.595 69.598 260.994 L 69.598 278.394 73.996 278.394 L 78.394 278.394 78.394 286.998 L 78.394 295.602 82.600 295.602 L 86.807 295.602 86.807 308.604 L 86.807 321.606 91.205 321.606 L 95.602 321.606 95.602 317.400 L 95.602 313.193 100.000 313.193 L 104.398 313.193 104.398 308.795 L 104.398 304.398 108.795 304.398 L 113.193 304.398 113.193 300.000 L 113.193 295.602 117.400 295.602 L 121.606 295.602 121.606 282.600 L 121.606 269.598 126.004 269.598 L 130.402 269.598 130.402 256.597 L 130.402 243.595 139.197 243.595 L 147.992 243.595 147.992 239.197 L 147.992 234.799 152.199 234.799 L 156.405 234.799 156.405 230.402 L 156.405 226.004 165.201 226.004 L 173.996 226.004 173.996 221.797 L 173.996 217.591 178.394 217.591 L 182.792 217.591 182.792 213.193 L 182.792 208.795 186.998 208.795 L 191.205 208.795 191.205 213.193 L 191.205 217.591 195.602 217.591 L 200.000 217.591 200.000 221.797 L 200.000 226.004 221.797 226.004 L 243.595 226.004 243.595 230.402 L 243.595 234.799 247.801 234.799 L 252.008 234.799 252.008 239.197 L 252.008 243.595 256.405 243.595 L 260.803 243.595 260.803 247.992 L 260.803 252.390 265.201 252.390 L 269.598 252.390 269.598 260.994 L 269.598 269.598 273.996 269.598 L 278.394 269.598 278.394 282.600 L 278.394 295.602 282.600 295.602 L 286.807 295.602 286.807 317.400 L 286.807 339.197 291.205 339.197 L 295.602 339.197 295.602 330.402 L 295.602 321.606 300.000 321.606 L 304.398 321.606 304.398 308.604 L 304.398 295.602 308.795 295.602 L 313.193 295.602 313.193 269.598 L 313.193 243.595 321.797 243.595 L 330.402 243.595 330.402 239.197 L 330.402 234.799 339.197 234.799 L 347.992 234.799 347.992 230.402 L 347.992 226.004 352.199 226.004 L 356.405 226.004 356.405 221.797 L 356.405 217.591 360.994 217.591 L 365.583 217.591 365.583 213.193 L 365.583 208.795 356.788 208.795 L 347.992 208.795 347.992 204.398 L 347.992 200.000 339.197 200.000 L 330.402 200.000 330.402 195.602 L 330.402 191.205 326.004 191.205 L 321.606 191.205 321.606 186.998 L 321.606 182.792 326.004 182.792 L 330.402 182.792 330.402 178.394 L 330.402 173.996 334.799 173.996 L 339.197 173.996 339.197 169.598 L 339.197 165.201 343.595 165.201 L 347.992 165.201 347.992 160.803 L 347.992 156.405 356.788 156.405 L 365.583 156.405 365.583 147.801 L 365.583 139.197 360.994 139.197 L 356.405 139.197 356.405 143.595 L 356.405 147.992 343.403 147.992 L 330.402 147.992 330.402 143.595 L 330.402 139.197 326.004 139.197 L 321.606 139.197 321.606 134.799 L 321.606 130.402 317.400 130.402 L 313.193 130.402 313.193 121.797 L 313.193 113.193 308.795 113.193 L 304.398 113.193 304.398 108.795 L 304.398 104.398 300.000 104.398 L 295.602 104.398 295.602 95.602 L 295.602 86.807 300.000 86.807 L 304.398 86.807 304.398 65.201 L 304.398 43.595 300.000 43.595 L 295.602 43.595 295.602 47.801 L 295.602 52.008 291.205 52.008 L 286.807 52.008 286.807 56.405 L 286.807 60.803 278.203 60.803 L 269.598 60.803 269.598 65.201 L 269.598 69.598 256.597 69.598 L 243.595 69.598 243.595 73.996 L 243.595 78.394 226.195 78.394 L 208.795 78.394 208.795 73.996 L 208.795 69.598 200.000 69.598 L 191.205 69.598 191.205 65.201 L 191.205 60.803 173.805 60.803 L 156.405 60.803 156.405 56.405 L 156.405 52.008 139.006 52.008 L 121.606 52.008 121.606 47.801 L 121.606 43.595 117.400 43.595 L 113.193 43.595 113.193 34.799 L 113.193 26.004 108.795 26.004 L 104.398 26.004 104.398 34.799 M113.193 56.405 L 113.193 60.803 134.799 60.803 L 156.405 60.803 156.405 65.201 L 156.405 69.598 169.598 69.598 L 182.792 69.598 182.792 73.996 L 182.792 78.394 191.396 78.394 L 200.000 78.394 200.000 82.600 L 200.000 86.807 195.602 86.807 L 191.205 86.807 191.205 91.205 L 191.205 95.602 200.000 95.602 L 208.795 95.602 208.795 91.205 L 208.795 86.807 226.195 86.807 L 243.595 86.807 243.595 82.600 L 243.595 78.394 260.994 78.394 L 278.394 78.394 278.394 73.996 L 278.394 69.598 282.600 69.598 L 286.807 69.598 286.807 65.201 L 286.807 60.803 291.205 60.803 L 295.602 60.803 295.602 73.805 L 295.602 86.807 291.205 86.807 L 286.807 86.807 286.807 91.205 L 286.807 95.602 278.203 95.602 L 269.598 95.602 269.598 100.000 L 269.598 104.398 273.996 104.398 L 278.394 104.398 278.394 108.795 L 278.394 113.193 286.998 113.193 L 295.602 113.193 295.602 117.400 L 295.602 121.606 300.000 121.606 L 304.398 121.606 304.398 130.402 L 304.398 139.197 308.795 139.197 L 313.193 139.197 313.193 143.595 L 313.193 147.992 321.797 147.992 L 330.402 147.992 330.402 152.199 L 330.402 156.405 334.799 156.405 L 339.197 156.405 339.197 160.803 L 339.197 165.201 330.402 165.201 L 321.606 165.201 321.606 169.598 L 321.606 173.996 317.400 173.996 L 313.193 173.996 313.193 178.394 L 313.193 182.792 308.795 182.792 L 304.398 182.792 304.398 186.998 L 304.398 191.205 282.600 191.205 L 260.803 191.205 260.803 186.998 L 260.803 182.792 256.405 182.792 L 252.008 182.792 252.008 178.394 L 252.008 173.996 243.403 173.996 L 234.799 173.996 234.799 178.394 L 234.799 182.792 239.197 182.792 L 243.595 182.792 243.595 186.998 L 243.595 191.205 247.801 191.205 L 252.008 191.205 252.008 195.602 L 252.008 200.000 278.203 200.000 L 304.398 200.000 304.398 247.801 L 304.398 295.602 300.000 295.602 L 295.602 295.602 295.602 291.205 L 295.602 286.807 291.205 286.807 L 286.807 286.807 286.807 273.805 L 286.807 260.803 282.600 260.803 L 278.394 260.803 278.394 256.597 L 278.394 252.390 273.996 252.390 L 269.598 252.390 269.598 243.595 L 269.598 234.799 265.201 234.799 L 260.803 234.799 260.803 230.402 L 260.803 226.004 252.199 226.004 L 243.595 226.004 243.595 221.797 L 243.595 217.591 226.195 217.591 L 208.795 217.591 208.795 213.193 L 208.795 208.795 200.000 208.795 L 191.205 208.795 191.205 200.000 L 191.205 191.205 186.998 191.205 L 182.792 191.205 182.792 173.805 L 182.792 156.405 178.394 156.405 L 173.996 156.405 173.996 182.600 L 173.996 208.795 169.598 208.795 L 165.201 208.795 165.201 213.193 L 165.201 217.591 160.803 217.591 L 156.405 217.591 156.405 221.797 L 156.405 226.004 152.199 226.004 L 147.992 226.004 147.992 221.797 L 147.992 217.591 143.595 217.591 L 139.197 217.591 139.197 204.398 L 139.197 191.205 143.595 191.205 L 147.992 191.205 147.992 182.600 L 147.992 173.996 152.199 173.996 L 156.405 173.996 156.405 165.201 L 156.405 156.405 165.201 156.405 L 173.996 156.405 173.996 152.199 L 173.996 147.992 130.402 147.992 L 86.807 147.992 86.807 143.595 L 86.807 139.197 78.203 139.197 L 69.598 139.197 69.598 134.799 L 69.598 130.402 60.803 130.402 L 52.008 130.402 52.008 126.004 L 52.008 121.606 69.407 121.606 L 86.807 121.606 86.807 117.400 L 86.807 113.193 134.799 113.193 L 182.792 113.193 182.792 117.400 L 182.792 121.606 191.396 121.606 L 200.000 121.606 200.000 117.400 L 200.000 113.193 195.602 113.193 L 191.205 113.193 191.205 104.398 L 191.205 95.602 186.998 95.602 L 182.792 95.602 182.792 100.000 L 182.792 104.398 152.199 104.398 L 121.606 104.398 121.606 100.000 L 121.606 95.602 117.400 95.602 L 113.193 95.602 113.193 91.205 L 113.193 86.807 108.795 86.807 L 104.398 86.807 104.398 69.407 L 104.398 52.008 108.795 52.008 L 113.193 52.008 113.193 56.405 M260.803 108.795 L 260.803 113.193 265.201 113.193 L 269.598 113.193 269.598 108.795 L 269.598 104.398 265.201 104.398 L 260.803 104.398 260.803 108.795 M147.992 160.803 L 147.992 165.201 143.595 165.201 L 139.197 165.201 139.197 173.996 L 139.197 182.792 134.799 182.792 L 130.402 182.792 130.402 191.396 L 130.402 200.000 126.004 200.000 L 121.606 200.000 121.606 204.398 L 121.606 208.795 126.004 208.795 L 130.402 208.795 130.402 221.797 L 130.402 234.799 126.004 234.799 L 121.606 234.799 121.606 247.801 L 121.606 260.803 117.400 260.803 L 113.193 260.803 113.193 273.805 L 113.193 286.807 108.795 286.807 L 104.398 286.807 104.398 295.602 L 104.398 304.398 100.000 304.398 L 95.602 304.398 95.602 295.602 L 95.602 286.807 91.205 286.807 L 86.807 286.807 86.807 282.600 L 86.807 278.394 82.600 278.394 L 78.394 278.394 78.394 260.994 L 78.394 243.595 82.600 243.595 L 86.807 243.595 86.807 239.197 L 86.807 234.799 95.602 234.799 L 104.398 234.799 104.398 230.402 L 104.398 226.004 108.795 226.004 L 113.193 226.004 113.193 221.797 L 113.193 217.591 104.398 217.591 L 95.602 217.591 95.602 221.797 L 95.602 226.004 86.998 226.004 L 78.394 226.004 78.394 230.402 L 78.394 234.799 69.598 234.799 L 60.803 234.799 60.803 230.402 L 60.803 226.004 65.201 226.004 L 69.598 226.004 69.598 221.797 L 69.598 217.591 73.996 217.591 L 78.394 217.591 78.394 200.191 L 78.394 182.792 82.600 182.792 L 86.807 182.792 86.807 178.394 L 86.807 173.996 91.205 173.996 L 95.602 173.996 95.602 169.598 L 95.602 165.201 100.000 165.201 L 104.398 165.201 104.398 160.803 L 104.398 156.405 126.195 156.405 L 147.992 156.405 147.992 160.803 M330.402 204.398 L 330.402 208.795 339.197 208.795 L 347.992 208.795 347.992 213.193 L 347.992 217.591 343.595 217.591 L 339.197 217.591 339.197 221.797 L 339.197 226.004 330.402 226.004 L 321.606 226.004 321.606 230.402 L 321.606 234.799 317.400 234.799 L 313.193 234.799 313.193 217.400 L 313.193 200.000 321.797 200.000 L 330.402 200.000 330.402 204.398 M113.193 213.193 L 113.193 217.591 117.400 217.591 L 121.606 217.591 121.606 213.193 L 121.606 208.795 117.400 208.795 L 113.193 208.795 113.193 213.193 M156.405 452.199 L 156.405 460.803 160.803 460.803 L 165.201 460.803 165.201 465.201 L 165.201 469.598 169.598 469.598 L 173.996 469.598 173.996 465.201 L 173.996 460.803 169.598 460.803 L 165.201 460.803 165.201 452.199 L 165.201 443.595 160.803 443.595 L 156.405 443.595 156.405 452.199 M234.799 452.199 L 234.799 460.803 230.402 460.803 L 226.004 460.803 226.004 465.201 L 226.004 469.598 230.402 469.598 L 234.799 469.598 234.799 465.201 L 234.799 460.803 239.197 460.803 L 243.595 460.803 243.595 452.199 L 243.595 443.595 239.197 443.595 L 234.799 443.595 234.799 452.199 M69.598 465.201 L 69.598 469.598 73.996 469.598 L 78.394 469.598 78.394 465.201 L 78.394 460.803 73.996 460.803 L 69.598 460.803 69.598 465.201 M321.606 465.201 L 321.606 469.598 326.004 469.598 L 330.402 469.598 330.402 465.201 L 330.402 460.803 326.004 460.803 L 321.606 460.803 321.606 465.201 M78.394 482.792 L 78.394 487.189 82.600 487.189 L 86.807 487.189 86.807 482.792 L 86.807 478.394 82.600 478.394 L 78.394 478.394 78.394 482.792 M313.193 482.792 L 313.193 487.189 317.400 487.189 L 321.606 487.189 321.606 482.792 L 321.606 478.394 317.400 478.394 L 313.193 478.394 313.193 482.792 M78.394 500.000 L 78.394 504.398 82.600 504.398 L 86.807 504.398 86.807 500.000 L 86.807 495.602 82.600 495.602 L 78.394 495.602 78.394 500.000 M313.193 500.000 L 313.193 504.398 317.400 504.398 L 321.606 504.398 321.606 500.000 L 321.606 495.602 317.400 495.602 L 313.193 495.602 313.193 500.000 M52.008 508.795 L 52.008 513.193 56.405 513.193 L 60.803 513.193 60.803 508.795 L 60.803 504.398 56.405 504.398 L 52.008 504.398 52.008 508.795 M347.992 521.797 L 347.992 530.402 352.390 530.402 L 356.788 530.402 356.788 521.797 L 356.788 513.193 352.390 513.193 L 347.992 513.193 347.992 521.797 M43.294 530.688 C 43.340 535.473,43.431 537.366,43.498 534.895 L 43.619 530.402 47.813 530.402 L 52.008 530.402 52.008 526.195 L 52.008 521.989 47.610 521.989 L 43.212 521.989 43.294 530.688 " stroke="none" fill="#343434" fill-rule="evenodd"></path><path id="path4" d="M182.792 213.193 L 182.792 217.591 178.394 217.591 L 173.996 217.591 173.996 221.797 L 173.996 226.004 186.998 226.004 L 200.000 226.004 200.000 221.797 L 200.000 217.591 195.602 217.591 L 191.205 217.591 191.205 213.193 L 191.205 208.795 186.998 208.795 L 182.792 208.795 182.792 213.193 M130.402 256.597 L 130.402 269.598 126.004 269.598 L 121.606 269.598 121.606 286.998 L 121.606 304.398 126.004 304.398 L 130.402 304.398 130.402 291.396 L 130.402 278.394 134.799 278.394 L 139.197 278.394 139.196 273.901 C 139.196 271.429,139.082 263.599,138.943 256.501 L 138.691 243.595 134.546 243.595 L 130.402 243.595 130.402 256.597 M261.054 258.761 C 260.916 262.265,260.803 268.116,260.803 271.763 L 260.803 278.394 265.201 278.394 L 269.598 278.394 269.598 291.396 L 269.598 304.398 273.996 304.398 L 278.394 304.398 278.394 286.998 L 278.394 269.598 273.996 269.598 L 269.598 269.598 269.598 260.994 L 269.598 252.390 265.452 252.390 L 261.306 252.390 261.054 258.761 M156.405 360.803 L 156.405 365.201 152.199 365.201 L 147.992 365.201 147.992 373.996 L 147.992 382.792 152.199 382.792 L 156.405 382.792 156.405 386.998 L 156.405 391.205 165.201 391.205 L 173.996 391.205 173.996 386.998 L 173.996 382.792 178.394 382.792 L 182.792 382.792 182.792 378.394 L 182.792 373.996 186.998 373.996 L 191.205 373.996 191.205 369.598 L 191.205 365.201 186.998 365.201 L 182.792 365.201 182.792 360.803 L 182.792 356.405 169.598 356.405 L 156.405 356.405 156.405 360.803 M217.208 360.803 L 217.208 365.201 213.002 365.201 L 208.795 365.201 208.795 369.598 L 208.795 373.996 213.002 373.996 L 217.208 373.996 217.208 378.394 L 217.208 382.792 221.606 382.792 L 226.004 382.792 226.004 386.998 L 226.004 391.205 234.799 391.205 L 243.595 391.205 243.595 386.998 L 243.595 382.792 247.801 382.792 L 252.008 382.792 252.008 373.996 L 252.008 365.201 247.801 365.201 L 243.595 365.201 243.595 360.803 L 243.595 356.405 230.402 356.405 L 217.208 356.405 217.208 360.803 M138.815 395.602 L 138.815 400.000 143.403 400.000 L 147.992 400.000 147.992 408.795 L 147.992 417.591 152.199 417.591 L 156.405 417.591 156.405 426.195 L 156.405 434.799 160.803 434.799 L 165.201 434.799 165.201 439.197 L 165.201 443.595 169.598 443.595 L 173.996 443.595 173.996 447.992 L 173.996 452.390 178.394 452.390 L 182.792 452.390 182.792 456.788 L 182.792 461.185 186.998 461.185 L 191.205 461.185 191.205 426.195 L 191.205 391.205 186.998 391.205 L 182.792 391.205 182.792 395.602 L 182.792 400.000 165.392 400.000 L 147.992 400.000 147.992 395.602 L 147.992 391.205 143.403 391.205 L 138.815 391.205 138.815 395.602 M208.795 426.195 L 208.795 461.185 213.002 461.185 L 217.208 461.185 217.208 456.788 L 217.208 452.390 221.606 452.390 L 226.004 452.390 226.004 447.992 L 226.004 443.595 230.402 443.595 L 234.799 443.595 234.799 439.197 L 234.799 434.799 239.197 434.799 L 243.595 434.799 243.595 426.195 L 243.595 417.591 247.801 417.591 L 252.008 417.591 252.008 408.795 L 252.008 400.000 256.597 400.000 L 261.185 400.000 261.185 395.602 L 261.185 391.205 256.597 391.205 L 252.008 391.205 252.008 395.602 L 252.008 400.000 234.608 400.000 L 217.208 400.000 217.208 395.602 L 217.208 391.205 213.002 391.205 L 208.795 391.205 208.795 426.195 " stroke="none" fill="#cd843f" fill-rule="evenodd"></path><path id="path5" d="M156.405 52.008 L 156.405 60.803 165.201 60.803 L 173.996 60.803 173.996 56.405 L 173.996 52.008 169.598 52.008 L 165.201 52.008 165.201 47.610 L 165.201 43.212 160.803 43.212 L 156.405 43.212 156.405 52.008 M234.799 47.610 L 234.799 52.008 230.402 52.008 L 226.004 52.008 226.004 56.405 L 226.004 60.803 221.606 60.803 L 217.208 60.803 217.208 65.201 L 217.208 69.598 226.004 69.598 L 234.799 69.598 234.799 60.803 L 234.799 52.008 239.197 52.008 L 243.595 52.008 243.595 47.610 L 243.595 43.212 239.197 43.212 L 234.799 43.212 234.799 47.610 M52.008 160.803 L 52.008 165.201 56.405 165.201 L 60.803 165.201 60.803 160.803 L 60.803 156.405 56.405 156.405 L 52.008 156.405 52.008 160.803 M60.803 182.600 L 60.803 191.205 65.201 191.205 L 69.598 191.205 69.598 182.600 L 69.598 173.996 65.201 173.996 L 60.803 173.996 60.803 182.600 M330.402 186.998 L 330.402 191.205 334.799 191.205 L 339.197 191.205 339.197 186.998 L 339.197 182.792 334.799 182.792 L 330.402 182.792 330.402 186.998 M356.550 221.797 C 356.550 224.216,356.612 225.206,356.688 223.996 C 356.764 222.787,356.764 220.808,356.688 219.598 C 356.612 218.389,356.550 219.379,356.550 221.797 M156.405 230.402 L 156.405 234.799 169.598 234.799 L 182.792 234.799 182.792 239.197 L 182.792 243.595 160.803 243.595 L 138.815 243.595 138.815 252.199 L 138.815 260.803 143.212 260.803 L 147.610 260.803 147.610 256.405 L 147.610 252.008 152.008 252.008 L 156.405 252.008 156.405 256.597 L 156.405 261.185 152.199 261.185 L 147.992 261.185 147.992 265.392 L 147.992 269.598 165.392 269.598 L 182.792 269.598 182.792 265.392 L 182.792 261.185 178.394 261.185 L 173.996 261.185 173.996 256.597 L 173.996 252.008 178.394 252.008 L 182.792 252.008 182.792 247.801 L 182.792 243.595 186.998 243.595 L 191.205 243.595 191.205 239.197 L 191.205 234.799 186.998 234.799 L 182.792 234.799 182.792 230.402 L 182.792 226.004 169.598 226.004 L 156.405 226.004 156.405 230.402 M217.208 230.402 L 217.208 234.799 213.002 234.799 L 208.795 234.799 208.795 239.197 L 208.795 243.595 213.002 243.595 L 217.208 243.595 217.208 247.801 L 217.208 252.008 221.606 252.008 L 226.004 252.008 226.004 256.597 L 226.004 261.185 221.606 261.185 L 217.208 261.185 217.208 265.392 L 217.208 269.598 234.608 269.598 L 252.008 269.598 252.008 265.392 L 252.008 261.185 247.801 261.185 L 243.595 261.185 243.595 256.597 L 243.595 252.008 247.992 252.008 L 252.390 252.008 252.390 256.405 L 252.390 260.803 256.848 260.803 L 261.306 260.803 261.054 254.432 C 260.916 250.928,260.803 247.056,260.803 245.828 L 260.803 243.595 239.006 243.595 L 217.208 243.595 217.208 239.197 L 217.208 234.799 230.402 234.799 L 243.595 234.799 243.595 230.402 L 243.595 226.004 230.402 226.004 L 217.208 226.004 217.208 230.402 M182.792 256.597 L 182.792 260.803 186.998 260.803 L 191.205 260.803 191.205 256.597 L 191.205 252.390 186.998 252.390 L 182.792 252.390 182.792 256.597 M208.795 256.597 L 208.795 260.803 213.002 260.803 L 217.208 260.803 217.208 256.597 L 217.208 252.390 213.002 252.390 L 208.795 252.390 208.795 256.597 M191.205 282.600 L 191.205 286.807 200.000 286.807 L 208.795 286.807 208.795 282.600 L 208.795 278.394 200.000 278.394 L 191.205 278.394 191.205 282.600 M113.193 300.000 L 113.193 304.398 117.400 304.398 L 121.606 304.398 121.606 313.002 L 121.606 321.606 117.400 321.606 L 113.193 321.606 113.193 326.004 L 113.193 330.402 108.795 330.402 L 104.398 330.402 104.398 334.799 L 104.398 339.197 95.602 339.197 L 86.807 339.197 86.807 343.595 L 86.807 347.992 82.600 347.992 L 78.394 347.992 78.394 352.199 L 78.394 356.405 69.598 356.405 L 60.803 356.405 60.803 360.803 L 60.803 365.201 52.199 365.201 L 43.595 365.201 43.595 382.600 L 43.595 400.000 47.801 400.000 L 52.008 400.000 52.008 434.799 L 52.008 469.598 56.405 469.598 L 60.803 469.598 60.803 495.793 L 60.803 521.989 65.201 521.989 L 69.598 521.989 69.598 526.195 L 69.598 530.402 65.201 530.402 L 60.803 530.402 60.803 534.799 L 60.803 539.197 69.598 539.197 L 78.394 539.197 78.394 526.195 L 78.394 513.193 73.996 513.193 L 69.598 513.193 69.598 491.396 L 69.598 469.598 65.201 469.598 L 60.803 469.598 60.803 452.199 L 60.803 434.799 65.201 434.799 L 69.598 434.799 69.598 439.197 L 69.598 443.595 78.203 443.595 L 86.807 443.595 86.807 460.994 L 86.807 478.394 91.205 478.394 L 95.602 478.394 95.602 486.998 L 95.602 495.602 100.000 495.602 L 104.398 495.602 104.398 513.002 L 104.398 530.402 100.000 530.402 L 95.602 530.402 95.602 534.799 L 95.602 539.197 104.398 539.197 L 113.193 539.197 113.193 534.799 L 113.193 530.402 121.797 530.402 L 130.402 530.402 130.402 534.799 L 130.402 539.197 139.197 539.197 L 147.992 539.197 147.992 526.195 L 147.992 513.193 152.199 513.193 L 156.405 513.193 156.405 508.795 L 156.405 504.398 160.803 504.398 L 165.201 504.398 165.201 500.000 L 165.201 495.602 143.403 495.602 L 121.606 495.602 121.606 491.396 L 121.606 487.189 117.400 487.189 L 113.193 487.189 113.193 482.792 L 113.193 478.394 108.795 478.394 L 104.398 478.394 104.398 460.994 L 104.398 443.595 108.795 443.595 L 113.193 443.595 113.193 439.197 L 113.193 434.799 95.793 434.799 L 78.394 434.799 78.394 430.402 L 78.394 426.004 73.996 426.004 L 69.598 426.004 69.598 417.400 L 69.598 408.795 65.201 408.795 L 60.803 408.795 60.803 400.000 L 60.803 391.205 56.405 391.205 L 52.008 391.205 52.008 382.600 L 52.008 373.996 60.803 373.996 L 69.598 373.996 69.598 369.598 L 69.598 365.201 78.203 365.201 L 86.807 365.201 86.807 360.803 L 86.807 356.405 91.205 356.405 L 95.602 356.405 95.602 360.803 L 95.602 365.201 100.000 365.201 L 104.398 365.201 104.398 369.598 L 104.398 373.996 100.000 373.996 L 95.602 373.996 95.602 386.998 L 95.602 400.000 100.000 400.000 L 104.398 400.000 104.398 404.398 L 104.398 408.795 108.795 408.795 L 113.193 408.795 113.193 417.400 L 113.193 426.004 117.400 426.004 L 121.606 426.004 121.606 430.402 L 121.606 434.799 126.004 434.799 L 130.402 434.799 130.402 439.197 L 130.402 443.595 134.799 443.595 L 139.197 443.595 139.197 447.992 L 139.197 452.390 143.595 452.390 L 147.992 452.390 147.992 456.597 L 147.992 460.803 152.199 460.803 L 156.405 460.803 156.405 465.201 L 156.405 469.598 160.803 469.598 L 165.201 469.598 165.201 473.996 L 165.201 478.394 169.598 478.394 L 173.996 478.394 173.996 482.792 L 173.996 487.189 178.394 487.189 L 182.792 487.189 182.792 491.396 L 182.792 495.602 186.998 495.602 L 191.205 495.602 191.205 517.400 L 191.205 539.197 200.000 539.197 L 208.795 539.197 208.795 517.400 L 208.795 495.602 213.002 495.602 L 217.208 495.602 217.208 491.396 L 217.208 487.189 221.606 487.189 L 226.004 487.189 226.004 482.792 L 226.004 478.394 230.402 478.394 L 234.799 478.394 234.799 473.996 L 234.799 469.598 239.197 469.598 L 243.595 469.598 243.595 465.201 L 243.595 460.803 247.801 460.803 L 252.008 460.803 252.008 456.597 L 252.008 452.390 256.405 452.390 L 260.803 452.390 260.803 447.992 L 260.803 443.595 265.201 443.595 L 269.598 443.595 269.598 439.197 L 269.598 434.799 273.996 434.799 L 278.394 434.799 278.394 430.402 L 278.394 426.004 282.600 426.004 L 286.807 426.004 286.807 417.400 L 286.807 408.795 291.205 408.795 L 295.602 408.795 295.602 404.398 L 295.602 400.000 300.000 400.000 L 304.398 400.000 304.398 386.998 L 304.398 373.996 300.000 373.996 L 295.602 373.996 295.602 369.598 L 295.602 365.201 300.000 365.201 L 304.398 365.201 304.398 360.803 L 304.398 356.405 308.795 356.405 L 313.193 356.405 313.193 360.803 L 313.193 365.201 321.797 365.201 L 330.402 365.201 330.402 369.598 L 330.402 373.996 339.197 373.996 L 347.992 373.996 347.992 382.600 L 347.992 391.205 343.595 391.205 L 339.197 391.205 339.197 400.000 L 339.197 408.795 334.799 408.795 L 330.402 408.795 330.402 417.400 L 330.402 426.004 326.004 426.004 L 321.606 426.004 321.606 430.402 L 321.606 434.799 304.207 434.799 L 286.807 434.799 286.807 439.197 L 286.807 443.595 291.205 443.595 L 295.602 443.595 295.602 460.994 L 295.602 478.394 291.205 478.394 L 286.807 478.394 286.807 482.792 L 286.807 487.189 282.600 487.189 L 278.394 487.189 278.394 491.396 L 278.394 495.602 256.597 495.602 L 234.799 495.602 234.799 500.000 L 234.799 504.398 239.197 504.398 L 243.595 504.398 243.595 508.795 L 243.595 513.193 247.801 513.193 L 252.008 513.193 252.008 526.195 L 252.008 539.197 260.803 539.197 L 269.598 539.197 269.598 530.593 L 269.598 521.989 273.996 521.989 L 278.394 521.989 278.394 526.195 L 278.394 530.402 282.600 530.402 L 286.807 530.402 286.807 534.799 L 286.807 539.197 295.602 539.197 L 304.398 539.197 304.398 534.799 L 304.398 530.402 300.000 530.402 L 295.602 530.402 295.602 513.002 L 295.602 495.602 300.000 495.602 L 304.398 495.602 304.398 486.998 L 304.398 478.394 308.795 478.394 L 313.193 478.394 313.193 460.994 L 313.193 443.595 321.797 443.595 L 330.402 443.595 330.402 439.197 L 330.402 434.799 334.799 434.799 L 339.197 434.799 339.197 452.199 L 339.197 469.598 334.799 469.598 L 330.402 469.598 330.402 491.396 L 330.402 513.193 326.004 513.193 L 321.606 513.193 321.606 526.195 L 321.606 539.197 330.402 539.197 L 339.197 539.197 339.197 534.799 L 339.197 530.402 334.799 530.402 L 330.402 530.402 330.402 526.195 L 330.402 521.989 334.799 521.989 L 339.197 521.989 339.197 495.793 L 339.197 469.598 343.595 469.598 L 347.992 469.598 347.992 434.799 L 347.992 400.000 352.199 400.000 L 356.405 400.000 356.405 382.600 L 356.405 365.201 352.199 365.201 L 347.992 365.201 347.992 360.803 L 347.992 356.405 334.799 356.405 L 321.606 356.405 321.606 352.199 L 321.606 347.992 317.400 347.992 L 313.193 347.992 313.193 343.595 L 313.193 339.197 300.000 339.197 L 286.807 339.197 286.807 330.402 L 286.807 321.606 282.600 321.606 L 278.394 321.606 278.394 313.002 L 278.394 304.398 282.600 304.398 L 286.807 304.398 286.807 300.000 L 286.807 295.602 282.600 295.602 L 278.394 295.602 278.394 300.000 L 278.394 304.398 273.996 304.398 L 269.598 304.398 269.598 308.795 L 269.598 313.193 265.201 313.193 L 260.803 313.193 260.803 317.400 L 260.803 321.606 256.405 321.606 L 252.008 321.606 252.008 330.402 L 252.008 339.197 243.403 339.197 L 234.799 339.197 234.799 343.595 L 234.799 347.992 221.797 347.992 L 208.795 347.992 208.795 352.199 L 208.795 356.405 200.000 356.405 L 191.205 356.405 191.205 352.199 L 191.205 347.992 178.203 347.992 L 165.201 347.992 165.201 343.595 L 165.201 339.197 156.597 339.197 L 147.992 339.197 147.992 330.402 L 147.992 321.606 143.595 321.606 L 139.197 321.606 139.197 317.400 L 139.197 313.193 134.799 313.193 L 130.402 313.193 130.402 308.795 L 130.402 304.398 126.004 304.398 L 121.606 304.398 121.606 300.000 L 121.606 295.602 117.400 295.602 L 113.193 295.602 113.193 300.000 M182.792 300.000 L 182.792 304.398 178.203 304.398 L 173.614 304.398 173.614 308.795 L 173.614 313.193 178.203 313.193 L 182.792 313.193 182.792 317.591 L 182.792 321.989 200.000 321.989 L 217.208 321.989 217.208 317.591 L 217.208 313.193 221.797 313.193 L 226.386 313.193 226.386 308.795 L 226.386 304.398 221.797 304.398 L 217.208 304.398 217.208 300.000 L 217.208 295.602 200.000 295.602 L 182.792 295.602 182.792 300.000 M208.795 308.604 L 208.795 313.193 200.000 313.193 L 191.205 313.193 191.205 308.604 L 191.205 304.015 200.000 304.015 L 208.795 304.015 208.795 308.604 M130.402 326.004 L 130.402 330.402 134.799 330.402 L 139.197 330.402 139.197 334.799 L 139.197 339.197 143.595 339.197 L 147.992 339.197 147.992 352.199 L 147.992 365.201 152.199 365.201 L 156.405 365.201 156.405 360.803 L 156.405 356.405 169.598 356.405 L 182.792 356.405 182.792 360.803 L 182.792 365.201 186.998 365.201 L 191.205 365.201 191.205 369.598 L 191.205 373.996 186.998 373.996 L 182.792 373.996 182.792 378.394 L 182.792 382.792 178.394 382.792 L 173.996 382.792 173.996 386.998 L 173.996 391.205 165.201 391.205 L 156.405 391.205 156.405 386.998 L 156.405 382.792 152.199 382.792 L 147.992 382.792 147.992 373.996 L 147.992 365.201 143.595 365.201 L 139.197 365.201 139.197 369.598 L 139.197 373.996 134.799 373.996 L 130.402 373.996 130.402 391.396 L 130.402 408.795 134.799 408.795 L 139.197 408.795 139.197 413.193 L 139.197 417.591 143.595 417.591 L 147.992 417.591 147.992 408.795 L 147.992 400.000 143.403 400.000 L 138.815 400.000 138.815 395.602 L 138.815 391.205 143.403 391.205 L 147.992 391.205 147.992 395.602 L 147.992 400.000 165.392 400.000 L 182.792 400.000 182.792 395.602 L 182.792 391.205 186.998 391.205 L 191.205 391.205 191.205 426.195 L 191.205 461.185 186.998 461.185 L 182.792 461.185 182.792 465.392 L 182.792 469.598 186.998 469.598 L 191.205 469.598 191.205 478.394 L 191.205 487.189 186.998 487.189 L 182.792 487.189 182.792 482.792 L 182.792 478.394 178.394 478.394 L 173.996 478.394 173.996 473.996 L 173.996 469.598 169.598 469.598 L 165.201 469.598 165.201 465.201 L 165.201 460.803 160.803 460.803 L 156.405 460.803 156.405 456.597 L 156.405 452.390 152.199 452.390 L 147.992 452.390 147.992 447.992 L 147.992 443.595 143.595 443.595 L 139.197 443.595 139.197 434.799 L 139.197 426.004 134.799 426.004 L 130.402 426.004 130.402 421.797 L 130.402 417.591 126.004 417.591 L 121.606 417.591 121.606 408.795 L 121.606 400.000 117.400 400.000 L 113.193 400.000 113.193 391.396 L 113.193 382.792 117.400 382.792 L 121.606 382.792 121.606 373.996 L 121.606 365.201 117.400 365.201 L 113.193 365.201 113.193 360.803 L 113.193 356.405 108.795 356.405 L 104.398 356.405 104.398 352.199 L 104.398 347.992 108.795 347.992 L 113.193 347.992 113.193 343.595 L 113.193 339.197 117.400 339.197 L 121.606 339.197 121.606 330.402 L 121.606 321.606 126.004 321.606 L 130.402 321.606 130.402 326.004 M278.394 330.402 L 278.394 339.197 282.600 339.197 L 286.807 339.197 286.807 343.595 L 286.807 347.992 291.205 347.992 L 295.602 347.992 295.602 352.199 L 295.602 356.405 291.205 356.405 L 286.807 356.405 286.807 360.803 L 286.807 365.201 282.600 365.201 L 278.394 365.201 278.394 373.996 L 278.394 382.792 282.600 382.792 L 286.807 382.792 286.807 391.396 L 286.807 400.000 282.600 400.000 L 278.394 400.000 278.394 408.795 L 278.394 417.591 273.996 417.591 L 269.598 417.591 269.598 421.797 L 269.598 426.004 265.201 426.004 L 260.803 426.004 260.803 434.799 L 260.803 443.595 256.405 443.595 L 252.008 443.595 252.008 447.992 L 252.008 452.390 247.801 452.390 L 243.595 452.390 243.595 456.597 L 243.595 460.803 239.197 460.803 L 234.799 460.803 234.799 465.201 L 234.799 469.598 230.402 469.598 L 226.004 469.598 226.004 473.996 L 226.004 478.394 221.606 478.394 L 217.208 478.394 217.208 482.792 L 217.208 487.189 213.002 487.189 L 208.795 487.189 208.795 478.394 L 208.795 469.598 213.002 469.598 L 217.208 469.598 217.208 465.392 L 217.208 461.185 213.002 461.185 L 208.795 461.185 208.795 426.195 L 208.795 391.205 213.002 391.205 L 217.208 391.205 217.208 395.602 L 217.208 400.000 234.608 400.000 L 252.008 400.000 252.008 395.602 L 252.008 391.205 256.597 391.205 L 261.185 391.205 261.185 395.602 L 261.185 400.000 256.597 400.000 L 252.008 400.000 252.008 408.795 L 252.008 417.591 256.405 417.591 L 260.803 417.591 260.803 413.193 L 260.803 408.795 265.201 408.795 L 269.598 408.795 269.598 391.396 L 269.598 373.996 265.201 373.996 L 260.803 373.996 260.803 369.598 L 260.803 365.201 256.405 365.201 L 252.008 365.201 252.008 373.996 L 252.008 382.792 247.801 382.792 L 243.595 382.792 243.595 386.998 L 243.595 391.205 234.799 391.205 L 226.004 391.205 226.004 386.998 L 226.004 382.792 221.606 382.792 L 217.208 382.792 217.208 378.394 L 217.208 373.996 213.002 373.996 L 208.795 373.996 208.795 369.598 L 208.795 365.201 213.002 365.201 L 217.208 365.201 217.208 360.803 L 217.208 356.405 230.402 356.405 L 243.595 356.405 243.595 360.803 L 243.595 365.201 247.801 365.201 L 252.008 365.201 252.008 352.199 L 252.008 339.197 256.405 339.197 L 260.803 339.197 260.803 334.799 L 260.803 330.402 265.201 330.402 L 269.598 330.402 269.598 326.004 L 269.598 321.606 273.996 321.606 L 278.394 321.606 278.394 330.402 M26.004 386.998 L 26.004 391.205 30.402 391.205 L 34.799 391.205 34.799 386.998 L 34.799 382.792 30.402 382.792 L 26.004 382.792 26.004 386.998 M365.201 386.998 L 365.201 391.205 369.598 391.205 L 373.996 391.205 373.996 386.998 L 373.996 382.792 369.598 382.792 L 365.201 382.792 365.201 386.998 M147.992 426.195 L 147.992 434.799 152.199 434.799 L 156.405 434.799 156.405 439.197 L 156.405 443.595 160.803 443.595 L 165.201 443.595 165.201 447.992 L 165.201 452.390 169.598 452.390 L 173.996 452.390 173.996 456.597 L 173.996 460.803 178.394 460.803 L 182.792 460.803 182.792 456.597 L 182.792 452.390 178.394 452.390 L 173.996 452.390 173.996 447.992 L 173.996 443.595 169.598 443.595 L 165.201 443.595 165.201 439.197 L 165.201 434.799 160.803 434.799 L 156.405 434.799 156.405 426.195 L 156.405 417.591 152.199 417.591 L 147.992 417.591 147.992 426.195 M243.595 426.195 L 243.595 434.799 239.197 434.799 L 234.799 434.799 234.799 439.197 L 234.799 443.595 230.402 443.595 L 226.004 443.595 226.004 447.992 L 226.004 452.390 221.606 452.390 L 217.208 452.390 217.208 456.597 L 217.208 460.803 221.606 460.803 L 226.004 460.803 226.004 456.597 L 226.004 452.390 230.402 452.390 L 234.799 452.390 234.799 447.992 L 234.799 443.595 239.197 443.595 L 243.595 443.595 243.595 439.197 L 243.595 434.799 247.801 434.799 L 252.008 434.799 252.008 426.195 L 252.008 417.591 247.801 417.591 L 243.595 417.591 243.595 426.195 M34.799 530.593 L 34.799 539.197 39.006 539.197 L 43.212 539.197 43.212 530.593 L 43.212 521.989 39.006 521.989 L 34.799 521.989 34.799 530.593 M356.788 534.799 L 356.788 539.197 360.994 539.197 L 365.201 539.197 365.201 534.799 L 365.201 530.402 360.994 530.402 L 356.788 530.402 356.788 534.799 " stroke="none" fill="#0e0e0f" fill-rule="evenodd"></path><path id="path6" d="M147.992 239.197 L 147.992 243.595 165.392 243.595 L 182.792 243.595 182.792 247.992 L 182.792 252.390 186.998 252.390 L 191.205 252.390 191.205 247.992 L 191.205 243.595 186.998 243.595 L 182.792 243.595 182.792 239.197 L 182.792 234.799 165.392 234.799 L 147.992 234.799 147.992 239.197 M217.208 239.197 L 217.208 243.595 213.002 243.595 L 208.795 243.595 208.795 247.992 L 208.795 252.390 213.002 252.390 L 217.208 252.390 217.208 247.992 L 217.208 243.595 234.608 243.595 L 252.008 243.595 252.008 239.197 L 252.008 234.799 234.608 234.799 L 217.208 234.799 217.208 239.197 " stroke="none" fill="#1bec23" fill-rule="evenodd"></path><path id="path7" d="M121.606 330.402 L 121.606 339.197 117.400 339.197 L 113.193 339.197 113.193 343.595 L 113.193 347.992 108.795 347.992 L 104.398 347.992 104.398 352.199 L 104.398 356.405 108.795 356.405 L 113.193 356.405 113.193 360.803 L 113.193 365.201 117.400 365.201 L 121.606 365.201 121.606 373.996 L 121.606 382.792 117.400 382.792 L 113.193 382.792 113.193 391.396 L 113.193 400.000 117.400 400.000 L 121.606 400.000 121.606 408.795 L 121.606 417.591 126.004 417.591 L 130.402 417.591 130.402 421.797 L 130.402 426.004 134.799 426.004 L 139.197 426.004 139.197 434.799 L 139.197 443.595 134.799 443.595 L 130.402 443.595 130.402 439.197 L 130.402 434.799 126.004 434.799 L 121.606 434.799 121.606 430.402 L 121.606 426.004 117.400 426.004 L 113.193 426.004 113.193 417.400 L 113.193 408.795 108.795 408.795 L 104.398 408.795 104.398 404.398 L 104.398 400.000 100.000 400.000 L 95.602 400.000 95.602 386.998 L 95.602 373.996 100.000 373.996 L 104.398 373.996 104.398 369.598 L 104.398 365.201 100.000 365.201 L 95.602 365.201 95.602 360.803 L 95.602 356.405 91.205 356.405 L 86.807 356.405 86.807 360.803 L 86.807 365.201 78.203 365.201 L 69.598 365.201 69.598 369.598 L 69.598 373.996 60.803 373.996 L 52.008 373.996 52.008 382.600 L 52.008 391.205 56.405 391.205 L 60.803 391.205 60.803 400.000 L 60.803 408.795 65.201 408.795 L 69.598 408.795 69.598 417.400 L 69.598 426.004 73.996 426.004 L 78.394 426.004 78.394 430.402 L 78.394 434.799 95.793 434.799 L 113.193 434.799 113.193 439.197 L 113.193 443.595 108.795 443.595 L 104.398 443.595 104.398 460.994 L 104.398 478.394 108.795 478.394 L 113.193 478.394 113.193 482.792 L 113.193 487.189 117.400 487.189 L 121.606 487.189 121.606 491.396 L 121.606 495.602 143.403 495.602 L 165.201 495.602 165.201 500.000 L 165.201 504.398 160.803 504.398 L 156.405 504.398 156.405 508.795 L 156.405 513.193 152.199 513.193 L 147.992 513.193 147.992 526.195 L 147.992 539.197 169.598 539.197 L 191.205 539.197 191.205 517.400 L 191.205 495.602 186.998 495.602 L 182.792 495.602 182.792 491.396 L 182.792 487.189 186.998 487.189 L 191.205 487.189 191.205 478.394 L 191.205 469.598 186.998 469.598 L 182.792 469.598 182.792 465.201 L 182.792 460.803 178.394 460.803 L 173.996 460.803 173.996 456.597 L 173.996 452.390 169.598 452.390 L 165.201 452.390 165.201 456.597 L 165.201 460.803 169.598 460.803 L 173.996 460.803 173.996 469.598 L 173.996 478.394 169.598 478.394 L 165.201 478.394 165.201 473.996 L 165.201 469.598 160.803 469.598 L 156.405 469.598 156.405 465.201 L 156.405 460.803 152.199 460.803 L 147.992 460.803 147.992 456.597 L 147.992 452.390 152.199 452.390 L 156.405 452.390 156.405 443.595 L 156.405 434.799 152.199 434.799 L 147.992 434.799 147.992 426.195 L 147.992 417.591 143.595 417.591 L 139.197 417.591 139.197 413.193 L 139.197 408.795 134.799 408.795 L 130.402 408.795 130.402 391.396 L 130.402 373.996 134.799 373.996 L 139.197 373.996 139.197 369.598 L 139.197 365.201 143.595 365.201 L 147.992 365.201 147.992 352.199 L 147.992 339.197 143.595 339.197 L 139.197 339.197 139.197 334.799 L 139.197 330.402 134.799 330.402 L 130.402 330.402 130.402 326.004 L 130.402 321.606 126.004 321.606 L 121.606 321.606 121.606 330.402 M269.598 326.004 L 269.598 330.402 265.201 330.402 L 260.803 330.402 260.803 334.799 L 260.803 339.197 256.405 339.197 L 252.008 339.197 252.008 352.199 L 252.008 365.201 256.405 365.201 L 260.803 365.201 260.803 369.598 L 260.803 373.996 265.201 373.996 L 269.598 373.996 269.598 391.396 L 269.598 408.795 265.201 408.795 L 260.803 408.795 260.803 413.193 L 260.803 417.591 256.405 417.591 L 252.008 417.591 252.008 426.195 L 252.008 434.799 247.801 434.799 L 243.595 434.799 243.595 443.595 L 243.595 452.390 247.801 452.390 L 252.008 452.390 252.008 456.597 L 252.008 460.803 247.801 460.803 L 243.595 460.803 243.595 465.201 L 243.595 469.598 239.197 469.598 L 234.799 469.598 234.799 473.996 L 234.799 478.394 230.402 478.394 L 226.004 478.394 226.004 469.598 L 226.004 460.803 230.402 460.803 L 234.799 460.803 234.799 456.597 L 234.799 452.390 230.402 452.390 L 226.004 452.390 226.004 456.597 L 226.004 460.803 221.606 460.803 L 217.208 460.803 217.208 465.201 L 217.208 469.598 213.002 469.598 L 208.795 469.598 208.795 478.394 L 208.795 487.189 213.002 487.189 L 217.208 487.189 217.208 491.396 L 217.208 495.602 213.002 495.602 L 208.795 495.602 208.795 517.400 L 208.795 539.197 230.402 539.197 L 252.008 539.197 252.008 526.195 L 252.008 513.193 247.801 513.193 L 243.595 513.193 243.595 508.795 L 243.595 504.398 239.197 504.398 L 234.799 504.398 234.799 500.000 L 234.799 495.602 256.597 495.602 L 278.394 495.602 278.394 491.396 L 278.394 487.189 282.600 487.189 L 286.807 487.189 286.807 482.792 L 286.807 478.394 291.205 478.394 L 295.602 478.394 295.602 460.994 L 295.602 443.595 291.205 443.595 L 286.807 443.595 286.807 439.197 L 286.807 434.799 304.207 434.799 L 321.606 434.799 321.606 430.402 L 321.606 426.004 326.004 426.004 L 330.402 426.004 330.402 417.400 L 330.402 408.795 334.799 408.795 L 339.197 408.795 339.197 400.000 L 339.197 391.205 343.595 391.205 L 347.992 391.205 347.992 382.600 L 347.992 373.996 339.197 373.996 L 330.402 373.996 330.402 369.598 L 330.402 365.201 321.797 365.201 L 313.193 365.201 313.193 360.803 L 313.193 356.405 308.795 356.405 L 304.398 356.405 304.398 360.803 L 304.398 365.201 300.000 365.201 L 295.602 365.201 295.602 369.598 L 295.602 373.996 300.000 373.996 L 304.398 373.996 304.398 386.998 L 304.398 400.000 300.000 400.000 L 295.602 400.000 295.602 404.398 L 295.602 408.795 291.205 408.795 L 286.807 408.795 286.807 417.400 L 286.807 426.004 282.600 426.004 L 278.394 426.004 278.394 430.402 L 278.394 434.799 273.996 434.799 L 269.598 434.799 269.598 439.197 L 269.598 443.595 265.201 443.595 L 260.803 443.595 260.803 434.799 L 260.803 426.004 265.201 426.004 L 269.598 426.004 269.598 421.797 L 269.598 417.591 273.996 417.591 L 278.394 417.591 278.394 408.795 L 278.394 400.000 282.600 400.000 L 286.807 400.000 286.807 391.396 L 286.807 382.792 282.600 382.792 L 278.394 382.792 278.394 373.996 L 278.394 365.201 282.600 365.201 L 286.807 365.201 286.807 360.803 L 286.807 356.405 291.205 356.405 L 295.602 356.405 295.602 352.199 L 295.602 347.992 291.205 347.992 L 286.807 347.992 286.807 343.595 L 286.807 339.197 282.600 339.197 L 278.394 339.197 278.394 330.402 L 278.394 321.606 273.996 321.606 L 269.598 321.606 269.598 326.004 M43.376 382.600 C 43.376 387.438,43.431 389.364,43.498 386.881 C 43.565 384.398,43.564 380.440,43.498 378.085 C 43.431 375.731,43.376 377.763,43.376 382.600 M356.569 382.600 C 356.570 387.438,356.624 389.364,356.691 386.881 C 356.758 384.398,356.758 380.440,356.691 378.085 C 356.624 375.731,356.569 377.763,356.569 382.600 M60.803 452.199 L 60.803 469.598 65.201 469.598 L 69.598 469.598 69.598 491.396 L 69.598 513.193 73.996 513.193 L 78.394 513.193 78.394 526.195 L 78.394 539.197 86.998 539.197 L 95.602 539.197 95.602 534.799 L 95.602 530.402 100.000 530.402 L 104.398 530.402 104.398 513.002 L 104.398 495.602 100.000 495.602 L 95.602 495.602 95.602 486.998 L 95.602 478.394 91.205 478.394 L 86.807 478.394 86.807 460.994 L 86.807 443.595 78.203 443.595 L 69.598 443.595 69.598 439.197 L 69.598 434.799 65.201 434.799 L 60.803 434.799 60.803 452.199 M330.402 439.197 L 330.402 443.595 321.797 443.595 L 313.193 443.595 313.193 460.994 L 313.193 478.394 308.795 478.394 L 304.398 478.394 304.398 486.998 L 304.398 495.602 300.000 495.602 L 295.602 495.602 295.602 513.002 L 295.602 530.402 300.000 530.402 L 304.398 530.402 304.398 534.799 L 304.398 539.197 313.002 539.197 L 321.606 539.197 321.606 526.195 L 321.606 513.193 326.004 513.193 L 330.402 513.193 330.402 491.396 L 330.402 469.598 334.799 469.598 L 339.197 469.598 339.197 452.199 L 339.197 434.799 334.799 434.799 L 330.402 434.799 330.402 439.197 M147.992 447.992 L 147.992 452.390 143.595 452.390 L 139.197 452.390 139.197 447.992 L 139.197 443.595 143.595 443.595 L 147.992 443.595 147.992 447.992 M260.803 447.992 L 260.803 452.390 256.405 452.390 L 252.008 452.390 252.008 447.992 L 252.008 443.595 256.405 443.595 L 260.803 443.595 260.803 447.992 M78.394 465.201 L 78.394 469.598 73.996 469.598 L 69.598 469.598 69.598 465.201 L 69.598 460.803 73.996 460.803 L 78.394 460.803 78.394 465.201 M330.402 465.201 L 330.402 469.598 326.004 469.598 L 321.606 469.598 321.606 465.201 L 321.606 460.803 326.004 460.803 L 330.402 460.803 330.402 465.201 M86.807 482.792 L 86.807 487.189 82.600 487.189 L 78.394 487.189 78.394 482.792 L 78.394 478.394 82.600 478.394 L 86.807 478.394 86.807 482.792 M182.792 482.792 L 182.792 487.189 178.394 487.189 L 173.996 487.189 173.996 482.792 L 173.996 478.394 178.394 478.394 L 182.792 478.394 182.792 482.792 M226.004 482.792 L 226.004 487.189 221.606 487.189 L 217.208 487.189 217.208 482.792 L 217.208 478.394 221.606 478.394 L 226.004 478.394 226.004 482.792 M321.606 482.792 L 321.606 487.189 317.400 487.189 L 313.193 487.189 313.193 482.792 L 313.193 478.394 317.400 478.394 L 321.606 478.394 321.606 482.792 M86.807 500.000 L 86.807 504.398 82.600 504.398 L 78.394 504.398 78.394 500.000 L 78.394 495.602 82.600 495.602 L 86.807 495.602 86.807 500.000 M321.606 500.000 L 321.606 504.398 317.400 504.398 L 313.193 504.398 313.193 500.000 L 313.193 495.602 317.400 495.602 L 321.606 495.602 321.606 500.000 M182.792 521.606 L 182.792 530.402 173.996 530.402 L 165.201 530.402 165.201 521.606 L 165.201 512.811 173.996 512.811 L 182.792 512.811 182.792 521.606 M234.799 521.606 L 234.799 530.402 226.004 530.402 L 217.208 530.402 217.208 521.606 L 217.208 512.811 226.004 512.811 L 234.799 512.811 234.799 521.606 " stroke="none" fill="#2c2b2b" fill-rule="evenodd"></path><path id="path8" d="M356.551 395.602 C 356.552 398.126,356.614 399.109,356.689 397.786 C 356.764 396.463,356.763 394.398,356.688 393.197 C 356.612 391.996,356.551 393.078,356.551 395.602 M339.197 508.795 L 339.197 513.193 343.595 513.193 L 347.992 513.193 347.992 508.795 L 347.992 504.398 343.595 504.398 L 339.197 504.398 339.197 508.795 M173.996 517.400 L 173.996 521.989 169.598 521.989 L 165.201 521.989 165.201 526.195 L 165.201 530.402 173.996 530.402 L 182.792 530.402 182.792 521.606 L 182.792 512.811 178.394 512.811 L 173.996 512.811 173.996 517.400 M217.208 521.606 L 217.208 530.402 226.004 530.402 L 234.799 530.402 234.799 526.195 L 234.799 521.989 230.402 521.989 L 226.004 521.989 226.004 517.400 L 226.004 512.811 221.606 512.811 L 217.208 512.811 217.208 521.606 M43.212 517.591 L 43.212 521.989 52.008 521.989 L 60.803 521.989 60.803 517.591 L 60.803 513.193 52.008 513.193 L 43.212 513.193 43.212 517.591 M330.402 526.195 L 330.402 530.402 334.799 530.402 L 339.197 530.402 339.197 526.195 L 339.197 521.989 334.799 521.989 L 330.402 521.989 330.402 526.195 M43.595 534.799 L 43.595 539.197 47.801 539.197 L 52.008 539.197 52.008 534.799 L 52.008 530.402 47.801 530.402 L 43.595 530.402 43.595 534.799 M356.551 534.799 C 356.552 537.323,356.614 538.306,356.689 536.983 C 356.764 535.660,356.763 533.595,356.688 532.394 C 356.612 531.193,356.551 532.275,356.551 534.799 " stroke="none" fill="#546c24" fill-rule="evenodd"></path></g></svg>